<?xml version="1.0" encoding="UTF-8" standalone="no"?>
<!-- Created with Inkscape (http://www.inkscape.org/) -->

<svg
   xmlns:dc="http://purl.org/dc/elements/1.1/"
   xmlns:cc="http://creativecommons.org/ns#"
   xmlns:rdf="http://www.w3.org/1999/02/22-rdf-syntax-ns#"
   xmlns:svg="http://www.w3.org/2000/svg"
   xmlns="http://www.w3.org/2000/svg"
   xmlns:sodipodi="http://sodipodi.sourceforge.net/DTD/sodipodi-0.dtd"
   xmlns:inkscape="http://www.inkscape.org/namespaces/inkscape"
   version="1.1"
   id="svg2"
   width="236.8"
   height="44.799999"
   viewBox="0 0 236.8 44.799999"
   sodipodi:docname="system.svg"
   inkscape:version="0.92.4 (5da689c313, 2019-01-14)">
  <metadata
     id="metadata8">
    <rdf:RDF>
      <cc:Work
         rdf:about="">
        <dc:format>image/svg+xml</dc:format>
        <dc:type
           rdf:resource="http://purl.org/dc/dcmitype/StillImage" />
        <dc:title></dc:title>
      </cc:Work>
    </rdf:RDF>
  </metadata>
  <defs
     id="defs6" />
  <sodipodi:namedview
     pagecolor="#ffffff"
     bordercolor="#666666"
     borderopacity="1"
     objecttolerance="10"
     gridtolerance="10"
     guidetolerance="10"
     inkscape:pageopacity="0"
     inkscape:pageshadow="2"
     inkscape:window-width="750"
     inkscape:window-height="480"
     id="namedview4"
     showgrid="false"
     inkscape:zoom="1.397804"
     inkscape:cx="160.17649"
     inkscape:cy="22.4"
     inkscape:window-x="411"
     inkscape:window-y="170"
     inkscape:window-maximized="0"
     inkscape:current-layer="svg2" />
  <path
     style="fill:#ff0000;stroke-width:0.31999999"
     d="m 13.422134,30.159999 c -0.0098,-6.468 -0.04583,-12.911999 -0.08,-14.319999 L 13.28,13.28 8.88,13.190969 4.48,13.101939 V 8.3109694 3.5199999 h 14.24 14.24 v 4.7907119 4.7907122 l -4.24,0.08929 -4.24,0.08929 -0.08329,14.319999 -0.08329,14.32 H 18.876706 13.44 Z M 36.16,22.712262 V 3.5045254 l 5.36,0.087737 5.36,0.087737 L 46.921514,18.4 c 0.02282,8.095999 -0.03454,16.699999 -0.127485,19.119999 l -0.169002,4.4 H 41.392515 36.16 Z M 63.743632,41.438873 C 54.542221,39.771519 49.546266,32.517263 49.995418,21.476106 50.11097,18.635632 50.32009,17.307587 50.882915,15.84 52.551395,11.489387 56.10136,7.3368482 59.626678,5.6120709 63.238278,3.8450806 63.950806,3.7573065 75.92,3.6049538 L 87.04,3.4634108 V 8.2917051 13.12 l -8.56,0.0047 c -9.522838,0.0053 -11.422285,0.261144 -14.080656,1.896856 -6.075978,3.738586 -5.983043,13.254187 0.158403,16.21923 1.703728,0.822547 2.197165,0.899184 6.562253,1.019184 l 4.72,0.129757 V 29.794848 27.19997 h -4.16 -4.16 v -4.8 V 17.6 h 9.76 9.76 v 12.159999 12.16 L 76.56,41.891135 C 69.375962,41.871327 65.345213,41.729106 63.743632,41.438889 Z m 32.247216,-0.247658 c -2.85169,-0.972233 -4.86272,-2.688656 -6.103779,-5.209606 -0.908586,-1.8456 -0.985965,-2.244762 -0.876794,-4.522928 0.138995,-2.900528 0.884445,-4.696994 3.054653,-7.361422 l 1.39391,-1.711346 -0.953964,-1.192957 C 89.879888,17.910356 88.933373,13.277107 90.201942,9.9199998 91.1512,7.407916 92.485197,5.9551624 94.963603,4.7344441 L 97.104426,3.6799999 107.91221,3.5772889 118.72,3.4745778 V 8.2972888 13.12 h -7.05589 c -5.66752,0 -7.2398,0.0951 -7.99052,0.483312 -1.7477,0.903772 -2.07369,2.473735 -0.76847,3.700907 0.81802,0.769097 0.88969,0.776611 8.32,0.87222 l 7.49488,0.09644 V 23.05644 27.84 h -7.47684 c -7.07959,0 -7.52165,0.03524 -8.32,0.663226 -1.03159,0.811443 -1.12397,2.255969 -0.20316,3.176774 0.62204,0.622035 1.06667,0.64 15.84,0.64 h 15.2 v 4.8 4.8 L 115.92,41.9117 C 98.32665,41.903583 98.051117,41.893631 95.990848,41.191221 Z M 141.76,35.512172 c 0,-6.390971 -0.004,-6.424969 -0.78546,-7.206718 -0.6607,-0.660706 -1.0927,-0.785455 -2.72,-0.785455 H 136.32 v -4.96 V 17.6 h 3.36 c 2.93333,0 3.44127,-0.08127 4,-0.64 0.80648,-0.806485 0.81782,-1.949242 0.029,-2.924549 -0.58566,-0.724129 -0.81122,-0.759724 -5.44,-0.858506 l -4.829,-0.103054 v 8.343054 8.343054 h -5.6 -5.6 V 16.8 3.8399999 h 11.29277 c 9.04168,0 11.66278,0.096375 13.14894,0.4834717 3.57175,0.9303232 6.35458,3.145333 7.83525,6.2365284 0.71835,1.499687 0.84304,2.186961 0.84304,4.646728 0,2.610136 -0.0996,3.089139 -1.03998,4.999225 -0.5852,1.188712 -1.65365,2.678161 -2.44332,3.406051 l -1.40334,1.293554 1.0895,1.055986 c 1.22139,1.183818 1.80782,2.900127 1.66535,4.873995 l -0.0956,1.32446 h 27.73031 c 27.67963,0 27.73195,-0.0013 28.63369,-0.672687 1.37741,-1.025653 1.62863,-2.100261 0.91114,-3.897351 -0.33157,-0.830479 -0.66186,-2.340137 -0.73397,-3.354796 -0.12338,-1.735967 -0.0711,-1.900933 0.88655,-2.795474 1.79997,-1.681427 4.18482,-1.902015 6.71967,-0.621539 3.62434,1.830827 5.66804,6.994375 4.66753,11.792836 -0.75047,3.599306 -2.79446,6.080774 -6.68138,8.111398 l -1.98615,1.037613 -35.76,0.08672 -35.76,0.08672 z m 85.89116,6.042035 c -1.4332,-0.385526 -2.59395,-1.604793 -3.01445,-3.166438 -0.70598,-2.621792 0.93165,-5.087235 3.73053,-5.616304 1.32039,-0.249594 3.7106,0.801472 4.47476,1.967721 0.7582,1.157156 0.73436,3.871021 -0.0444,5.059613 -0.99697,1.521565 -3.2098,2.276352 -5.14641,1.755408 z m 3.69164,-1.711552 c 0.67651,-0.676509 0.8172,-1.117709 0.8172,-2.562656 0,-1.480934 -0.13446,-1.87992 -0.88727,-2.632726 -0.70412,-0.704119 -1.18152,-0.887274 -2.31273,-0.887274 -1.13121,0 -1.60861,0.183155 -2.31273,0.887274 -0.74948,0.749485 -0.88727,1.154237 -0.88727,2.606403 0,1.803549 0.58206,2.839949 1.92,3.41871 1.03325,0.446957 2.78233,0.05074 3.6628,-0.829731 z M 227.2,37.279999 v -2.4 h 1.41714 c 2.16596,0 3.17293,1.358339 1.74725,2.356925 -0.63458,0.444477 -0.64429,0.517914 -0.16,1.209347 0.62156,0.887402 0.65198,1.233728 0.10838,1.233728 -0.22398,0 -0.67865,-0.504 -1.01039,-1.12 -0.33174,-0.616 -0.72449,-1.12 -0.87277,-1.12 -0.14829,0 -0.26961,0.504 -0.26961,1.12 0,0.782221 -0.14476,1.12 -0.48,1.12 -0.384,0 -0.48,-0.48 -0.48,-2.4 z m 2.72,-1.12 c 0,-0.285757 -0.35611,-0.520976 -0.88,-0.581254 -0.71659,-0.08245 -0.88,0.02547 -0.88,0.581254 0,0.55577 0.16341,0.663709 0.88,0.581255 0.52389,-0.06028 0.88,-0.295498 0.88,-0.581255 z M 6.208,20.352 C 5.3312352,19.475235 5.12,19.014041 5.12,17.976552 c 0,-2.665508 2.7175776,-4.326555 5.035896,-3.078058 2.210657,1.190517 2.547717,3.807124 0.725187,5.629654 C 9.522545,21.886685 7.6729677,21.816967 6.208,20.352 Z m 20.48,0 C 25.811235,19.475235 25.6,19.014041 25.6,17.976552 c 0,-2.617065 2.631683,-4.271294 4.999105,-3.142349 3.318108,1.582295 2.150287,6.605797 -1.535657,6.605797 -1.03749,0 -1.498683,-0.211236 -2.375448,-1.088 z"
     id="path817"
     inkscape:connector-curvature="0" />
</svg>
