<?xml version="1.0" encoding="UTF-8" standalone="no"?>
<!-- Created with Inkscape (http://www.inkscape.org/) -->

<svg
   xmlns:dc="http://purl.org/dc/elements/1.1/"
   xmlns:cc="http://creativecommons.org/ns#"
   xmlns:rdf="http://www.w3.org/1999/02/22-rdf-syntax-ns#"
   xmlns:svg="http://www.w3.org/2000/svg"
   xmlns="http://www.w3.org/2000/svg"
   xmlns:sodipodi="http://sodipodi.sourceforge.net/DTD/sodipodi-0.dtd"
   xmlns:inkscape="http://www.inkscape.org/namespaces/inkscape"
   version="1.1"
   id="svg2"
   width="128"
   height="112"
   viewBox="0 0 128 112"
   sodipodi:docname="controller.svg"
   inkscape:version="0.92.4 (5da689c313, 2019-01-14)">
  <metadata
     id="metadata8">
    <rdf:RDF>
      <cc:Work
         rdf:about="">
        <dc:format>image/svg+xml</dc:format>
        <dc:type
           rdf:resource="http://purl.org/dc/dcmitype/StillImage" />
        <dc:title></dc:title>
      </cc:Work>
    </rdf:RDF>
  </metadata>
  <defs
     id="defs6" />
  <sodipodi:namedview
     pagecolor="#ffffff"
     bordercolor="#666666"
     borderopacity="1"
     objecttolerance="10"
     gridtolerance="10"
     guidetolerance="10"
     inkscape:pageopacity="0"
     inkscape:pageshadow="2"
     inkscape:window-width="640"
     inkscape:window-height="480"
     id="namedview4"
     showgrid="false"
     inkscape:zoom="2.1071429"
     inkscape:cx="64"
     inkscape:cy="56"
     inkscape:window-x="522"
     inkscape:window-y="187"
     inkscape:window-maximized="0"
     inkscape:current-layer="svg2" />
  <path
     style="fill:#800000;stroke-width:0.31999999"
     d="m 74.320885,106.64542 c -0.55506,-0.69933 -1.03697,-2.58699 -1.28261,-5.02401 -0.15526,-1.54036 -0.39014,-2.414344 -0.67418,-2.5086 -0.35483,-0.117751 -0.38807,0.234505 -0.1787,1.89398 0.45576,3.61247 0.40882,3.97169 -0.50539,3.86714 -0.44,-0.0503 -1.22154,-0.12231 -1.73674,-0.16 -0.97098,-0.071 -1.42798,-0.88506 -1.56548,-2.78851 -0.0824,-1.14107 -0.97139,-1.0211 -1.18564,0.16 -0.13371,0.73708 -0.32021,0.9342 -0.80315,0.84891 -0.34594,-0.0611 -1.13083,-0.1331 -1.74419,-0.16 -0.84182,-0.0369 -1.1436,-0.2058 -1.23106,-0.68891 -0.17243,-0.95247 -0.58963,-1.257 -1.73862,-1.2691 -0.92489,-0.01 -1.03887,-0.11276 -1.07423,-0.970896 -0.0218,-0.528 -0.26608,-2.048006 -0.54294,-3.377792 -0.27686,-1.329782 -0.59282,-3.921469 -0.70214,-5.759299 -0.1432,-2.407287 -0.32696,-3.413248 -0.65729,-3.598109 -0.61569,-0.344554 -0.6321,-4.311702 -0.0215,-5.193597 0.24036,-0.347161 0.52588,-1.855203 0.63448,-3.351203 0.1086,-1.496 0.41342,-4.016 0.67738,-5.6 0.58696,-3.522294 0.5904,-3.666947 0.0911,-3.833584 -0.22,-0.07342 -2.776,-1.019597 -5.68,-2.102605 -2.904,-1.083011 -6.72,-2.469485 -8.48,-3.081056 -3.73652,-1.298377 -8.100707,-2.923277 -11.040003,-4.110477 -2.557744,-1.033091 -4.78787,-1.744214 -5.484387,-1.748816 -0.622286,-0.0041 -0.768336,0.668845 -1.24933,5.756538 -0.393045,4.157405 -0.450384,12.947955 -0.08828,13.533853 0.131128,0.212169 0.195188,0.797862 0.142355,1.301539 -0.114653,1.093046 0.621516,6.284605 0.891165,6.284614 0.302693,1e-5 0.326887,2.855565 0.02577,3.041664 -0.15045,0.09299 -1.094648,0.07256 -2.098216,-0.04539 -1.418293,-0.166691 -1.860138,-0.350089 -1.983929,-0.823465 -0.09455,-0.361575 -0.342114,-0.538842 -0.609319,-0.436307 -0.247532,0.09499 -0.532013,-0.04087 -0.632181,-0.301901 -0.12907,-0.336405 -0.673218,-0.474607 -1.868684,-0.474607 -0.967901,0 -1.820833,-0.170448 -2.00164,-0.4 -0.404949,-0.514128 -0.844308,-2.165155 -0.758858,-2.851651 0.0364,-0.29241 -0.07842,-0.621021 -0.25516,-0.73025 -0.176735,-0.109225 -0.240219,-0.409984 -0.141076,-0.668349 0.276554,-0.720688 -0.120599,-1.443283 -0.676099,-1.230118 -0.494733,0.189846 -0.6707,1.115114 -0.285355,1.500458 0.113717,0.113718 0.24181,0.652342 0.284651,1.196944 0.09507,1.208547 -0.519147,1.52807 -1.589393,0.826819 C 15.714988,83.053594 15.69211,82.976384 14.734901,77.605424 13.478984,70.558397 14.340044,52.930851 16.043422,50.817491 16.28354,50.519581 17.56,49.262512 18.88,48.02401 c 2.236585,-2.098496 4.767803,-4.524292 15.115318,-14.485776 2.232234,-2.148957 4.339367,-4.457526 4.682517,-5.130153 0.71271,-1.39703 1.32217,-4.345891 1.32217,-6.397319 0,-0.768416 0.20395,-1.785969 0.45322,-2.261229 0.24928,-0.47526 2.24212,-2.628109 4.42854,-4.784109 3.01314,-2.971218 4.17494,-3.92 4.8001,-3.92 1.09607,0 1.23521,0.549042 0.50698,2.000463 -0.79478,1.584042 -1.64778,4.960166 -1.40986,5.580164 0.30063,0.783441 1.02954,-0.04229 1.25937,-1.426668 0.32489,-1.956996 1.68319,-4.553959 2.38187,-4.553959 0.33532,0 1.28105,-0.59097 2.10162,-1.313267 1.16547,-1.02589 1.47293,-1.4985533 1.40505,-2.1599999 -0.0784,-0.7640038 0.0851,-0.9049462 1.67311,-1.4425401 3.67272,-1.2433133 9.06946,-0.2991978 11.75173,2.0558687 0.5888,0.5169663 1.19451,0.9399383 1.34604,0.9399383 0.64011,0 2.33046,3.315749 2.95904,5.80438 0.3717,1.471591 0.79046,2.82411 0.93057,3.005599 0.14012,0.181488 1.01927,0.589714 1.95368,0.907169 0.93442,0.317456 1.98694,0.70835 2.33894,0.868653 0.352,0.160304 2.08,0.779891 3.84,1.37686 1.76,0.59697 5.288,1.828961 7.84,2.737758 2.552,0.908797 7.016,2.481549 9.919995,3.495005 4.49843,1.56989 5.29514,1.946406 5.38226,2.543611 0.14615,1.001899 1.19381,0.893634 2.50663,-0.259035 0.60136,-0.528 1.28016,-0.96 1.50845,-0.96 0.62232,0 4.62701,4.404166 4.74244,5.215504 0.0551,0.387472 0.008,2.360496 -0.10495,4.384496 -0.11284,2.024 -0.36665,6.704 -0.56401,10.4 -0.57215,10.714653 -1.29878,22.63159 -1.44765,23.741738 -0.18634,1.389648 -1.16641,2.628816 -3.67033,4.640646 -1.16206,0.93369 -2.54704,2.129616 -3.07773,2.657616 -0.53069,0.528 -1.46669,1.392915 -2.08,1.922038 -0.61331,0.52912 -2.55511,2.230221 -4.315105,3.780224 -1.76,1.550007 -3.56,3.124925 -4,3.499824 -3.29656,2.8088 -8.27627,7.16914 -8.82156,7.724336 -0.36386,0.370468 -1.50324,1.393578 -2.53195,2.273574 -1.02872,0.88 -3.164,2.716 -4.74508,4.08 -2.90223,2.50377 -4.17791,3.04084 -4.94053,2.08 z m 2.71912,-1.36925 c 0.66,-0.62109 2.892,-2.58208 4.96,-4.35776 2.068,-1.775671 3.76,-3.431207 3.76,-3.67896 0,-0.379133 -0.14894,-0.373444 -0.94058,0.03593 -0.51732,0.267514 -1.12932,0.741715 -1.36,1.053779 -0.23068,0.312064 -0.83476,0.832874 -1.34239,1.157357 -0.50763,0.324478 -1.71148,1.365974 -2.67521,2.314434 -0.96373,0.94846 -1.93477,1.72447 -2.15785,1.72447 -1.17736,0 -1.72796,-2.3887 -2.05233,-8.903631 -0.30352,-6.096234 -0.0348,-11.208685 0.86242,-16.405232 0.48437,-2.805565 0.73346,-3.52808 1.52253,-4.416288 0.51887,-0.584071 5.09986,-5.258848 10.17997,-10.388394 5.08011,-5.129549 9.65681,-9.770409 10.17044,-10.313024 1.26381,-1.33512 2.099075,-3.674541 2.819475,-7.896816 l 0.60316,-3.535152 3.30518,-3.326893 c 1.81785,-1.829792 3.78493,-3.62663 4.3713,-3.992972 l 1.06612,-0.66608 1.50487,1.482243 c 1.74393,1.717702 2.39994,1.907805 2.07825,0.602243 -0.29354,-1.191306 -1.67332,-2.959856 -2.57736,-3.303574 -0.4059,-0.15432 -0.738,-0.500151 -0.738,-0.768506 0,-1.307164 -1.88379,0.08151 -6.72067,4.954291 -4.239715,4.271178 -4.799185,5.024944 -4.799705,6.466531 -6.4e-4,1.821421 -0.85401,5.458356 -1.74119,7.420845 -0.68808,1.522061 -1.75322,2.779373 -5.47633,6.464311 -2.54216,2.516099 -4.6221,4.727904 -4.6221,4.915116 0,0.187216 -0.40677,0.590276 -0.90393,0.89569 -0.49716,0.305411 -1.37608,1.095296 -1.95315,1.755296 -0.57707,0.66 -1.30822,1.2 -1.62477,1.2 -0.33741,0 -0.70718,0.364109 -0.8937,0.88 -0.17498,0.484 -1.53915,1.96 -3.03149,3.28 -2.65918,2.352099 -3.75296,3.853597 -3.75296,5.151894 0,0.3576 -0.14183,0.915184 -0.31517,1.239076 -1.20367,2.249075 -1.86985,17.884812 -1.0093,23.689026 0.8462,5.7074 1.02584,6.26751 2.04447,6.37474 0.132,0.0139 0.78,-0.4829 1.44,-1.10399 z m -5.9957,-2.45542 c -0.56373,-0.52519 -0.6596,-0.85702 -0.4785,-1.65606 0.23055,-1.0172 0.32403,-3.679845 0.1699,-4.839266 -0.12961,-0.975034 0.29412,-12.967821 0.48514,-13.73063 0.0922,-0.368154 0.30245,-1.96537 0.46724,-3.54937 0.16479,-1.584 0.38832,-3.479478 0.49673,-4.212173 0.1702,-1.150352 0.10211,-1.383008 -0.49886,-1.70464 -0.38278,-0.204857 -0.87343,-0.304371 -1.09033,-0.221139 -1.70317,0.653568 -2.78342,16.344051 -1.78851,25.977952 0.50157,4.856846 0.55953,5.048626 1.47279,4.874046 0.42645,-0.0815 0.8703,0.005 0.98632,0.19311 0.14075,0.22773 0.25623,0.20548 0.34701,-0.0669 0.0748,-0.2245 -0.18119,-0.70373 -0.56893,-1.06497 z m -1.07097,-7.82866 c -0.33196,-0.331959 -0.25083,-1.386666 0.10667,-1.386666 0.176,0 0.32,0.36 0.32,0.8 0,0.837779 -0.0739,0.939414 -0.42667,0.586666 z m -0.52844,-10.40778 c 0.003,-0.758387 0.14449,-1.594886 0.31511,-1.858886 0.22231,-0.344013 0.31158,-0.0094 0.3151,1.181114 0.003,0.913612 -0.1391,1.750112 -0.3151,1.858886 -0.19468,0.120314 -0.31808,-0.342272 -0.31511,-1.181114 z m -3.19496,15.070214 c -0.18693,-1.127004 -0.43184,-4.380543 -0.54426,-7.230082 -0.11242,-2.84954 -0.31835,-5.36537 -0.45764,-5.590733 -0.5093,-0.824061 -0.76634,0.166457 -0.69578,2.681165 0.0397,1.416278 -0.0515,2.796208 -0.20278,3.066508 -0.61192,1.09344 -0.69294,-1.600147 -0.37106,-12.335958 0.0119,-0.396 0.16559,-0.72 0.34159,-0.72 0.18947,0 0.32,1.167037 0.32,2.861114 0,2.63039 0.29635,3.713792 0.79513,2.906764 0.10964,-0.177408 0.2473,-1.079756 0.3059,-2.005219 0.15746,-2.486598 1.39602,-9.674397 1.83187,-10.630976 0.45942,-1.008317 0.18422,-1.328934 -1.38863,-1.61784 -1.08317,-0.19896 -1.21602,-0.138032 -1.68767,0.774042 -0.28157,0.544499 -0.74627,2.538477 -1.03266,4.431056 -0.99075,6.547312 -0.59753,22.850592 0.60681,25.158385 0.28349,0.54323 0.35731,0.55175 0.81497,0.0941 0.42856,-0.42857 0.44939,-0.75467 0.14031,-2.197333 -0.56716,-2.647274 -0.73985,-4.414093 -0.43143,-4.414093 0.28527,0 0.5768,1.583811 0.88352,4.8 0.21855,2.291686 0.37441,2.755466 0.78726,2.342606 0.21921,-0.21921 0.2142,-0.98889 -0.0155,-2.373506 z m 12.49818,0.813286 c 0.77654,-0.801676 1.77189,-1.654012 2.21189,-1.894079 0.44,-0.240064 1.376,-0.98864 2.08,-1.663501 0.704,-0.674864 1.676,-1.481846 2.16,-1.793292 1.09568,-0.705056 1.12834,-1.191514 0.08,-1.191514 -0.44,0 -0.8,-0.165606 -0.8,-0.368013 0,-0.202406 -0.42216,0.214755 -0.93813,0.927027 -1.12381,1.551383 -3.06358,3.096589 -3.52741,2.809927 -0.20199,-0.124842 0.17583,-0.955498 0.95952,-2.109539 1.2778,-1.881648 1.28611,-1.912698 0.71937,-2.69145 -0.31534,-0.433312 -0.67766,-0.792365 -0.80514,-0.797898 -0.31303,-0.01357 -1.20821,1.75282 -1.20821,2.384096 0,0.278266 -0.252,0.595306 -0.56,0.704532 -0.308,0.109228 -0.809,0.41231 -1.11333,0.673516 -0.49263,0.42282 -0.57628,0.41512 -0.7625,-0.07016 -0.11504,-0.299792 -0.12898,-1.429306 -0.031,-2.510032 0.098,-1.080727 0.0401,-2.223047 -0.12876,-2.538484 -0.37938,-0.708869 0.16182,-1.853522 0.87636,-1.853522 0.27405,0 0.86441,0.288 1.3119,0.64 0.44749,0.352 1.14377,0.64 1.54728,0.64 0.44145,0 1.04546,0.398413 1.51652,1.000323 0.75888,0.969664 0.7994,0.981923 1.322,0.4 1.20463,-1.341353 3.72025,-5.127472 4.02954,-6.06463 0.18177,-0.550768 0.68633,-1.163527 1.12124,-1.361687 0.44537,-0.202924 0.79074,-0.631379 0.79074,-0.980972 0,-1.035629 0.36937,-1.667645 1.14752,-1.963498 0.50243,-0.191024 0.85509,-0.707952 1.09773,-1.609027 0.42648,-1.583866 0.24435,-2.220509 -0.63522,-2.220509 -0.38817,0 -0.65004,-0.21064 -0.65004,-0.522874 0,-0.714547 0.68865,-3.072812 1.0298,-3.526518 0.34838,-0.463322 -0.005,-2.017258 -0.62081,-2.726771 -0.67481,-0.778013 -0.23068,-4.261354 0.88326,-6.927415 0.74039,-1.772022 1.06027,-2.188416 1.87543,-2.441257 0.69863,-0.216695 1.16146,-0.684941 1.60074,-1.619488 0.33988,-0.723059 1.29534,-1.869709 2.12324,-2.548112 1.24692,-1.021757 1.60384,-1.171911 2.07952,-0.874845 0.711275,0.444205 1.451255,-0.275725 1.133775,-1.103062 -0.11365,-0.29617 -0.031,-0.647028 0.18363,-0.779684 0.30575,-0.188966 0.30329,-0.345993 -0.0114,-0.725129 -0.30563,-0.368256 -0.315,-0.645818 -0.0392,-1.161162 0.19934,-0.372473 0.30961,-0.921677 0.24504,-1.220454 -0.0796,-0.368547 -0.35592,-0.08019 -0.85918,0.896771 -0.493125,0.957283 -4.406545,5.092083 -11.674195,12.334586 l -10.9324,10.894588 -0.36485,1.961863 c -0.20067,1.079024 -0.29101,2.244208 -0.20077,2.589299 0.0902,0.345088 0.007,0.724186 -0.1838,0.842435 -0.59192,0.365827 -0.39367,1.730202 0.30579,2.104544 0.53869,0.288295 0.75507,0.224599 1.23016,-0.362105 0.66697,-0.823674 1.63618,-0.642672 1.63618,0.305564 0,0.960752 -0.70769,1.312096 -2.33551,1.159504 l -1.50445,-0.141033 v 1.037491 c 0,0.570618 0.13801,1.518733 0.3067,2.106922 0.23568,0.821753 0.19241,1.243884 -0.18685,1.8227 -0.37624,0.574221 -0.4544,1.308343 -0.32881,3.088458 0.0906,1.284352 0.2308,3.631184 0.31153,5.215184 0.16422,3.22267 0.49198,5.279996 0.84115,5.279996 0.12787,0 0.86785,-0.65592 1.64439,-1.45761 z m -0.88065,-2.883896 c -0.26671,-0.695028 0.41038,-1.348644 0.89503,-0.864 0.40961,0.409612 0.15585,1.36551 -0.36249,1.36551 -0.18705,0 -0.42669,-0.22568 -0.53254,-0.50151 z m 0.11483,-9.661664 c -0.76636,-0.173213 -0.51566,-0.849824 0.36277,-0.979082 0.45167,-0.06646 0.69494,0.06695 0.69494,0.381114 0,0.595744 -0.30491,0.768118 -1.05771,0.597968 z m 4.31424,-1.890308 c 0.15567,-0.802662 0.8143,-0.871052 1.21306,-0.125964 0.31447,0.58759 0.26197,0.659446 -0.4818,0.659446 -0.60721,0 -0.80652,-0.145408 -0.73126,-0.533482 z m -4.80023,-0.642553 c 0.0729,-0.378551 0.39233,-0.583965 0.90808,-0.583965 1.13865,0 1.04013,0.932006 -0.11246,1.063965 -0.73426,0.08406 -0.88655,-0.0078 -0.79562,-0.48 z m 7.39295,-2.844672 c 0.0546,-1.869504 -0.0385,-2.483869 -0.40925,-2.698093 -1.2753,-0.736966 -1.6264,-1.160058 -1.41654,-1.706954 0.14753,-0.384454 0.48699,-0.537321 1.04716,-0.471558 0.66311,0.07785 0.88468,0.334803 1.10797,1.284906 0.35564,1.513216 1.14625,1.782144 2.76254,0.939686 0.67952,-0.354189 1.32176,-0.557722 1.42718,-0.452298 0.42011,0.420112 0.15215,1.075892 -0.54847,1.342266 -0.48206,0.18328 -0.87404,0.728269 -1.1241,1.56289 -0.27447,0.916083 -0.70734,1.472294 -1.51813,1.950672 -0.62381,0.368054 -1.1938,0.66919 -1.26665,0.66919 -0.0729,0 -0.10061,-1.089318 -0.0617,-2.420707 z m 1.77594,-0.490455 c 0.47767,-0.76486 0.31133,-1.09575 -0.41139,-0.818412 -0.49271,0.189068 -0.71166,1.489574 -0.25078,1.489574 0.13366,0 0.43164,-0.302022 0.66217,-0.671162 z m -6.46188,1.73249 c 0.11854,-0.472269 0.40839,-1.228269 0.64413,-1.68 0.23574,-0.451731 0.4295,-1.001328 0.43058,-1.221328 0.002,-0.43801 1.78272,-0.564205 2.04198,-0.14472 0.0868,0.140403 0.0363,0.451853 -0.11221,0.692112 -0.17972,0.290787 -0.0389,0.624176 0.42111,0.997178 0.83432,0.676467 0.53635,1.143977 -0.36883,0.578684 -0.56571,-0.353289 -0.74441,-0.279667 -1.4996,0.617831 -1.08488,1.289302 -1.86056,1.369126 -1.55716,0.160243 z m -1.80331,-4.566272 c 0,-0.343718 0.16711,-0.991718 0.37136,-1.44 0.28063,-0.615917 0.28132,-1.012682 0.003,-1.623917 -0.28242,-0.619843 -0.27643,-0.956352 0.0256,-1.44 0.57687,-0.923821 1.52014,-0.819043 1.52014,0.168861 0,0.465456 0.184,0.8 0.44,0.8 0.64777,0 0.93858,1.867126 0.3781,2.42761 -0.2509,0.250899 -0.54732,0.743328 -0.65871,1.094284 -0.28532,0.89897 -2.07939,0.910327 -2.07939,0.01316 z m 8.78684,-1.316346 c -0.11601,-0.187708 -0.13072,-0.4215 -0.0327,-0.519532 0.26324,-0.263245 1.16584,0.147686 1.16584,0.53078 0,0.43432 -0.86307,0.425754 -1.13316,-0.01123 z m 1.13805,-1.01871 c 0.003,-0.22 0.14071,-0.614797 0.30668,-0.877325 0.39491,-0.624637 1.14053,0.04725 0.86096,0.775815 -0.22835,0.595068 -1.17469,0.67734 -1.16764,0.10151 z m -4.80489,-3.261114 c 0,-1.100358 -0.46751,-1.259107 -0.96585,-0.327964 -0.64446,1.204185 -1.3782,1.037107 -1.10195,-0.250922 0.30576,-1.425578 0.42205,-1.564742 1.21614,-1.455312 0.44662,0.06155 0.65934,-0.05833 0.60043,-0.338371 -0.13887,-0.660157 0.56154,-1.326317 1.39451,-1.326317 0.4097,0 0.87653,-0.235194 1.0374,-0.52265 0.31186,-0.557248 2.13682,-1.453184 2.40789,-1.182112 0.15534,0.155344 -0.0329,2.078548 -0.28374,2.899367 -0.17895,0.585491 -1.01471,0.144585 -1.22096,-0.644115 l -0.1792,-0.685236 -0.75296,0.707373 c -0.41413,0.389056 -0.92368,0.707373 -1.13234,0.707373 -0.46177,0 -0.50089,0.527123 -0.0594,0.8 0.176,0.108774 0.32,0.693274 0.32,1.298886 0,0.88778 -0.124,1.101114 -0.64,1.101114 -0.4652,0 -0.64,-0.213334 -0.64,-0.781114 z m 3.59231,0.405431 c -0.28758,-0.287581 -0.2119,-0.644048 0.32267,-1.52 0.69487,-1.138611 1.46733,-1.914733 1.92502,-1.934141 0.55703,-0.02362 0.17607,1.716339 -0.59799,2.731174 -0.91836,1.204042 -1.09237,1.280298 -1.6497,0.722967 z m -1.49865,-0.242205 c -0.10126,-0.16384 -0.0378,-0.388339 0.14112,-0.498886 0.17887,-0.110548 0.32522,0.02349 0.32522,0.297888 0,0.562089 -0.19202,0.644851 -0.46634,0.200998 z m 3.02634,-7.843226 c 0,-0.573555 0.5287,-0.925443 0.97553,-0.649283 0.22938,0.141763 0.21698,0.350227 -0.0392,0.658887 -0.4835,0.582585 -0.93635,0.577942 -0.93635,-0.0096 z m -25.79202,33.369316 c -0.10938,-0.176989 -0.36802,-0.147357 -0.63295,0.07252 -0.24639,0.204488 -0.36475,0.506468 -0.26302,0.671074 0.10938,0.17699 0.36802,0.14736 0.63295,-0.0725 0.2464,-0.20449 0.36475,-0.506472 0.26302,-0.671076 z m 5.24746,-0.400199 c -0.05249,-0.367401 -0.22375,-0.668003 -0.38057,-0.668003 -0.49023,0 -0.94674,1.006912 -0.72201,1.59254 0.17794,0.463726 0.2989,0.489666 0.70636,0.1515 0.27041,-0.22442 0.44871,-0.708638 0.39622,-1.076037 z m -5.37544,-1.502726 c 0,-0.569795 -1.10652,-0.149783 -1.22491,0.46495 -0.0961,0.499191 -0.0163,0.531504 0.55633,0.225066 0.36771,-0.196794 0.66858,-0.507303 0.66858,-0.690016 z m 4.736,-0.989277 c 0.45916,-0.459168 0.51192,-1.536 0.0753,-1.536 -0.33656,0 -0.97126,1.031821 -0.97126,1.578963 0,0.452778 0.42042,0.432618 0.896,-0.04296 z m 4.44983,-1.936 c -0.0763,-0.396 -0.13868,-0.072 -0.13868,0.72 0,0.792 0.0624,1.116 0.13868,0.72 0.0763,-0.396 0.0763,-1.044 0,-1.44 z m 16.18282,1.057437 c 0.56724,-0.51841 1.96735,-1.722026 3.11135,-2.674704 1.144,-0.952675 2.70438,-2.316141 3.46751,-3.029923 0.76313,-0.713783 1.84313,-1.675364 2.4,-2.136845 1.374,-1.138653 2.70355,-2.301395 4.592105,-4.015965 3.221,-2.924278 5.4308,-4.84463 7.38038,-6.413693 1.87189,-1.506534 2.5228,-2.543341 1.6,-2.548579 -0.22,-0.0013 -1.264,0.852989 -2.32,1.898307 -1.90313,1.883872 -3.21867,3.045536 -7.99966,7.063965 -1.361095,1.144 -3.573975,3.089088 -4.917525,4.322416 -1.34355,1.233331 -3.34344,2.961331 -4.4442,3.84 -1.10076,0.878672 -2.0747,1.813584 -2.16431,2.077584 -0.0896,0.264 -0.62899,0.696 -1.19861,0.96 -0.56963,0.264 -1.08225,0.732 -1.13916,1.04 -0.15291,0.827629 0.46689,0.682349 1.63212,-0.382563 z m -25.74934,-1.857437 c -0.0798,-0.96391 -0.24097,-1.220118 -0.81931,-1.302256 -0.62565,-0.08885 -0.72,0.04045 -0.72,0.986666 0,1.246828 0.18312,1.51559 1.03265,1.51559 0.50457,0 0.58936,-0.200822 0.50666,-1.2 z m 4.54069,-0.861114 c 0,-0.429612 -0.144,-0.870112 -0.32,-0.978886 -0.1867,-0.115386 -0.32,0.21001 -0.32,0.781114 0,0.538387 0.144,0.978886 0.32,0.978886 0.176,0 0.32,-0.351501 0.32,-0.781114 z m 0.96,0.16 c 0,-0.341612 -0.144,-0.710112 -0.32,-0.818886 -0.1815,-0.112166 -0.32,0.156678 -0.32,0.621114 0,0.450387 0.144,0.818886 0.32,0.818886 0.176,0 0.32,-0.279501 0.32,-0.621114 z m 20.30693,-0.418886 c 1.07353,-1.125043 4.81818,-4.421264 5.43122,-4.780832 0.20708,-0.121456 1.2879,-1.093456 2.40182,-2.16 1.11393,-1.066541 2.09512,-1.939168 2.18043,-1.939168 0.51721,0 7.439595,-6.439779 7.439595,-6.920928 0,-0.76049 -0.56532,-0.484592 -2.01025,0.981066 -0.77002,0.781072 -1.78193,1.51598 -2.24868,1.633129 -0.50703,0.127258 -1.29946,0.840506 -1.968605,1.771904 -0.61598,0.857399 -1.69877,1.924298 -2.40621,2.370883 -0.70744,0.446586 -1.28625,0.957732 -1.28625,1.135882 0,0.178147 -0.35247,0.457914 -0.78327,0.621702 -0.4308,0.163786 -1.02336,0.664224 -1.3168,1.11208 -0.29345,0.447853 -0.703,0.814282 -0.91011,0.814282 -0.20711,0 -1.01855,0.654422 -1.8032,1.454275 -1.0919,1.113063 -1.59255,1.412707 -2.13382,1.277117 -0.76641,-0.19199 -1.3728,0.553808 -1.3728,1.688387 0,0.342023 -0.216,0.80112 -0.48,1.020221 -0.264,0.219101 -0.48,0.524733 -0.48,0.679181 0,0.586105 0.79144,0.24216 1.74693,-0.759181 z m -8.48736,-0.76671 0.66602,-0.846714 -1.0428,-0.719654 c -1.19143,-0.822237 -1.40014,-0.793591 -0.90868,0.12472 0.23322,0.43576 0.24425,0.914022 0.0339,1.467408 -0.42894,1.128208 0.35662,1.112038 1.25161,-0.02576 z m -11.81957,-1.252176 c 0,-0.464436 -0.13851,-0.73328 -0.32,-0.621114 -0.176,0.108774 -0.32,0.477274 -0.32,0.818886 0,0.341613 0.144,0.621114 0.32,0.621114 0.176,0 0.32,-0.368499 0.32,-0.818886 z m 19.32209,-0.957735 c 0.10928,-0.284774 0.0556,-0.413222 -0.12576,-0.301113 -0.17398,0.107526 -0.31633,0.331008 -0.31633,0.49662 0,0.460298 0.22936,0.358868 0.44209,-0.195507 z m -25.63955,-2.44935 c 0.41172,0.06945 0.55746,-0.124599 0.55746,-0.742256 0,-0.684224 -0.13092,-0.817693 -0.72,-0.734029 -0.63999,0.09089 -0.7253,0.29784 -0.76768,1.862256 -0.0378,1.394864 -0.004,1.527642 0.16254,0.64 0.15541,-0.827987 0.35556,-1.095485 0.76768,-1.025971 z m 10.38378,0.309702 c -0.07654,-0.398051 -0.14207,-0.147731 -0.14563,0.556269 -0.004,0.704 0.0591,1.02968 0.13917,0.723731 0.0801,-0.305949 0.083,-0.881949 0.007,-1.28 z m 16.95392,0.79992 c -0.0425,-0.617811 0.13786,-0.964454 0.61125,-1.174995 0.36932,-0.164256 1.01182,-0.795322 1.42778,-1.402362 0.41595,-0.607043 1.16504,-1.541302 1.66465,-2.076134 0.69138,-0.740125 0.80897,-1.035482 0.49223,-1.236394 -0.82982,-0.526358 -1.16575,-0.220924 -3.2184,2.926234 -1.26763,1.943542 -1.91252,3.2 -1.64244,3.2 0.24458,0 0.44469,0.144 0.44469,0.32 0,0.176 0.0631,0.32 0.14024,0.32 0.0771,0 0.11313,-0.394355 0.08,-0.876349 z m -21.34024,-0.01965 c 0,-0.3168 -0.1728,-0.7488 -0.384,-0.96 -0.29867,-0.298666 -0.29867,-0.469334 0,-0.768 0.57624,-0.576246 0.46332,-1.07383 -0.256,-1.128016 -0.55732,-0.04198 -0.64,0.149056 -0.64,1.47857 0,0.839728 0.096,1.62278 0.21333,1.740112 0.42138,0.421385 1.06667,0.201987 1.06667,-0.362666 z M 27.310419,86.71161 c 0.224616,0.58534 1.2092,0.676035 1.018435,0.09381 -0.07208,-0.22 -0.295982,-1.23864 -0.497553,-2.263648 -0.276579,-1.406426 -0.479998,-1.82009 -0.829141,-1.686112 -0.659297,0.252998 -1.005534,-0.877334 -1.271029,-4.149421 -0.168399,-2.075414 -0.13201,-2.739133 0.140926,-2.570448 0.202369,0.125069 0.370148,0.614903 0.372843,1.088515 0.0048,0.835024 0.585139,2.145245 0.664949,1.501114 0.128161,-1.034374 -0.02344,-6.290739 -0.189165,-6.558893 -0.456635,-0.738851 -0.864031,-0.279104 -0.669856,0.755936 0.216048,1.151635 -0.03216,2.221709 -0.454752,1.960531 -0.321211,-0.198518 -0.243534,-6.737187 0.08392,-7.064412 0.132,-0.131904 0.242205,0.396172 0.2449,1.173504 0.0053,1.539155 0.482089,2.748902 0.742616,1.884364 0.07807,-0.259065 0.310267,-2.902889 0.515993,-5.875158 0.205727,-2.972272 0.588297,-6.035181 0.850156,-6.80647 0.261859,-0.77129 0.38891,-1.543431 0.282336,-1.715872 -0.305207,-0.493837 1.531478,-0.348029 2.225161,0.176646 0.341642,0.258407 0.908178,0.469828 1.258972,0.469828 0.350795,0 1.223272,0.281082 1.93884,0.62463 1.257126,0.603549 5.212695,2.110551 8.181035,3.116829 0.792,0.26849 2.0361,0.75377 2.76468,1.078394 0.72858,0.324624 1.73658,0.690569 2.24,0.813209 0.50342,0.12264 2.52718,0.921373 4.49724,1.77496 1.97006,0.853588 3.98606,1.556557 4.48,1.562154 0.49394,0.0056 1.1776,0.2216 1.51924,0.48 0.34164,0.258403 1.01911,0.469824 1.5055,0.469824 0.98944,0 7.10439,2.140573 9.061,3.171846 0.69721,0.367485 1.56121,0.673258 1.92,0.679495 0.35878,0.0062 1.01234,0.217133 1.45234,0.468659 1.31031,0.749043 2.08998,0.577094 3.04184,-0.670858 0.48279,-0.632972 2.89488,-3.116972 5.36019,-5.52 2.46532,-2.403027 4.67349,-4.585142 4.90704,-4.849142 0.96773,-1.093853 3.60969,-3.746125 4.63292,-4.650995 1.76772,-1.563248 5.59844,-5.701792 5.81809,-6.28561 0.2777,-0.73816 -0.0267,-0.914461 -4.36561,-2.528105 -3.74242,-1.391821 -5.83413,-2.735837 -5.55633,-3.57018 0.25425,-0.763574 1.12809,-0.593632 6.02253,1.171245 2.69611,0.972186 4.97022,1.699415 5.05358,1.616058 0.23736,-0.237367 0.70355,-4.024723 0.52997,-4.305581 -0.0854,-0.138218 -1.34532,-0.712371 -2.79977,-1.275894 -5.59104,-2.166244 -6.1615,-2.441098 -6.2735,-3.022669 -0.0961,-0.499011 0.0698,-0.563978 1.17163,-0.458899 1.76217,0.168048 1.36789,-0.238525 -0.83349,-0.859492 -2.16112,-0.609609 -3.23265,-0.948921 -3.96575,-1.255792 -0.41829,-0.175094 -0.50082,-0.08764 -0.37421,0.396506 0.28173,1.07736 -0.80072,1.090506 -3.85367,0.0468 -4.95321,-1.693344 -8.28372,-2.882391 -10.0304,-3.581024 -1.50043,-0.600136 -1.76385,-0.622347 -2.52838,-0.213184 -1.04076,0.556998 -2.49552,2.673469 -2.25981,3.287715 0.0943,0.245712 0.57907,0.545587 1.07728,0.66639 0.49822,0.1208 1.84185,0.590893 2.98585,1.04465 1.144,0.453757 3.448,1.305334 5.12,1.8924 7.46063,2.619536 9.28,3.587898 9.28,4.939306 0,0.893923 -0.76561,0.804147 -4.38695,-0.51441 -1.72318,-0.627427 -3.85305,-1.363321 -4.73305,-1.635325 -0.88,-0.272003 -3.0069,-1.054659 -4.72644,-1.739232 -1.71953,-0.684572 -3.54583,-1.244678 -4.05843,-1.244678 -0.65096,0 -0.99326,-0.192989 -1.13513,-0.64 -0.47224,-1.487894 -0.8,-0.430442 -0.8,2.581037 0,3.246272 0.42243,4.997584 0.98949,4.102195 0.15439,-0.243779 0.28291,-0.911232 0.28561,-1.483232 l 0.005,-1.04 h 1.70192 c 4.34176,0 9.37756,2.669331 11.47902,6.084694 1.52674,2.481306 0.80031,5.520708 -1.99759,8.358077 -3.64721,3.698653 -8.74392,5.2032 -15.85689,4.680944 -5.57706,-0.409485 -10.06456,-2.782019 -11.49881,-6.079408 -0.32638,-0.750368 -0.62205,-1.409229 -0.65703,-1.464134 -0.0659,-0.103411 -4.00873,-1.624951 -6.53062,-2.52017 -0.792,-0.281145 -2.376,-0.764179 -3.520005,-1.073414 -4.487725,-1.213079 -6.857872,-2.567363 -7.849633,-4.485216 -0.602477,-1.165063 -0.602927,-3.276813 -9.6e-4,-4.440919 0.664216,-1.284451 4.279452,-4.372275 6.021061,-5.142672 1.045312,-0.46239 2.278617,-0.670438 4.288407,-0.723417 2.58782,-0.06822 2.9444,-6.4e-4 4.31199,0.818979 0.81999,0.491338 1.56225,1.079306 1.64947,1.306589 0.0872,0.227286 1.00032,0.673088 2.02911,0.990669 1.0288,0.317584 2.01454,0.682585 2.19054,0.811113 0.176,0.128528 1.184,0.544467 2.24,0.924311 5.54158,1.993302 6.64363,2.318345 6.92075,2.041225 0.38031,-0.380307 0.45096,-5.485299 0.0809,-5.847958 -0.38341,-0.375776 -19.02092,-7.359809 -19.63353,-7.35727 -0.26849,0.0011 -0.77616,0.462127 -1.12816,1.024476 -0.352,0.562348 -0.784,1.249314 -0.959998,1.526591 -0.176,0.277277 -1.76,1.8561 -3.52,3.508497 -1.759987,1.652394 -4.567987,4.325968 -6.239987,5.941274 -7.000384,6.763008 -9.803436,9.425222 -10.533363,10.004112 -1.199524,0.951277 -0.706559,1.673027 1.142635,1.673027 1.109339,0 1.705726,0.184419 2.250044,0.695779 0.943706,0.886567 0.936913,1.224221 -0.02463,1.224221 -0.586529,0 -0.876173,0.280259 -1.240181,1.2 -1.838272,4.644774 -1.818374,21.470957 0.03358,28.395667 0.217278,0.812432 0.410672,0.944867 1.431536,0.98032 0.649177,0.02254 1.180321,-0.0011 1.180321,-0.05244 0,-0.334429 -0.785059,-1.723546 -0.97406,-1.723546 -0.439864,0 -0.572178,-1.760186 -0.168383,-2.24 0.447262,-0.531462 0.304522,-3.2 -0.171168,-3.2 -0.157514,0 -0.286389,0.152499 -0.286389,0.338886 0,0.186388 -0.144,0.249888 -0.32,0.141114 -0.176,-0.108774 -0.32,-0.477274 -0.32,-0.818886 0,-0.341613 0.144,-0.621114 0.32,-0.621114 0.176,0 0.32,0.144 0.32,0.32 0,0.176 0.157513,0.32 0.350028,0.32 0.239164,0 0.2746,-0.532109 0.111883,-1.68 -0.13098,-0.924 -0.218458,-2.508 -0.194394,-3.52 0.02406,-1.012 -0.08288,-1.84 -0.237647,-1.84 -0.498889,0 -0.657595,0.926179 -0.494422,2.885347 0.09962,1.196061 0.03657,1.914653 -0.167991,1.914653 -0.180101,0 -0.344133,-0.108 -0.364516,-0.24 -0.167545,-1.085056 -0.399264,-7.07912 -0.32782,-8.48 0.07711,-1.511978 0.646564,-0.960755 0.748156,0.724198 0.187726,3.11353 0.741326,1.570836 1.29008,-3.595017 0.304346,-2.86505 0.781014,-5.910739 1.059263,-6.768202 0.278248,-0.857459 0.429757,-1.757459 0.336686,-2 -0.129222,-0.336743 0.192384,-0.44098 1.360556,-0.44098 1.320932,0 1.624512,0.128134 2.22369,0.938566 l 0.693911,0.938564 -0.710735,0.101436 c -1.049386,0.149767 -1.490779,1.400941 -2.037953,5.776788 -0.649821,5.196732 -0.455102,17.635584 0.341754,21.8316 0.299451,1.576822 0.62063,2.990204 0.713731,3.140844 0.0931,0.15064 0.425188,0.04229 0.737969,-0.240768 0.508457,-0.460147 0.588765,-0.462355 0.758188,-0.02083 z m -0.379893,-2.066186 c 0,-0.44 0.07263,-0.62 0.161404,-0.4 0.08877,0.22 0.08877,0.58 0,0.8 -0.08877,0.22 -0.161404,0.04 -0.161404,-0.4 z M 20.8,79.365424 c 0,-0.264 0.05659,-0.48 0.125764,-0.48 0.06917,0 0.20865,0.216 0.309956,0.48 0.101307,0.264 0.04471,0.48 -0.125763,0.48 -0.170476,0 -0.309957,-0.216 -0.309957,-0.48 z m 3.52,5.24223 c 0,-0.176 -0.144,-0.231004 -0.32,-0.12223 -0.176,0.108774 -0.32,0.34177 -0.32,0.51777 0,0.176 0.144,0.231004 0.32,0.12223 0.176,-0.108774 0.32,-0.34177 0.32,-0.51777 z m 71.665775,-1.573456 c 0.86289,-0.73759 1.02104,-1.029955 0.72,-1.330995 -0.60592,-0.605926 -0.4727,-0.974313 0.84665,-2.341069 1.19196,-1.23479 1.21946,-1.313484 0.83762,-2.39671 l -0.3948,-1.12 -0.66307,1.44 c -0.93298,2.026138 -1.43712,2.56 -2.4175,2.56 -0.94237,0 -1.45095,-0.791725 -0.87716,-1.36551 0.19937,-0.19937 0.36249,-0.652231 0.36249,-1.006359 0,-0.354128 0.72,-1.689958 1.6,-2.968509 2.20816,-3.208236 2.1567,-5.43848 -0.0892,-3.865664 -0.48906,0.342487 -1.39883,0.763421 -2.02173,0.935412 -0.9291,0.256537 -1.06472,0.394419 -0.75501,0.767593 0.46416,0.559283 0.1772,1.423037 -0.47278,1.423037 -1.11679,0 -1.50599,2.178294 -0.5013,2.805738 0.74972,0.468204 0.88893,2.56128 0.24,3.608368 -0.3297,0.531984 -0.31564,0.699088 0.08,0.950758 0.66028,0.420016 0.96,0.389805 0.96,-0.09677 0,-0.543571 1.26919,-0.628621 1.47254,-0.09868 0.087,0.226726 -0.0479,1.010358 -0.29974,1.741405 -0.55571,1.612947 -0.20283,1.704944 1.37298,0.357948 z M 24.205843,83.20135 c 0.191281,-0.49847 -0.386516,-1.435926 -0.885025,-1.435926 -0.15445,0 -0.280818,0.432 -0.280818,0.96 0,1.03224 0.823382,1.368365 1.165843,0.475926 z m 48.012752,-0.535926 c -0.10215,-0.255274 -0.17798,-0.17945 -0.19333,0.193334 -0.0139,0.337332 0.0617,0.526333 0.16807,0.42 0.10633,-0.106332 0.1177,-0.382336 0.0252,-0.613334 z m -9.94626,-1.394902 c 0.25903,-1.032036 0.0385,-1.251152 -0.80493,-0.799767 -0.86965,0.465427 -0.8935,1.614669 -0.0335,1.614669 0.41238,0 0.70538,-0.284778 0.83843,-0.814902 z m 36.91743,-1.299559 c 0.870045,-1.289174 0.896495,-1.405539 0.31941,-1.405539 -0.34605,0 -0.62917,0.159213 -0.62917,0.353805 0,0.194595 -0.36,0.781641 -0.8,1.304553 -0.44,0.522909 -0.8,1.079178 -0.8,1.236151 0,0.628448 1.0146,-0.162602 1.90976,-1.48897 z M 27.059531,79.620931 c -0.320179,-0.834374 -0.549611,-0.243158 -0.289783,0.746733 0.1776,0.676618 0.272884,0.765709 0.362638,0.339069 0.06696,-0.318282 0.03417,-0.806893 -0.07286,-1.085802 z m 41.100474,0.563379 c 0,-0.770761 -0.5802,-1.166694 -1.03832,-0.708566 -0.24341,0.243408 -0.224,0.485411 0.0671,0.836118 0.55926,0.673882 0.97125,0.619776 0.97125,-0.127552 z M 24,80.18621 c 0,-0.765606 -0.673379,-1.940806 -1.11208,-1.940806 -0.584624,0 -0.6122,0.33712 -0.116555,1.424944 C 23.125787,80.448217 24,80.815289 24,80.186236 Z m -7.649802,-2.492672 c -0.287543,-0.493958 -0.332007,-0.456652 -0.340467,0.285668 -0.0054,0.469606 0.09827,1.117606 0.230269,1.44 0.200439,0.489552 0.256561,0.442464 0.340468,-0.285668 0.05526,-0.47951 -0.04836,-1.12751 -0.23027,-1.44 z M 18.4,78.565424 c 0,-0.499139 -0.206732,-0.83105 -0.56,-0.899082 -0.437538,-0.08426 -0.56,0.112352 -0.56,0.899082 0,0.78673 0.122462,0.983344 0.56,0.899082 0.353268,-0.06803 0.56,-0.399943 0.56,-0.899082 z m 84.87661,-1.664938 c 1.99639,-1.80312 2.74061,-2.663193 3.05888,-3.535062 0.11243,-0.308 0.49362,-0.56 0.84709,-0.56 1.2035,0 1.65306,-1.291181 1.80313,-5.178877 0.12813,-3.319277 0.0984,-3.567776 -0.35686,-2.981123 -0.27315,0.352 -0.58173,1 -0.68573,1.44 -0.10399,0.44 -0.38318,1.024509 -0.62041,1.298909 -0.23723,0.274403 -0.75789,1.070749 -1.15702,1.769664 -1.71492,3.002982 -2.95204,4.635965 -3.64365,4.809549 -0.596,0.149587 -0.70175,0.343331 -0.56382,1.032998 0.11769,0.588458 -0.083,1.221379 -0.65423,2.063091 -0.96032,1.415095 -0.98124,1.505789 -0.34738,1.505789 0.26214,0 1.30614,-0.749222 2.32,-1.664938 z m -3.14025,-0.06657 c 0.25616,-0.30866 0.26856,-0.517124 0.0392,-0.658887 -0.446835,-0.27616 -0.975535,0.07573 -0.975535,0.649283 0,0.587546 0.45285,0.592189 0.936355,0.0096 z M 18.24,75.377021 c 0,-0.89753 -0.697475,-1.931597 -1.302857,-1.931597 -0.448031,0 -0.357078,0.534352 0.182857,1.074285 0.548423,0.548425 0.63315,1.165715 0.16,1.165715 -0.176,0 -0.32,0.293066 -0.32,0.651258 0,0.552099 0.09745,0.599107 0.64,0.308742 0.413618,-0.22136 0.64,-0.670022 0.64,-1.268403 z m 50.357935,0.0596 c -0.44258,-0.701639 -0.88627,-0.67008 -1.02942,0.07322 -0.13265,0.688774 0.61071,1.244361 1.06162,0.793456 0.20731,-0.207312 0.19627,-0.504477 -0.0322,-0.866675 z m 39.266285,-0.262336 c 0.42668,-0.457127 1.31578,-1.108055 1.97578,-1.446503 0.66,-0.338451 1.2,-0.720489 1.2,-0.848979 0,-0.128486 -0.20945,-1.234694 -0.46545,-2.458237 -0.32532,-1.554867 -0.3652,-2.345421 -0.13245,-2.625862 0.35151,-0.423546 0.12446,-1.06928 -0.37596,-1.06928 -0.16285,0 -0.26235,0.972 -0.22112,2.16 0.0927,2.671322 -0.37196,3.784566 -2.10885,5.05208 -1.34671,0.982774 -1.92153,2.06792 -1.09541,2.06792 0.24622,0 0.79678,-0.374013 1.22346,-0.831142 z M 16.1818,75.146855 c -0.336827,-0.877757 -0.240976,-10.880695 0.137423,-14.341421 0.305625,-2.795155 0.677556,-4.678813 1.469037,-7.44 0.176518,-0.615808 0.08521,-0.72 -0.630938,-0.72 -0.460527,-1.3e-5 -0.837322,0.04692 -0.837322,0.104285 0,0.05736 -0.223465,1.677363 -0.496588,3.6 -0.322798,2.272313 -0.493197,5.791497 -0.486898,10.055702 0.01014,6.862429 0.20137,9.28 0.734057,9.28 0.174846,0 0.224899,-0.242362 0.111229,-0.538579 z M 100.8,74.885424 c 0,-0.264 -0.216,-0.48 -0.48,-0.48 -0.499705,0 -0.634865,0.378464 -0.26667,0.746666 0.36821,0.368204 0.74667,0.233036 0.74667,-0.266666 z m -2.239995,-1.501162 c 0,-0.318361 -0.13894,-0.578838 -0.30875,-0.578838 -0.48654,0 -1.04211,1.274384 -0.81304,1.865005 0.18767,0.483872 0.25118,0.475638 0.66464,-0.08617 0.25143,-0.341635 0.45715,-0.881635 0.45715,-1.199997 z M 63.348655,72.79352 c 0.006,-0.270544 -0.26069,-0.512394 -0.59317,-0.537437 -0.74148,-0.05586 -1.24996,1.794295 -0.60301,2.194135 0.42615,0.263372 1.17586,-0.774967 1.19618,-1.656698 z m 5.77135,1.156173 c 0,-0.229879 0.288,-0.784093 0.64,-1.231587 0.81286,-1.033392 0.80571,-1.262282 -0.0355,-1.134938 -0.38388,0.05811 -0.97097,0.622285 -1.36,1.306896 -0.58301,1.025965 -0.61562,1.248278 -0.21983,1.498883 0.54503,0.345095 0.97528,0.151312 0.97529,-0.439254 z m -7.23238,-3.624269 c 0.12953,-0.396 0.11167,-0.72 -0.0397,-0.72 -0.37249,0 -1.05577,2.64159 -1.01514,3.924592 0.0264,0.833843 0.10935,0.692787 0.42606,-0.724592 0.2163,-0.968 0.49925,-2.084 0.62877,-2.48 z M 22.483456,72.77 c -0.178708,-0.683382 0.236912,-0.796208 0.812544,-0.220576 0.298667,0.298666 0.384,-0.11911 0.384,-1.88 0,-2.2016 -0.02205,-2.264 -0.8,-2.264 -0.795244,0 -0.799971,0.01734 -0.7951,2.92 0.0029,1.760566 0.114442,2.747107 0.280778,2.484576 0.151734,-0.239482 0.204734,-0.707482 0.117778,-1.04 z m 51.529379,0.354982 c 0.0921,-0.352243 0.0369,-0.559744 -0.12268,-0.461113 -0.15958,0.09863 -0.29015,0.386829 -0.29015,0.640441 0,0.66232 0.21744,0.567869 0.41283,-0.179328 z M 101.28,72.80104 c 0,-0.68592 -0.92981,-0.586848 -1.06468,0.113443 -0.0824,0.427648 0.048,0.557975 0.47562,0.475619 0.32398,-0.06239 0.58906,-0.327472 0.58906,-0.589062 z m 1.88576,-0.181789 c 0.27286,-0.711053 0.25184,-0.773827 -0.25909,-0.773827 -0.24934,0 -0.51762,-0.18 -0.59619,-0.4 -0.0786,-0.22 -0.2386,-0.311971 -0.35562,-0.204381 -0.27994,0.257379 0.3443,1.884381 0.72298,1.884381 0.16153,0 0.38109,-0.227776 0.48792,-0.506173 z M 64.131425,70.846557 c 0.55066,-1.103824 0.43344,-1.561133 -0.40015,-1.561133 -0.72813,0 -1.50704,1.930467 -0.92744,2.298582 0.63946,0.406141 0.80219,0.315748 1.32759,-0.737449 z m 35.956585,-0.543389 c 0.39159,-0.05624 0.71199,-0.260902 0.71199,-0.454803 0,-0.193901 0.23912,-0.616768 0.53137,-0.939706 0.71882,-0.794288 0.37555,-1.03336 -1.555555,-1.083344 -1.18515,-0.03069 -1.75166,-0.204521 -2.06561,-0.633881 -0.32892,-0.449824 -0.52183,-0.502381 -0.80491,-0.219303 -0.28308,0.283082 -0.245,0.421168 0.15892,0.576167 0.36812,0.14126 0.47454,0.429734 0.34659,0.939523 -0.12798,0.509917 -0.008,0.834432 0.39043,1.057501 0.3163,0.177008 0.60471,0.73094 0.64093,1.230966 0.0362,0.500026 0.0797,0.981136 0.0966,1.069136 0.0169,0.088 0.21219,-0.2 0.434,-0.64 0.22181,-0.44 0.72369,-0.846016 1.115285,-0.902256 z m -4.105215,-2.09416 c 0.41545,-0.521107 0.40112,-0.569386 -0.14012,-0.472032 -0.3316,0.05965 -1.32991,0.468448 -2.21847,0.908448 -1.8804,0.931146 -2.2953,1.819574 -0.92322,1.976909 0.87179,0.09997 1.85377,-0.622147 3.28181,-2.413325 z M 17.92,69.266538 c 0,-0.748733 -0.899203,-0.831892 -1.176673,-0.10882 -0.202023,0.526464 0.465426,1.169511 0.921394,0.887706 C 17.805124,69.958654 17.92,69.60815 17.92,69.266538 Z m 59.380135,-0.06111 0.93987,-1.04 -1.04,0.939869 c -0.96943,0.876089 -1.18709,1.140131 -0.93987,1.140131 0.0551,0 0.52307,-0.468 1.04,-1.04 z m 27.598065,-0.08847 c -0.0985,-0.09852 -0.27746,0.07908 -0.39763,0.394665 -0.17365,0.456064 -0.1369,0.49282 0.17914,0.179136 0.21869,-0.217068 0.31701,-0.475276 0.21849,-0.573801 z m 1.11961,-2.531117 c 0.33862,0.129942 0.65973,-0.119491 0.99939,-0.77632 0.60677,-1.173373 0.12656,-1.661987 -0.80492,-0.819005 -0.48515,0.43905 -0.71377,0.481421 -1.00831,0.18688 -0.37731,-0.377309 -0.34375,-0.539363 0.56507,-2.728899 0.20881,-0.503043 0.13995,-0.562707 -0.43777,-0.379344 -0.37705,0.11967 -0.82454,0.131677 -0.99443,0.02669 -0.58535,-0.361763 0.0474,-1.11345 1.10407,-1.31169 0.90181,-0.16918 1.09716,-0.37247 1.31529,-1.368704 0.14089,-0.643507 0.21392,-1.905958 0.16229,-2.805449 -0.0821,-1.430183 -0.0101,-1.657347 0.57381,-1.810042 0.76274,-0.199459 0.88176,-0.723907 0.22176,-0.977171 -0.24526,-0.09411 -0.77947,0.18392 -1.18714,0.617862 -0.78172,0.832106 -0.90359,2.421741 -0.24637,3.213645 0.25052,0.301859 0.16393,0.637053 -0.3252,1.258883 -0.36665,0.466116 -0.57519,0.995437 -0.46343,1.176269 0.12764,0.206522 -0.10899,0.269104 -0.63631,0.168301 -1.03825,-0.198474 -1.96503,0.692781 -1.67398,1.609798 0.10962,0.345386 -0.0136,1.246036 -0.27389,2.001437 -0.52655,1.528327 -0.43728,1.896455 0.45989,1.896455 0.33542,0 0.76896,0.297296 0.96343,0.660662 0.26576,0.496573 0.45717,0.574678 0.7707,0.314477 0.22941,-0.1904 0.64164,-0.260026 0.91605,-0.154723 z M 80.453085,66.200163 c 0.16854,-0.439193 0.12171,-0.458989 -0.28576,-0.120819 -0.55528,0.460842 -0.61307,0.64608 -0.20156,0.64608 0.15717,0 0.37647,-0.236368 0.48732,-0.525261 z m 18.24621,-1.042112 c -0.20086,-0.200861 -0.77206,0.611872 -0.76422,1.087373 0.003,0.176 0.21521,0.04251 0.4718,-0.29664 0.25658,-0.339152 0.38817,-0.694982 0.29242,-0.790733 z m -5.5858,-0.339878 c 0.75294,-1.475891 0.8158,-1.977626 0.21907,-1.748637 -0.42121,0.161629 -1.49256,2.104528 -1.49256,2.706746 0,0.72328 0.67466,0.215699 1.27349,-0.958109 z m 8.143575,-0.892749 c 1.25929,-1.328627 1.39168,-1.68 0.63297,-1.68 -0.28048,0 -0.58352,0.281293 -0.67342,0.625098 -0.0899,0.343804 -0.51302,0.854131 -0.94024,1.134057 -0.427225,0.27993 -0.691685,0.646634 -0.587695,0.814903 0.27587,0.446364 0.323815,0.419033 1.568385,-0.894058 z m 9.32945,0.673722 c -0.1132,-0.295005 0.0318,-0.784551 0.32993,-1.113997 0.42627,-0.471027 0.4541,-0.681434 0.14016,-1.059706 -0.2219,-0.267376 -0.28001,-0.651462 -0.13406,-0.886003 0.14171,-0.227709 0.21786,-1.228426 0.16924,-2.223814 -0.05,-1.024327 0.0584,-1.900544 0.2499,-2.018887 0.44681,-0.276141 0.44107,-3.051315 -0.006,-3.051315 -0.35498,0 -2.21539,1.726048 -2.21539,2.055386 0,0.101536 0.288,0.184614 0.64,0.184614 0.352,0 0.64,-0.152499 0.64,-0.338886 0,-0.186388 0.14439,-0.249648 0.32086,-0.14058 0.21212,0.131098 0.20365,0.417338 -0.025,0.84457 -0.19023,0.355443 -0.30672,1.174704 -0.25888,1.820579 0.0479,0.645875 -0.0294,2.143527 -0.17161,3.328119 -0.24528,2.042864 -0.1348,3.126198 0.31882,3.126198 0.11236,0 0.1134,-0.236826 0.002,-0.526278 z M 23.68,64.511596 c 0,-0.161607 0.08741,-0.521607 0.194236,-0.8 0.146508,-0.381795 -0.01075,-0.506173 -0.64,-0.506173 -1.289418,0 -1.101637,1.437117 0.205764,1.574736 0.132,0.01389 0.24,-0.10696 0.24,-0.268563 z m 59.361065,-0.667895 c 0.36979,-0.598339 -0.38074,-0.319548 -0.99147,0.368285 -0.60536,0.681795 -0.60472,0.684007 0.0926,0.318279 0.3862,-0.202557 0.7907,-0.511511 0.89889,-0.686564 z m 14.55894,0.04684 c 0,-0.717364 0.61274,-1.325114 1.336,-1.325114 0.45995,0 0.53161,-0.181907 0.37674,-0.956262 -0.12064,-0.603226 -0.013,-1.228378 0.2917,-1.693338 0.26563,-0.405392 0.535285,-1.008122 0.599255,-1.339398 0.0924,-0.478637 0.412,-0.607322 1.5563,-0.626663 l 1.44,-0.02435 V 56.6498 c 0,-0.997856 -0.13211,-1.301059 -0.60669,-1.392457 -0.46457,-0.08947 -0.55657,0.01376 -0.39274,0.440697 0.31222,0.813648 -0.0901,1.788765 -0.70709,1.713818 -0.29342,-0.03564 -0.80456,0.05205 -1.13587,0.19488 -0.357705,0.154205 -0.842485,0.109737 -1.193505,-0.109475 -0.49364,-0.308282 -0.67375,-0.243044 -1.09221,0.395612 -0.3196,0.487773 -0.42492,1.068308 -0.29076,1.602813 0.12445,0.495872 0.0491,1.032323 -0.18458,1.313885 -0.31338,0.377597 -0.31267,0.574947 0.004,0.955843 0.3241,0.390525 0.30854,0.48 -0.0835,0.48 -0.55637,0 -0.89235,0.99032 -0.65017,1.9164 0.19418,0.742776 0.73361,0.543313 0.73361,-0.271275 z m 11.343505,-1.085117 c 0.0679,-0.22 0.19683,-1.226781 0.28655,-2.237286 l 0.16314,-1.83729 -0.733,0.552899 c -0.66341,0.500416 -2.1002,2.639405 -2.1002,3.12664 0,0.108989 0.27095,0.11217 0.60211,0.0071 0.37999,-0.120608 0.67139,-0.01053 0.78995,0.298435 0.22664,0.590618 0.8203,0.644231 0.99145,0.08954 z m -7.82841,-2.578886 c 0.003,-0.142388 -0.1391,-0.169888 -0.3151,-0.06111 -0.176,0.108774 -0.3178,0.441274 -0.3151,0.738886 0.004,0.466327 0.0478,0.474775 0.3151,0.06111 0.17061,-0.264 0.31241,-0.596499 0.3151,-0.738886 z M 60.000005,60.005424 c -0.10878,-0.176 -0.41377,-0.32 -0.67777,-0.32 -0.264,0 -0.39101,0.144 -0.28223,0.32 0.10877,0.176 0.41377,0.32 0.67777,0.32 0.264,0 0.391,-0.144 0.28223,-0.32 z m 6.53333,-0.201002 c 0.25198,-0.224889 -1.73385,-0.05503 -2.53333,0.216692 -0.53951,0.183363 -0.27902,0.211724 0.8,0.0871 0.88,-0.101635 1.66,-0.238342 1.73333,-0.303792 z M 18.795787,57.230019 c 0.201178,-1.17447 0.654704,-2.526195 1.007833,-3.003827 0.353131,-0.477635 0.553778,-0.956704 0.445884,-1.064598 C 20.060824,52.972915 18.88,52.876643 18.88,53.049942 c 0,0.04648 -0.286617,0.868666 -0.636926,1.827072 -0.4205,1.150439 -0.529236,1.850247 -0.32,2.059482 0.460763,0.460765 0.388335,0.828928 -0.163074,0.828928 -0.479967,0 -0.66922,0.984115 -0.266667,1.386666 0.585571,0.585571 0.97012,0.01808 1.302454,-1.922071 z m 46.863798,1.371773 c 0.66521,-0.435862 1.00197,-0.484538 1.50174,-0.217066 0.48418,0.259127 1.02618,0.216372 2.18146,-0.17208 2.69621,-0.906566 2.88032,-1.543254 0.72167,-2.495651 -1.2358,-0.545232 -1.29927,-0.542256 -2.35548,0.110525 -0.59701,0.36897 -1.17346,0.90016 -1.28101,1.180419 -0.1429,0.372387 -0.30542,0.418371 -0.6037,0.170816 -0.72078,-0.598192 -4.0936,-0.181328 -5.64008,0.697091 l -1.41358,0.802932 1.05855,0.274297 c 1.77522,0.460007 4.87751,0.273095 5.83043,-0.351283 z m 22.46563,-0.06111 c 0.23908,-0.623024 0.0794,-0.57169 -0.61768,0.198512 -0.48607,0.5371 -0.49933,0.618345 -0.0743,0.45526 0.28453,-0.109184 0.59593,-0.403379 0.69202,-0.653772 z M 24.80146,57.338032 c 0.222865,-0.648269 0.572701,-1.38049 0.777413,-1.627152 0.447908,-0.539696 -0.06585,-0.98335 -0.808646,-0.69831 C 24.232323,55.218982 23.36,57.095882 23.36,58.046832 c 0,1.056701 1.00428,0.56287 1.44146,-0.7088 z m 32.958545,0.427392 c 0.704,-0.340058 1.46,-0.623171 1.68,-0.629142 0.22,-0.006 0.4,-0.154858 0.4,-0.330858 0,-0.498762 -1.47531,-0.375818 -1.92,0.16 -0.21911,0.264 -0.74074,0.48 -1.15919,0.48 -0.46295,0 -0.76081,0.187926 -0.76081,0.48 0,0.612195 0.19877,0.594125 1.76,-0.16 z m -2.5932,-0.188877 c 0.1074,-0.279885 0.12097,-0.629091 0.0302,-0.776022 -0.28175,-0.455875 0.54698,-1.892272 1.21387,-2.103933 0.36015,-0.114307 0.49,-0.289955 0.30081,-0.406886 -0.3478,-0.214951 -0.74157,-1.902999 -0.85321,-3.657626 -0.0453,-0.711808 -0.20534,-0.99016 -0.52188,-0.907645 -0.25111,0.06545 -0.67256,0.177405 -0.93656,0.248778 -0.65118,0.176051 -2.88,-1.938688 -2.88,-2.732589 0,-0.912739 0.45723,-1.088298 3.01086,-1.156045 1.24803,-0.03311 2.54613,-0.179465 2.88469,-0.325232 0.49599,-0.213552 0.57564,-0.161005 0.41004,0.270522 -0.25534,0.665411 -0.12962,0.666605 1.1503,0.01091 1.16079,-0.594675 1.49217,-0.991517 1.49921,-1.795351 0.004,-0.459782 -0.28324,-0.56 -1.60515,-0.56 -1.07809,0 -1.66634,-0.146726 -1.78045,-0.444092 -0.0937,-0.24425 -0.58069,-0.526144 -1.08214,-0.626436 -0.50144,-0.100286 -2.21714,-0.692442 -3.81265,-1.315905 -1.59554,-0.623465 -3.01675,-1.133571 -3.15826,-1.133571 -0.14151,0 -0.28463,0.62816 -0.31805,1.39591 -0.0334,0.767754 -0.19908,1.759757 -0.36816,2.204452 -0.55149,1.450544 -2.33454,3.143212 -4.41689,4.192998 l -2.04156,1.029226 2.65409,1.058726 c 4.40088,1.755526 5.37409,2.258477 5.37409,2.777306 0,0.843312 1.50943,2.805171 3.11106,4.043552 1.75814,1.359392 1.87168,1.397081 2.13574,0.708953 z m 18.7532,-0.495629 c 0,-0.143974 -0.36,-0.09775 -0.8,0.10273 -0.44,0.20048 -0.8,0.482304 -0.8,0.626282 0,0.143974 0.36,0.09775 0.8,-0.10273 0.44,-0.20048 0.8,-0.482304 0.8,-0.626282 z m 31.106275,-0.657209 c -0.51771,-0.517715 -1.12016,0.08473 -0.83301,0.833017 0.19471,0.507412 0.26007,0.5125 0.71677,0.0558 0.39251,-0.392506 0.41796,-0.587098 0.11624,-0.888813 z M 61.584065,55.871213 c 0.10001,-0.161815 -0.33585,-0.465059 -0.96856,-0.673875 -0.63272,-0.208816 -1.64205,-0.811338 -2.24295,-1.338938 -1.17244,-1.029418 -1.43118,-0.87145 -0.51738,0.315885 1.10722,1.438656 3.27798,2.426518 3.72889,1.696928 z m 5.82405,-0.724093 c 0.76902,-0.384067 1.6488,-0.986822 1.95505,-1.339453 0.54481,-0.627305 0.53265,-0.626886 -0.56316,0.01949 -0.616,0.363354 -1.658,0.832615 -2.31555,1.0428 -0.65755,0.210186 -1.27804,0.515648 -1.37888,0.67881 -0.324,0.524243 0.86333,0.317129 2.30254,-0.401651 z m 9.07189,-0.299466 c 0,-0.176 -0.144,-0.231004 -0.32,-0.12223 -0.176,0.108774 -0.32,0.34177 -0.32,0.51777 0,0.176 0.144,0.231004 0.32,0.12223 0.176,-0.108774 0.32,-0.34177 0.32,-0.51777 z m 17.39151,-2.111756 c 1.42861,-1.646397 0.84186,-1.232263 -1.08245,0.763993 -0.96198,0.997959 -1.31706,1.470669 -0.78906,1.050474 0.528,-0.420199 1.37018,-1.236707 1.87151,-1.814467 z m 11.222315,1.955289 c 0.64091,-0.245942 0.65646,-0.959619 0.0262,-1.201485 -0.264,-0.101305 -0.48,-0.40471 -0.48,-0.674236 0,-0.269524 -0.144,-0.490042 -0.32,-0.490042 -0.35322,0 -0.43037,1.260022 -0.12576,2.053827 0.22091,0.575699 0.21636,0.574119 0.89959,0.311936 z M 75.976665,53.743046 c 1.85055,-1.850553 0.55131,-5.87072 -2.34201,-7.246764 -1.49036,-0.7088 -1.40153,-0.723376 -2.20369,0.361596 -0.65823,0.890304 -0.66576,0.979831 -0.16657,1.98049 0.28756,0.576419 0.54029,1.550675 0.56162,2.165011 0.0316,0.909072 0.19755,1.169901 0.89174,1.401296 0.46912,0.156375 0.9383,0.553258 1.04263,0.881965 0.16351,0.515174 0.56495,0.762371 1.49676,0.921664 0.11943,0.02042 0.44321,-0.18895 0.71952,-0.465258 z M 110.08,53.765424 c 0.2191,-0.264 0.73894,-0.48 1.15519,-0.48 0.73856,0 0.75456,-0.05965 0.66266,-2.470854 -0.0569,-1.491812 0.0776,-2.96945 0.33936,-3.729175 0.44379,-1.288128 0.35634,-2.119971 -0.22287,-2.119971 -0.43306,0 -1.35905,2.249805 -1.15011,2.794307 0.0904,0.235479 -0.30308,0.891091 -0.87431,1.456915 -0.57124,0.565828 -1.22856,1.460778 -1.46071,1.988778 l -0.42211,0.96 0.92396,-0.88 c 1.06702,-1.016256 1.5356,-1.097187 1.96015,-0.338547 0.42971,0.76784 -0.4551,2.018547 -1.42801,2.018547 -0.54987,0 -0.7632,0.178896 -0.7632,0.64 0,0.753846 0.71317,0.842992 1.28,0.16 z m -43.926835,-0.03062 c 0.52424,-0.104848 1.37024,-0.539869 1.88,-0.966714 l 0.92684,-0.776084 -1.52016,0.710554 c -1.02647,0.479795 -1.62544,0.60528 -1.84433,0.38639 -0.31537,-0.315376 -0.46454,-2.514169 -0.25802,-3.803516 0.0643,-0.401114 -0.0767,-0.64 -0.37749,-0.64 -0.35901,0 -0.50399,0.457123 -0.57518,1.813411 -0.0574,1.093872 -0.27961,1.966483 -0.56,2.199184 -1.23485,1.024829 -0.0807,1.558579 2.32834,1.076771 z m -9.00129,-2.680483 c 0.0175,-0.872944 -0.0905,-1.511559 -0.24,-1.419143 -0.46384,0.286669 -0.29753,3.043719 0.18146,3.008288 0.0147,-9.6e-4 0.041,-0.716201 0.0585,-1.589145 z m 13.85537,-0.310045 c -0.0301,-0.752842 -0.0518,-0.739213 -0.26893,0.169094 -0.1299,0.543364 -0.34184,1.191364 -0.47098,1.44 -0.12914,0.248637 -0.008,0.172544 0.26893,-0.169094 0.27706,-0.341638 0.489,-0.989638 0.47098,-1.44 z m 7.08743,0.742563 c 0.30213,-0.794646 -0.16737,-3.000419 -0.63896,-3.001984 -0.0966,-3.2e-4 -0.12692,0.86368 -0.0673,1.92 0.0596,1.05632 0.1712,1.920583 0.24792,1.920583 0.0767,0 0.28297,-0.37737 0.45833,-0.838599 z M 63.360005,50.42431 c 0,-0.888224 -0.54932,-1.106262 -0.94139,-0.373664 -0.24445,0.456759 -0.22738,0.66602 0.064,0.7837 0.72087,0.291206 0.87744,0.218041 0.87744,-0.410036 z m 32.92883,-0.476713 c -0.0842,-0.08419 -0.3437,0.164384 -0.57671,0.552381 -0.40477,0.674019 -0.39795,0.680838 0.15307,0.153065 0.31719,-0.303811 0.50783,-0.621261 0.42364,-0.705446 z m 9.488395,0.749945 c 0.11825,-0.191337 0.0681,-0.494796 -0.11147,-0.674355 -0.22196,-0.221965 -0.442,-0.110601 -0.68737,0.347882 -0.29128,0.544246 -0.26977,0.674355 0.11147,0.674355 0.2598,0 0.56912,-0.156547 0.68737,-0.347882 z M 107.52,50.226538 c 0,-0.253613 -0.144,-0.461114 -0.32,-0.461114 -0.176,0 -0.32,0.296499 -0.32,0.658886 0,0.362388 0.144,0.569888 0.32,0.461114 0.176,-0.108774 0.32,-0.405274 0.32,-0.658886 z m -46.719995,0.168844 c 0,-0.383094 -0.9026,-0.794025 -1.16585,-0.53078 -0.28022,0.280227 0.19509,0.860822 0.70473,0.860822 0.25361,0 0.46112,-0.148518 0.46112,-0.330042 z m 41.855145,-0.583104 c 0.33123,-0.210118 0.31426,-0.347068 -0.084,-0.677558 -0.36045,-0.299152 -0.40528,-0.527248 -0.16137,-0.821146 0.18575,-0.223811 0.24246,-0.786508 0.12602,-1.250435 -0.14878,-0.592797 -0.0378,-1.035699 0.3735,-1.490144 0.50171,-0.554387 0.51853,-0.688813 0.11793,-0.942208 -0.88637,-0.560649 -1.26781,-0.333357 -1.23287,0.734637 0.0187,0.572 -0.11099,1.583456 -0.28823,2.24768 -0.52081,1.951834 -0.008,2.933162 1.14897,2.199174 z M 40.320005,48.97152 c 0,-0.260646 0.396,-0.570627 0.88,-0.688842 2.87896,-0.70319 5.74848,-2.845388 6.52723,-4.872803 0.45962,-1.196601 0.0442,-4.740877 -0.58387,-4.981904 -0.51152,-0.196291 -0.50624,0.03459 0.078,3.405325 0.3163,1.825008 -0.69596,3.193008 -3.31632,4.481776 -1.88207,0.925654 -2.44008,1.04944 -4.7003,1.042672 -3.315123,-0.0099 -5.583328,-0.764355 -6.700099,-2.228518 -0.943156,-1.236541 -1.044176,-2.267901 -0.322985,-3.297543 0.524425,-0.748726 0.519248,-1.963216 -0.0089,-2.078934 -0.544276,-0.119261 -1.729764,2.010141 -1.707809,3.067609 0.05723,2.756298 2.047914,4.302404 8.255063,6.411447 0.93207,0.316694 1.6,0.208035 1.6,-0.260285 z m 56.95178,-1.056355 c 0.2279,-0.577645 0.32058,-1.144045 0.20596,-1.258669 -0.35783,-0.357827 -0.77881,0.336656 -1.01166,1.668928 -0.25484,1.458083 0.14989,1.251997 0.8057,-0.410259 z m -41.17901,0.171225 c 0.85012,-0.984659 0.1958,-1.406921 -1.04767,-0.676105 -0.96192,0.565341 -1.03323,0.567101 -1.42414,0.03514 -0.42814,-0.582621 -1.14096,-0.761754 -1.14096,-0.286726 0,0.150297 0.36163,0.663484 0.80363,1.140409 0.91021,0.982131 1.83822,0.911859 2.80914,-0.212718 z m 14.09765,0.545232 c -0.10422,-0.27159 -0.25812,-0.425171 -0.342,-0.341289 -0.0839,0.08388 -0.0576,0.306093 0.0584,0.493801 0.31554,0.510548 0.49996,0.411364 0.28359,-0.152512 z m -6.61231,-1.612563 c 0.0706,-1.853629 -0.44374,-3.741897 -0.9684,-3.555257 -0.20334,0.07234 -0.3426,0.511792 -0.30947,0.976569 0.0368,0.515776 -0.10382,0.845053 -0.36082,0.845053 -0.23158,0 -0.60032,0.216 -0.81942,0.48 -0.32594,0.392723 -0.30508,0.48 0.11472,0.48 0.29543,0 0.60226,0.373296 0.7233,0.88 0.52589,2.201398 1.53472,2.135165 1.62009,-0.106365 z m 42.171255,-0.0681 c 0.7442,-0.585386 0.79443,-0.740164 0.42969,-1.324196 -0.5124,-0.820486 -0.52726,-0.818912 -1.69906,0.18024 -0.62193,0.530295 -0.81914,0.873706 -0.56,0.975159 0.22,0.08613 0.40913,0.612601 0.42028,1.169933 0.0176,0.881491 0.0558,0.925404 0.29334,0.337532 0.15018,-0.371692 0.65227,-0.974092 1.11575,-1.338668 z m -46.689585,0.32759 c -0.10726,-0.107264 -0.44359,0.06523 -0.7474,0.383309 -0.52807,0.55288 -0.51949,0.561462 0.19502,0.195024 0.41108,-0.210816 0.65965,-0.471069 0.55238,-0.578333 z m 11.27508,-0.48193 c 0.40417,-0.567155 0.92762,-1.312432 1.16322,-1.656169 0.38315,-0.559024 0.55715,-0.58545 1.64886,-0.250394 1.67378,0.513699 1.7441,0.257264 0.15215,-0.554883 -2.88209,-1.470333 -7.06082,-2.383613 -7.51843,-1.643184 -0.18289,0.29593 1.82059,0.69273 3.48522,0.690266 0.83955,-0.0013 1.4349,0.402003 1.44922,0.981587 0.003,0.109126 -0.6071,0.353001 -1.3551,0.541942 -2.83999,0.717373 -3.07151,0.726909 -3.43486,0.141491 -0.31969,-0.515088 -0.34108,-0.508585 -0.25693,0.07815 0.056,0.390397 0.62018,0.893837 1.44664,1.290854 0.74517,0.357972 1.52997,0.825972 1.744,1.04 0.54648,0.54648 0.64918,0.500583 1.47601,-0.659664 z m 6.62649,0.367728 c -0.0955,-0.248979 -0.46752,-0.636172 -0.82662,-0.860435 -0.61401,-0.383453 -0.62985,-0.363974 -0.26592,0.326883 0.59411,1.127792 1.48811,1.564384 1.09254,0.533552 z M 65.116165,46.89751 c 0.17961,-0.565913 -0.27818,-1.932086 -0.64742,-1.932086 -0.0818,0 -0.14874,0.576 -0.14874,1.28 0,1.345414 0.45724,1.719917 0.79616,0.652086 z m -24.95616,-0.674995 c 2.1436,-0.568291 4,-1.327769 4,-1.636454 0,-0.168202 -0.81561,-0.200141 -1.92,-0.07519 -2.4874,0.281414 -2.55316,-0.260657 -0.16,-1.319021 1.69581,-0.749968 2.29529,-1.426426 1.2641,-1.426426 -0.27273,0 -0.95673,-0.240301 -1.52,-0.534 -0.56326,-0.293699 -1.5281,-0.639786 -2.1441,-0.769082 -0.94853,-0.199091 -2.294879,-0.674438 -4.800005,-1.694704 -0.830893,-0.3384 -1.285741,0.2669 -1.58576,2.110295 -0.48,2.949238 0.05485,4.040006 2.310384,4.711782 0.745456,0.222023 1.643376,0.522637 1.995376,0.668035 0.869195,0.359028 1.083985,0.356071 2.560005,-0.03524 z m -3.576767,-1.159881 c -0.845222,-0.164532 -1.514793,-0.905463 -1.2319,-1.363194 0.343244,-0.555382 1.952329,-0.375056 2.550412,0.285821 0.308522,0.340909 0.466345,0.772909 0.350711,0.96 -0.213331,0.345181 -0.423162,0.359933 -1.669223,0.117373 z m 55.576767,0.868886 c 0,-0.383347 -1.54492,-0.807846 -1.84564,-0.507126 -0.27805,0.278048 0.55957,0.809776 1.28564,0.816131 0.308,0.0026 0.56,-0.136359 0.56,-0.309005 z m 19.373255,-2.118016 c 0.87917,-0.220659 1.01028,-0.589066 1.07012,-3.006915 0.0239,-0.96736 0.12368,-2.01136 0.22164,-2.32 0.13007,-0.409808 0.002,-0.561165 -0.47524,-0.561165 -0.38922,0 -0.83747,-0.356054 -1.1088,-0.880755 -0.2505,-0.484416 -0.76404,-1.160019 -1.1412,-1.501344 l -0.68574,-0.620589 -3.36849,3.341344 c -3.6551,3.625638 -4.06231,4.156848 -3.77017,4.918163 0.29293,0.763363 1.06288,0.602023 1.40359,-0.294118 0.38847,-1.021754 4.88238,-5.602701 5.49625,-5.602701 1.18492,0 2.51629,2.43767 2.18467,4 -0.0374,0.176 -0.0886,0.600902 -0.11391,0.944224 -0.0272,0.369658 -0.35213,0.697046 -0.79669,0.80279 -0.5182,0.123261 -0.88838,0.574157 -1.19518,1.455776 -0.24446,0.702468 -0.44664,1.324288 -0.44929,1.381824 -0.003,0.05754 0.43831,-0.338508 0.9799,-0.880108 0.5416,-0.541597 1.32844,-1.070989 1.74854,-1.176426 z m -23.354425,0.661744 c -0.60946,-0.460973 -1.45883,-0.635357 -1.45883,-0.299514 0,0.193645 1.27564,0.743933 1.76,0.759229 0.176,0.0056 0.0405,-0.201315 -0.30117,-0.459715 z m -20.69673,-0.493242 c -0.48537,-0.29998 -1.00937,-0.05666 -0.75708,0.351552 0.0965,0.156154 0.39893,0.198164 0.67205,0.09336 0.3879,-0.148848 0.40651,-0.246227 0.085,-0.444909 z M 106.0373,43.400352 c 0.26888,-1.681514 1.59,-2.259181 2.09243,-0.914928 0.25188,0.673875 0.30326,0.63872 0.8021,-0.548784 0.29315,-0.697834 0.70741,-1.377754 0.92058,-1.510931 0.21317,-0.133181 -0.18841,-0.156877 -0.89241,-0.05266 -2.52144,0.37327 -4.20935,1.962694 -3.78946,3.568361 0.28022,1.071565 0.64534,0.843648 0.86676,-0.541058 z m 1.1627,0.567302 c 0,-0.176 -0.144,-0.231004 -0.32,-0.12223 -0.176,0.108774 -0.32,0.34177 -0.32,0.51777 0,0.176 0.144,0.231004 0.32,0.12223 0.176,-0.108774 0.32,-0.34177 0.32,-0.51777 z m -9.388065,-1.00223 c -0.0888,-0.22 -0.16141,-0.04 -0.16141,0.4 0,0.44 0.0726,0.62 0.16141,0.4 0.0888,-0.22 0.0888,-0.58 0,-0.8 z m -52.24617,-1.706173 c 0.47927,-1.248963 0.17222,-2.172461 -1.1185,-3.364045 -1.70045,-1.569852 -3.7087,-1.88599 -6.502459,-1.023622 -1.042355,0.32175 -1.948019,0.743475 -2.012582,0.937165 -0.06775,0.203245 1.477926,0.860573 3.655191,1.554445 2.07492,0.661254 4.05659,1.472268 4.4037,1.802256 0.77113,0.733084 1.31686,0.765593 1.57465,0.0938 z m 52.67424,0.212346 c 0,-0.161607 0.088,-0.523239 0.19562,-0.803629 0.14319,-0.373133 0.0574,-0.456758 -0.32,-0.311936 -0.55673,0.213642 -0.72271,1.409392 -0.19562,1.409392 0.176,0 0.32,-0.132224 0.32,-0.293827 z m -35.44204,-3.396023 c -0.22757,-2.018979 0.14139,-3.595078 0.8978,-3.835152 0.97601,-0.309772 0.40625,-0.794998 -0.93349,-0.794998 -1.48376,0 -2.62801,0.728512 -2.05584,1.308896 0.30488,0.309248 0.49062,0.305523 0.88,-0.01763 0.40896,-0.339402 0.49357,-0.323859 0.49357,0.09068 0,0.275162 -0.144,0.589293 -0.32,0.698068 -0.42234,0.261017 -0.41236,1.985152 0.013,2.248044 0.18315,0.1132 0.24326,0.488608 0.13356,0.83424 -0.23634,0.744631 0.4695,1.794183 0.8225,1.223021 0.12407,-0.200742 0.15507,-0.990563 0.0689,-1.755155 z m 36.20652,-0.683878 1.244475,-1.156413 -0.764475,-0.587814 c -0.4429,-0.340547 -1.30293,-0.590874 -2.04448,-0.595091 -1.18052,-0.0067 -4.37215,-1.00306 -5.12,-1.598336 -0.176,-0.140093 -0.78604,-0.354352 -1.35564,-0.476132 -0.59795,-0.127843 -1.30602,-0.601145 -1.67543,-1.119932 -0.47924,-0.67303 -1.0081,-0.953747 -2.10743,-1.118601 -0.8072,-0.121047 -1.71253,-0.464979 -2.01184,-0.764292 -0.33732,-0.33732 -1.04875,-0.544207 -1.87138,-0.544207 -2.23958,0 -3.39107,-1.623104 -2.02716,-2.857424 0.88955,-0.805026 3.73906,-0.533474 4.51983,0.430729 0.3034,0.374682 0.8255,0.681241 1.16023,0.681241 0.33474,0 1.2047,0.288 1.93325,0.64 0.72856,0.352 1.76361,0.64 2.30011,0.64 1.20443,0 1.23853,0.490392 0.11559,1.66249 -0.6335,0.661227 -0.72806,0.89751 -0.35919,0.89751 0.27538,0 0.68572,-0.222949 0.91187,-0.495442 0.63531,-0.765499 1.7299,-0.453345 1.84365,0.525768 0.0672,0.578215 0.46905,1.039735 1.32357,1.52 1.44583,0.812605 1.93997,0.866013 1.93997,0.209674 0,-0.342653 0.34875,-0.48 1.21883,-0.48 1.29127,0 2.650095,-0.706579 2.060085,-1.071226 -0.18592,-0.114905 -1.384755,-0.563046 -2.664075,-0.995872 -2.46989,-0.835622 -3.88388,-1.772902 -2.67462,-1.772902 0.35056,0 0.92417,0.200882 1.2747,0.446405 0.35054,0.245523 1.4548,0.636458 2.45392,0.868745 1.395175,0.324365 1.910195,0.610538 2.220075,1.233595 0.80518,1.618935 1.2068,1.906426 2.18626,1.564983 0.49648,-0.173072 1.16294,-0.602253 1.48103,-0.953738 0.65711,-0.726096 0.42848,-0.993065 -1.31621,-1.536975 -1.2487,-0.389283 -7.113275,-2.434387 -12.959995,-4.519431 -2.552,-0.910088 -5.936,-2.084965 -7.52,-2.610838 -1.584,-0.525873 -3.312,-1.150397 -3.84,-1.38783 -0.528,-0.237433 -1.542,-0.596975 -2.25333,-0.798981 -1.225,-0.347883 -1.34663,-0.317484 -2.30256,0.575493 -0.67697,0.632383 -0.95609,1.146044 -0.8478,1.560171 0.22547,0.862207 -0.40158,2.358401 -0.98839,2.358401 -0.27459,0 -0.48792,0.279827 -0.48792,0.64 0,0.402963 -0.21334,0.64 -0.576,0.64 -0.3168,0 -0.7464,0.1704 -0.95467,0.378667 -0.61553,0.61553 -0.79283,0.07265 -0.29684,-0.908929 0.25283,-0.500356 0.39915,-1.078635 0.32516,-1.285065 -0.074,-0.20643 0.19776,-0.422896 0.6039,-0.481035 0.5612,-0.08034 0.7188,-0.285868 0.65661,-0.85631 -0.0487,-0.447014 0.30984,-1.245124 0.88655,-1.97328 l 0.96838,-1.222679 -0.60836,-2.665685 c -0.3346,-1.466126 -0.76775,-3.066335 -0.96256,-3.556019 -0.50814,-1.27731 -4.21738,-4.9349713 -5.58335,-5.5057088 -1.50181,-0.6274983 -2.15557,-0.6200778 -1.25003,0.014189 0.77121,0.5401731 0.97227,1.9830988 0.31121,2.2333868 -0.22,0.0833 -1.68079,0.04278 -3.2462,-0.09004 -2.18528,-0.185416 -2.92797,-0.371529 -3.19836,-0.801492 -0.51253,-0.8149945 0.10021,-1.6023757 1.59907,-2.05484 l 1.24549,-0.3759753 -1.01917,-0.024592 c -1.66776,-0.040243 -2.63917,0.5183011 -4.86676,2.7982893 -1.16274,1.190088 -2.64209,2.618379 -3.28744,3.173979 -0.95177,0.819405 -1.24362,1.360785 -1.5454,2.866661 -0.20462,1.021063 -0.52169,2.462633 -0.70459,3.203489 -0.53913,2.183786 0.40103,4.38926 2.28677,5.364413 0.68988,0.356751 0.85969,0.635796 0.74668,1.226988 -0.11818,0.618228 0.0881,0.903515 1.07393,1.485161 0.67111,0.395968 1.41192,0.993651 1.64623,1.328184 0.23432,0.334534 0.64764,0.608243 0.91849,0.608243 0.27085,0 0.88099,0.276662 1.35587,0.614804 0.47488,0.338142 1.36111,0.662142 1.9694,0.72 0.82409,0.07838 1.09454,0.248619 1.06109,0.66791 -0.0581,0.727622 0.96749,0.978163 2.60421,0.636208 1.06944,-0.223437 1.30567,-0.416829 1.44,-1.178882 0.16866,-0.956859 0.24303,-1.016698 2.58172,-2.077397 1.82423,-0.827369 2.55315,-0.837513 2.76211,-0.03844 0.12118,0.46336 0.62881,0.71828 1.97005,0.989304 0.99374,0.200806 2.12994,0.570669 2.52489,0.821918 0.39495,0.25125 1.2863,0.511547 1.98079,0.57844 0.69448,0.06689 2.09934,0.519264 3.12191,1.005267 1.02257,0.486003 2.22534,0.914167 2.67282,0.951472 0.44748,0.0373 1.59948,0.429802 2.56,0.872218 2.08894,0.962166 10.29206,3.758461 11.8264,4.031398 0.088,0.01565 0.72001,-0.491923 1.40448,-1.127948 z M 56.379495,21.291733 c -1.36234,-0.986874 -2.29949,-2.400926 -2.29949,-3.469663 0,-0.631945 2.59024,-3.256646 3.21388,-3.256646 0.75749,0 1.55146,0.689958 2.50631,2.177972 1.17117,1.8251 1.2106,2.234332 0.37344,3.875309 -0.98064,1.922214 -1.85547,2.077396 -3.79414,0.673028 z m 2.26626,-1.606309 c 0.30139,-0.352 0.40183,-0.64 0.22319,-0.64 -0.17863,0 -0.46306,-0.36369 -0.63206,-0.8082 -0.41896,-1.101943 -1.19661,-1.334301 -1.94866,-0.582251 -0.6113,0.6113 -0.60683,0.630378 0.38462,1.644463 1.17991,1.206842 1.25713,1.221949 1.97291,0.385988 z m 10.57328,-1.483495 c -0.26634,-0.694062 0.28806,-1.532781 1.09292,-1.653424 0.88291,-0.132341 1.20409,0.834092 0.52616,1.583197 -0.66389,0.733596 -1.35306,0.763488 -1.61908,0.07023 z m -1.65103,18.923495 c 0,-0.1672 -0.1548,-0.3556 -0.344,-0.418666 -0.1892,-0.06307 -0.344,0.125332 -0.344,0.418666 0,0.293334 0.1548,0.481734 0.344,0.418666 0.1892,-0.06307 0.344,-0.251466 0.344,-0.418666 z m -1.488,-0.48 c -0.10878,-0.176 -0.33328,-0.32 -0.49889,-0.32 -0.16561,0 -0.30111,0.144 -0.30111,0.32 0,0.176 0.22449,0.32 0.49888,0.32 0.27439,0 0.40989,-0.144 0.30112,-0.32 z m 36.419145,-2.633683 c -0.84653,-0.128525 -1.70985,-0.172615 -1.91847,-0.09797 -0.20864,0.07464 -0.44927,-0.0362 -0.53474,-0.24632 -0.08549,-0.210112 -0.166785,-0.0016 -0.180675,0.463287 -0.0194,0.648793 0.163905,0.892787 0.788435,1.049536 0.44754,0.112326 0.89867,0.425641 1.00251,0.696259 0.15079,0.392925 0.40971,0.278205 1.28545,-0.569536 l 1.09664,-1.061573 z m 2.50167,-0.806317 c 0.39804,-0.507539 0.38672,-0.518858 -0.12082,-0.120819 -0.53304,0.418038 -0.70255,0.680819 -0.43918,0.680819 0.0665,0 0.31845,-0.252 0.56,-0.56 z M 53.440005,32.039661 c 0,-0.06917 -0.216,-0.20865 -0.48,-0.309959 -0.264,-0.101305 -0.48,-0.04471 -0.48,0.125764 0,0.170476 0.216,0.309958 0.48,0.309958 0.264,0 0.48,-0.0566 0.48,-0.125763 z m -0.15776,-1.958996 c -1.25056,-0.768078 -3.79765,-3.802568 -4.33031,-5.158933 -0.26676,-0.679298 -3.87776,-2.287259 -6.35191,-2.828476 -1.37289,-0.300319 -1.62872,0.0793 -1.63513,2.426383 l -0.005,1.794214 2.64,1.003167 c 8.71605,3.311983 12.18906,4.303303 9.68225,2.763645 z m 37.11776,0.164759 c 0.11261,-0.182208 -0.16298,-0.32 -0.64,-0.32 -0.47703,0 -0.75262,0.137792 -0.64,0.32 0.10877,0.176 0.39677,0.32 0.64,0.32 0.24322,0 0.53122,-0.144 0.64,-0.32 z m -1.82986,-0.689557 c -0.13725,-0.411779 -2.67987,-1.254048 -2.95503,-0.978887 -0.44369,0.443689 -0.0945,0.998146 0.70489,1.119243 1.75875,0.266428 2.37297,0.228116 2.25014,-0.140356 z m -45.05014,-1.230443 c -0.264,-0.17061 -0.624,-0.3102 -0.8,-0.3102 -0.176,0 -0.104,0.13959 0.16,0.3102 0.264,0.17061 0.624,0.3102 0.8,0.3102 0.176,0 0.104,-0.13959 -0.16,-0.3102 z m -2.08,-0.811557 c -1.11205,-0.509198 -2.04173,-0.614552 -1.584,-0.179504 0.32489,0.308798 1.27869,0.589741 2.064,0.607951 0.264,0.0061 0.048,-0.186679 -0.48,-0.428447 z m 8.35597,-3.818456 c -0.2919,-0.445493 -0.67572,-0.809987 -0.85293,-0.809987 -0.17721,0 -0.004,0.430229 0.38465,0.956064 0.84145,1.138126 1.23025,1.016842 0.46828,-0.146077 z m -2.00042,-3.289987 c 0.0945,-0.66 0.26534,-2.058683 0.37967,-3.108184 0.11432,-1.049501 0.49069,-2.633501 0.83636,-3.52 l 0.6285,-1.611816 -1.22004,1.181099 c -0.67103,0.649605 -2.19976,2.08831 -3.3972,3.197123 -1.39725,1.293838 -2.12822,2.203127 -2.04057,2.538334 0.0994,0.379952 -0.0268,0.479586 -0.46284,0.365555 -0.32969,-0.08621 -0.59943,-0.0084 -0.59943,0.172933 0,0.289421 4.34603,1.885066 5.33187,1.957597 0.20453,0.01505 0.44918,-0.512641 0.54368,-1.172641 z m 9.80445,78.393114 c 0,-0.183258 -0.288,-0.257885 -0.64,-0.165834 -0.482,0.126045 -0.64,0.0098 -0.64,-0.470774 0,-0.35098 -0.19995,-0.80408 -0.44433,-1.0069 -0.38661,-0.32086 -0.75262,-2.095036 -0.99634,-4.829606 -0.18158,-2.037456 -0.57878,-3.84 -0.84616,-3.84 -0.16179,0 -1.8112,-0.595043 -3.66535,-1.32232 -3.79144,-1.487165 -4.2093,-1.423562 -3.68963,0.561616 0.54162,2.068986 0.79713,5.771661 0.4146,6.008077 -0.32457,0.200592 -3.99439,-0.838288 -4.71096,-1.333616 -0.78808,-0.544755 -1.73406,-4.701133 -1.73942,-7.642451 -0.002,-1.155504 -0.11712,-1.371524 -0.88241,-1.657236 C 39.276005,82.9188 37.728,82.345958 36.32,81.826515 34.912,81.307072 33.508,80.777421 33.2,80.64951 c -0.400096,-0.166153 -0.56,-0.08285 -0.56,0.291722 0,0.288352 0.209222,0.604563 0.464941,0.702691 0.363126,0.139347 0.38615,0.304573 0.105139,0.754544 -0.267034,0.427591 -0.262874,1.261517 0.01613,3.234467 0.206768,1.462084 0.256947,2.777325 0.111517,2.922756 -0.145434,0.145433 -0.782925,0.04778 -1.416653,-0.217012 C 30.929217,87.924256 30.702621,87.622589 30.293082,86.171334 29.688755,84.029792 29.12,79.670362 29.12,77.179741 c 0,-1.314323 -0.162186,-2.103136 -0.511867,-2.48953 -0.459454,-0.507689 -0.462173,-0.636553 -0.02656,-1.258483 0.530027,-0.75672 0.406838,-3.957661 -0.180977,-4.702518 -0.215126,-0.272599 -0.166052,-0.452477 0.157293,-0.576557 0.344738,-0.132288 0.526515,-0.984746 0.682167,-3.199072 0.116707,-1.660298 0.356674,-3.398733 0.53326,-3.863191 0.293593,-0.772208 0.429595,-0.82711 1.58947,-0.641638 0.697623,0.111555 1.738385,0.409645 2.312807,0.662422 0.574423,0.252778 2.844404,1.108077 5.044402,1.900666 13.3285,4.801824 19.63111,7.215584 19.8762,7.612157 0.23135,0.374336 0.0531,2.627325 -0.38591,4.877232 -0.23397,1.199139 -0.2098,1.644781 0.10112,1.864361 0.32443,0.229117 0.3262,0.321991 0.009,0.450861 -0.57848,0.23473 -0.52603,10.395466 0.0804,15.57992 0.46821,4.002551 0.46414,4.127738 -0.16,4.921194 -0.35224,0.447792 -0.64043,0.66423 -0.64043,0.480973 z m -0.78047,-5.417607 c -0.32018,-0.834374 -0.54961,-0.243158 -0.28979,0.746733 0.1776,0.676618 0.27289,0.765709 0.36264,0.339069 0.067,-0.318282 0.0342,-0.806893 -0.0729,-1.085802 z m -11.59361,-4.495507 c -0.20069,-3.922528 -0.28512,-4.183213 -1.55031,-4.786534 -0.60917,-0.290493 -1.20226,-0.433485 -1.31799,-0.317757 -0.19444,0.194438 0.37193,5.457283 0.71915,6.682509 0.1264,0.446025 1.25691,1.093916 2.08781,1.196518 0.11253,0.01389 0.14013,-1.234736 0.0613,-2.774736 z m 10.90749,-2.88 c -0.0456,-2.794598 0.35885,-10.256512 0.69344,-12.793245 0.19368,-1.468461 0.1468,-1.696816 -0.38308,-1.865827 -0.33208,-0.105917 -1.17977,-0.454035 -1.88377,-0.77359 -0.704,-0.319559 -1.604,-0.667936 -2,-0.774176 -0.396,-0.10624 -0.99485,-0.270692 -1.33077,-0.36545 -0.5669,-0.15991 -0.59833,-0.02774 -0.43746,1.84 0.0953,1.106758 0.31007,2.185379 0.47721,2.396931 0.16714,0.211555 0.206,0.693069 0.0864,1.070032 -0.1566,0.493395 0.009,0.923485 0.59217,1.535357 0.5268,0.552995 0.84513,1.29719 0.9111,2.129968 0.0921,1.162134 0.0351,1.272982 -0.61861,1.203773 -0.48172,-0.051 -0.72,0.09532 -0.72,0.442134 0,0.432451 -0.2254,0.480381 -1.36,0.289187 -3.68058,-0.620208 -3.62076,-0.618473 -3.18416,-0.0924 0.22383,0.269696 0.90987,0.584704 1.52453,0.700013 2.16594,0.406336 5.10427,1.477917 5.49963,2.005671 0.22,0.29367 0.4,1.02078 0.4,1.615801 0,0.817434 1.35885,3.915821 1.71735,3.915821 0.0311,0 0.0383,-1.116 0.0161,-2.48 z m -4.08132,-1.732451 c -0.0462,-0.89553 -0.21425,-1.063645 -1.49209,-1.492922 -0.792,-0.266064 -2.02547,-0.7472 -2.74103,-1.06919 -0.71557,-0.321991 -1.42926,-0.585437 -1.58598,-0.585437 -0.15672,0 -1.921,-0.654611 -3.92062,-1.454694 -2.20319,-0.881536 -3.87992,-1.377172 -4.255597,-1.257936 -0.395668,0.12558 -0.686522,0.02323 -0.80401,-0.282944 -0.179984,-0.469028 -1.721075,-1.164426 -2.580518,-1.164426 -0.494736,0 -0.570183,1.206317 -0.119984,1.918442 0.260697,0.412374 0.363785,0.394576 0.746553,-0.12889 0.494055,-0.675658 1.181181,-0.448224 1.181181,0.390963 0,0.373776 0.622643,0.772314 2.000005,1.280151 1.1,0.405574 2.27393,0.887753 2.60873,1.071513 0.47089,0.258455 0.67461,0.216391 0.89966,-0.185766 0.34687,-0.619818 0.89161,-0.373837 0.89161,0.402611 0,0.384518 0.45975,0.680096 1.52,0.977222 0.836,0.234282 2.168,0.710688 2.96,1.058679 0.792,0.34799 1.728,0.746486 2.08,0.885539 0.352,0.139056 1,0.396224 1.44,0.571485 1.05217,0.419104 1.23446,0.273782 1.17209,-0.9344 z M 40.640005,82.26431 c 0,-0.07761 -0.144,-0.230112 -0.32,-0.338886 -0.176,-0.108774 -0.32,-0.04527 -0.32,0.141114 0,0.186387 0.144,0.338886 0.32,0.338886 0.176,0 0.32,-0.0635 0.32,-0.141114 z m -2.381167,-0.989062 c -0.341638,-0.258403 -0.845638,-0.46472 -1.12,-0.458483 -0.31974,0.0073 -0.211616,0.175529 0.301162,0.468659 1.047055,0.59855 1.614325,0.591498 0.818838,-0.01018 z m -6.216051,-2.069824 c 0.231619,0 0.297834,-0.388954 0.184797,-1.08551 -0.245096,-1.510359 0.457798,-2.43449 1.851677,-2.43449 0.595632,0 1.156893,0.119616 1.247248,0.265811 0.09035,0.146195 0.998851,0.451347 2.018886,0.678119 1.02003,0.226771 2.67653,0.838588 3.6811,1.359593 2.06895,1.073021 5.05351,1.956631 5.05351,1.496141 0,-0.379309 -2.69011,-1.558051 -4.08777,-1.791168 -0.57628,-0.09612 -1.12478,-0.299347 -1.21889,-0.451626 -0.0941,-0.152278 -0.39648,-0.27687 -0.67192,-0.27687 -0.66322,0 -5.617339,-2.488115 -5.928417,-2.977437 -0.467632,-0.735581 -0.246637,-2.199469 0.532838,-3.529545 0.447357,-0.763357 0.850519,-2.052605 0.935991,-2.993156 0.08258,-0.908716 0.314941,-1.960137 0.516358,-2.336492 0.488704,-0.913149 0.0065,-1.471242 -1.518537,-1.757328 -0.647648,-0.121501 -1.595066,-0.43682 -2.10537,-0.700708 -0.540955,-0.279737 -1.046381,-0.361241 -1.212157,-0.195465 -0.570111,0.570112 -0.728673,4.115859 -0.612206,13.690131 0.05752,4.728726 0.09704,5.040522 0.517096,4.08 0.250148,-0.572 0.617243,-1.04 0.815766,-1.04 z m 3.477213,0.96 c 0,-0.176 -0.279501,-0.32 -0.621114,-0.32 -0.341612,0 -0.710112,-0.144 -0.818886,-0.32 -0.24088,-0.38975 -0.8,-0.423926 -0.8,-0.0489 0,0.300985 1.216067,0.953459 1.84,0.987241 0.22,0.01191 0.4,-0.122342 0.4,-0.298341 z m 15.280095,-1.51983 c 0.18907,-0.567853 -0.88673,-0.9072 -1.21128,-0.382077 -0.14662,0.237241 -0.19066,0.554198 -0.0979,0.704345 0.23684,0.383216 1.14902,0.158666 1.30915,-0.322268 z m -1.77293,-1.672688 c 0.0769,-0.523888 -0.004,-1.096484 -0.18012,-1.272442 -0.21323,-0.213226 -0.14102,-0.517603 0.21652,-0.912675 0.59989,-0.662877 0.70197,-1.522291 0.21644,-1.822365 -0.176,-0.108774 -0.32,0.0091 -0.32,0.261933 0,0.824611 -0.92934,1.351168 -1.62165,0.918816 -0.85165,-0.531866 -1.01245,-0.478307 -0.77835,0.259251 0.14415,0.454182 0.0575,0.64 -0.29844,0.64 -0.27586,0 -0.50156,-0.137456 -0.50156,-0.305456 0,-0.168 -0.36,-0.665453 -0.8,-1.105453 -0.54667,-0.546665 -0.8,-0.652605 -0.8,-0.334547 0,0.789437 -1.1815,0.514912 -2.0072,-0.466381 -0.43125,-0.512512 -1.05605,-0.908512 -1.38845,-0.88 -0.48075,0.04124 -0.62494,-0.198102 -0.70498,-1.170224 -0.0818,-0.993683 -0.18266,-1.153984 -0.53955,-0.857792 -0.66111,0.548672 -1.688727,-0.138944 -2.043729,-1.367533 -0.276246,-0.956035 -0.304099,-0.973286 -0.375542,-0.232614 -0.162464,1.684275 -0.13225,2.879814 0.07278,2.879907 0.117332,5.1e-5 0.269968,-0.169814 0.339191,-0.377478 0.07027,-0.210803 0.364726,-0.285907 0.666665,-0.170042 0.618925,0.237501 0.748295,1.549111 0.140815,1.427613 -0.242165,-0.04843 -0.440847,0.34745 -0.503506,1.003254 -0.08379,0.876944 -0.0076,1.046458 0.4,0.890045 0.276926,-0.106269 0.503506,-0.05065 0.503506,0.123603 0,0.17425 0.396,0.475661 0.88,0.669802 0.484,0.194141 1.168,0.473965 1.52,0.621834 0.352,0.147868 1.432,0.546947 2.4,0.886841 0.968,0.339895 2.336,0.842659 3.04,1.117258 1.89644,0.739718 2.30656,0.669043 2.46716,-0.425155 z M 36.8,72.645424 c 0,-0.264 -0.144,-0.48 -0.32,-0.48 -0.176,0 -0.32,0.216 -0.32,0.48 0,0.264 0.144,0.48 0.32,0.48 0.176,0 0.32,-0.216 0.32,-0.48 z m 12.700585,-1.68 c -0.0805,-0.308 -0.14634,-0.056 -0.14634,0.56 0,0.616 0.0659,0.868 0.14634,0.56 0.0805,-0.308 0.0805,-0.812 0,-1.12 z m -3.42058,0.738886 c 0,-0.253612 -0.144,-0.550112 -0.32,-0.658886 -0.176,-0.108774 -0.32,0.09873 -0.32,0.461114 0,0.362387 0.144,0.658886 0.32,0.658886 0.176,0 0.32,-0.207501 0.32,-0.461114 z m -1.44324,-2.753638 c -0.14139,-0.643744 -0.0481,-0.974253 0.33558,-1.188979 0.40967,-0.229258 -0.21454,-0.565328 -2.72445,-1.466832 C 38.300781,64.877142 37.76,64.834899 37.76,65.94431 c 0,0.464436 0.138509,0.73328 0.32,0.621114 0.176,-0.108774 0.320915,-0.0093 0.322025,0.221114 9.6e-4,0.230387 0.43311,0.664188 0.96,0.964003 0.92307,0.525254 0.95798,0.522339 0.95798,-0.08 0,-0.694109 0.65842,-0.809034 1.63641,-0.285629 0.43919,0.235046 0.57288,0.533146 0.43456,0.968947 -0.24822,0.78208 0.97414,1.872151 1.84422,1.644621 0.46856,-0.122531 0.55516,-0.348496 0.40157,-1.047808 z m 4.00324,0.955866 c 0,-0.186388 0.15784,-0.241332 0.35076,-0.122103 0.21426,0.132419 0.30765,3.04e-4 0.24,-0.339485 -0.0624,-0.313206 -0.74522,-0.805145 -1.56276,-1.125843 l -1.45201,-0.569571 0.12118,1.03799 c 0.10524,0.901396 0.22262,1.018602 0.892,0.89064 0.44218,-0.08453 0.77083,0.005 0.77083,0.209952 0,0.196519 0.144,0.357306 0.32,0.357306 0.176,0 0.32,-0.152499 0.32,-0.338886 z m 2.72,27.378988 c -1.056,-0.438425 -1.94088,-0.797804 -1.96639,-0.79862 -0.0533,-0.0016 -0.2283,-1.192234 -0.7892,-5.368445 -0.26679,-1.986397 -0.29227,-3.073178 -0.0771,-3.288333 0.21516,-0.215158 1.0664,-0.02778 2.57566,0.566963 l 2.25429,0.888333 0.55443,3.68 c 0.30494,2.024 0.57556,3.968 0.60138,4.32 0.0683,0.930515 -0.91197,0.930547 -3.15305,1.02e-4 z m 2.25256,-0.720102 c -0.32477,-0.842336 -0.76714,-2.907715 -1.04481,-4.878096 -0.22448,-1.592973 -0.35295,-1.809427 -1.36775,-2.30463 -1.88513,-0.919898 -2.03611,-0.815424 -1.79434,1.241651 0.11758,1.000409 0.36406,2.000006 0.54774,2.221325 0.18368,0.221321 0.28731,1.015939 0.23028,1.765817 -0.1026,1.349095 -0.0886,1.369277 1.33632,1.921274 1.89012,0.732233 2.36514,0.739645 2.09256,0.03266 z M 37.92,92.072483 c -2.630896,-1.129158 -2.529504,-0.964723 -3.165523,-5.133744 -0.57505,-3.769382 -0.537146,-4.534793 0.224409,-4.531833 0.72857,0.0029 4.222409,1.564086 4.430959,1.980016 0.21934,0.437465 1.00401,5.9128 1.04595,7.298502 0.0307,1.014845 -0.78351,1.139126 -2.535795,0.387059 z m 1.623905,-1.107059 c -0.1159,-0.396 -0.32894,-1.91224 -0.47341,-3.369421 -0.14447,-1.457181 -0.36105,-2.747801 -0.48129,-2.868045 -0.302923,-0.302918 -3.165602,-1.372806 -3.303698,-1.23471 -0.06179,0.06179 0.0557,1.030304 0.261085,2.152259 0.205386,1.121955 0.441446,2.645923 0.524579,3.386599 0.164618,1.466617 0.400493,1.7556 1.848829,2.265088 1.545405,0.543635 1.861245,0.479107 1.623905,-0.33177 z M 13.66,82.838758 c -0.343333,-0.343334 -0.258151,-2.993334 0.09622,-2.993334 0.269322,0 0.709027,1.713613 0.695888,2.712 -0.0052,0.39479 -0.502147,0.571293 -0.792106,0.281334 z m -0.871547,-6.433334 c -0.792225,-3.363472 -1.002009,-15.422781 -0.349312,-20.08 0.602356,-4.298016 1.240779,-5.986653 2.890479,-7.645344 2.770848,-2.785952 3.711018,-3.62713 4.27038,-3.820739 1.071996,-0.371047 0.545857,0.498349 -1.679358,2.774982 -2.628463,2.689197 -3.188514,4.049079 -4.040584,9.811101 -0.604263,4.086253 -0.792869,14.978003 -0.322779,18.64 0.345512,2.691536 -0.16062,2.902198 -0.768826,0.32 z M 20.8,44.079558 c 0,-0.425027 2.587592,-3.4123 3.378551,-3.900403 1.630207,-1.006003 1.134981,0.125376 -0.912178,2.083936 C 21.125014,44.311773 20.8,44.551146 20.8,44.079558 Z m 8,-8.018355 c 0,-0.480416 1.546407,-1.726976 1.968035,-1.586435 0.283251,0.09442 0.143634,0.408077 -0.442581,0.994291 C 29.481395,36.31312 28.8,36.577622 28.8,36.061203 Z m 3.198815,-3.094518 c 0.412705,-0.439306 0.820926,-0.728189 0.907153,-0.641962 0.212432,0.212435 -0.922601,1.440701 -1.331345,1.440701 -0.179401,0 0.01149,-0.359434 0.424192,-0.798739 z M 33.6,31.578758 c 0,-0.146667 0.488525,-0.758667 1.085613,-1.360001 1.76792,-1.780495 2.386333,-3.218148 2.773933,-6.448688 0.613667,-5.114766 0.764774,-5.39075 5.103159,-9.320473 2.11051,-1.911706 3.8373,-3.586615 3.8373,-3.72202 0,-0.135405 0.51695,-0.640493 1.14879,-1.1224183 0.97664,-0.7449177 1.26436,-0.8235689 1.92,-0.5248406 0.92515,0.4215268 1.01443,1.0051069 0.15377,1.0051069 -0.34363,0 -2.42496,1.667422 -4.69335,3.76 -3.4544,3.186655 -4.21417,4.0639 -4.98257,5.752974 -0.60679,1.333841 -0.90664,2.519253 -0.90664,3.584249 0,3.397579 -0.49546,4.599187 -2.770047,6.718074 C 34.288304,31.746726 33.6,32.179318 33.6,31.578758 Z"
     id="path12"
     inkscape:connector-curvature="0" />
</svg>
