<?xml version="1.0" encoding="UTF-8" standalone="no"?>
<!-- Created with Inkscape (http://www.inkscape.org/) -->

<svg
   xmlns:dc="http://purl.org/dc/elements/1.1/"
   xmlns:cc="http://creativecommons.org/ns#"
   xmlns:rdf="http://www.w3.org/1999/02/22-rdf-syntax-ns#"
   xmlns:svg="http://www.w3.org/2000/svg"
   xmlns="http://www.w3.org/2000/svg"
   xmlns:sodipodi="http://sodipodi.sourceforge.net/DTD/sodipodi-0.dtd"
   xmlns:inkscape="http://www.inkscape.org/namespaces/inkscape"
   version="1.1"
   id="svg2"
   width="462"
   height="204"
   viewBox="0 0 462 204"
   sodipodi:docname="system.svg"
   inkscape:version="0.92.4 (5da689c313, 2019-01-14)">
  <metadata
     id="metadata8">
    <rdf:RDF>
      <cc:Work
         rdf:about="">
        <dc:format>image/svg+xml</dc:format>
        <dc:type
           rdf:resource="http://purl.org/dc/dcmitype/StillImage" />
        <dc:title></dc:title>
      </cc:Work>
    </rdf:RDF>
  </metadata>
  <defs
     id="defs6">
    <filter
       inkscape:collect="always"
       style="color-interpolation-filters:sRGB"
       id="filter948"
       x="-1.7031283"
       width="4.4062567"
       y="-0.92634462"
       height="2.8526892">
      <feGaussianBlur
         inkscape:collect="always"
         stdDeviation="37.918387"
         id="feGaussianBlur950" />
    </filter>
  </defs>
  <sodipodi:namedview
     pagecolor="#ffffff"
     bordercolor="#666666"
     borderopacity="1"
     objecttolerance="10"
     gridtolerance="10"
     guidetolerance="10"
     inkscape:pageopacity="0"
     inkscape:pageshadow="2"
     inkscape:window-width="1600"
     inkscape:window-height="836"
     id="namedview4"
     showgrid="false"
     inkscape:zoom="2.0246816"
     inkscape:cx="220.22694"
     inkscape:cy="112.56617"
     inkscape:window-x="0"
     inkscape:window-y="36"
     inkscape:window-maximized="1"
     inkscape:current-layer="svg2" />
  <path
     style="fill:#000000;stroke-width:0.98024553"
     d="M 192.42556,200.98482 C 150.924,198.01384 113.33347,190.64825 83.268881,179.59634 77.839438,177.60045 71.316991,175.86528 68.774551,175.7404 60.398542,175.329 54.74058,174.15839 47.07255,171.25035 36.032329,167.06343 34.412253,165.55051 34.366531,159.38478 34.330781,154.56475 34.133013,154.19685 29.826067,150.93845 23.470255,146.12999 14.420095,135.33357 10.36162,127.71827 8.3312029,123.90841 6.1859381,117.76915 5.1484577,112.79938 3.4863289,104.83743 3.4789389,103.87659 5.0192261,95.99841 7.0456009,85.634032 11.314701,76.929267 18.543603,68.421998 c 6.323182,-7.441372 18.877893,-17.732932 28.959512,-23.73916 3.760925,-2.240617 6.965806,-4.545125 7.121966,-5.121135 0.156171,-0.57601 0.777526,-2.845652 1.380796,-5.043654 1.35892,-4.951187 7.894595,-12.423503 13.316031,-15.22438 3.174032,-1.639805 5.821724,-2.110302 11.97263,-2.12755 6.826645,-0.01918 8.5815,0.348846 12.943346,2.714131 l 5.045972,2.736275 6.800084,-1.993858 c 27.44702,-8.04779 62.06904,-13.3474689 103.04929,-15.7740176 47.38774,-2.8059582 106.43368,3.1718867 149.4903,15.1344756 52.50623,14.588021 88.3719,38.636936 97.89354,65.640327 4.90634,13.914398 3.84759,27.090958 -3.31272,41.227618 -6.59983,13.03012 -27.16184,30.90145 -46.88367,40.74861 -4.82148,2.40739 -5.67721,3.23513 -5.68274,5.49692 -0.0227,9.30672 -13.59712,15.29672 -22.51543,9.93542 l -3.2721,-1.96704 -11.53547,3.39712 c -50.70535,14.93241 -111.28485,20.78963 -170.88938,16.52272 z m 89.75834,-8.64463 c 30.96013,-3.3267 64.11592,-9.9471 85.32722,-17.03776 8.73793,-2.92097 8.84074,-2.93108 10.85888,-1.06749 3.38464,3.12544 7.29538,4.16461 11.06111,2.93918 4.20653,-1.36887 6.27748,-4.2868 6.27748,-8.84486 0,-3.54694 0.11579,-3.65093 9.62492,-8.64323 33.33039,-17.49846 51.9393,-41.76557 49.11562,-64.049616 C 449.06236,53.125095 384.30502,19.698337 287.11975,9.2635464 267.2753,7.1328431 220.62973,6.3387401 199.7551,7.7762201 166.74756,10.04922 135.59587,15.014596 110.32357,22.031044 L 97.891386,25.482627 92.78615,22.353414 C 88.645124,19.815209 86.602233,19.209745 81.969654,19.147683 70.987256,19.000559 61.451666,26.618023 60.32948,36.434845 59.844334,40.678799 59.541549,41.055863 54.268357,43.982742 39.126132,52.387428 24.680928,64.78855 17.775301,75.311821 11.44628,84.956431 9.4554129,92.148027 9.9082109,103.73008 c 0.3447111,8.81734 0.7194901,10.42095 3.9809741,17.03395 4.268752,8.65534 12.119979,18.27028 19.861982,24.32382 5.538458,4.33058 5.58859,4.41625 5.58859,9.55139 v 5.18162 l 6.43638,2.87758 c 7.91512,3.53871 17.761786,5.86783 23.950935,5.66533 3.412405,-0.11166 7.905357,1.05904 16.808991,4.3798 27.907907,10.40871 66.388757,17.93123 107.296007,20.97501 17.39256,1.29414 71.30804,0.45299 88.35183,-1.37839 z m -84.40314,-9.38768 c -25.73492,-1.60016 -52.24036,-5.27222 -73.54426,-10.18883 -12.36274,-2.85313 -33.563835,-9.23714 -33.563835,-10.10663 0,-0.33906 1.754184,-2.30543 3.898182,-4.36972 l 3.898189,-3.75326 12.636944,3.52306 c 34.55533,9.63371 65.97988,13.98755 107.89896,14.9493 43.19511,0.99103 86.80541,-3.41695 121.17527,-12.24799 l 7.15699,-1.83892 v 5.22221 c 0,4.15654 -0.38744,5.42668 -1.89856,6.22409 -3.26905,1.72508 -35.36959,7.68609 -52.39586,9.7298 -30.91267,3.71055 -65.0619,4.73468 -95.26202,2.85689 z m 153.89286,-11.98102 c -0.29562,-0.75959 1.2392,-4.1364 3.41071,-7.50401 3.80238,-5.89681 3.87806,-6.17139 2.04922,-7.43445 -2.53547,-1.75108 -2.40244,-4.63648 0.29981,-6.50275 l 2.19879,-1.51856 -3.14037,-3.09646 c -1.7272,-1.70305 -4.60462,-3.56313 -6.39426,-4.1335 -2.66255,-0.84857 -3.30924,-1.60021 -3.55835,-4.13582 -0.23312,-2.37277 0.20088,-3.36544 1.85242,-4.23696 2.76223,-1.45764 6.84298,0.19931 6.84298,2.77852 0,1.06669 2.50453,3.72916 6.09185,6.47601 l 6.09185,4.66461 6.83106,-7.42852 c 3.75709,-4.08569 7.12387,-7.42181 7.48175,-7.41362 0.35788,0.008 1.27292,0.40336 2.03341,0.87813 1.12975,0.70528 0.81369,1.85736 -1.72755,6.29724 -3.25742,5.69113 -3.58766,6.56124 -2.36988,6.24404 1.75527,-0.4572 5.13074,1.41828 5.69226,3.16274 1.45706,4.52661 -2.41083,7.76053 -7.68245,6.42324 -2.75188,-0.69809 4.91276,5.7976 9.52084,8.0688 2.41511,1.19034 3.08144,2.14513 3.08144,4.41542 0,3.93384 -4.3365,5.68059 -7.3739,2.97021 -1.10232,-0.98363 -2.00423,-2.35198 -2.00423,-3.04074 0,-0.68877 -2.58583,-3.21424 -5.7463,-5.61215 l -5.7463,-4.35985 -7.15235,7.70975 c -7.03143,7.5794 -9.51717,9.06596 -10.58245,6.32868 z M 56.615258,158.84216 C 45.682526,155.72038 46.24996,156.65888 46.24996,141.69854 v -13.06489 l 6.16982,2.87799 c 6.121597,2.85551 10.02428,3.52773 12.277882,2.11481 2.826064,-1.77185 3.270064,-6.83083 3.270064,-37.259994 V 65.282038 h 15.301155 15.301155 l -0.008,28.957709 c -0.009,31.714483 -0.98087,43.995373 -4.019562,50.785563 -5.93511,13.26251 -20.845563,18.69438 -37.927119,13.81685 z m 96.249212,-10.82382 v -7.78694 h 5.85251 c 6.15048,0 8.95506,1.48502 8.95506,4.74169 0,2.81151 -2.135,4.01862 -7.10764,4.01862 h -4.73842 v 3.40679 c 0,2.37934 -0.44658,3.40679 -1.48076,3.40679 -1.19283,0 -1.48075,-1.51413 -1.48075,-7.78695 z m 11.52729,-2.53165 c 0.77854,-2.00047 -1.29426,-3.27477 -5.35747,-3.29365 -2.76811,-0.0129 -3.20831,0.31897 -3.20831,2.41852 0,2.19323 0.39281,2.43342 3.97966,2.43342 2.73834,0 4.16884,-0.48606 4.58612,-1.55829 z m 13.15199,9.32094 c 0,-0.54872 1.56038,-4.05284 3.46751,-7.78695 4.58972,-8.98654 6.13288,-8.98158 10.22071,0.0329 1.70153,3.75218 3.09369,7.25631 3.09369,7.78695 0,1.88019 -2.03287,0.92973 -3.14113,-1.46862 -0.91681,-1.98403 -1.82835,-2.43342 -4.93586,-2.43342 -3.10751,0 -4.01906,0.44939 -4.93585,2.43342 -1.10252,2.38587 -3.76907,3.40164 -3.76907,1.43572 z m 10.85888,-6.2568 c 0,-0.24249 -0.52663,-1.58054 -1.17028,-2.97345 l -1.17027,-2.53257 -1.26267,2.24343 c -1.79958,3.19735 -1.64442,3.70347 1.13529,3.70347 1.35736,0 2.46793,-0.1984 2.46793,-0.44088 z m 22.21135,6.13048 c -5.00663,-2.70013 -5.87308,-7.83435 -2.05981,-12.20556 1.95126,-2.23676 3.18315,-2.73104 6.80656,-2.73104 4.19393,0 8.58007,2.31626 8.58007,4.53102 0,1.35443 -2.62938,0.92989 -3.94869,-0.63754 -1.91645,-2.27691 -7.50462,-1.85533 -9.32215,0.70327 -2.0683,2.91161 -1.93418,5.23173 0.43761,7.57036 2.6378,2.60092 5.16129,2.45305 8.7348,-0.51181 2.10459,-1.74614 3.17354,-2.12302 3.68902,-1.30062 0.4293,0.68489 -0.3695,2.08686 -1.95538,3.43191 -2.8913,2.45222 -7.62636,2.94896 -10.96203,1.15001 z m 92.53979,-0.3082 c -5.60006,-2.43827 -6.63509,-7.98508 -2.28955,-12.26985 3.51882,-3.46963 9.3827,-3.91112 13.04659,-0.98228 3.25346,2.60075 1.55116,3.6829 -2.45067,1.5579 -4.3694,-2.32017 -8.02655,-1.42271 -9.33986,2.29197 -1.52238,4.30604 0.4373,7.35384 4.96845,7.72717 2.80508,0.23111 3.92494,-0.15787 4.90382,-1.7034 1.47016,-2.32119 3.75517,-2.66518 3.75517,-0.56529 0,3.53498 -7.87151,5.99993 -12.59395,3.94378 z m -65.39258,-6.84145 c 0,-5.84021 0.29615,-7.30026 1.48076,-7.30026 1.1846,0 1.48076,1.46005 1.48076,7.30026 0,5.84021 -0.29616,7.30026 -1.48076,7.30026 -1.18461,0 -1.48076,-1.46005 -1.48076,-7.30026 z m 16.78191,0 v -7.30026 h 7.46205 c 4.72332,0 7.23812,0.35724 6.85194,0.97337 -0.33556,0.53535 -3.02714,0.97336 -5.98129,0.97336 -4.71307,0 -5.37118,0.23853 -5.37118,1.94674 0,1.68717 0.65811,1.94674 4.93585,1.94674 6.28048,0 6.48171,1.74227 0.2468,2.13675 -4.6466,0.29398 -4.68616,0.32532 -4.36787,3.46012 0.26952,2.65456 -0.008,3.16344 -1.72755,3.16344 -1.89144,0 -2.04875,-0.56054 -2.04875,-7.30026 z m 27.84607,-0.24334 c 0.16016,-4.19063 0.72709,-7.54361 1.27548,-7.54361 0.5484,0 1.11533,3.35298 1.27549,7.54361 0.24286,6.35421 0.0418,7.5436 -1.27549,7.5436 -1.31724,0 -1.51834,-1.18939 -1.27548,-7.5436 z m 109.37692,1.55735 c -1.63223,-2.22173 -2.9677,-4.34529 -2.9677,-4.71901 0,-0.37372 1.88797,-1.5083 4.19548,-2.52127 7.53932,-3.30971 20.84845,-12.72713 27.17682,-19.23008 13.76383,-14.14351 15.30587,-27.269839 4.99252,-42.498226 C 412.3125,60.902056 373.59853,42.897271 324.95182,33.271563 259.98048,20.4157 183.2715,22.110354 122.26216,37.749359 c -19.35772,4.962125 -17.76909,4.79089 -17.76909,1.915258 0,-1.365947 -0.43828,-3.620161 -0.97395,-5.009372 -1.19732,-3.105155 -0.81817,-3.275816 17.35049,-7.80998 66.4655,-16.587102 156.00862,-16.810753 223.16004,-0.55738 25.57805,6.190938 51.07941,16.313472 67.60219,26.834095 11.1836,7.120988 22.77967,19.090665 27.01598,27.886411 11.64878,24.186039 -1.30527,48.692189 -35.87062,67.859139 -3.98496,2.20971 -7.42493,4.01766 -7.64439,4.01766 -0.21946,0 -1.73448,-1.81779 -3.36672,-4.03952 z M 34.230054,129.70199 C 27.800099,122.84727 23.069227,114.03257 21.419066,105.8322 17.994087,88.811973 29.860869,68.951578 51.983046,54.679954 c 4.47463,-2.886709 8.254341,-5.076788 8.399356,-4.866842 3.98899,5.775043 5.700893,9.11248 4.822301,9.401249 -5.898811,1.938775 -22.11161,15.334504 -26.947922,22.265559 -8.135409,11.659074 -8.098072,25.01766 0.101662,36.37211 1.730183,2.39585 2.00739,4.01979 1.763851,10.333 l -0.288951,7.49042 z m 92.705836,-1.23672 c -9.6217,-2.23514 -16.83876,-8.60341 -20.44178,-18.0376 -1.84376,-4.82774 -2.12414,-7.17242 -1.79029,-14.971212 0.33278,-7.77406 0.85261,-10.154276 3.26338,-14.942821 5.31768,-10.562565 14.61396,-16.226206 26.56366,-16.183592 5.8856,0.02102 13.35345,2.412377 14.81498,4.74411 1.18019,1.882884 2.53146,1.157627 2.53146,-1.358696 v -2.433421 h 14.82124 14.82125 l -0.26048,31.391127 -0.26046,31.391125 h -14.31399 -14.31398 l -0.31422,-2.6957 -0.31421,-2.69571 -2.77303,1.94695 c -2.90718,2.04117 -12.85473,4.97415 -16.30258,4.80674 -1.10754,-0.0538 -3.68648,-0.48636 -5.73095,-0.9613 z m 22.24357,-25.9519 c 4.00338,-4.380229 2.79802,-11.813656 -2.24994,-13.875358 -3.30747,-1.35085 -6.22479,-0.626537 -8.90602,2.211182 -2.61606,2.768756 -2.59835,8.825886 0.0334,11.420836 2.53671,2.50125 8.93105,2.64115 11.12256,0.24334 z M 191.36414,85.23609 V 42.894565 h 14.29704 14.29703 l 0.26374,24.577552 0.26375,24.577552 6.17743,-11.923763 6.17743,-11.923763 h 15.29354 c 8.41145,0 15.29354,0.302027 15.29354,0.671177 0,0.36915 -3.99804,6.465385 -8.88454,13.547185 -4.88649,7.08181 -8.88454,13.168477 -8.88454,13.525937 0,0.357456 4.22016,7.420638 9.37813,15.695938 5.15797,8.27531 9.37813,15.24608 9.37813,15.49062 0,0.24453 -7.32614,0.44461 -16.28029,0.44461 h -16.28029 l -5.87988,-11.43708 -5.87987,-11.43708 -0.0512,11.43708 -0.0511,11.43708 h -14.31398 -14.31399 z m 79.21063,-2.49083 0.25666,-44.832346 14.80757,-5.93e-4 14.80757,-5.94e-4 0.49358,25.434826 0.49359,25.434817 5.89018,-11.749666 5.89019,-11.749666 h 16.58541 16.5854 l -8.95115,13.187205 c -4.92314,7.252957 -9.20306,13.834475 -9.51095,14.625599 -0.44898,1.153646 10.02548,19.723898 18.21453,32.292688 l 1.42692,2.19008 h -17.41561 -17.41561 l -5.89645,-11.81343 -5.89645,-11.81343 v 11.81343 11.81343 h -15.31101 -15.31101 z m 89.10207,43.72947 c -2.17178,-0.49902 -5.58781,-1.34084 -7.59119,-1.8707 l -3.64249,-0.96339 -0.30619,-11.17412 c -0.16841,-6.14576 -0.0786,-11.06364 0.19962,-10.92864 0.2782,0.13501 2.94356,1.43985 5.92303,2.89965 6.67954,3.27266 15.44733,4.44734 18.16405,2.43356 3.01598,-2.2356 1.30922,-4.38291 -4.05158,-5.09738 -7.93176,-1.05712 -13.6229,-3.279899 -16.85347,-6.582427 -5.80139,-5.930626 -6.62275,-12.049171 -2.66798,-19.874401 2.70848,-5.35922 7.09482,-8.927618 14.2813,-11.618193 6.2649,-2.345545 25.0506,-2.378309 32.82344,-0.05723 l 5.67624,1.694985 V 76.09742 c 0,5.918538 -0.33317,10.595972 -0.74038,10.3943 -10.24104,-5.071989 -17.40052,-6.575766 -20.4838,-4.302415 -2.80633,2.069128 -1.15356,3.309851 7.24735,5.440555 13.10325,3.323352 17.45126,7.435327 17.40086,16.45623 -0.0573,10.26425 -7.36048,18.46734 -19.64474,22.06556 -5.39352,1.57984 -19.49425,1.75687 -25.73407,0.3231 z M 74.84827,55.305012 c -11.311492,-5.634489 -12.146944,-19.7213 -1.625506,-27.408158 3.9114,-2.857635 13.21932,-2.857635 17.130719,0 7.370023,5.384462 9.588043,15.103653 5.000279,21.91069 -2.455213,3.64287 -9.59255,7.687547 -13.565639,7.687547 -1.398742,0 -4.521678,-0.985536 -6.939853,-2.190079 z"
     id="path50"
     inkscape:connector-curvature="0" />
  <path
     style="opacity:0;fill:#ff0000;stroke:#000000;stroke-width:0.242074;stroke-miterlimit:4;stroke-dasharray:none;stroke-opacity:1"
     d="m 61.378981,160.07065 c -5.086256,-0.96124 -11.627555,-3.03607 -13.050028,-4.13935 -0.840993,-0.65227 -1.427972,-1.77129 -1.781345,-3.39597 -0.471137,-2.16614 -0.788231,-24.00963 -0.348537,-24.00963 0.09817,0 2.237384,0.95949 4.753794,2.13219 8.555251,3.98697 12.592255,4.45891 14.626134,1.70986 1.720351,-2.32528 1.981904,-6.67662 2.246527,-37.37445 l 0.257976,-29.926775 h 15.35457 15.354564 L 98.534506,94.9933 c -0.31901,36.98319 -0.92152,43.74802 -4.564795,51.25198 -2.995361,6.16946 -9.103491,11.15465 -16.257181,13.26841 -3.651022,1.07879 -12.055806,1.36539 -16.333549,0.55696 z"
     id="path80"
     inkscape:connector-curvature="0" />
  <path
     style="opacity:0;fill:#ff0000;stroke:#000000;stroke-width:0.242074;stroke-miterlimit:4;stroke-dasharray:none;stroke-opacity:1"
     d="m 61.378981,160.07065 c -5.086256,-0.96124 -11.627555,-3.03607 -13.050028,-4.13935 -0.840993,-0.65227 -1.427972,-1.77129 -1.781345,-3.39597 -0.471137,-2.16614 -0.788231,-24.00963 -0.348537,-24.00963 0.09817,0 2.237384,0.95949 4.753794,2.13219 8.555251,3.98697 12.592255,4.45891 14.626134,1.70986 1.720351,-2.32528 1.981904,-6.67662 2.246527,-37.37445 l 0.257976,-29.926775 h 15.35457 15.354564 L 98.534506,94.9933 c -0.31901,36.98319 -0.92152,43.74802 -4.564795,51.25198 -2.995361,6.16946 -9.103491,11.15465 -16.257181,13.26841 -3.651022,1.07879 -12.055806,1.36539 -16.333549,0.55696 z"
     id="path82"
     inkscape:connector-curvature="0" />
  <path
     style="opacity:0;fill:#ff0000;stroke:#000000;stroke-width:0.242074;stroke-miterlimit:4;stroke-dasharray:none;stroke-opacity:1"
     d="m 61.378981,160.07065 c -5.086256,-0.96124 -11.627555,-3.03607 -13.050028,-4.13935 -0.840993,-0.65227 -1.427972,-1.77129 -1.781345,-3.39597 -0.471137,-2.16614 -0.788231,-24.00963 -0.348537,-24.00963 0.09817,0 2.237384,0.95949 4.753794,2.13219 8.555251,3.98697 12.592255,4.45891 14.626134,1.70986 1.720351,-2.32528 1.981904,-6.67662 2.246527,-37.37445 l 0.257976,-29.926775 h 15.35457 15.354564 L 98.534506,94.9933 c -0.31901,36.98319 -0.92152,43.74802 -4.564795,51.25198 -2.995361,6.16946 -9.103491,11.15465 -16.257181,13.26841 -3.651022,1.07879 -12.055806,1.36539 -16.333549,0.55696 z"
     id="path892"
     inkscape:connector-curvature="0" />
  <path
     style="opacity:0;fill:#ff0000;stroke:#000000;stroke-width:0.24695241;stroke-miterlimit:4;stroke-dasharray:none;stroke-opacity:1;filter:url(#filter948)"
     d="M 13.825041,-71.284653 C 7.7906339,-72.38172 1.6910774,-74.475501 0.20745157,-75.959127 -1.6179464,-77.784525 -1.8090823,-79.514817 -1.6330009,-92.620156 l 0.1469929,-10.940344 5.395559,2.46647 c 8.716484,3.984565 12.853518,4.213777 14.488394,0.80272 1.277392,-2.66519 1.604007,-9.20591 1.925418,-38.55798 l 0.328557,-30.00472 h 15.548292 15.548289 l -0.284356,29.75777 c -0.283822,29.70152 -0.673039,38.10282 -2.110821,45.562715 -3.194292,16.57348 -17.492962,25.527738 -35.528283,22.248872 z"
     id="path894"
     inkscape:connector-curvature="0" />
  <path
     style="opacity:1;fill:#2a7fff;stroke:#000000;stroke-width:0.242074;stroke-miterlimit:4;stroke-dasharray:none;stroke-opacity:1"
     d="m 61.476494,160.03745 c -5.956993,-1.06785 -11.9783,-3.10587 -13.442893,-4.54998 -1.801981,-1.77679 -1.990664,-3.461 -1.816842,-16.21732 l 0.145108,-10.64899 5.32634,2.40078 c 8.604663,3.87846 12.688623,4.10156 14.302526,0.78134 1.261005,-2.59421 1.58343,-8.96074 1.900717,-37.53111 l 0.324342,-29.205645 h 15.348827 15.348817 l -0.2807,28.965272 c -0.28019,28.910513 -0.6644,37.088073 -2.083739,44.349303 -3.153318,16.1321 -17.268553,24.8479 -35.072503,21.65635 z"
     id="path960"
     inkscape:connector-curvature="0" />
  <path
     style="opacity:1;fill:#2a7fff;stroke:#000000;stroke-width:0.242074;stroke-miterlimit:4;stroke-dasharray:none;stroke-opacity:1"
     d="m 270.40104,91.628035 c 7.6e-4,-19.764888 0.14516,-39.992505 0.32088,-44.95025 l 0.3195,-9.014082 h 14.7355 14.7355 l 0.30672,15.984977 c 0.1687,8.791736 0.44171,20.093662 0.60671,25.115376 l 0.3,9.1304 5.79193,-11.413961 5.79194,-11.41397 h 16.6041 c 13.15612,0 16.52706,0.124785 16.23306,0.600938 -0.20407,0.330517 -3.8597,5.79305 -8.12361,12.138974 -4.26392,6.345914 -8.28931,12.440388 -8.9453,13.543263 l -1.19273,2.005226 2.52388,4.965665 c 3.03996,5.981019 9.03504,16.331109 13.64899,23.564019 1.85757,2.91196 3.3774,5.38112 3.3774,5.48702 0,0.10592 -7.85917,0.19257 -17.46483,0.19257 h -17.46484 l -5.65312,-11.41785 -5.65311,-11.41784 -0.0416,11.41784 -0.0416,11.41785 h -15.35833 -15.35841 l 9.9e-4,-35.936165 z"
     id="path962"
     inkscape:connector-curvature="0" />
  <path
     style="opacity:1;fill:#2a7fff;stroke:#000000;stroke-width:0.242074;stroke-miterlimit:4;stroke-dasharray:none;stroke-opacity:1"
     d="m 76.782471,56.242716 c -7.181946,-2.913077 -10.853995,-7.8899 -10.887383,-14.755963 -0.0153,-3.146267 0.194116,-4.052726 1.575444,-6.81937 3.7573,-7.525454 11.269189,-10.697175 19.575012,-8.265098 5.484095,1.605834 10.129763,7.886273 10.604672,14.336367 0.48238,6.551509 -2.750129,11.508105 -9.760378,14.966161 -4.133922,2.039197 -7.057045,2.180754 -11.107367,0.537903 z"
     id="path964"
     inkscape:connector-curvature="0" />
  <path
     style="opacity:1;fill:#ff0000;stroke:#000000;stroke-width:0.242074;stroke-miterlimit:4;stroke-dasharray:none;stroke-opacity:1"
     d="M 191.41355,85.258078 V 42.951965 h 14.38327 14.38328 v 11.700423 c 0,6.43523 0.14503,17.258075 0.3223,24.050755 l 0.3223,12.350341 5.98156,-11.431043 5.98156,-11.431034 14.92609,0.04448 c 8.35274,0.02492 15.12336,0.238972 15.37403,0.486139 0.27221,0.268406 -2.98228,5.531847 -8.29573,13.416579 -4.80902,7.136192 -8.74982,13.334251 -8.75732,13.773464 -0.008,0.4392 4.13611,7.575161 9.20805,15.857681 5.07194,8.2825 9.118,15.22456 8.99124,15.42679 -0.12675,0.20221 -7.51494,0.36768 -16.4182,0.36768 h -16.18774 l -5.69637,-11.17748 -5.69638,-11.17747 -0.0276,11.17747 -0.0277,11.17748 h -14.38328 -14.38327 z"
     id="path966"
     inkscape:connector-curvature="0" />
  <path
     style="opacity:1;fill:#ff0000;stroke:#000000;stroke-width:0.242074;stroke-miterlimit:4;stroke-dasharray:none;stroke-opacity:1"
     d="m 200.92114,183.30399 c -32.14859,-2.00929 -63.21151,-6.65853 -86.51985,-12.9496 -9.49071,-2.5616 -20.499774,-5.99886 -22.592555,-7.05386 l -1.359721,-0.68546 1.603505,-1.84292 c 0.881927,-1.01362 2.737241,-2.84656 4.122912,-4.07321 l 2.519415,-2.23028 9.426024,2.62424 c 37.2121,10.36 65.48938,14.44858 108.09874,15.62985 43.41965,1.20373 86.45645,-2.87878 121.6669,-11.54143 4.31338,-1.0612 8.22647,-2.04278 8.69576,-2.18127 0.77017,-0.2273 0.85254,0.18428 0.84605,4.22754 -0.009,5.53251 -0.49841,6.59185 -3.56494,7.71451 -4.33367,1.58656 -31.14644,6.58725 -46.89122,8.7454 -6.20204,0.85011 -22.18318,2.4202 -32.42332,3.18546 -9.08863,0.67922 -54.7118,0.98827 -63.6277,0.43103 z"
     id="path968"
     inkscape:connector-curvature="0" />
  <path
     style="opacity:1;fill:#ff0000;stroke:#000000;stroke-width:0.242074;stroke-miterlimit:4;stroke-dasharray:none;stroke-opacity:1"
     d="m 392.40305,149.79895 c -2.5368,-3.40321 -3.5242,-5.03189 -3.5242,-5.81302 0,-0.25727 2.23857,-1.60158 4.97463,-2.98733 11.94876,-6.05184 25.05152,-16.30179 31.00105,-24.25131 8.88817,-11.87601 9.01859,-23.205 0.41971,-36.45926 C 419.65915,71.632955 406.96651,62.108224 390.58534,54.256996 334.47412,27.363788 242.31245,17.759193 160.20916,30.248414 c -12.42869,1.890606 -24.35136,4.301863 -39.00551,7.888521 -17.10307,4.186059 -15.89435,3.947574 -16.4619,3.247936 -0.26604,-0.327957 -0.6322,-1.894321 -0.81369,-3.480795 -0.67962,-5.940733 -0.74881,-5.658083 1.6734,-6.835813 2.73242,-1.32856 22.65864,-6.252227 34.37359,-8.493544 49.35797,-9.443221 106.9967,-11.015045 159.67874,-4.354481 38.79974,4.905427 70.40583,13.585225 97.05993,26.654996 13.79645,6.765056 21.32017,11.877303 29.70791,20.186044 9.82172,9.729226 14.60595,18.165225 16.12988,28.441785 2.7341,18.437177 -9.95375,37.595567 -34.77971,52.516617 -5.21228,3.13272 -12.24296,7.02434 -12.69033,7.02434 -0.14273,0 -1.34801,-1.46029 -2.67842,-3.24507 z"
     id="path970"
     inkscape:connector-curvature="0" />
  <path
     style="opacity:1;fill:#ff0000;stroke:#000000;stroke-width:0.242074;stroke-miterlimit:4;stroke-dasharray:none;stroke-opacity:1"
     d="M 35.757789,131.42979 C 27.497298,122.45247 23.396935,115.22962 21.468801,106.25952 17.562759,88.087767 30.92734,67.119349 55.994988,52.089499 c 2.348426,-1.408045 4.375599,-2.455837 4.504828,-2.328414 0.648075,0.639017 5.121011,8.322066 5.121011,8.796233 0,0.301725 -0.932475,0.998929 -2.072166,1.54933 -5.406378,2.610963 -18.320588,13.13659 -23.087411,18.817226 -3.141254,3.743429 -6.195607,9.594249 -7.319104,14.020223 -0.585686,2.307282 -0.727554,4.433984 -0.545186,8.172763 0.293562,6.01837 1.246639,8.97729 4.87975,15.14967 l 2.546764,4.32677 0.158873,6.0419 c 0.08738,3.32305 -0.02232,6.68512 -0.243784,7.47125 l -0.402658,1.42932 z"
     id="path972"
     inkscape:connector-curvature="0" />
  <path
     style="opacity:1;fill:#2ca02c;stroke:#000000;stroke-width:0.242074;stroke-miterlimit:4;stroke-dasharray:none;stroke-opacity:1"
     d="m 127.54205,128.71077 c -4.99628,-1.07186 -9.66802,-3.51698 -13.46032,-7.04495 -4.02758,-3.74685 -6.60301,-7.84582 -8.31751,-13.23789 -1.21564,-3.82317 -1.25907,-4.34342 -1.0234,-12.259165 0.28026,-9.41388 0.93004,-12.060975 4.38933,-17.881581 5.86844,-9.874258 17.04308,-15.309654 28.39591,-13.811893 4.8096,0.634519 9.07417,2.158736 11.20767,4.005781 0.88495,0.766128 1.8287,1.392968 2.09723,1.392968 0.57251,0 1.07344,-1.612336 1.08287,-3.485448 l 0.007,-1.322067 h 14.95021 14.9502 l -0.32315,20.270396 c -0.17773,11.148705 -0.32314,25.322079 -0.32314,31.496359 v 11.22597 l -14.50517,-0.12734 -14.50517,-0.12734 -0.14861,-2.28357 c -0.0817,-1.25597 -0.30505,-2.28357 -0.49628,-2.28357 -0.19121,0 -1.11167,0.50032 -2.04544,1.11183 -2.4396,1.59761 -5.98833,2.9884 -10.55526,4.13674 -4.54253,1.14219 -6.88448,1.18847 -11.37663,0.22477 z m 21.39288,-26.3292 c 2.62973,-2.48422 3.23107,-8.070854 1.16276,-10.802398 -1.77154,-2.339598 -3.4391,-3.196211 -6.22209,-3.196211 -4.4601,0 -7.16402,2.754077 -7.43901,7.577011 -0.32073,5.625218 2.33715,8.247038 8.04001,7.930948 2.53111,-0.14028 3.27603,-0.39248 4.45833,-1.50935 z"
     id="path974"
     inkscape:connector-curvature="0" />
  <path
     style="opacity:1;fill:#2ca02c;stroke:#000000;stroke-width:0.242074;stroke-miterlimit:4;stroke-dasharray:none;stroke-opacity:1"
     d="m 363.52528,127.25804 c -2.52678,-0.32342 -13.7916,-3.02715 -14.55265,-3.49285 -0.89642,-0.54853 -1.50529,-22.16157 -0.62433,-22.16157 0.31435,0 2.27791,0.84594 4.36344,1.87986 9.42967,4.67486 19.65305,5.55635 20.86256,1.79883 0.44752,-1.39034 -1.21259,-2.54526 -4.57911,-3.18566 -12.95694,-2.4647 -18.17816,-5.494395 -21.44375,-12.443054 -2.67418,-5.690273 -0.25556,-14.508494 5.49864,-20.047826 3.20782,-3.088051 9.20034,-6.110359 13.88817,-7.004447 4.03626,-0.769817 20.69091,-0.784924 24.62223,-0.02229 1.60897,0.312111 4.5161,1.031002 6.46027,1.597531 l 3.53487,1.030067 v 9.986419 c 0,5.492543 -0.1256,10.309178 -0.27912,10.703646 -0.23094,0.593414 -0.89569,0.440166 -3.85096,-0.887771 -5.22049,-2.345779 -9.72784,-3.59682 -12.95898,-3.59682 -2.34818,0 -3.0865,0.210793 -4.21487,1.203346 l -1.368,1.203346 1.05272,0.881531 c 0.57899,0.484845 3.87007,1.693827 7.31352,2.686643 7.55014,2.176851 11.55722,3.980542 13.96451,6.28578 3.12327,2.990865 3.51039,4.13167 3.51039,10.344779 0,5.3203 -0.065,5.66884 -1.64694,8.83736 -3.11387,6.23674 -10.1069,11.39729 -18.34338,13.53662 -2.90413,0.75431 -17.44484,1.34842 -21.20923,0.86657 z"
     id="path976"
     inkscape:connector-curvature="0" />
  <path
     style="opacity:1;fill:#b7bec8;stroke:#000000;stroke-width:0.242074;stroke-miterlimit:4;stroke-dasharray:none;stroke-opacity:1"
     d="m 214.32927,202.22428 c -22.13006,-0.58076 -53.06792,-3.74239 -74.37412,-7.6005 -18.15494,-3.28749 -39.27402,-8.72049 -53.368871,-13.72943 -9.876917,-3.51001 -14.54115,-4.7015 -20.620424,-5.26758 -6.80086,-0.63327 -10.632433,-1.45023 -16.885214,-3.60024 -9.215644,-3.16877 -13.777614,-6.03605 -14.389388,-9.04397 -0.116855,-0.57455 -0.327829,-2.50373 -0.468829,-4.28706 -0.141001,-1.78332 -0.47978,-3.65403 -0.752845,-4.15712 -0.273064,-0.5031 -2.292874,-2.39209 -4.488465,-4.19776 C 21.962576,144.5685 13.788848,134.48947 9.9254659,126.84307 7.7316579,122.50109 5.9479923,117.05994 4.646025,110.7379 3.4846457,105.09851 3.5700726,102.33243 5.1285642,95.113482 9.2941009,75.818653 21.436108,61.384389 47.928242,44.233774 c 6.080651,-3.936516 6.471973,-4.285001 6.975281,-6.211599 1.62061,-6.203552 3.876697,-9.925119 8.783817,-14.489526 5.848332,-5.439883 10.351555,-6.876458 20.123928,-6.419744 5.252405,0.245474 5.428374,0.291923 10.472472,2.764211 l 5.130296,2.514531 8.822654,-2.457511 c 20.63318,-5.747293 40.67301,-9.442325 66.59952,-12.2799469 30.26207,-3.3121293 54.64616,-4.2912015 78.74234,-3.1616854 71.65544,3.3588994 129.76988,17.8596343 167.23216,41.7278373 34.34689,21.883297 46.36055,49.179866 34.02118,77.300469 -2.35226,5.36064 -4.34621,8.4302 -9.12199,14.04274 -8.70696,10.23247 -22.49779,20.97476 -37.20515,28.98073 -3.41977,1.86156 -6.49663,3.65414 -6.83745,3.98352 -0.34083,0.32939 -0.82875,1.86545 -1.08427,3.41348 -1.07882,6.53586 -6.98788,10.99011 -14.65361,11.04591 -3.31615,0.0241 -4.05731,-0.15664 -7.48195,-1.82497 l -3.80119,-1.85176 -12.02079,3.4106 c -46.78714,13.27464 -94.56144,18.91338 -148.29622,17.50322 z m 29.01034,-8.31785 c 11.26283,-0.25455 24.20778,-0.69052 28.76654,-0.96881 26.66041,-1.62752 67.01818,-8.9386 91.66291,-16.60537 13.02299,-4.05134 12.26051,-3.90183 13.78841,-2.70375 3.55345,2.78637 5.6428,3.67836 8.63386,3.68598 5.73386,0.0146 8.80526,-2.80392 9.35253,-8.58257 0.37307,-3.93929 0.64729,-4.20449 9.04958,-8.75198 17.61635,-9.53432 30.19803,-19.49259 38.71821,-30.64509 4.19344,-5.489 8.48999,-13.80962 9.97534,-19.31807 1.46779,-5.44329 1.50465,-13.878228 0.0851,-19.47042 C 443.52389,51.750086 384.27977,21.493277 296.72838,10.546193 285.18024,9.1022594 277.40833,8.4765491 263.32992,7.8573121 249.42535,7.2457151 209.77263,7.2492191 200.67736,7.8631121 164.94795,10.273648 131.23762,15.936248 102.18849,24.407084 L 98.044136,25.615588 93.656024,23.026 c -5.134385,-3.029988 -7.071008,-3.628454 -11.701647,-3.616151 -6.552664,0.01742 -11.615002,1.995775 -15.872856,6.203102 -3.189459,3.151611 -4.635583,5.887613 -5.513684,10.43163 -0.352488,1.824044 -0.897194,3.788662 -1.210462,4.36583 -0.313273,0.577169 -3.428875,2.72512 -6.923572,4.773243 -12.557509,7.359512 -26.103923,18.736465 -32.525597,27.31663 -3.418559,4.567609 -7.136829,11.727892 -8.497535,16.363705 -1.00366,3.419384 -1.128883,4.859239 -1.128883,12.980281 0,8.16604 0.116635,9.49099 1.100321,12.49953 3.426754,10.48051 11.365731,21.01694 24.632072,32.69113 l 3.277941,2.88454 v 4.8592 4.85919 l 4.51001,2.0391 c 8.999517,4.06892 16.141578,5.9176 25.802404,6.67882 5.022226,0.39571 6.605249,0.76639 13.647427,3.1957 18.480247,6.37504 27.752927,9.03557 43.558737,12.49795 23.7417,5.2008 53.04624,9.06278 74.59801,9.83113 14.75055,0.52587 19.6841,0.52895 41.9309,0.0262 z"
     id="path978"
     inkscape:connector-curvature="0" />
  <path
     style="opacity:1;fill:#b7bec8;stroke:#000000;stroke-width:0.242074;stroke-miterlimit:4;stroke-dasharray:none;stroke-opacity:1"
     d="m 351.8376,171.33831 c -0.50866,-0.93715 0.37554,-2.89398 5.1445,-11.38528 l 1.38477,-2.46564 -1.56513,-1.75766 c -2.1675,-2.43413 -2.05297,-3.82872 0.50703,-6.17412 l 2.07217,-1.89844 -2.68163,-2.41343 c -1.47489,-1.32738 -4.05595,-3.0577 -5.73569,-3.84515 -3.61727,-1.69575 -4.50325,-2.77652 -4.50325,-5.49332 0,-2.52154 1.63179,-4.01432 4.38812,-4.01432 2.09231,0 4.38812,1.51865 4.38812,2.90269 0,0.50042 0.67711,1.67029 1.50471,2.59968 1.70111,1.91037 9.85153,8.43942 10.5352,8.43942 0.24561,0 3.45796,-3.24506 7.13856,-7.21126 3.6806,-3.9662 6.96569,-7.21127 7.3002,-7.21127 0.99254,0 2.77545,1.43857 2.77545,2.23942 0,0.40846 -1.20674,2.96091 -2.68163,5.67211 -1.47489,2.71121 -2.68163,5.06897 -2.68163,5.23948 0,0.17052 0.60337,0.31084 1.34081,0.31182 2.05288,0.003 4.33362,1.62014 4.97133,3.52541 1.25313,3.74393 -2.05643,6.99078 -6.53849,6.41459 l -1.96771,-0.25296 2.8017,2.58469 c 1.54094,1.42158 4.34667,3.4897 6.23495,4.59583 3.6384,2.13131 4.37149,2.97061 4.37149,5.00483 0,4.27025 -4.18732,5.97792 -7.54035,3.07508 -0.94789,-0.82063 -1.72346,-1.77755 -1.72346,-2.1265 0,-0.34893 -0.56434,-1.29574 -1.25411,-2.10402 -1.39017,-1.62903 -9.68975,-8.21921 -10.35115,-8.21921 -0.23051,0 -2.70512,2.50594 -5.49912,5.56875 -5.47458,6.00132 -9.30738,9.33454 -10.73356,9.33454 -0.49187,0 -1.12285,-0.42109 -1.4022,-0.93576 z"
     id="path980"
     inkscape:connector-curvature="0" />
  <path
     style="opacity:1;fill:#ff0000;stroke:#000000;stroke-width:0.242074;stroke-miterlimit:4;stroke-dasharray:none;stroke-opacity:1"
     d="m 153.40035,154.99863 c -0.28166,-0.51892 -0.50472,-4.02476 -0.50472,-7.9324 v -7.00249 h 4.17221 c 8.23615,0 11.47395,1.97233 10.32168,6.28753 -0.46892,1.75607 -2.39844,2.47979 -7.30226,2.73892 l -4.26623,0.22543 v 2.72955 c 0,3.47078 -1.28736,5.04148 -2.42068,2.95346 z m 10.52904,-9.43626 c 0.5626,-0.83837 0.5617,-1.13128 -0.006,-1.89652 -0.50908,-0.68648 -1.46414,-0.95481 -3.95511,-1.1112 -3.48113,-0.21856 -4.1249,0.10803 -4.13999,2.10026 -0.013,1.71713 0.98406,2.18776 4.31872,2.03849 2.51305,-0.1125 3.2457,-0.33159 3.78216,-1.13103 z"
     id="path982"
     inkscape:connector-curvature="0" />
  <path
     style="opacity:1;fill:#ff0000;stroke:#000000;stroke-width:0.242074;stroke-miterlimit:4;stroke-dasharray:none;stroke-opacity:1"
     d="m 177.53128,155.46922 c -0.62535,-0.9977 4.61093,-11.57988 6.96877,-14.08343 1.51065,-1.604 2.05654,-1.64302 3.36259,-0.24037 1.77054,1.90151 6.47633,12.00469 6.47633,13.90449 0,1.28563 -1.2827,1.07212 -2.29319,-0.38173 -2.15412,-3.0992 -2.8805,-3.54717 -5.7517,-3.54717 -2.85811,0 -3.06948,0.12618 -5.93583,3.54357 -1.07824,1.28554 -2.30643,1.63511 -2.82697,0.80464 z m 10.46929,-7.22299 c 0,-0.95086 -1.58258,-4.33648 -2.02705,-4.33648 -0.57028,0 -2.38287,3.90305 -2.05528,4.42567 0.34616,0.55227 4.08233,0.47064 4.08233,-0.0892 z"
     id="path984"
     inkscape:connector-curvature="0" />
  <path
     style="opacity:1;fill:#ff0000;stroke:#000000;stroke-width:0.242074;stroke-miterlimit:4;stroke-dasharray:none;stroke-opacity:1"
     d="m 212.13521,155.41847 c -2.32923,-0.67414 -5.03167,-3.17583 -5.65825,-5.23794 -0.744,-2.44849 -0.26051,-4.70191 1.52142,-7.09109 2.53153,-3.3942 5.99142,-4.26788 11.04331,-2.7886 2.78459,0.81537 5.18553,2.74375 4.94561,3.97219 -0.25916,1.3269 -1.50288,1.21718 -3.83071,-0.33798 -4.84267,-3.23522 -10.70301,-0.86211 -10.70301,4.33414 0,1.12778 0.49093,2.00676 1.89292,3.38913 2.57476,2.53876 4.32727,2.52635 7.9854,-0.0565 2.94916,-2.08233 4.26117,-2.4113 4.26117,-1.06847 0,1.48977 -1.51112,3.05765 -4.08662,4.24009 -2.57536,1.18239 -4.83233,1.37991 -7.37124,0.64509 z"
     id="path986"
     inkscape:connector-curvature="0" />
  <path
     style="opacity:1;fill:#ff0000;stroke:#000000;stroke-width:0.242074;stroke-miterlimit:4;stroke-dasharray:none;stroke-opacity:1"
     d="m 238.2373,154.03713 c -0.78888,-1.45342 -0.64862,-12.15335 0.17386,-13.26243 0.57656,-0.77747 0.7965,-0.81857 1.46271,-0.2734 0.64785,0.53016 0.78411,1.74261 0.78411,6.9768 0,4.28631 -0.18921,6.52169 -0.58508,6.91202 -0.81755,0.80613 -1.25179,0.72262 -1.8356,-0.35299 z"
     id="path988"
     inkscape:connector-curvature="0" />
  <path
     style="opacity:1;fill:#ff0000;stroke:#000000;stroke-width:0.242074;stroke-miterlimit:4;stroke-dasharray:none;stroke-opacity:1"
     d="m 254.94814,154.36609 c -0.21695,-0.33052 -0.46987,-3.68376 -0.56207,-7.45165 l -0.1676,-6.8507 5.53087,0.005 c 5.89595,0.006 9.18762,0.35916 9.18762,0.98672 0,0.63908 -1.84089,1.01823 -6.52195,1.34325 l -4.44835,0.30887 v 1.44225 1.44226 l 4.18495,0.28265 c 6.74972,0.45589 7.124,1.67981 0.7299,2.38685 -2.04384,0.22601 -3.95681,0.55762 -4.25102,0.73691 -0.33686,0.20527 -0.42323,1.12975 -0.23326,2.49638 0.18536,1.33341 0.0905,2.42132 -0.24603,2.82111 -0.6877,0.81705 -2.67913,0.84801 -3.20306,0.0498 z"
     id="path990"
     inkscape:connector-curvature="0" />
  <path
     style="opacity:1;fill:#ff0000;stroke:#000000;stroke-width:0.242074;stroke-miterlimit:4;stroke-dasharray:none;stroke-opacity:1"
     d="m 282.53725,153.91038 c -0.67891,-1.25081 -0.25239,-11.07258 0.57388,-13.21544 0.48868,-1.26731 0.55457,-1.294 1.04811,-0.42445 0.61431,1.08235 1.14631,11.61268 0.67936,13.44717 -0.38849,1.52622 -1.52587,1.62147 -2.30135,0.19272 z"
     id="path992"
     inkscape:connector-curvature="0" />
  <path
     style="opacity:1;fill:#ff0000;stroke:#000000;stroke-width:0.242074;stroke-miterlimit:4;stroke-dasharray:none;stroke-opacity:1"
     d="m 304.35612,154.75467 c -1.51745,-0.40143 -3.00537,-1.25532 -4.14433,-2.37836 -1.64198,-1.61901 -1.77693,-1.96714 -1.77693,-4.58394 0,-2.44612 0.20448,-3.08098 1.50106,-4.66056 3.8037,-4.63388 10.58505,-5.33447 14.70395,-1.51908 2.38259,2.20705 0.63029,3.05947 -2.77156,1.34825 -4.60625,-2.31709 -8.05325,-1.59585 -9.50814,1.98945 -1.71678,4.23066 0.25343,7.17446 5.02966,7.51512 2.79248,0.19916 2.885,0.16522 4.83033,-1.77217 2.15931,-2.15051 3.52339,-2.23534 3.52339,-0.2191 0,3.19325 -6.40132,5.59943 -11.38743,4.28039 z"
     id="path994"
     inkscape:connector-curvature="0" />
</svg>
