<?xml version="1.0" encoding="UTF-8" standalone="no"?>
<!-- Generator: Adobe Illustrator 21.0.2, SVG Export Plug-In . SVG Version: 6.00 Build 0) -->

<svg
   xmlns:osb="http://www.openswatchbook.org/uri/2009/osb"
   xmlns:dc="http://purl.org/dc/elements/1.1/"
   xmlns:cc="http://creativecommons.org/ns#"
   xmlns:rdf="http://www.w3.org/1999/02/22-rdf-syntax-ns#"
   xmlns:svg="http://www.w3.org/2000/svg"
   xmlns="http://www.w3.org/2000/svg"
   xmlns:sodipodi="http://sodipodi.sourceforge.net/DTD/sodipodi-0.dtd"
   xmlns:inkscape="http://www.inkscape.org/namespaces/inkscape"
   x="0px"
   y="0px"
   viewBox="0 0 493 99.5"
   style="enable-background:new 0 0 493 99.5;"
   xml:space="preserve"
   version="1.1"
   id="svg42"
   sodipodi:docname="system.svg"
   inkscape:version="0.92.4 (5da689c313, 2019-01-14)"><metadata
   id="metadata48"><rdf:RDF><cc:Work
       rdf:about=""><dc:format>image/svg+xml</dc:format><dc:type
         rdf:resource="http://purl.org/dc/dcmitype/StillImage" /><dc:title></dc:title></cc:Work></rdf:RDF></metadata><defs
   id="defs46"><linearGradient
   inkscape:collect="always"
   id="linearGradient1442"
   osb:paint="gradient"><stop
     style="stop-color:#000000;stop-opacity:1;"
     offset="0"
     id="stop1438" /><stop
     style="stop-color:#000000;stop-opacity:0;"
     offset="1"
     id="stop1440" /></linearGradient>     </defs><sodipodi:namedview
   pagecolor="#ffffff"
   bordercolor="#666666"
   borderopacity="1"
   objecttolerance="10"
   gridtolerance="10"
   guidetolerance="10"
   inkscape:pageopacity="0"
   inkscape:pageshadow="2"
   inkscape:window-width="1600"
   inkscape:window-height="836"
   id="namedview44"
   showgrid="false"
   inkscape:zoom="0.67139959"
   inkscape:cx="249.47885"
   inkscape:cy="49.75"
   inkscape:window-x="0"
   inkscape:window-y="36"
   inkscape:window-maximized="1"
   inkscape:current-layer="svg42" /> <style
   type="text/css"
   id="style2"> .st0{fill:#33CC33;} </style> <g
   id="Layer_2"> </g> <g
   id="g9"
   style="fill:#00ff00;fill-opacity:1"> <path
   class="st0"
   d="m 213.5,2.2 c -24.8,0 -27,44.8 -27,44.8 h 52.7 c 0,0 -0.9,-44.8 -25.7,-44.8 z"
   id="path5"
   style="fill:#00ff00;fill-opacity:1"
   inkscape:connector-curvature="0" /> <path
   class="st0"
   d="M 213.7,84.3 V 76.6 C 236.8,76 241.8,54 241.8,54 h -58.7 c 0,0 5.6,21.6 28.1,22.6 v 7 c -17.5,-4.7 -25.1,-6 -26.3,-5.3 -1,0.6 11.3,3.2 27.8,8.3 16.5,5.2 28.7,12.5 30.3,10.2 1.8,-2.2 -11.6,-7.6 -29.3,-12.5 z"
   id="path7"
   style="fill:#00ff00;fill-opacity:1"
   inkscape:connector-curvature="0" /> </g><g
   id="g37"
   style="fill:#808080;fill-opacity:1"> <path
   d="m 23.1,67.9 v -3.1 c -1.7,1.4 -3.4,2.4 -5.1,3 -1.7,0.7 -3.4,1 -5.3,1 C 9.5,68.8 6.9,67.8 5,65.9 3,64 2.1,61.5 2.1,58.4 c 0,-3.2 1.1,-5.8 3.2,-7.7 2.1,-1.9 4.9,-2.9 8.4,-2.9 1.2,0 2.6,0.2 4.1,0.6 1.5,0.4 3.3,1 5.2,1.7 v -1.9 c 0,-3 -0.6,-5.1 -1.7,-6.5 -1.1,-1.4 -2.8,-2.1 -5.2,-2.1 -1.7,0 -3.1,0.3 -4.4,1 -1.3,0.7 -2.4,1.7 -3.5,3.2 L 2.5,42.3 c 1,-2.5 2.8,-4.5 5.2,-5.8 2.4,-1.4 5.4,-2.1 8.8,-2.1 4.3,0 7.5,1 9.4,3.1 1.9,2.1 2.9,5.6 2.9,10.4 V 62 h 4.9 v 5.7 H 23.1 Z m 0,-9.1 v -2.4 c -1.8,-1.1 -3.4,-1.8 -4.6,-2.3 -1.3,-0.4 -2.5,-0.7 -3.7,-0.7 -1.9,0 -3.4,0.4 -4.6,1.3 -1.2,0.9 -1.7,2 -1.7,3.5 0,1.3 0.5,2.4 1.5,3.2 1,0.9 2.3,1.3 3.8,1.3 1.3,0 2.7,-0.3 4.2,-1 1.6,-0.5 3.3,-1.5 5.1,-2.9 z"
   id="path11"
   style="fill:#808080;fill-opacity:1"
   inkscape:connector-curvature="0" /> <path
   d="m 61.9,47.5 c -0.6,-2.4 -1.7,-4.2 -3.1,-5.4 -1.5,-1.2 -3.3,-1.9 -5.5,-1.9 -3.1,0 -5.6,1 -7.4,3 -1.8,2 -2.7,4.8 -2.7,8.4 0,3.5 0.9,6.2 2.7,8.2 1.8,2 4.2,3 7.3,3 2.2,0 4.2,-0.6 6,-1.7 1.8,-1.1 3.2,-2.7 4.3,-4.8 l 5.1,2.5 c -1.3,3.1 -3.3,5.6 -6,7.3 -2.8,1.8 -5.9,2.7 -9.4,2.7 -4.9,0 -8.9,-1.6 -12,-4.7 -3.1,-3.1 -4.6,-7.3 -4.6,-12.4 0,-5 1.5,-9.1 4.4,-12.3 3,-3.2 6.7,-4.8 11.3,-4.8 1.9,0 3.6,0.3 5.1,0.9 1.6,0.6 3,1.5 4.5,2.8 v -2.9 h 5.2 v 12.1 z"
   id="path13"
   style="fill:#808080;fill-opacity:1"
   inkscape:connector-curvature="0" /> <path
   d="m 102.9,51.7 c 0,5.1 -1.5,9.3 -4.5,12.4 -3,3.2 -7,4.7 -11.8,4.7 -4.8,0 -8.8,-1.6 -11.8,-4.7 -3,-3.1 -4.5,-7.3 -4.5,-12.4 0,-5.1 1.5,-9.3 4.5,-12.4 3,-3.1 6.9,-4.7 11.8,-4.7 4.9,0 8.8,1.6 11.8,4.7 3,3.1 4.5,7.3 4.5,12.4 z M 86.5,62.8 c 3.1,0 5.5,-1 7.2,-3 1.7,-2 2.6,-4.7 2.6,-8.2 0,-3.5 -0.9,-6.3 -2.6,-8.2 -1.7,-2 -4.1,-3 -7.2,-3 -3,0 -5.4,1 -7.2,3 -1.7,2 -2.6,4.7 -2.6,8.2 0,3.5 0.9,6.2 2.6,8.2 1.8,2 4.2,3 7.2,3 z"
   id="path15"
   style="fill:#808080;fill-opacity:1"
   inkscape:connector-curvature="0" /> <path
   d="M 110.9,62.2 V 40.7 h -4.6 v -5.4 h 10.2 v 6.4 c 1.1,-2.5 2.5,-4.3 4.1,-5.4 1.6,-1.1 3.7,-1.6 6.3,-1.6 0.4,0 0.8,0 1.2,0 0.4,0 0.8,0 1.3,0 V 41 c 0,0 -0.1,0 -0.2,0 -1,-0.1 -1.7,-0.1 -2.2,-0.1 -3.5,0 -6.1,1 -7.7,3 -1.6,2 -2.4,5.2 -2.4,9.6 v 8.6 h 5.8 v 5.7 h -16.3 v -5.7 h 4.5 z"
   id="path17"
   style="fill:#808080;fill-opacity:1"
   inkscape:connector-curvature="0" /> <path
   d="M 136.9,62.2 V 40.7 h -4.6 v -5.4 h 10.2 v 5 c 2.2,-1.8 4.2,-3 5.9,-3.8 1.8,-0.8 3.6,-1.2 5.3,-1.2 2.8,0 4.9,0.8 6,2.4 1.2,1.6 1.8,4.7 1.8,9.3 v 15.2 h 4.8 v 5.7 H 155.6 V 49.4 c 0,-3.9 -0.3,-6.3 -0.9,-7.3 -0.6,-1 -1.7,-1.5 -3.2,-1.5 -1.4,0 -2.8,0.4 -4.3,1.2 -1.4,0.8 -2.9,2.1 -4.6,3.8 v 16.6 h 4.8 v 5.7 h -15.3 v -5.7 z"
   id="path19"
   style="fill:#808080;fill-opacity:1"
   inkscape:connector-curvature="0" /> <path
   d="m 259.4,53.4 c 0.1,2.8 1.1,5.1 2.9,6.9 1.8,1.8 4.3,2.6 7.3,2.6 2.1,0 4.1,-0.5 5.9,-1.5 1.8,-1 3.3,-2.4 4.4,-4.2 l 5.1,2.7 c -1.7,3 -3.8,5.2 -6.5,6.8 -2.6,1.5 -5.7,2.3 -9.1,2.3 -5.1,0 -9.1,-1.6 -12.2,-4.7 -3,-3.1 -4.5,-7.3 -4.5,-12.5 0,-5.1 1.5,-9.3 4.5,-12.4 3,-3.1 6.9,-4.7 11.8,-4.7 5,0 8.9,1.6 11.7,4.9 2.8,3.3 4.2,7.9 4.2,13.9 h -25.5 z m 0.5,-4.8 h 18.5 c -0.3,-2.8 -1.3,-4.9 -2.9,-6.4 -1.6,-1.5 -3.7,-2.2 -6.4,-2.2 -2.7,0 -4.8,0.8 -6.4,2.3 -1.6,1.4 -2.6,3.5 -2.8,6.3 z"
   id="path21"
   style="fill:#808080;fill-opacity:1"
   inkscape:connector-curvature="0" /> <path
   d="m 291.9,27 h -4.7 v -5.4 h 10.5 v 40.6 h 4.8 v 5.7 h -15.3 v -5.7 h 4.7 z"
   id="path23"
   style="fill:#808080;fill-opacity:1"
   inkscape:connector-curvature="0" /> <path
   d="m 311.4,53.4 c 0.1,2.8 1.1,5.1 2.9,6.9 1.8,1.8 4.3,2.6 7.3,2.6 2.1,0 4.1,-0.5 5.9,-1.5 1.8,-1 3.3,-2.4 4.4,-4.2 l 5.1,2.7 c -1.7,3 -3.8,5.2 -6.5,6.8 -2.6,1.5 -5.7,2.3 -9.1,2.3 -5.1,0 -9.1,-1.6 -12.2,-4.7 -3,-3.1 -4.5,-7.3 -4.5,-12.5 0,-5.1 1.5,-9.3 4.5,-12.4 3,-3.1 6.9,-4.7 11.8,-4.7 5,0 8.9,1.6 11.7,4.9 2.8,3.3 4.2,7.9 4.2,13.9 h -25.5 z m 0.5,-4.8 h 18.5 c -0.3,-2.8 -1.3,-4.9 -2.9,-6.4 -1.6,-1.5 -3.7,-2.2 -6.4,-2.2 -2.7,0 -4.8,0.8 -6.4,2.3 -1.6,1.4 -2.6,3.5 -2.8,6.3 z"
   id="path25"
   style="fill:#808080;fill-opacity:1"
   inkscape:connector-curvature="0" /> <path
   d="m 365.7,47.5 c -0.6,-2.4 -1.7,-4.2 -3.1,-5.4 -1.5,-1.2 -3.3,-1.9 -5.5,-1.9 -3.1,0 -5.6,1 -7.4,3 -1.8,2 -2.7,4.8 -2.7,8.4 0,3.5 0.9,6.2 2.7,8.2 1.8,2 4.2,3 7.3,3 2.2,0 4.2,-0.6 6,-1.7 1.8,-1.1 3.2,-2.7 4.3,-4.8 l 5.1,2.5 c -1.3,3.1 -3.3,5.6 -6,7.3 -2.8,1.8 -5.9,2.7 -9.4,2.7 -4.9,0 -8.9,-1.6 -12,-4.7 -3.1,-3.1 -4.6,-7.3 -4.6,-12.4 0,-5 1.5,-9.1 4.4,-12.3 3,-3.2 6.7,-4.8 11.3,-4.8 1.9,0 3.6,0.3 5.1,0.9 1.6,0.6 3,1.5 4.5,2.8 v -2.9 h 5.2 v 12.1 z"
   id="path27"
   style="fill:#808080;fill-opacity:1"
   inkscape:connector-curvature="0" /> <path
   d="m 384,58.9 c 0,1.6 0.2,2.7 0.6,3.2 0.4,0.6 1.1,0.9 2,0.9 0.5,0 1,-0.1 1.5,-0.2 0.5,-0.1 1.2,-0.4 1.9,-0.7 v 5.7 c -0.8,0.3 -1.7,0.6 -2.5,0.8 -0.9,0.2 -1.7,0.3 -2.6,0.3 -2.5,0 -4.3,-0.6 -5.3,-1.8 -1,-1.2 -1.5,-3.6 -1.5,-7.2 V 40.7 h -4.3 v -5.4 h 4.3 V 31 l 5.9,-4.9 v 9.2 h 6.1 v 5.4 H 384 Z"
   id="path29"
   style="fill:#808080;fill-opacity:1"
   inkscape:connector-curvature="0" /> <path
   d="M 400,62.2 V 40.7 h -4.6 v -5.4 h 10.2 v 6.4 c 1.1,-2.5 2.5,-4.3 4.1,-5.4 1.6,-1.1 3.7,-1.6 6.3,-1.6 0.4,0 0.8,0 1.2,0 0.4,0 0.8,0 1.3,0 V 41 c 0,0 -0.1,0 -0.2,0 -1,-0.1 -1.7,-0.1 -2.2,-0.1 -3.5,0 -6.1,1 -7.7,3 -1.6,2 -2.4,5.2 -2.4,9.6 v 8.6 h 5.8 v 5.7 h -16.3 v -5.7 h 4.5 z"
   id="path31"
   style="fill:#808080;fill-opacity:1"
   inkscape:connector-curvature="0" /> <path
   d="m 452.9,51.7 c 0,5.1 -1.5,9.3 -4.5,12.4 -3,3.2 -7,4.7 -11.8,4.7 -4.8,0 -8.8,-1.6 -11.8,-4.7 -3,-3.1 -4.5,-7.3 -4.5,-12.4 0,-5.1 1.5,-9.3 4.5,-12.4 3,-3.1 6.9,-4.7 11.8,-4.7 4.9,0 8.8,1.6 11.8,4.7 3,3.1 4.5,7.3 4.5,12.4 z m -16.3,11.1 c 3.1,0 5.5,-1 7.2,-3 1.7,-2 2.6,-4.7 2.6,-8.2 0,-3.5 -0.9,-6.3 -2.6,-8.2 -1.7,-2 -4.1,-3 -7.2,-3 -3,0 -5.4,1 -7.2,3 -1.7,2 -2.6,4.7 -2.6,8.2 0,3.5 0.9,6.2 2.6,8.2 1.8,2 4.2,3 7.2,3 z"
   id="path33"
   style="fill:#808080;fill-opacity:1"
   inkscape:connector-curvature="0" /> <path
   d="M 461,62.2 V 40.7 h -4.6 v -5.4 h 10.2 v 5 c 2.2,-1.8 4.2,-3 5.9,-3.8 1.8,-0.8 3.6,-1.2 5.3,-1.2 2.8,0 4.9,0.8 6,2.4 1.2,1.6 1.8,4.7 1.8,9.3 v 15.2 h 4.8 v 5.7 H 479.7 V 49.4 c 0,-3.9 -0.3,-6.3 -0.9,-7.3 -0.6,-1 -1.7,-1.5 -3.2,-1.5 -1.4,0 -2.8,0.4 -4.3,1.2 -1.4,0.8 -2.9,2.1 -4.6,3.8 v 16.6 h 4.8 v 5.7 h -15.3 v -5.7 z"
   id="path35"
   style="fill:#808080;fill-opacity:1"
   inkscape:connector-curvature="0" /> </g> </svg>