<?xml version="1.0" encoding="UTF-8" standalone="no"?>
<!-- Created with Inkscape (http://www.inkscape.org/) -->

<svg
   xmlns:dc="http://purl.org/dc/elements/1.1/"
   xmlns:cc="http://creativecommons.org/ns#"
   xmlns:rdf="http://www.w3.org/1999/02/22-rdf-syntax-ns#"
   xmlns:svg="http://www.w3.org/2000/svg"
   xmlns="http://www.w3.org/2000/svg"
   xmlns:sodipodi="http://sodipodi.sourceforge.net/DTD/sodipodi-0.dtd"
   xmlns:inkscape="http://www.inkscape.org/namespaces/inkscape"
   version="1.1"
   id="svg2"
   width="88.480003"
   height="86.400002"
   viewBox="0 0 88.480003 86.400002"
   sodipodi:docname="cntroller.svg"
   inkscape:version="0.92.4 (5da689c313, 2019-01-14)">
  <metadata
     id="metadata8">
    <rdf:RDF>
      <cc:Work
         rdf:about="">
        <dc:format>image/svg+xml</dc:format>
        <dc:type
           rdf:resource="http://purl.org/dc/dcmitype/StillImage" />
        <dc:title></dc:title>
      </cc:Work>
    </rdf:RDF>
  </metadata>
  <defs
     id="defs6" />
  <sodipodi:namedview
     pagecolor="#ffffff"
     bordercolor="#666666"
     borderopacity="1"
     objecttolerance="10"
     gridtolerance="10"
     guidetolerance="10"
     inkscape:pageopacity="0"
     inkscape:pageshadow="2"
     inkscape:window-width="1600"
     inkscape:window-height="836"
     id="namedview4"
     showgrid="false"
     inkscape:zoom="3.8628981"
     inkscape:cx="21.291738"
     inkscape:cy="46.953005"
     inkscape:window-x="0"
     inkscape:window-y="36"
     inkscape:window-maximized="1"
     inkscape:current-layer="svg2" />
  <path
     id="path12"
     style="fill:#800000;stroke-width:0.08000001"
     d="m 45.411734,0.88716903 c -1.71291,0.00423 -3.335572,0.022874 -3.673828,0.054687 -0.654697,0.061574 -0.940467,0.067015 -1.552734,0.03125 -0.59339,-0.034662 -3.037703,0.072966 -3.638672,0.16015627 -0.308,0.044685 -0.794095,0.096135 -1.080078,0.1132812 -0.942724,0.056517 -3.152921,0.2799313 -3.591797,0.3632813 -0.237005,0.045011 -0.650927,0.082247 -0.919922,0.082031 -0.268994,-2.176e-4 -0.649657,0.049978 -0.847657,0.1132813 -0.197997,0.063303 -0.919561,0.1921772 -1.601562,0.2851562 -1.410169,0.1922515 -2.19054,0.3273445 -3.279297,0.5664063 -0.418,0.091782 -1.159831,0.2484178 -1.648437,0.3496094 -0.937821,0.1942215 -1.701316,0.4180807 -1.828125,0.5351562 -0.0418,0.038591 -0.167097,0.070706 -0.279297,0.072266 -0.1122,0.00156 -0.294297,0.054305 -0.404297,0.1171875 -0.11,0.062881 -0.262364,0.1156276 -0.339844,0.1171875 -0.174155,0.00351 -1.297153,0.4899072 -1.660156,0.71875 -0.066,0.041608 -0.219335,0.097221 -0.341797,0.1230469 -0.122463,0.025826 -0.285055,0.11633 -0.359375,0.203125 -0.07431,0.086794 -0.188639,0.1581232 -0.255859,0.1582031 -0.110887,1.376e-4 -0.432468,0.2002628 -1.763672,1.1015625 -0.554077,0.3751419 -1.443861,1.1147862 -1.587891,1.3183594 -0.06013,0.084982 -0.43797,0.4933879 -0.839844,0.9082031 -0.401875,0.4148586 -0.910859,1.0438515 -1.130859,1.3964851 -0.22,0.3526341 -0.517156,0.8222861 -0.660156,1.0449221 -0.143,0.222636 -0.259766,0.435416 -0.259766,0.472656 0,0.03724 -0.109478,0.241596 -0.242187,0.455078 -0.132708,0.213484 -0.256904,0.475911 -0.277344,0.582031 -0.02044,0.106119 -0.126273,0.375334 -0.234375,0.597657 -0.343873,0.707204 -0.541208,1.196274 -0.580078,1.443359 -0.02076,0.132001 -0.122173,0.545922 -0.226563,0.919922 -0.3183902,1.140704 -0.5797112,2.741502 -0.6445312,3.957031 -0.01415,0.265395 -0.06523,0.826141 -0.113281,1.244141 -0.04805,0.418 -0.105167,1.154672 -0.128907,1.638672 -0.02374,0.484 -0.0759,0.970078 -0.115234,1.080078 -0.03933,0.11 -0.09151,0.605825 -0.115234,1.101562 -0.02372,0.495736 -0.07888,1.062656 -0.123047,1.259766 -0.04417,0.197109 -0.07952,0.565204 -0.07813,0.818359 0.0041,0.734689 -0.04579,1.358075 -0.185547,2.300782 -0.07175,0.484 -0.143576,1.420078 -0.160156,2.080078 -0.01917,0.763103 -0.06839,1.279572 -0.134766,1.417968 -0.08625,0.179747 -0.08921,0.239601 0.002,0.345704 0.07308,0.08806 0.08015,0.14469 0.02148,0.18164 -0.04708,0.02965 -0.08754,0.203876 -0.08984,0.386719 -0.0023,0.182843 -0.04391,0.478418 -0.0918,0.65625 -0.04789,0.177832 -0.102857,0.867868 -0.123047,1.533203 -0.0202,0.665333 -0.05906,1.245573 -0.08594,1.289063 -0.02688,0.04349 -0.02698,0.165937 0,0.273437 0.02797,0.111443 0.01326,0.195313 -0.0332,0.195313 -0.04482,0 -0.07657,0.116765 -0.07227,0.259765 0.0044,0.143 -0.01424,0.49525 -0.04102,0.78125 -0.02679,0.286 -0.06379,0.753063 -0.08203,1.039063 -0.03079,0.482888 -0.06793,0.821077 -0.283203,2.640625 -0.07469,0.631313 -0.124809,1.222033 -0.199219,2.320312 -0.04178,0.616626 -0.114134,1.365153 -0.208984,2.160156 -0.04462,0.374001 -0.07993,0.787922 -0.07813,0.919922 0.0034,0.246894 -0.0059,0.342955 -0.195313,1.839844 -0.06125,0.484 -0.152122,1.364984 -0.201172,1.958984 -0.04905,0.594001 -0.141768,1.465544 -0.205078,1.935547 -0.06331,0.470004 -0.115234,1.005482 -0.115234,1.189453 0,0.183972 -0.05347,0.770664 -0.119141,1.304688 -0.06567,0.534025 -0.17545,1.637172 -0.24414,2.451172 -0.257554,3.052264 -0.354514,4.14002 -0.433594,4.878906 -0.04474,0.418 -0.171239,1.804078 -0.28125,3.080078 -0.110011,1.276 -0.23673,2.645016 -0.28125,3.041016 -0.04452,0.396 -0.152338,1.584625 -0.240235,2.640625 -0.08789,1.056 -0.177648,2.081297 -0.199218,2.279297 -0.08577,0.787286 -0.27107,3.166522 -0.25586,3.279297 0.02139,0.158597 -0.170138,2.587126 -0.267578,3.40039 -0.04218,0.352 -0.11252,1.179844 -0.15625,1.839844 -0.04374,0.66 -0.09632,1.343531 -0.117187,1.519531 -0.02088,0.176 -0.05792,0.645016 -0.08398,1.041016 -0.02606,0.396 -0.06672,0.818453 -0.08984,0.939453 l -0.04297,0.220703 h 3.455078 c 3.2604512,0 3.4524712,-0.0085 3.3945312,-0.140625 -0.03376,-0.077 -0.07163,-3.919062 -0.08203,-8.539062 -0.02204,-9.785908 0.08901,-15.602611 0.449219,-23.839844 0.282317,-6.455966 0.419128,-8.97942 0.720703,-13.201172 0.111641,-1.562866 0.353535,-3.204296 0.484375,-3.285156 0.03892,-0.02405 0.07482,0.0029 0.07813,0.06055 0.01022,0.179979 0.06301,0.419588 0.203125,0.910156 0.07447,0.260744 0.160033,0.816375 0.189453,1.234375 0.08434,1.198282 0.01091,6.054879 -0.115234,7.640625 -0.063,0.792 -0.136803,1.853375 -0.164063,2.359375 -0.02726,0.506 -0.06475,1.208547 -0.08398,1.560547 -0.01923,0.352 -0.07317,1.75514 -0.119141,3.11914 -0.04596,1.364 -0.09866,2.750085 -0.117187,3.080078 -0.01853,0.330003 -0.07434,1.62686 -0.123047,2.88086 -0.0487,1.254 -0.101841,2.640078 -0.119141,3.080078 -0.02552,0.648832 -0.03454,4.67686 -0.01367,6 0.0062,0.395335 -0.09571,2.499677 -0.146484,3.027344 -0.08319,0.864716 -0.04235,4.95383 0.08789,8.892578 0.119695,3.619888 0.187929,4.828123 0.287109,5.019531 0.06485,0.125148 0.227024,0.139019 1.582031,0.136719 1.503087,-0.0026 1.50806,-0.0036 1.50586,-0.179688 -0.0027,-0.21836 0.381958,-4.762005 0.496093,-5.857422 0.09023,-0.865937 0.173293,-1.762459 0.365235,-4 0.06794,-0.792 0.173488,-2.033765 0.236328,-2.759765 0.06284,-0.726 0.154212,-1.806391 0.201172,-2.400391 0.156784,-1.983169 0.534367,-6.307237 0.800781,-9.160156 0.08629,-0.924 0.230882,-2.524594 0.320312,-3.558594 0.08943,-1.034 0.214637,-2.475172 0.279297,-3.201172 0.06466,-0.726 0.154409,-1.734234 0.199219,-2.240234 0.177096,-1.9997 0.33519,-3.322141 0.40625,-3.394531 0.1066,-0.108597 0.09544,0.36269 -0.04297,1.714843 -0.0653,0.638 -0.229955,2.438001 -0.365234,4 -0.135279,1.562 -0.351542,3.884157 -0.480469,5.160157 -0.128926,1.276 -0.380355,4.048155 -0.558594,6.160156 -0.178239,2.112 -0.35808,4.236703 -0.40039,4.720703 -0.0423,0.484 -0.114567,1.328906 -0.160157,1.878906 -0.04559,0.55 -0.134818,1.594313 -0.199218,2.320313 -0.0644,0.726 -0.208445,2.417766 -0.31836,3.759765 -0.109915,1.342 -0.237343,2.891407 -0.283203,3.441407 -0.04586,0.55 -0.128023,1.549247 -0.183593,2.220703 -0.05553,0.671448 -0.08096,1.2471 -0.05664,1.28125 0.02432,0.03415 0.172398,0.0738 0.330078,0.08594 0.280836,0.02162 0.286958,0.01555 0.298828,-0.283203 0.02214,-0.557344 0.733928,-9.166303 0.855469,-10.345703 0.124107,-1.204307 0.130091,-1.267551 0.283203,-3.439453 0.05415,-0.768121 0.138805,-1.41682 0.203125,-1.550781 0.06079,-0.126615 0.08914,-0.31767 0.0625,-0.423828 -0.0315,-0.125514 7.72e-4,-0.24505 0.08984,-0.34375 0.10316,-0.113992 0.124401,-0.227967 0.08594,-0.457032 -0.03297,-0.195375 -0.008,-0.432684 0.07227,-0.660156 0.156411,-0.443038 0.174512,-1.007483 0.04297,-1.40625 -0.07913,-0.239774 -0.08273,-0.504382 -0.01172,-1.232422 0.04972,-0.509746 0.145449,-1.628328 0.212891,-2.486328 0.06744,-0.858 0.176617,-2.063687 0.242187,-2.679687 0.377268,-3.544502 0.672766,-6.743401 0.839844,-9.080078 0.1047,-1.464279 0.153984,-1.753805 0.304687,-1.833985 0.198624,-0.105677 28.858531,-0.06923 31.408203,0.03125 0.0605,-0.0283 0.131026,-0.05042 0.220703,-0.06055 0.21548,-0.02432 0.432143,-0.01062 0.648438,-0.0098 0.0628,4.82e-4 0.126651,-0.0022 0.189453,-0.002 0.06233,1.57e-4 0.123219,1.96e-4 0.185547,0 0.123869,-3.92e-4 0.215524,0.0291 0.291016,0.06836 0.03509,-9.9e-5 0.07011,-2.97e-4 0.105468,0 0.0466,7.66e-4 0.06891,0.0025 0.08984,0.0059 0.0024,-0.0034 0.0054,-0.0064 0.0078,-0.0098 0.0046,3.68e-4 0.0091,0.0015 0.01367,0.002 0.0012,-0.0017 -0.001,-0.0084 0.002,-0.0098 0.0341,-0.03411 4.297834,-0.0625 9.474614,-0.0625 h 9.4121 l 0.0937,0.201172 c 0.0919,0.195703 0.48612,4.534237 0.54102,5.958984 0.0153,0.396 0.0487,0.773844 0.0742,0.839844 0.0255,0.066 0.0849,0.498938 0.13086,0.960938 0.046,0.462 0.13742,1.325918 0.20312,1.919922 0.30128,2.724125 0.46522,4.479902 0.87891,9.423828 0.56197,6.715958 0.59039,7.2168 0.41406,7.216796 -0.17417,0 -0.16586,0.06443 0.0234,0.226563 0.14024,0.11834 0.17593,0.359685 0.32226,2.212891 0.0904,1.144 0.19653,2.438906 0.23633,2.878906 0.0398,0.44 0.13579,1.620094 0.21289,2.621094 l 0.14063,1.820312 h 0.25586 c 0.15799,0 0.27559,-0.04724 0.30469,-0.123047 0.0509,-0.13256 -0.0143,-1.176324 -0.26758,-4.277343 -0.1664,-2.036391 -0.19518,-2.900779 -0.0762,-2.080079 0.0356,0.242 0.0845,0.692 0.10937,1 0.0249,0.308 0.0627,0.70486 0.084,0.88086 0.0214,0.176 0.0544,0.553849 0.0742,0.839843 0.15668,2.265322 0.28831,2.921457 0.61914,3.111329 0.16303,0.09355 0.21039,0.170656 0.17969,0.292968 -0.0257,0.102296 0.0113,0.21113 0.0977,0.28125 0.0884,0.07222 0.11684,0.07699 0.0801,0.01367 -0.0428,-0.0713 0.011,-0.09961 0.18554,-0.09961 0.1346,0 0.24414,0.03608 0.24414,0.08008 0,0.04868 0.35984,0.08008 0.91797,0.08008 0.79253,0 0.92754,-0.01965 0.99024,-0.140625 0.0799,-0.154184 0.20651,-1.948371 0.28711,-4.060547 0.16635,-4.352848 0.25912,-9.565992 0.17382,-9.707031 -0.0379,-0.06261 -0.15829,-2.57628 -0.15429,-3.212891 0.0266,-3.952537 0.007,-5.4932 -0.0977,-7.675781 -0.0681,-1.427576 -0.1374,-3.100326 -0.1543,-3.71875 -0.0168,-0.618423 -0.0556,-2.042062 -0.0859,-3.164062 -0.0303,-1.122 -0.0711,-2.068766 -0.0918,-2.103516 -0.0207,-0.03475 -0.0691,-1.204355 -0.10742,-2.599609 -0.0383,-1.395255 -0.10569,-3.292797 -0.15039,-4.216797 -0.0447,-0.924 -0.1009,-2.143962 -0.125,-2.708985 -0.0241,-0.565021 -0.10007,-1.751693 -0.16797,-2.638672 -0.1422,-1.858302 -0.10747,-3.062136 0.15234,-5.207031 0.16349,-1.349639 0.28139,-1.741034 0.40625,-1.347656 0.14183,0.446886 0.39049,3.095905 0.52735,5.621094 0.0489,0.902 0.14283,2.415328 0.20703,3.361328 0.0642,0.946 0.15151,2.709922 0.19531,3.919922 0.0437,1.21 0.14983,3.530203 0.23633,5.158203 0.0865,1.628 0.19569,4.508398 0.24219,6.40039 0.0465,1.892002 0.11917,4.322391 0.16211,5.400391 0.17327,4.354672 0.14437,21.46893 -0.0371,22.419922 l -0.041,0.220703 h 3.55273 3.55274 l -0.0352,-0.580078 c -0.0199,-0.319 -0.0535,-0.655947 -0.0742,-0.748047 -0.0207,-0.0921 -0.0939,-0.988923 -0.16211,-1.992187 -0.0682,-1.003256 -0.13875,-1.84677 -0.15625,-1.875 -0.0175,-0.02824 -0.0526,-0.409257 -0.0801,-0.847657 -0.0275,-0.438403 -0.0865,-1.174718 -0.12891,-1.636718 -0.0424,-0.462 -0.0943,-1.056313 -0.11719,-1.320313 -0.0228,-0.264 -0.0562,-0.641844 -0.0742,-0.839844 -0.0696,-0.764898 -0.12526,-1.422904 -0.16406,-1.960937 -0.0222,-0.308 -0.0805,-0.938391 -0.12891,-1.400391 -0.0484,-0.462 -0.0867,-0.892984 -0.0859,-0.958984 6e-4,-0.066 -0.0309,-0.443844 -0.0684,-0.839844 -0.0374,-0.396 -0.0883,-0.990312 -0.11328,-1.320312 -0.0521,-0.687554 -0.24274,-2.84339 -0.36133,-4.080078 -0.0443,-0.462002 -0.11691,-1.272782 -0.16211,-1.800782 -0.0452,-0.528 -0.11871,-1.228594 -0.16211,-1.558594 -0.0435,-0.329999 -0.1147,-1.104703 -0.1582,-1.720703 -0.0435,-0.616 -0.11175,-1.479927 -0.15235,-1.919921 -0.0406,-0.44 -0.097,-1.214704 -0.125,-1.720704 -0.028,-0.506 -0.0868,-1.134437 -0.13086,-1.398437 -0.0441,-0.264 -0.11209,-0.858313 -0.15039,-1.320313 -0.16274,-1.965434 -0.47754,-4.937143 -0.88086,-8.320312 -0.0812,-0.680833 -0.19098,-2.539116 -0.17578,-2.960938 0.006,-0.154 -0.0444,-0.463176 -0.10937,-0.6875 -0.0655,-0.224323 -0.0957,-0.465829 -0.0684,-0.537109 0.0273,-0.07128 -0.0124,-0.290545 -0.0879,-0.488281 -0.0755,-0.197736 -0.11417,-0.418042 -0.0879,-0.488282 0.027,-0.07024 0.0103,-0.295531 -0.0371,-0.501953 -0.0767,-0.3339 -0.13474,-1.052971 -0.17774,-2.189453 -0.008,-0.205288 -0.0394,-0.398777 -0.0703,-0.429687 -0.0309,-0.03091 -0.0228,-0.160304 -0.01,-0.28711 0.0293,-0.146595 0.0133,-0.230468 -0.0449,-0.230468 -0.0571,0 -0.0736,-0.07335 -0.043,-0.195313 0.0273,-0.1075 0.0272,-0.231431 0,-0.27539 -0.0272,-0.04397 -0.0672,-0.65441 -0.0879,-1.357422 -0.0208,-0.703012 -0.0693,-1.365263 -0.10937,-1.470704 -0.1072,-0.281804 -0.13432,-0.645408 -0.0527,-0.773437 0.0463,-0.07494 0.0201,-0.146347 -0.0762,-0.216797 -0.1202,-0.08787 -0.12298,-0.126329 -0.0391,-0.230469 0.085,-0.102273 0.0839,-0.163549 -0.002,-0.341797 -0.0687,-0.142655 -0.11316,-0.659017 -0.13086,-1.498046 -0.0149,-0.704 -0.0662,-1.490769 -0.11328,-1.748047 -0.0471,-0.257278 -0.0671,-0.485563 -0.0449,-0.507813 0.0223,-0.02225 0.002,-0.135478 -0.0449,-0.251953 -0.0472,-0.116476 -0.1002,-0.463484 -0.11718,-0.771484 -0.017,-0.308 -0.0414,-0.740938 -0.0547,-0.960938 -0.0134,-0.22 0.004,-0.439211 0.041,-0.488281 0.0385,-0.05122 0.0152,-0.187825 -0.0547,-0.320312 -0.067,-0.126931 -0.11347,-0.375607 -0.10547,-0.552735 0.008,-0.177128 -0.0238,-0.391439 -0.0703,-0.474609 -0.05,-0.08936 -0.0589,-0.240682 -0.0215,-0.371094 0.0348,-0.121388 0.0409,-0.242341 0.0137,-0.269531 -0.0272,-0.02719 -0.0396,-0.189726 -0.0273,-0.359375 0.0122,-0.16965 -0.0155,-0.332258 -0.0625,-0.361328 -0.1018,-0.0629 -0.11767,-0.977145 -0.0156,-1.015625 0.0382,-0.01467 0.0946,-0.116563 0.12696,-0.226563 0.0568,-0.193134 0.0551,-0.195161 -0.0625,-0.04102 -0.11862,0.155737 -0.12375,0.153696 -0.18555,-0.08008 -0.0349,-0.131947 -0.0644,-0.599061 -0.0664,-1.039062 -0.002,-0.44 -0.0345,-0.822049 -0.0723,-0.84961 -0.0378,-0.02756 -0.083,-0.226964 -0.10157,-0.441406 -0.0291,-0.334815 -0.0197,-0.36836 0.0684,-0.242187 0.0564,0.08081 0.14587,0.206177 0.19727,0.279297 0.0514,0.0731 0.11498,0.111862 0.14258,0.08398 0.0492,-0.04918 -0.0314,-0.793335 -0.19922,-1.830078 -0.0463,-0.286 -0.11836,-0.768506 -0.16016,-1.072266 -0.0418,-0.30376 -0.14501,-0.669035 -0.22851,-0.810547 -0.0832,-0.141513 -0.1246,-0.300445 -0.0918,-0.353515 0.0328,-0.05307 0.0128,-0.228971 -0.0449,-0.390625 -0.0577,-0.161653 -0.10738,-0.356594 -0.10938,-0.433594 -0.002,-0.077 -0.0337,-0.140625 -0.0703,-0.140625 -0.0727,0 -0.0652,0.198534 0.0156,0.419922 0.1215,0.332744 0.12833,0.393491 0.0371,0.363281 -0.17186,-0.05729 -0.38477,-0.676944 -0.38477,-1.117187 0,-0.162396 -0.0686,-0.369826 -0.16016,-0.486329 -0.088,-0.111874 -0.16015,-0.241719 -0.16015,-0.287109 0,-0.04539 -0.12552,-0.327282 -0.2793,-0.626953 -0.15379,-0.299671 -0.28101,-0.601495 -0.28125,-0.671875 -2.2e-4,-0.07038 -0.10708,-0.286848 -0.23828,-0.480469 -0.1312,-0.193621 -0.23885,-0.410812 -0.24024,-0.482422 -7.8e-4,-0.07161 -0.0569,-0.175922 -0.125,-0.232422 -0.0681,-0.0565 -0.21183,-0.285874 -0.32031,-0.509765 -0.10847,-0.223891 -0.30382,-0.5525158 -0.43359,-0.7285159 -0.12977,-0.176 -0.29685,-0.4265937 -0.3711,-0.5585937 -0.05584,-0.128454 -0.206175,-0.2904895 -0.292675,-0.3514945 -0.0864,-0.061005 -0.2512,-0.2213571 -0.36719,-0.3574219 -0.11571,-0.1360518 -0.36076,-0.3933813 -0.54297,-0.5703125 -0.18222,-0.1769304 -0.39285,-0.4200156 -0.46875,-0.5410156 -0.0759,-0.121 -0.16582,-0.2207031 -0.19922,-0.2207031 -0.0334,0 -0.21759,-0.1441007 -0.41015,-0.3203125 -0.61952,-0.5668933 -2.48002,-1.7752193 -3.26954,-2.1230469 -0.154,-0.067845 -0.40654,-0.1908515 -0.56054,-0.2734375 -0.59932,-0.3214005 -3.17285,-1.2035088 -3.98438,-1.3652344 -0.25022,-0.049864 -0.72469,-0.1588766 -1.05469,-0.2441406 -1.29145,-0.3336813 -2.43243,-0.5481056 -4.24023,-0.7949219 -0.682,-0.093112 -1.40356,-0.2218532 -1.60156,-0.2851562 -0.198,-0.063303 -0.57867,-0.1134973 -0.84766,-0.1132813 -0.269,2.18e-4 -0.68292,-0.03702 -0.91992,-0.082031 -0.43888,-0.08335 -2.64908,-0.3067643 -3.5918,-0.3632813 -0.286,-0.017146 -0.77208,-0.068596 -1.08008,-0.1132812 -0.30775,-0.044685 -1.171916,-0.1028553 -1.919918,-0.1289063 -0.748,-0.026051 -1.737218,-0.062667 -2.199218,-0.082031 -0.697986,-0.029254 -2.501934,-0.039387 -4.214844,-0.0351567 z M 44.901968,3.4418565 c 2.250298,6.597e-4 4.546437,0.028436 5.003907,0.083984 0.352,0.042742 1.179843,0.098242 1.839843,0.1210938 0.66,0.022852 1.37961,0.055215 1.59961,0.072266 1.625576,0.1259905 3.765536,0.3617281 4.123046,0.4550781 0.15486,0.040437 0.71308,0.1288335 1.24024,0.1953125 0.5271,0.066479 1.08428,0.1535595 1.23828,0.1953125 0.154,0.041753 0.6932,0.1360364 1.19922,0.2089844 0.50597,0.072948 1.10031,0.1871643 1.32031,0.2539062 0.22,0.066742 0.54275,0.151708 0.71875,0.1875 0.176,0.035792 0.46462,0.105263 0.64062,0.15625 0.176,0.050987 0.48169,0.1204319 0.67969,0.1542969 0.32716,0.055956 1.14019,0.26955 1.82813,0.4785156 0.14722,0.044735 0.30867,0.1128458 0.35937,0.1523438 0.0507,0.039498 0.27219,0.1150487 0.49219,0.1679687 0.22,0.052919 0.65293,0.2071535 0.96094,0.3417969 0.30799,0.1346433 0.6327,0.2733476 0.7207,0.3085938 0.55446,0.2220746 1.31484,0.5978275 1.51953,0.7519531 0.132,0.099388 0.32037,0.2074382 0.41797,0.2382812 0.0976,0.030842 0.3946,0.2146663 0.66015,0.4101563 0.26555,0.1954888 0.50024,0.3554687 0.52344,0.3554687 0.092,0 1.99775,1.910708 2.35547,2.361328 0.3241,0.408276 0.80274,1.217083 0.80274,1.357422 -3e-5,0.107557 -0.16472,0.01874 -0.44532,-0.238281 -0.16813,-0.154 -0.34563,-0.279297 -0.39453,-0.279297 -0.0489,0 -0.33906,-0.125433 -0.64453,-0.279297 -0.30548,-0.153864 -0.6018,-0.28109 -0.6582,-0.28125 -0.0564,-1.36e-4 -0.12364,-0.05263 -0.14844,-0.117187 -0.0451,-0.117662 -0.70197,-0.523438 -0.84766,-0.523438 -0.0427,0 -0.1811,-0.07328 -0.30859,-0.164062 -0.12749,-0.09079 -0.26238,-0.146787 -0.30078,-0.123047 -0.0384,0.02374 -0.13555,-0.02765 -0.21485,-0.115235 -0.0902,-0.09968 -0.19966,-0.140928 -0.29296,-0.111328 -0.099,0.03143 -0.24527,-0.03801 -0.43555,-0.205078 -0.15746,-0.138258 -0.33749,-0.2311512 -0.40039,-0.2070312 -0.0628,0.02412 -0.13516,-0.00896 -0.16016,-0.074219 -0.0251,-0.065261 -0.14227,-0.1191406 -0.25976,-0.1191406 -0.12553,0 -0.32045,-0.099436 -0.47461,-0.2402344 -0.33658,-0.30742 -0.51467,-0.4003906 -0.76563,-0.4003906 -0.12017,0 -0.23661,-0.063791 -0.28711,-0.1582031 -0.0468,-0.087481 -0.183,-0.1803353 -0.30273,-0.2070313 -0.34325,-0.076534 -0.91806,-0.2785444 -1.1582,-0.40625 -0.12082,-0.064237 -0.37335,-0.1270491 -0.56055,-0.1386719 -0.1872,-0.011622 -0.47367,-0.080287 -0.63867,-0.1542968 -0.75529,-0.3387799 -0.87364,-0.3846445 -1.08008,-0.4140625 -0.12092,-0.017232 -0.43717,-0.1096742 -0.70117,-0.2050781 -0.264,-0.095404 -0.69499,-0.1931909 -0.95899,-0.2167969 -0.264,-0.023606 -0.55187,-0.090733 -0.63867,-0.1503907 -0.0868,-0.059657 -0.25738,-0.109375 -0.37891,-0.109375 -0.12153,0 -0.75266,-0.1054446 -1.40234,-0.234375 -1.22422,-0.2429483 -2.54133,-0.4302835 -2.79492,-0.3984374 -0.0802,0.010076 -0.21302,-0.011523 -0.29492,-0.046875 -0.0968,-0.041781 -0.23187,-0.01415 -0.38477,0.076172 -0.26862,0.1586732 -0.54269,0.1121078 -0.39453,-0.066406 0.0735,-0.088572 -0.015,-0.1187568 -0.49024,-0.1679688 -0.31945,-0.033078 -0.7672,-0.070267 -0.99414,-0.082031 -0.22695,-0.011764 -0.44316,-0.039462 -0.48046,-0.0625 -0.0373,-0.023038 -0.33819,-0.042066 -0.66797,-0.041016 -0.329965,0.00105 -0.833144,-0.04242 -1.119144,-0.097656 -0.286,-0.055236 -0.753062,-0.111633 -1.039062,-0.125 -0.286,-0.013366 -0.916391,-0.048187 -1.400391,-0.078125 -0.484,-0.029937 -1.384,-0.057347 -2,-0.060547 -0.917692,-0.00476 -1.167633,0.018852 -1.382812,0.1328125 -0.165674,0.087742 -0.241644,0.1753983 -0.205079,0.2363281 0.04019,0.066964 0.01989,0.065681 -0.06836,-0.00586 -0.07001,-0.056706 -0.249047,-0.1156534 -0.396484,-0.1308594 -0.147436,-0.015206 -0.333063,-0.056513 -0.414063,-0.089844 -0.08881,-0.036544 -0.257731,-0.00694 -0.423828,0.072266 -0.358967,0.1712033 -0.595827,0.165106 -0.642577,-0.013671 -0.02963,-0.1133197 -0.09883,-0.13533 -0.332031,-0.109375 -0.162263,0.018059 -0.339534,0.069108 -0.394531,0.1132813 -0.06523,0.052392 -0.09961,0.051662 -0.09961,0 0,-0.1151189 -0.716739,-0.2368887 -1.021484,-0.1738282 -0.143249,0.029643 -0.465999,0.011726 -0.71875,-0.039063 -0.300879,-0.060458 -0.627137,-0.06818 -0.941406,-0.023437 -0.264001,0.037586 -0.875376,0.063614 -1.359376,0.058594 -0.611709,-0.00634 -0.941608,0.024736 -1.083984,0.1015625 -0.137143,0.074003 -0.267521,0.089231 -0.392578,0.042969 -0.353576,-0.1307963 -2.002214,0.034304 -2.316406,0.2324219 -0.174429,0.1099864 -0.20178,0.1087225 -0.28711,-0.00781 -0.05202,-0.071134 -0.121996,-0.1026595 -0.154296,-0.070312 -0.0323,0.032316 -0.137072,0.063783 -0.232422,0.070312 -0.805125,0.055157 -2.061881,0.2666902 -2.210938,0.3710938 -0.09913,0.069433 -0.232655,0.1047283 -0.296875,0.080078 -0.06422,-0.024643 -0.259545,0.0031 -0.433594,0.060547 -0.23949,0.079039 -0.338193,0.081726 -0.408203,0.011719 -0.07001,-0.070007 -0.129906,-0.058249 -0.246094,0.046875 -0.102733,0.092951 -0.303302,0.1438038 -0.605468,0.1523437 -0.529618,0.014961 -1.079292,0.113778 -1.691406,0.3066407 -0.242002,0.076248 -0.566704,0.139355 -0.720704,0.140625 -0.154,0.00127 -0.304537,0.043378 -0.335937,0.091797 -0.0314,0.048419 -0.283944,0.093782 -0.560547,0.1015624 -0.689468,0.01938 -1.020539,0.098058 -1.302734,0.3085938 -0.191112,0.1425829 -0.326912,0.1731869 -0.66211,0.1542969 -0.336992,-0.018991 -0.435231,0.00543 -0.496094,0.1191406 -0.07848,0.1466416 -0.415712,0.2287268 -1.193359,0.2929687 -0.236626,0.019548 -0.506239,0.0773 -0.599609,0.1289063 -0.236286,0.130592 -0.942958,0.3757563 -1.09375,0.3789063 -0.0687,0.00144 -0.198533,0.071912 -0.289063,0.15625 -0.09053,0.084338 -0.295934,0.1884798 -0.455078,0.2324218 -0.159144,0.043942 -0.423237,0.1924058 -0.587891,0.328125 -0.164651,0.13572 -0.378066,0.2460938 -0.472656,0.2460938 -0.09459,0 -0.216714,0.053141 -0.271484,0.1191406 -0.05478,0.066 -0.140816,0.1210938 -0.191406,0.1210938 -0.05059,0 -0.216116,0.1014405 -0.369141,0.2265624 -0.153,0.1250522 -0.38216,0.2542662 -0.507813,0.2851562 -0.128917,0.03161 -0.246451,0.122685 -0.269531,0.210935 -0.02861,0.109407 -0.108606,0.15625 -0.269531,0.15625 -0.143351,0 -0.267798,0.06043 -0.330078,0.160156 -0.05496,0.088 -0.161908,0.160156 -0.236328,0.160156 -0.07442,0 -0.210698,0.108235 -0.304688,0.240235 -0.09399,0.132 -0.23264,0.241629 -0.30664,0.242187 -0.157288,0.0012 -1.066856,0.448711 -1.134766,0.558594 -0.04775,0.07727 -0.618868,0.413958 -0.943359,0.556641 -0.10094,0.04438 -0.270847,0.103739 -0.378907,0.130859 -0.167066,0.04193 -0.197425,0.02176 -0.197265,-0.138672 2.18e-4,-0.199574 0.422302,-0.953076 0.808593,-1.441406 0.12683,-0.160332 0.232422,-0.316136 0.232422,-0.347656 0,-0.03152 0.157501,-0.206522 0.351563,-0.388672 0.194063,-0.182151 0.549734,-0.5171975 0.791015,-0.7441409 0.241296,-0.2269433 0.542326,-0.4785927 0.667969,-0.5585937 0.125642,-0.08 0.257779,-0.1900378 0.292969,-0.2460937 0.03519,-0.056057 0.09889,-0.1035157 0.142578,-0.1035157 0.04369,0 0.275429,-0.1423593 0.513672,-0.3183593 0.238242,-0.1760001 0.466352,-0.3203126 0.507812,-0.3203126 0.04146,0 0.263344,-0.12725 0.492188,-0.28125 0.228843,-0.1539999 0.428389,-0.2792968 0.443359,-0.2792968 0.01497,0 0.337587,-0.1443125 0.716797,-0.3203125 0.379209,-0.176 0.722765,-0.3203125 0.765625,-0.3203125 0.04286,0 0.249569,-0.085287 0.458985,-0.1914063 0.209417,-0.1061194 0.595292,-0.2556781 0.857422,-0.3300781 0.262118,-0.0744 0.548718,-0.1771056 0.636718,-0.2304688 0.189597,-0.11497 1.101136,-0.3959575 1.720703,-0.5292968 0.451429,-0.097154 1.164373,-0.2821934 1.519532,-0.3945313 0.11,-0.034793 0.487843,-0.1256558 0.839843,-0.2011718 0.352,-0.075516 0.802,-0.1722459 1,-0.2167969 0.198,-0.044551 0.630938,-0.1116345 0.960938,-0.1484375 0.33,-0.036803 0.797062,-0.1039606 1.039062,-0.1503906 0.242,-0.04643 0.692,-0.1207205 1,-0.1640625 0.308,-0.043342 0.740938,-0.1161974 0.960938,-0.1621094 0.398312,-0.083124 2.01808,-0.2714805 3.160156,-0.3671875 0.33,-0.027655 0.78,-0.066567 1,-0.085937 0.22,-0.01937 0.956672,-0.050261 1.638672,-0.070312 0.682,-0.020051 1.433465,-0.076793 1.669922,-0.125 0.271419,-0.055337 2.476265,-0.082691 4.726562,-0.082031 z m 0.261719,1.8847657 c -0.0226,0.00639 -0.04282,0.02061 -0.05664,0.042969 -0.02764,0.044718 0.0056,0.082031 0.07422,0.082031 0.14052,0 0.161816,-0.048609 0.05078,-0.1171875 -0.02048,-0.012657 -0.04575,-0.014207 -0.06836,-0.00781 z M 38.243765,6.496544 c 0.07159,0.00698 0.148036,0.091579 0.166016,0.2460938 0.0148,0.1271827 -0.02093,0.2267132 -0.0918,0.2539062 -0.159239,0.061106 -0.212891,-0.00933 -0.212891,-0.2832031 0,-0.152762 0.06709,-0.2237747 0.138672,-0.2167969 z m -2.027343,0.9550781 c 0.108086,1e-7 0.241766,0.077418 0.310546,0.1796876 l 0.121094,0.1796874 0.195313,-0.1796874 c 0.199306,-0.1850492 0.46289,-0.2416886 0.46289,-0.099609 0,0.044 -0.09117,0.080078 -0.201172,0.080078 -0.29345,0 -0.240774,0.2114335 0.0957,0.3886719 0.252421,0.1328636 0.345704,0.1140877 0.345704,-0.070312 0,-0.189308 0.178569,-0.2825165 0.378906,-0.1953125 0.133334,0.058038 0.133334,0.063813 0,0.095703 -0.077,0.018417 -0.138672,0.066076 -0.138672,0.1054687 0,0.039393 0.04861,0.050658 0.109375,0.027344 0.135391,-0.051956 0.296935,0.3642972 0.234375,0.6035156 -0.04862,0.1859272 -0.0037,0.2021443 0.220703,0.082031 0.132721,-0.071031 0.154297,-0.05494 0.154297,0.1074219 0,0.1256519 -0.07272,0.2273823 -0.21875,0.3027343 -0.121,0.062435 -0.268032,0.1578907 -0.326172,0.2128907 -0.14679,0.1388619 -0.233706,0.1250078 -0.392578,-0.060547 -0.184118,-0.2150344 -0.356101,-0.2052986 -0.337891,0.019531 0.03037,0.3749712 0.0088,0.4009743 -0.27539,0.3476563 -0.20234,-0.037959 -0.281436,-0.020786 -0.316407,0.070312 -0.0279,0.072704 -0.14588,0.1230466 -0.292968,0.1230469 -0.206674,-2e-7 -0.266185,0.04615 -0.365235,0.2832035 -0.06866,0.16432 -0.204359,0.314545 -0.322265,0.359375 -0.263532,0.100193 -0.271485,0.09865 -0.271485,-0.04297 0,-0.066 0.03608,-0.119141 0.08008,-0.119141 0.044,0 0.08008,-0.09117 0.08008,-0.201172 0,-0.1410699 0.04238,-0.1992186 0.146484,-0.1992186 0.08118,0 0.213329,-0.072156 0.292969,-0.1601563 0.07964,-0.088 0.209952,-0.1601562 0.289062,-0.1601562 0.25122,0 0.559712,-0.1808141 0.513672,-0.3007813 -0.0237,-0.061761 -0.04297,-0.1398521 -0.04297,-0.1738281 0,-0.033977 -0.09342,-0.1643705 -0.208984,-0.2890625 -0.153115,-0.1652096 -0.190026,-0.2581051 -0.134766,-0.3457031 0.121909,-0.1932656 0.271843,-0.200961 0.320313,-0.015625 0.04004,0.153109 0.204433,0.2073024 0.189453,0.0625 -0.0033,-0.0319 -0.0059,-0.1148389 -0.0059,-0.1855469 0,-0.081755 -0.04433,-0.1115047 -0.121094,-0.082031 -0.07078,0.02716 -0.16098,-0.018829 -0.21875,-0.1113281 -0.0592,-0.096113 -0.193167,-0.1611556 -0.339844,-0.1660156 -0.236283,-0.00783 -0.237105,-0.010523 -0.04102,-0.074219 l 0.201218,-0.064453 -0.179687,-0.056641 c -0.239917,-0.075244 -0.232992,-0.2773437 0.0098,-0.2773438 z m -1.9375,0.00977 c 0.04058,0.011838 0.04175,0.040929 0.02148,0.09375 -0.02653,0.069134 -0.09443,0.1081905 -0.152344,0.085937 -0.05791,-0.022221 -0.129153,-0.00208 -0.158203,0.044922 -0.06802,0.1100833 -0.258192,0.11 -0.326172,0 -0.07634,-0.123523 -0.01098,-0.1615234 0.357422,-0.2109374 0.137944,-0.0185 0.217234,-0.02551 0.257813,-0.013672 z m 0.53125,0.070312 c 0.03504,0 0.06255,0.095552 0.06055,0.2128906 -0.002,0.1173392 -0.05552,0.2314021 -0.117187,0.2519531 -0.08367,0.027881 -0.09863,-0.011996 -0.06055,-0.1542969 0.02807,-0.1048903 0.05209,-0.217 0.05273,-0.25 6e-4,-0.033 0.0294,-0.060547 0.06445,-0.060547 z m 10.636718,0.027344 c 0.055,-0.022193 0.144219,-0.022193 0.199219,0 0.055,0.022193 0.01039,0.039063 -0.09961,0.039063 -0.11,0 -0.154672,-0.01687 -0.09961,-0.039063 z m 8.544924,0.011719 c 0.0217,0.00487 0.0352,0.019052 0.0352,0.039063 0,0.108445 -0.14341,0.175676 -0.19531,0.091797 -0.0248,-0.040107 0.008,-0.093911 0.0742,-0.1191406 0.0329,-0.012615 0.0643,-0.016594 0.0859,-0.011719 z m 2.26562,0.087891 c 0.0173,0.015808 -0.0146,0.083328 -0.0703,0.1503906 -0.11492,0.138476 -0.32031,0.1654088 -0.32031,0.041016 0,-0.082734 0.33152,-0.2454653 0.39062,-0.1914063 z m -22.945309,0.035156 c 0.03386,0.00276 0.06556,0.042246 0.121093,0.1171874 0.06458,0.087149 0.108207,0.2102325 0.0957,0.2734376 -0.03546,0.1826427 -0.182424,0.1840799 -0.34375,0.00586 -0.141549,-0.1563736 -0.140358,-0.170014 -0.0098,-0.3007812 0.066,-0.065036 0.102861,-0.098463 0.136719,-0.095703 z m 5.02539,0.00781 c 0.04497,-0.017356 0.145676,0.010099 0.328125,0.070313 0.283837,0.093675 0.425721,0.2281157 0.259766,0.2460937 -0.435325,0.047155 -0.520415,0.029151 -0.578125,-0.1230469 -0.04321,-0.1139496 -0.05288,-0.1760031 -0.0098,-0.1933594 z m -3.171875,0.023438 c 0.0558,-0.055799 0.300782,0.053671 0.300782,0.1347656 0,0.1001428 -0.219384,0.089599 -0.283204,-0.013672 -0.029,-0.046927 -0.03769,-0.1009857 -0.01758,-0.1210937 z m -2.705078,0.072266 c 0.03128,-0.023737 0.09138,-0.025731 0.167969,0.00391 0.07073,0.027125 0.105195,0.086548 0.07813,0.1308594 -0.06485,0.1049208 -0.177711,0.1016642 -0.244141,-0.00586 -0.03681,-0.059568 -0.03014,-0.1051695 -0.002,-0.1289062 z m 12.802734,0.023437 c 0.02332,0.00798 0.03051,0.025726 0.02148,0.052734 -0.04011,0.1203412 -0.19285,0.1647171 -0.25,0.072266 -0.02554,-0.041321 0.02717,-0.095601 0.117187,-0.1191407 0.04983,-0.013031 0.08801,-0.013779 0.111328,-0.00586 z m -12.984374,0.035156 c 0.01651,-0.00195 0.03437,0.024196 0.0625,0.076172 0.03572,0.066 0.0908,0.1998281 0.121093,0.2988281 0.03242,0.105978 0.02128,0.1816407 -0.02734,0.1816407 -0.125839,0 -0.267155,-0.3158329 -0.208985,-0.4667969 0.02232,-0.057931 0.03623,-0.087895 0.05273,-0.089844 z m 19.050781,0.01367 c 0.01772,-0.0022 0.0383,0.034319 0.07813,0.1054688 0.05973,0.1066913 0.05863,0.1575074 -0.0098,0.1796874 -0.05103,0.01701 -0.0918,0.082198 -0.0918,0.1445313 0,0.062334 -0.07216,0.1132813 -0.160156,0.1132813 -0.185453,-2e-7 -0.214827,-0.1449646 -0.04297,-0.2109376 0.06433,-0.024683 0.141012,-0.1198355 0.169922,-0.2109374 0.02514,-0.079218 0.03893,-0.1188932 0.05664,-0.1210938 z m -19.779297,0.00781 c 7.74e-4,-0.035068 0.03149,-0.021244 0.0918,0.039063 0.0528,0.0528 0.161034,0.095703 0.240234,0.095703 0.0792,0 0.144531,0.03372 0.144531,0.076172 0,0.042452 -0.06863,0.1144491 -0.15039,0.1582031 -0.121004,0.064759 -0.163911,0.042124 -0.238282,-0.1210937 -0.0588,-0.1290053 -0.08866,-0.2129784 -0.08789,-0.2480469 z m 26.982418,0 c 0.0573,-0.057305 0.21289,0.044283 0.21289,0.1386719 0,0.041403 -0.0328,0.076172 -0.0742,0.076172 -0.0944,0 -0.19598,-0.1575367 -0.13868,-0.2148437 z m -19.044918,0.00195 c 0.01792,-0.00734 0.04919,0.013176 0.101562,0.056641 0.06822,0.056622 0.114783,0.1923608 0.101563,0.3027344 -0.0272,0.2270612 -0.129803,0.2862373 -0.304688,0.1757813 -0.09504,-0.060024 -0.09864,-0.096672 -0.01953,-0.1757813 0.05463,-0.054632 0.09961,-0.1673661 0.09961,-0.2519531 0,-0.064933 0.0036,-0.1000769 0.02148,-0.1074219 z m 17.527348,0.00586 c 0.0538,0.026026 0.0824,0.1059434 0.0684,0.234375 -0.0193,0.1770928 0.007,0.2128906 0.16992,0.2128906 0.10695,0 0.21688,0.053141 0.24218,0.1191406 0.0861,0.2242618 -0.37801,0.1423115 -0.61914,-0.109375 -0.2057,-0.2146894 -0.2133,-0.23777 -0.0859,-0.3632812 0.0911,-0.091136 0.17075,-0.1197761 0.22461,-0.09375 z m -21.179692,0.04688 c 0.06596,0 0.0975,0.036078 0.07031,0.080078 -0.02719,0.044 -0.103922,0.080078 -0.169922,0.080078 -0.06596,0 -0.0975,-0.036078 -0.07031,-0.080078 0.02719,-0.044 0.103922,-0.080078 0.169922,-0.080078 z m 7.666016,0 c 0.0686,0 0.125,0.036078 0.125,0.080078 0,0.044 -0.03477,0.080078 -0.07617,0.080078 -0.0414,0 -0.09781,-0.036078 -0.125,-0.080078 -0.02719,-0.044 0.0076,-0.080078 0.07617,-0.080078 z m 12.003906,0 c 0.066,0 0.12109,0.032816 0.12109,0.074219 0,0.1008735 -0.12555,0.173289 -0.18945,0.109375 -0.0901,-0.090095 -0.0554,-0.1835938 0.0684,-0.1835938 z m -25,0.1601562 c 0.044,10e-8 0.08008,0.036078 0.08008,0.080078 0,0.044 -0.03608,0.080078 -0.08008,0.080078 -0.044,0 -0.08008,-0.036078 -0.08008,-0.080078 0,-0.044 0.03608,-0.080078 0.08008,-0.080078 z m 20.160156,0.00391 c 0.04234,-0.00708 0.08626,0.021312 0.125,0.083984 0.02981,0.048222 -1.58e-4,0.1410312 -0.06641,0.2070312 -0.137703,0.1377008 -0.246042,0.030407 -0.169922,-0.1679687 0.02836,-0.073892 0.06899,-0.1159664 0.111328,-0.1230469 z m -21.378906,0.023434 c 0.01409,0.01376 0.01953,0.050618 0.01953,0.1152344 0,0.1931612 -0.04225,0.2237195 -0.125,0.089844 -0.02956,-0.047834 -0.0138,-0.1268152 0.03516,-0.1757812 0.03269,-0.032687 0.05623,-0.043057 0.07031,-0.029297 z m 6.720703,0.052734 c 0.02061,0 0.0347,0.032943 0.06055,0.099609 0.07661,0.1976312 -0.0078,0.3723343 -0.177734,0.3652343 -0.07936,-0.00332 -0.197582,0.016526 -0.263672,0.044922 -0.074,0.031795 -0.158803,-0.010257 -0.220703,-0.109375 -0.05528,-0.088521 -0.155077,-0.1601562 -0.220703,-0.1601562 -0.173863,-2e-7 -0.146763,-0.1355268 0.03711,-0.1835938 0.08638,-0.022589 0.19899,0.00885 0.25,0.070312 0.126532,0.1524636 0.315273,0.1412847 0.439453,-0.027344 0.0491,-0.066667 0.07509,-0.099609 0.0957,-0.099609 z M 28.2965,8.2524029 c 0.066,0 0.14273,0.036078 0.169922,0.080078 0.02719,0.044 -0.0043,0.080078 -0.07031,0.080078 -0.066,-2e-7 -0.142732,-0.036078 -0.169922,-0.080078 -0.02719,-0.044 0.0043,-0.080078 0.07031,-0.080078 z m 9.015625,0.015625 c -0.03794,0.00427 -0.07273,0.019997 -0.09961,0.046875 -0.046,0.046008 -0.05841,0.1235581 -0.02734,0.1738281 0.07068,0.1143686 0.297266,0.077094 0.341796,-0.056641 0.03281,-0.098528 -0.101039,-0.1768864 -0.214843,-0.1640625 z m 1.599609,0.064454 c 0.02127,3.285e-4 0.03632,0.01916 0.05078,0.058594 0.02017,0.055 0.107753,0.1015625 0.195313,0.1015625 0.104633,0 0.151765,0.044775 0.134765,0.1308593 -0.01423,0.072034 -0.108624,0.1602157 -0.208984,0.1972657 -0.150632,0.055611 -0.19802,0.032708 -0.273437,-0.1328125 -0.07092,-0.155644 -0.06888,-0.2228871 0.01172,-0.2988282 0.04094,-0.038578 0.06857,-0.056969 0.08984,-0.056641 z m 11.21875,0.029297 c 0.0145,-0.00639 0.03269,-0.00383 0.05469,0.00977 0.044,0.027194 0.08008,0.064581 0.08008,0.083984 0,0.019403 -0.03608,0.037109 -0.08008,0.037109 -0.044,0 -0.08008,-0.039341 -0.08008,-0.085937 0,-0.023298 0.01089,-0.038528 0.02539,-0.044922 z M 41.5465,8.4125595 c 0.088,-2e-7 0.160156,0.036078 0.160156,0.080078 0,0.044 -0.07216,0.078125 -0.160156,0.078125 -0.088,0 -0.160157,-0.034125 -0.160157,-0.078125 0,-0.044 0.07216,-0.080078 0.160157,-0.080078 z m -13.927735,0.074219 c 0.01668,-0.00173 0.03436,0.00701 0.05469,0.027344 0.02659,0.026584 0.03414,0.092854 0.01563,0.1484376 -0.02709,0.081297 -0.0453,0.081554 -0.0957,0 -0.05004,-0.08097 -0.02466,-0.170594 0.02539,-0.1757813 z m 4.242188,0.099609 c 0.06,-0.02 0.09031,0.010312 0.07031,0.070312 -0.01925,0.05775 -0.08288,0.121375 -0.140625,0.140625 -0.06,0.02 -0.09031,-0.010315 -0.07031,-0.070312 0.01925,-0.05775 0.08288,-0.121375 0.140625,-0.140625 z m 35.400391,0.064453 c 0.0686,0 0.125,0.036078 0.125,0.080078 0,0.044 -0.0348,0.080078 -0.0762,0.080078 -0.0414,2e-7 -0.0978,-0.036078 -0.125,-0.080078 -0.0272,-0.044 0.008,-0.080078 0.0762,-0.080078 z m -25.185548,0.00977 c 0.02601,0.00961 0.0293,0.044006 0.0293,0.1113282 0,0.066666 -0.06931,0.1191406 -0.158203,0.1191406 -0.190744,0 -0.21366,-0.1228123 -0.03516,-0.1914063 0.0894,-0.034307 0.138049,-0.048665 0.164062,-0.039063 z m 9.34961,0.042969 c 0.066,0.025328 0.121094,0.077894 0.121094,0.1171875 0,0.083872 -0.11104,0.094034 -0.1875,0.017578 -0.09717,-0.097173 -0.05554,-0.1815596 0.06641,-0.1347656 z m -24.240234,0.015625 c 0.0418,0 0.0897,0.038638 0.105468,0.085937 0.01577,0.0473 -0.03214,0.085937 -0.105468,0.085937 -0.07334,0 -0.119286,-0.038642 -0.103516,-0.085937 0.01577,-0.0473 0.06172,-0.085937 0.103516,-0.085937 z m 30.777342,0.029297 c 0.0948,0.012541 0.22266,0.1071057 0.22266,0.1914063 0,0.1513868 -0.23202,0.1421118 -0.29102,-0.011719 -0.0261,-0.067897 -0.0185,-0.1409714 -0.01,-0.1621094 0.0178,-0.017818 0.0465,-0.021758 0.0781,-0.017578 z M 32.89025,8.8363929 c 0.05775,-0.023115 0.127717,-0.018639 0.154296,0.00781 0.02658,0.026584 -0.02114,0.044486 -0.105468,0.041016 -0.09319,-0.00384 -0.112524,-0.02329 -0.04883,-0.048828 z m 5.765625,0.1347656 c 0.044,0 0.103669,0.036078 0.130859,0.080078 0.02719,0.044 0.01275,0.080078 -0.03125,0.080078 -0.044,0 -0.101716,-0.036078 -0.128906,-0.080078 -0.02719,-0.044 -0.0147,-0.080078 0.0293,-0.080078 z M 28.286734,9.0863878 c 0.0139,-0.018562 0.03523,-0.011651 0.06641,0.019531 0.04773,0.047726 0.07527,0.1664199 0.06055,0.2636719 -0.03466,0.2289032 -0.148437,0.1172972 -0.148437,-0.1464844 0,-0.072828 0.0076,-0.1181569 0.02148,-0.1367187 z m 1.259766,0.044922 c 0.044,0 0.08008,0.036078 0.08008,0.080078 0,0.044 -0.03608,0.080078 -0.08008,0.080078 -0.044,0 -0.08008,-0.036078 -0.08008,-0.080078 0,-0.044 0.03608,-0.080078 0.08008,-0.080078 z m 8.71875,0.080078 c 0.08889,0 0.160156,0.054428 0.160156,0.1210937 0,0.1232756 -0.04466,0.1366709 -0.21875,0.066406 -0.156769,-0.063258 -0.118221,-0.1875 0.05859,-0.1875 z m 30.640624,0.2402343 c 0.044,0 0.0801,0.036078 0.0801,0.080078 0,0.044 -0.0361,0.080078 -0.0801,0.080078 -0.044,0 -0.0801,-0.036078 -0.0801,-0.080078 0,-0.044 0.0361,-0.080078 0.0801,-0.080078 z m -40.039062,0.082031 c 0.03387,-0.00838 0.06328,-0.00508 0.08203,0.013672 0.02767,0.027675 0.01005,0.1250274 -0.03906,0.2167968 -0.106325,0.1986741 -0.348097,0.2279342 -0.310547,0.037109 0.02227,-0.1131667 0.165973,-0.242447 0.267578,-0.2675781 z m -3.683594,0.00781 c 0.04327,0.00636 0.04456,0.059842 0.0293,0.1621094 -0.03253,0.217995 -0.339673,0.3406755 -0.466797,0.1875 -0.07264,-0.08752 -0.04143,-0.135185 0.150391,-0.234375 0.157399,-0.081386 0.243845,-0.1215916 0.287109,-0.1152344 z m 31.910156,0.083984 c 0.10566,-0.020354 0.13954,0.011501 0.11914,0.1171875 -0.0155,0.080491 -0.0933,0.1602812 -0.17383,0.1757812 -0.10566,0.020353 -0.13954,-0.013454 -0.11914,-0.1191406 0.0155,-0.08049 0.0933,-0.1583281 0.17383,-0.1738281 z m -33.957031,0.066406 c 0.044,0 0.101717,0.036078 0.128907,0.080078 0.02719,0.044 0.0147,0.080078 -0.0293,0.080078 -0.044,0 -0.10367,-0.036078 -0.13086,-0.080078 -0.02719,-0.044 -0.01275,-0.080078 0.03125,-0.080078 z m 11.490235,0.1601563 c 0.0712,0 0.107144,0.036078 0.08008,0.080078 -0.02719,0.044 -0.06327,0.080078 -0.08008,0.080078 -0.01681,0 -0.05289,-0.036078 -0.08008,-0.080078 -0.02719,-0.044 0.0089,-0.080078 0.08008,-0.080078 z m -5.275391,0.3203126 c 0.0194,0 0.03516,0.03608 0.03516,0.08008 0,0.044 -0.03934,0.08008 -0.08594,0.08008 -0.0466,0 -0.06235,-0.03608 -0.03516,-0.08008 0.02719,-0.044 0.06654,-0.08008 0.08594,-0.08008 z m 15.228516,0.103519 c 2.5373,-0.02099 4.987238,0.06497 7.085937,0.259766 0.704,0.06534 1.370469,0.134476 1.480469,0.154296 0.11,0.01982 0.685295,0.07466 1.279295,0.121094 1.01013,0.07895 3.51646,0.381502 4.60156,0.556641 0.264,0.04261 0.98361,0.153814 1.59961,0.246094 1.42985,0.214204 3.84737,0.673423 4.87891,0.925781 1.50863,0.369073 2.33178,0.797249 2.83008,1.472656 0.17207,0.233226 0.13286,0.21065 -0.23828,-0.132812 -0.78844,-0.729635 -1.49279,-1.002459 -3.79102,-1.46875 -3.047,-0.618213 -7.776,-1.299062 -11.359374,-1.634766 -3.080688,-0.288568 -8.395862,-0.430768 -10.960937,-0.292969 -5.639068,0.30294 -11.15657,0.969508 -15.939453,1.925781 -2.880986,0.576014 -3.791555,1.061006 -4.439454,2.363282 -0.109453,0.22 -0.225805,0.508625 -0.259765,0.640625 -0.03396,0.132 -0.106439,0.562984 -0.162109,0.958984 -0.08837,0.628694 -0.103929,0.666859 -0.111329,0.304688 -0.01971,-0.962789 0.385663,-2.148643 0.945313,-2.771485 0.705911,-0.785616 1.56521,-1.142833 3.861328,-1.605469 3.836791,-0.77306 7.238503,-1.277385 11.087891,-1.642578 2.449879,-0.23242 5.074028,-0.359871 7.611328,-0.380859 z m -22.419922,0.125 c 0.0228,0.0096 0.05327,0.03305 0.0918,0.07031 0.07961,0.077 0.128115,0.20425 0.109375,0.28125 -0.04732,0.194429 -0.147488,0.17391 -0.205078,-0.04102 -0.06486,-0.241256 -0.06451,-0.339416 0.0039,-0.310546 z m 35.490233,0.04102 c 0.0145,-0.0064 0.0346,-0.0038 0.0566,0.0098 0.044,0.02719 0.0801,0.06458 0.0801,0.08398 0,0.0194 -0.0361,0.03516 -0.0801,0.03516 -0.044,0 -0.0801,-0.03738 -0.0801,-0.08398 0,-0.0233 0.009,-0.03853 0.0234,-0.04492 z m -28.61328,0.05078 c 0.06061,0 0.109375,0.05314 0.109375,0.11914 0,0.07616 -0.07583,0.119141 -0.208984,0.119141 -0.177415,0 -0.195549,-0.01766 -0.111329,-0.119141 0.05478,-0.066 0.150328,-0.11914 0.210938,-0.11914 z m -1.007812,0.02148 c 0.03701,-0.01013 0.07918,-0.0083 0.121093,0.0078 0.131544,0.05048 0.131082,0.0619 -0.01172,0.169922 -0.251219,0.190138 -0.353813,0.132823 -0.199218,-0.111328 0.02111,-0.03335 0.05284,-0.05627 0.08984,-0.06641 z m -6.138672,0.408203 c 0.0145,-0.0064 0.03464,-0.0038 0.05664,0.0098 0.044,0.02719 0.08008,0.06458 0.08008,0.08398 0,0.01941 -0.03608,0.03516 -0.08008,0.03516 -0.044,0 -0.08008,-0.03738 -0.08008,-0.08398 0,-0.0233 0.0089,-0.03853 0.02344,-0.04492 z m -0.345704,0.490234 c 0.04535,-0.02803 0.05857,0.003 0.03125,0.07422 -0.05318,0.1386 -0.109374,0.163909 -0.109374,0.04883 0,-0.0414 0.03463,-0.09617 0.07812,-0.123046 z M 20.734,11.5317 c 0.03718,0 0.129388,0.06871 0.205078,0.152344 0.169933,0.187773 0.03314,0.302675 -0.146485,0.123047 C 20.655303,11.669815 20.626034,11.531714 20.734,11.5317 Z m 23.917968,0.105469 c 0.05775,-0.02312 0.125764,-0.02078 0.152344,0.0059 0.02658,0.02659 -0.02114,0.04647 -0.105469,0.04297 -0.09319,-0.0038 -0.111005,-0.02329 -0.04687,-0.04883 z m 2.03125,0.0293 c 0.609635,-0.01333 1.837317,0.02428 1.896485,0.07617 0.01833,0.01608 -0.476277,0.0293 -1.09961,0.0293 -0.633156,0 -1.134765,-0.03327 -1.134765,-0.07422 0,-0.01691 0.134679,-0.02681 0.33789,-0.03125 z m -3.4375,0.0098 c 0.187775,0.0025 0.315038,0.0136 0.335938,0.03125 0.0418,0.03531 -0.389184,0.05848 -0.958984,0.05078 l -1.03711,-0.01367 0.960938,-0.05078 c 0.264,-0.0138 0.511443,-0.02012 0.699218,-0.01758 z m -2.263672,0.109375 c 0.605779,0.01555 0.549062,0.02074 -1.835937,0.1875 -1.848994,0.129284 -2.854238,0.223278 -4.347656,0.404297 -1.011318,0.122579 -1.22104,0.135095 -1.16211,0.07617 0.135962,-0.135963 6.287678,-0.695113 7.345703,-0.667969 z m 8.304688,0.01367 c 0.055,-0.02219 0.144219,-0.02219 0.199219,0 0.055,0.02219 0.01039,0.03906 -0.09961,0.03906 -0.11,0 -0.154609,-0.01687 -0.09961,-0.03906 z m 1.519531,0.07617 c 0.09951,-0.01915 0.243823,-0.01788 0.320313,0.0019 0.07649,0.02002 -0.0037,0.03409 -0.179688,0.0332 -0.175998,-8.9e-4 -0.240135,-0.01602 -0.140625,-0.03516 z m 0.699219,0.07031 0.880859,0.04102 c 0.484,0.02288 0.89378,0.05481 0.91211,0.07227 0.07897,0.0752 -0.08171,0.07311 -0.91211,-0.01758 z m 2.099609,0.173829 c 0.055,-0.02219 0.146171,-0.02219 0.201171,0 0.055,0.02219 0.0104,0.03906 -0.0996,0.03906 -0.109874,0 -0.156561,-0.01687 -0.101561,-0.03906 z m -20.259765,0.380859 -0.519532,0.111328 c -0.286,0.06085 -0.663843,0.109222 -0.839843,0.107422 l -0.320313,-0.0039 0.257813,-0.06055 c 0.141792,-0.03369 0.519638,-0.08205 0.839843,-0.107421 z m 24.480466,0.08594 c 0.132,-0.0029 0.50985,0.04191 0.83985,0.09961 0.51279,0.08966 0.5479,0.106222 0.24023,0.107422 -0.41509,0.0016 -1.45988,-0.19875 -1.08008,-0.207031 z M 31.247672,12.75631 c 0.07784,-0.02025 0.186074,-0.01825 0.240234,0.0039 0.04422,0.02075 -0.01527,0.0367 -0.142578,0.03516 -0.132,-0.0016 -0.175263,-0.01878 -0.09766,-0.03906 z m -0.560547,0.08008 c 0.07784,-0.02025 0.186074,-0.01977 0.240234,0.002 0.05416,0.02191 -0.0086,0.03871 -0.140625,0.03711 -0.132,-0.0016 -0.177387,-0.01878 -0.09961,-0.03906 z m 28.720699,0 c 0.0778,-0.02025 0.18604,-0.01977 0.24024,0.002 0.0542,0.02191 -0.0106,0.03871 -0.14258,0.03711 -0.132,-0.0016 -0.17298,-0.01878 -0.0977,-0.03906 z m -29.201168,0.08008 c 0.07784,-0.02025 0.186074,-0.01977 0.240234,0.002 0.05416,0.02192 -0.0086,0.03871 -0.140625,0.03711 -0.132,-0.0016 -0.177387,-0.01878 -0.09961,-0.03906 z m 29.718748,0.002 c 0.055,-0.02219 0.14617,-0.02219 0.20117,0 0.055,0.02219 0.0104,0.04102 -0.0996,0.04102 -0.11,0 -0.15656,-0.01883 -0.10156,-0.04102 z m -30.279295,0.07813 c 0.077,-0.02012 0.202297,-0.02012 0.279297,0 0.077,0.02013 0.01533,0.03711 -0.138672,0.03711 -0.154,0 -0.217625,-0.01699 -0.140625,-0.03711 z m -0.478516,0.08008 c 0.07784,-0.02025 0.186075,-0.01977 0.240235,0.0019 0.05416,0.02192 -0.01058,0.03871 -0.142578,0.03711 -0.132,-0.0016 -0.175311,-0.01878 -0.09766,-0.03906 z m -0.292968,0.08594 c 0.03382,0.0038 0.0116,0.0182 -0.06445,0.04297 -0.118511,0.0386 -0.405181,0.09165 -0.638672,0.117187 -0.299668,0.03279 -0.363037,0.02415 -0.210938,-0.02539 0.118509,-0.0386 0.407134,-0.08969 0.640625,-0.115234 0.149834,-0.0164 0.239619,-0.02337 0.273438,-0.01953 z m -1.503907,0.234375 c 0.05775,-0.02312 0.127717,-0.02078 0.154297,0.0059 0.02658,0.02658 -0.02114,0.04647 -0.105469,0.04297 -0.09319,-0.0038 -0.112524,-0.02329 -0.04883,-0.04883 z m 35.439456,0 c 0.0577,-0.02312 0.12769,-0.02078 0.15429,0.0059 0.0266,0.02658 -0.0212,0.04647 -0.10546,0.04297 -0.0932,-0.0038 -0.11449,-0.02329 -0.0488,-0.04883 z m -35.843752,0.08203 c 0.055,-0.02219 0.144218,-0.02219 0.199218,0 0.055,0.02219 0.01039,0.04102 -0.09961,0.04102 -0.11,0 -0.154595,-0.01883 -0.09961,-0.04102 z m -0.480469,0.08008 c 0.055,-0.02219 0.144216,-0.02219 0.199219,0 0.055,0.02219 0.01039,0.03906 -0.09961,0.03906 -0.11,0 -0.154609,-0.01687 -0.09961,-0.03906 z m -0.400391,0.08008 c 0.055,-0.02219 0.146172,-0.02219 0.201172,0 0.055,0.02219 0.0084,0.03906 -0.101562,0.03906 -0.11,0 -0.15461,-0.01687 -0.09961,-0.03906 z m -0.714844,0.158203 c 0.05775,-0.02312 0.127717,-0.02078 0.154297,0.0059 0.02658,0.02658 -0.02114,0.04647 -0.105469,0.04297 -0.09319,-0.0038 -0.112524,-0.02329 -0.04883,-0.04883 z m -0.320312,0.08008 c 0.05775,-0.02313 0.127717,-0.02078 0.154297,0.0059 0.02658,0.02658 -0.02114,0.04647 -0.105469,0.04297 -0.09319,-0.0038 -0.112524,-0.02329 -0.04883,-0.04883 z m 41.820308,0.582032 c -0.009,-0.0208 0.0457,0.0063 0.15625,0.06836 0.33562,0.188513 0.65637,0.668266 0.78907,1.177735 0.0619,0.237792 0.15693,0.958803 0.21093,1.601562 0.0534,0.642759 0.0808,1.217894 0.0606,1.277344 -0.0202,0.05945 -0.0634,-0.198266 -0.0957,-0.572266 -0.10737,-1.24408 -0.28765,-2.339406 -0.44336,-2.691406 -0.0846,-0.191379 -0.28954,-0.479702 -0.45703,-0.638672 -0.14027,-0.133145 -0.21201,-0.20186 -0.22071,-0.222656 z m 13.43946,1.873047 c 0.0194,0 0.0352,0.03608 0.0352,0.08008 0,0.044 -0.0374,0.08008 -0.084,0.08008 -0.0466,0 -0.0624,-0.03608 -0.0352,-0.08008 0.0272,-0.044 0.0646,-0.08008 0.084,-0.08008 z m -59.292971,0.998047 c 0.0063,-0.03263 0.01586,-0.02802 0.02539,0.02148 0.01907,0.099 0.01907,0.260375 0,0.359375 -0.01907,0.099 -0.03516,0.01831 -0.03516,-0.179688 0,-0.099 0.0035,-0.168547 0.0098,-0.201171 z m 24.132812,1.021484 20.755859,0.01953 v 14.919922 14.919922 l -0.27539,-0.02148 c -0.34757,-0.02829 -0.36009,-0.04403 -0.23047,-0.271484 0.1176,-0.2064 0.11775,-2.667519 -0.0137,-19.361328 -0.049,-6.310254 -0.0958,-8.903038 -0.16016,-9.023438 -0.0497,-0.09292 -0.18082,-0.204203 -0.29101,-0.246093 -0.27224,-0.103504 -39.385969,-0.103504 -39.658206,0 -0.110189,0.0419 -0.241185,0.152991 -0.291015,0.246093 -0.09004,0.168242 -0.190815,9.180098 -0.253907,22.769532 -0.02423,5.218105 -0.01756,5.540325 0.117188,5.689453 0.139009,0.153848 0.136688,0.159774 -0.109375,0.208984 -0.330956,0.06619 -0.375494,0.06305 -0.427734,-0.02148 -0.07167,-0.115963 -0.05616,-29.711433 0.01563,-29.783203 0.0362,-0.03618 9.406548,-0.056 20.822265,-0.04492 z m -24.21289,0.0059 c 0.0066,-0.02521 0.01582,-0.0146 0.02539,0.03516 0.01915,0.09951 0.02117,0.243822 -0.002,0.320312 -0.02002,0.07649 -0.03604,-0.0056 -0.03516,-0.181641 4.45e-4,-0.088 0.0051,-0.148622 0.01172,-0.173828 z m 59.593749,0.310547 c 0.0165,0.0021 0.0416,0.01817 0.0703,0.04687 0.0523,0.05207 0.0754,0.112036 0.0527,0.134766 -0.0534,0.05339 -0.14844,-0.04166 -0.14844,-0.148438 0,-0.02507 0.009,-0.03529 0.0254,-0.0332 z m -12.4043,0.103516 0.0684,0.59375 c 0.0375,0.326754 0.0571,0.606907 0.041,0.623047 -0.0719,0.07196 -0.12914,-0.269967 -0.11914,-0.722657 z m 12.86328,1 c -0.11459,0 -0.16953,0.130099 -0.11523,0.271484 0.0268,0.06972 0.0817,0.108578 0.12109,0.08398 0.0949,-0.05887 0.10019,-0.355468 -0.006,-0.355468 z m -60.621089,4.830078 c 0.0084,-0.0084 0.01848,0.0032 0.03125,0.03516 0.02313,0.05775 0.0232,0.125764 -0.0059,0.152344 -0.02659,0.02658 -0.04452,-0.01919 -0.04102,-0.103516 0.0019,-0.04659 0.0072,-0.07557 0.01563,-0.08398 z m -0.07422,0.921875 c 0.0072,-0.01785 0.0172,-0.0096 0.02734,0.0293 0.02025,0.07784 0.01738,0.186074 -0.0039,0.240234 -0.02192,0.05416 -0.03871,-0.01058 -0.03711,-0.142578 8.15e-4,-0.066 0.0065,-0.109103 0.01367,-0.126953 z m -0.08594,0.998047 c 0.0084,-0.0084 0.01848,0.0032 0.03125,0.03516 0.02312,0.05775 0.0232,0.125764 -0.0059,0.152344 -0.02659,0.02658 -0.04452,-0.01919 -0.04102,-0.103516 0.0019,-0.04659 0.0072,-0.07557 0.01563,-0.08398 z m -0.08008,0.880859 c 0.0084,-0.0084 0.01848,0.0013 0.03125,0.0332 0.02312,0.05775 0.0232,0.127717 -0.0059,0.154297 -0.02659,0.02658 -0.04452,-0.02114 -0.04102,-0.105469 0.0019,-0.04659 0.0072,-0.07362 0.01563,-0.08203 z m 15.310547,2.949219 c 5.287467,-0.01135 13.96497,-0.01136 19.281246,0 5.31654,0.01135 0.98877,0.01953 -9.615231,0.01953 -10.604,1e-5 -14.953483,-0.0082 -9.666015,-0.01953 z m -9.533203,0.378906 h 19.199218 19.201171 l 0.0937,0.220703 c 0.26546,0.624813 0.4794,5.241111 0.63086,13.621094 0.0527,2.913707 0.0525,2.919997 -0.11914,3.099609 l -0.17188,0.179688 H 45.105093 25.472281 l -0.171875,-0.179688 c -0.171654,-0.179765 -0.172361,-0.184669 -0.119141,-3.220703 0.0988,-5.636247 0.303028,-11.349799 0.449219,-12.560547 0.04781,-0.396 0.130231,-0.818453 0.181641,-0.939453 z m -6.089844,0.244141 c 0.0066,-0.02538 0.01533,-0.02092 0.02539,0.01758 0.02012,0.077 0.02012,0.202297 0,0.279297 -0.02013,0.077 -0.03711,0.01337 -0.03711,-0.140625 0,-0.077 0.0051,-0.130875 0.01172,-0.15625 z m -0.08007,0.80074 c 0.0066,-0.02538 0.01533,-0.02287 0.02539,0.01563 0.02012,0.077 0.02012,0.20425 0,0.28125 -0.02013,0.077 -0.03711,0.01337 -0.03711,-0.140625 0,-0.077 0.0051,-0.130875 0.01172,-0.15625 z m -0.08203,1.107422 c 0.0072,-0.01785 0.0172,-0.0096 0.02734,0.0293 0.02025,0.07784 0.02306,0.186074 -0.002,0.240234 -0.02192,0.05416 -0.03871,-0.0086 -0.03711,-0.140625 8.15e-4,-0.066 0.0045,-0.111056 0.01172,-0.128906 z m -0.08398,0.857422 c 0.0073,-0.01812 0.0182,-0.01578 0.0293,0.01172 0.02219,0.055 0.02219,0.144219 0,0.199219 -0.02219,0.055 -0.04102,0.01039 -0.04102,-0.09961 0,-0.055 0.0044,-0.0932 0.01172,-0.111328 z m -0.232422,2.86914 c 0.0063,-0.03263 0.01586,-0.02802 0.02539,0.02148 0.01907,0.099 0.01907,0.262328 0,0.361328 -0.01907,0.099 -0.03516,0.01636 -0.03516,-0.181641 0,-0.099 0.0035,-0.168547 0.0098,-0.201172 z m -0.08203,0.765625 c 0.0066,-0.02538 0.01533,-0.02287 0.02539,0.01563 0.02012,0.077 0.02012,0.20425 0,0.28125 -0.02013,0.077 -0.03711,0.01337 -0.03711,-0.140625 0,-0.077 0.0051,-0.130875 0.01172,-0.15625 z m 0.589844,11.617188 c 0.715,-0.01326 1.886562,-0.01326 2.601562,0 0.715,0.01326 0.129219,0.02344 -1.300781,0.02344 -1.43,0 -2.015781,-0.01018 -1.300781,-0.02344 z m 10.041015,0.002 c 0.121,-0.01833 0.318458,-0.01833 0.439453,0 0.121004,0.01833 0.0213,0.0332 -0.220703,0.0332 -0.242,0 -0.33975,-0.01487 -0.21875,-0.0332 z m -4.595703,0.002 c 0.05775,-0.02313 0.127717,-0.0232 0.154297,0.0059 0.02658,0.02659 -0.02114,0.04647 -0.105469,0.04297 -0.09319,-0.0038 -0.112524,-0.02329 -0.04883,-0.04883 z m 3.556641,0 c 0.07784,-0.02025 0.186074,-0.02306 0.240234,0.002 0.05416,0.02192 -0.0086,0.03871 -0.140625,0.03711 -0.132,-0.0016 -0.177387,-0.01878 -0.09961,-0.03906 z m -2.601563,0.002 c 0.055,-0.02219 0.146172,-0.02219 0.201172,0 0.055,0.02219 0.0084,0.04102 -0.101562,0.04102 -0.11,0 -0.15461,-0.01883 -0.09961,-0.04102 z m 45.724606,0.294922 c 0.0836,0.07579 0.20763,1.047677 0.33594,2.638672 0.19046,2.361643 0.50348,5.918511 0.6875,7.818359 0.17675,1.825616 0.17206,2.628789 0.006,1.181641 -0.0585,-0.484 -0.1562,-1.275766 -0.2168,-1.759766 -0.0606,-0.484 -0.18469,-1.744781 -0.27539,-2.800781 -0.0907,-1.056 -0.23606,-2.675609 -0.32226,-3.599609 -0.18433,-1.975673 -0.28065,-3.538136 -0.21485,-3.478516 z m -21.179684,4.060547 c -8.06e-4,0.002 -0.0011,0.004 -0.002,0.0059 0.02859,0.0043 0.05724,0.0072 0.08594,0.0098 -0.02797,-0.0053 -0.05594,-0.01062 -0.08398,-0.01563 z m -11.576172,0.427734 c -0.0027,-2.05e-4 -0.0089,0.0039 -0.01172,0.0039 0.0059,1.8e-5 0.01175,-9e-6 0.01758,0 -0.0022,-3.18e-4 -0.0036,-0.0037 -0.0059,-0.0039 z m -0.417968,0.07031 c -0.388458,0.05944 -2.055453,0.08602 -6.732422,0.09961 l -6.800782,0.01953 -0.535156,0.263672 c -0.633266,0.311808 -1.031502,0.742251 -1.269531,1.371094 -0.138899,0.366989 -0.161256,0.562252 -0.128906,1.103516 0.05995,1.002922 0.393824,1.548827 1.255859,2.046875 l 0.441406,0.253906 1.59961,0.02539 c 0.88,0.013 6.316078,0.02986 12.080078,0.03906 8.082264,0.01289 10.518906,0.03986 10.65039,0.115234 0.01267,0.0073 0.02007,0.02355 0.03125,0.0332 0.06492,-0.0017 0.12707,-0.01374 0.207032,-0.0059 0.09594,0.01075 0.191489,0.03326 0.285156,0.05664 0.04788,0.01649 0.0947,0.03235 0.142578,0.04883 -0.03979,-0.01602 -0.0417,-0.01109 0.002,-0.0059 0.0065,-8.8e-4 0.01298,-0.0047 0.01953,-0.0039 0.05532,0.0063 0.110896,0.01754 0.166016,0.02539 0.02022,0.0029 0.0403,0.0051 0.06055,0.0078 0.0013,-1.66e-4 0.0026,1.77e-4 0.0039,0 0.02415,-0.0033 0.04794,-0.0081 0.07227,-0.0098 0.08063,-0.0056 0.165242,0.0017 0.246094,0.002 0.107945,-5.99e-4 0.214318,-8.5e-5 0.322265,0 0.203777,1.27e-4 0.40755,1e-5 0.611328,0 0.01058,-8.96e-4 0.02999,2.17e-4 0.04687,0 0.155707,-0.03597 0.139895,-0.03251 0.316407,-0.04102 0.153847,0.01431 0.308662,0.0094 0.46289,0.0078 0.115017,-0.0012 0.228731,5e-6 0.34375,0 0.133386,-1.2e-4 0.267005,-8.4e-5 0.400391,0 0.153793,1.3e-5 0.309072,0 0.462891,0 0.181062,2e-6 0.361902,0 0.542972,0 h 0.41601 c 0.12459,-0.0088 0.24659,0.0316 0.36914,0.04687 0.0349,0.0044 -0.0104,-0.0041 0.0234,-0.0098 0.1438,-0.0131 0.2894,-0.0047 0.43359,-0.0039 0.034,-5.2e-5 0.0677,1.38e-4 0.10157,0 9e-4,-0.0064 -0.01,-0.0425 -0.01,-0.04492 0.0202,-0.0207 0.0515,0.0038 0.084,0.04492 0.12032,-6.07e-4 0.24055,-0.002 0.36132,-0.002 0.13536,1.57e-4 0.27089,0.002 0.40625,0.002 0.14079,-2e-6 0.28305,4e-6 0.42383,0 0.13895,-2e-6 0.27707,-1e-6 0.41602,0 h 0.4414 0.34571 0.38086 0.35937 0.40625 0.21094 0.375 0.3457 0.26563 0.008 c 0.11572,-0.069 0.22393,-0.123631 0.31836,-0.15625 0.11015,-0.03805 1.19039,-0.09218 2.40039,-0.121094 2.4474,-0.05847 2.50624,-0.07026 3.18945,-0.6875 0.29491,-0.266434 0.73047,-1.029404 0.73047,-1.277344 0,-0.05672 0.0313,-0.117848 0.0742,-0.177734 -0.003,-0.01973 -0.01,-0.05291 -0.01,-0.05078 -0.0238,-0.06579 -0.0487,-0.130723 -0.0703,-0.197266 -0.004,-0.01378 -0.005,-0.02854 -0.006,-0.04297 -0.004,-0.04528 -0.01,-0.09141 -0.008,-0.136718 0.006,-0.08009 0.0233,-0.143459 0.0391,-0.210938 0.002,-0.03721 0.0185,-0.07068 0.0254,-0.107422 l -0.041,-0.160156 c -0.0721,-0.286 -0.19449,-0.639816 -0.27149,-0.785156 -0.22933,-0.432555 -0.72401,-0.865152 -1.18359,-1.03711 -0.41172,-0.154043 -0.67125,-0.163409 -6.0957,-0.203124 -3.01625,-0.02209 -4.42641,-0.02531 -5.16016,-0.08594 -0.0654,0.02339 -0.13994,0.03894 -0.23242,0.03906 -0.0484,6.3e-5 -0.0961,2.3e-5 -0.14453,0 -0.0156,9e-6 -0.0313,-2.9e-5 -0.0469,0 -0.10804,2.28e-4 -0.216233,9.67e-4 -0.324218,0 -0.114725,-0.0015 -0.229125,-10e-4 -0.34375,0.0059 -0.02961,-0.0012 -0.06029,-0.0016 -0.08984,-0.0039 -0.0049,-3.82e-4 -0.0036,-0.0016 -0.0078,-0.002 -0.0075,8.14e-4 -0.01005,-10e-4 -0.01953,0.002 -0.03604,0.0044 -0.07134,0.01161 -0.107422,0.01563 -0.02044,0.0023 -0.04205,0.0017 -0.0625,0.0039 -0.05954,0.0066 -0.08636,0.01394 -0.144531,0.02734 -0.04612,0.01094 -0.12026,0.03019 -0.166016,0.03711 -0.07511,0.01136 -0.149005,0.01 -0.224609,0.0098 h -0.321732 -0.347656 -0.390625 c -0.07606,0 -0.141443,-0.0091 -0.199219,-0.02539 -0.02339,6.6e-5 -0.04683,-0.003 -0.07031,0 -0.06571,0.003 -0.08077,0.0069 -0.150391,0.002 -0.106884,-0.0075 -0.212651,-0.03286 -0.318359,-0.04883 -0.006,-0.0022 -0.01177,-0.0032 -0.01758,-0.0059 -0.0018,-8.06e-4 -0.004,-0.0037 -0.0059,-0.0039 -0.01509,-0.0012 -0.02978,1.37e-4 -0.04492,0 -0.05673,-5.11e-4 -0.113197,-0.0013 -0.169921,0 -0.143901,0.0032 -0.288978,0.01034 -0.431641,-0.01367 h -0.427735 c -0.01936,0 -0.03261,-0.0047 -0.05078,-0.0059 -0.843708,0.02206 -2.134782,0.03432 -4.535156,0.03516 -4.135398,0.0015 -5.156825,-0.01351 -5.388672,-0.08594 h -0.04687 -0.0293 -0.0332 c -0.01482,-2e-6 -0.0301,-6e-6 -0.04492,0 -0.01146,-2e-6 -0.02174,-5.5e-5 -0.0332,0 -0.009,5e-5 -0.01832,3.36e-4 -0.02734,0 -0.01829,4.2e-5 -0.03664,0.004 -0.05469,0 -0.0029,-7.52e-4 -0.0049,-0.0032 -0.0078,-0.0039 -6.65e-4,-9.05e-4 -0.0028,-1.69e-4 -0.0039,0 -0.0094,0.0014 -0.01823,0.002 -0.02734,-0.002 -0.0021,-9.85e-4 -0.0039,0.001 -0.0059,-0.002 v -0.002 c -0.0023,-8.89e-4 -0.0055,9.74e-4 -0.0078,-0.002 -0.04413,-0.0041 0.02219,0.0039 -0.02148,-0.002 -0.0042,-8.99e-4 -0.0096,-0.0027 -0.01367,-0.0039 h -0.002 c -0.01071,-0.0015 -0.0223,9.55e-4 -0.0332,0 -0.02053,6.7e-5 -0.04197,3.71e-4 -0.0625,0 -0.01901,2.28e-4 -0.03828,0.0027 -0.05664,-0.0039 -0.0029,-0.0041 1.84e-4,0.001 -0.01172,-0.002 -0.0061,-0.0012 -0.0114,-0.0035 -0.01758,-0.0039 -0.0036,-2.7e-4 -0.02451,-2e-4 -0.02734,0 -0.01104,7.57e-4 -0.01623,0.0033 -0.02734,0.002 -0.0073,-8.69e-4 -0.01237,-0.0042 -0.01953,-0.0059 z m 11.478515,5.49414 c 0.0059,7.47e-4 0.01169,0.0014 0.01758,0.002 0.0067,6.3e-4 0.01355,0.0011 0.01953,-0.002 0.0034,-0.0017 -0.0079,-0.002 -0.01172,-0.002 -0.0085,1.04e-4 -0.01693,0.0013 -0.02539,0.002 z M 29.392203,55.103966 c 0.09078,-0.09934 0.757486,0.315074 0.933593,0.580078 0.402007,0.604926 0.126464,1.561279 -0.5625,1.957031 -0.319226,0.183367 -0.421307,0.196157 -1.857421,0.222657 -1.91829,0.03539 -2.56944,-0.0094 -2.882813,-0.199219 -0.811943,-0.491832 -0.90722,-1.793527 -0.167969,-2.310547 0.247332,-0.172978 0.247175,-0.171771 -0.04492,0.15625 -0.482237,0.541386 -0.479693,1.190531 -0.002,1.638672 0.399429,0.37246 0.468118,0.382812 2.535157,0.382812 1.799411,0 1.995443,-0.01439 2.277343,-0.158203 0.322328,-0.16444 0.644532,-0.678955 0.644532,-1.029297 0,-0.406499 -0.431253,-1.016998 -0.816407,-1.154297 -0.05662,-0.02019 -0.08165,-0.05857 -0.05664,-0.08594 z m 9.755859,0.0039 c 0.02306,-0.02542 0.187899,0.01934 0.367188,0.09961 0.442987,0.198331 0.690705,0.567091 0.734375,1.09375 0.04546,0.548131 -0.228344,1.052247 -0.732422,1.347656 -0.344482,0.201849 -0.348388,0.201892 -2.378907,0.201172 -2.024572,-7.53e-4 -2.033557,-4.08e-4 -2.365234,-0.199219 -0.646124,-0.387292 -0.877115,-1.371806 -0.464844,-1.978516 0.11084,-0.163115 0.280747,-0.338435 0.378907,-0.390625 0.129937,-0.06909 0.09887,-0.0071 -0.113282,0.228516 -0.467179,0.518825 -0.483361,1.136249 -0.04297,1.609375 0.368376,0.395643 0.475603,0.411556 2.591797,0.410156 1.908833,-0.0013 1.994939,-0.0084 2.300781,-0.18164 0.406017,-0.229959 0.652826,-0.761993 0.566406,-1.222657 -0.05641,-0.300683 -0.497833,-0.837967 -0.763672,-0.929687 -0.066,-0.02277 -0.100875,-0.06247 -0.07813,-0.08789 z m 9.949219,0.02344 c 0.243717,0 0.818169,0.637777 0.880859,0.978515 0.110668,0.601553 -0.272165,1.330065 -0.863281,1.640625 -0.203898,0.107124 -0.575859,0.134297 -2.087891,0.154297 -1.012,0.01344 -1.877875,0.0097 -1.921875,-0.0078 -0.044,-0.01749 -0.175359,-0.05228 -0.292968,-0.07813 -0.515382,-0.113217 -1.019938,-0.81842 -1.023438,-1.429688 -0.0024,-0.407833 0.252193,-0.884794 0.583985,-1.089843 0.385953,-0.238538 0.551637,-0.208548 0.193359,0.03516 -0.375476,0.255142 -0.552729,0.594598 -0.552735,1.058594 0,0.409883 0.160162,0.678508 0.572266,0.958984 0.256937,0.1749 0.321294,0.179687 2.273438,0.179687 1.789567,0 2.040808,-0.01653 2.289062,-0.146484 0.31472,-0.164748 0.638672,-0.712629 0.638672,-1.080078 0,-0.311717 -0.271767,-0.77355 -0.583984,-0.994141 -0.195507,-0.13813 -0.220115,-0.179687 -0.105469,-0.179687 z m 9.679683,0 c 0.24371,0 0.81816,0.637776 0.88086,0.978515 0.11045,0.6004 -0.26805,1.32241 -0.86328,1.644532 -0.20844,0.112804 -0.53669,0.13688 -2.04883,0.15039 -0.99,0.0089 -1.87098,-0.001 -1.95898,-0.02148 -0.088,-0.02066 -0.23838,-0.05395 -0.33398,-0.07422 -0.25955,-0.05504 -0.65318,-0.416919 -0.830082,-0.763672 -0.310615,-0.608852 -0.113693,-1.410077 0.429682,-1.746093 0.38596,-0.238538 0.55164,-0.208548 0.19336,0.03516 -0.37547,0.255142 -0.55273,0.594598 -0.55273,1.058594 0,0.409883 0.16017,0.678508 0.57227,0.958984 0.25694,0.1749 0.32129,0.179687 2.27343,0.179687 1.78957,0 2.04082,-0.01653 2.28907,-0.146484 0.31472,-0.164748 0.63867,-0.712629 0.63867,-1.080078 0,-0.311717 -0.27177,-0.77355 -0.58399,-0.994141 -0.19546,-0.13813 -0.22012,-0.179687 -0.10547,-0.179687 z M 25.331656,55.37154 c 0.05162,2.9e-4 -0.01006,0.07147 -0.138672,0.15625 -0.128613,0.08478 -0.272579,0.218898 -0.318359,0.298828 -0.04578,0.07993 -0.102835,0.30786 -0.126953,0.50586 -0.03222,0.264313 -0.0596,0.320018 -0.103516,0.210937 -0.142006,-0.352721 0.339427,-1.173875 0.6875,-1.171875 z m 4.013672,0 c 0.167068,0 0.588465,0.316118 0.640625,0.480469 0.07851,0.247381 0.0022,0.275593 -0.105469,0.03906 -0.05025,-0.110287 -0.209618,-0.271635 -0.353516,-0.359375 -0.143901,-0.08774 -0.22564,-0.160156 -0.18164,-0.160156 z m 5.742187,0 c 0.0543,2.9e-4 -0.0062,0.07147 -0.134765,0.15625 -0.128614,0.08478 -0.27258,0.218898 -0.31836,0.298828 -0.04578,0.07993 -0.102926,0.30786 -0.128906,0.50586 -0.02992,0.22802 -0.06272,0.300558 -0.08789,0.199218 -0.07221,-0.290688 0.07562,-0.714932 0.326172,-0.939453 0.13503,-0.121003 0.289502,-0.221023 0.343749,-0.220703 z m 4.017578,0 c 0.193873,0 0.587166,0.326535 0.666016,0.552735 0.11025,0.316268 0.05512,0.318593 -0.107422,0.0039 -0.06927,-0.133946 -0.239995,-0.314501 -0.380859,-0.400391 -0.140866,-0.08589 -0.221735,-0.15625 -0.177735,-0.15625 z m 5.748047,0 c 0.05162,2.9e-4 -0.01201,0.07147 -0.140625,0.15625 -0.128614,0.08478 -0.270626,0.218898 -0.316406,0.298828 -0.04578,0.07993 -0.104766,0.30786 -0.128906,0.50586 -0.03222,0.264313 -0.0596,0.320018 -0.103516,0.210937 -0.142005,-0.352721 0.34138,-1.173875 0.689453,-1.171875 z m 9.679684,0.002 c 0.0516,0.0012 -10e-4,0.05996 -0.11523,0.13086 -0.11421,0.0709 -0.25661,0.205898 -0.31641,0.298828 -0.0597,0.09293 -0.12774,0.331297 -0.15234,0.529297 -0.0329,0.264683 -0.0615,0.320168 -0.10547,0.210937 -0.14216,-0.353117 0.34416,-1.177722 0.68945,-1.169922 z m -5.65234,0.002 c 0.02732,-0.0068 0.138454,0.04112 0.314453,0.148438 0.137252,0.08369 0.288478,0.264243 0.335938,0.400391 0.106487,0.305464 0.06063,0.323824 -0.08008,0.03125 -0.0574,-0.119361 -0.227446,-0.299749 -0.376953,-0.400391 -0.1639,-0.110423 -0.22074,-0.172886 -0.193358,-0.179688 z m 9.67969,0 c 0.0273,-0.0068 0.1404,0.04112 0.3164,0.148438 0.13725,0.08369 0.28649,0.264243 0.33399,0.400391 0.10651,0.305464 0.0606,0.323824 -0.0801,0.03125 -0.0574,-0.119361 -0.22744,-0.299749 -0.37695,-0.400391 -0.1639,-0.110333 -0.22068,-0.172886 -0.19336,-0.179688 z m 5.80273,0.123047 c 0.27668,-0.02543 0.56525,0.06721 0.78516,0.28711 0.44578,0.445778 0.35899,1.176667 -0.17774,1.503906 -0.33392,0.203597 -0.67185,0.203405 -1,0.0059 -0.50184,-0.305989 -0.64147,-0.896749 -0.32226,-1.371093 0.17223,-0.255945 0.43817,-0.400353 0.71484,-0.425782 z m 2.57031,0.970703 c -0.004,0.02047 0.0108,0.04014 0.0156,0.06055 -0.002,2.67e-4 -0.005,0.01449 -0.006,0.02148 -0.003,0.0217 -0.01,0.04278 -0.008,0.06445 0.0142,0.09706 0.0363,0.192983 0.0566,0.289062 0.008,-0.01081 0.0181,-0.02072 0.0273,-0.03125 -0.0196,-0.09971 -0.0393,-0.199412 -0.0605,-0.298828 0.008,0.02148 0.009,0.04339 0.0156,0.06445 0.0103,0.03198 0.0512,0.122557 0.043,0.08984 -0.0222,-0.08868 -0.0625,-0.171417 -0.084,-0.259766 z m -42.847652,3.173829 c -0.01705,-0.01705 -0.08573,0.01016 -0.169922,0.05273 0.02906,0.03341 0.05884,0.0662 0.08789,0.09961 0.02597,-0.05151 0.09265,-0.141723 0.08203,-0.152343 z m 12.46875,0.464843 c -8.92e-4,5.4e-4 -0.0011,0.0033 -0.002,0.0039 0.0025,0.01447 0.02942,0.0949 0.0332,0.117187 0.0026,-4.1e-5 0.0052,4e-5 0.0078,0 -0.01821,-0.0593 -0.0192,-0.0747 -0.03125,-0.111328 -0.0013,-0.004 -0.0052,-0.007 -0.0078,-0.0098 z m 0.728516,0.0039 c -0.0104,0.0034 -0.02057,0.0418 -0.03125,0.05859 0.02809,-0.01164 0.05438,-0.02656 0.08398,-0.03516 -0.01721,-0.01025 -0.03272,-0.03001 -0.05273,-0.02344 z m 13.80664,2.064453 c -0.03007,0.0061 -0.04231,0.0086 -0.06836,0.01367 0.0043,0.006 0.0094,0.0096 0.01367,0.01563 0.02004,-0.0071 0.03611,-0.02009 0.05469,-0.0293 z m 0.480469,0.933593 c 0.01788,0.03413 0.03541,0.06985 0.05469,0.09766 0.0063,-0.0021 0.01316,-0.002 0.01953,-0.0039 -0.0249,-0.03229 -0.04906,-0.06018 -0.07422,-0.09375 z m 8.505857,0.5 c -0.0268,0.0088 -0.0536,0.01763 -0.0801,0.02734 0.006,-9.44e-4 0.0118,6.73e-4 0.0176,-0.002 0.0155,-0.003 0.0744,-0.02772 0.0625,-0.02539 z m 0.19727,0.01172 c -0.008,0.0021 -0.0155,0.0042 -0.0234,0.0059 -0.037,0.0077 -0.0756,0.01362 -0.11328,0.01758 -0.0702,0.0073 -0.14056,0.0123 -0.21094,0.01758 h -0.002 c -0.003,1.95e-4 -0.005,-1.98e-4 -0.008,0 -0.0289,0.01058 0.008,-0.007 -0.16211,0.05664 -0.004,8.71e-4 -0.008,0.0011 -0.0117,0.002 v 0.002 c -0.0176,0.01108 -0.0347,0.0229 -0.0527,0.0332 -0.0971,0.0554 -0.20809,0.08538 -0.3125,0.123047 -0.055,0.0201 -0.10903,0.04446 -0.16406,0.06445 -0.003,9.88e-4 -0.005,-0.003 -0.008,-0.002 -0.0176,0.0072 -0.0816,0.0458 -0.0918,0.04883 -0.12625,0.03737 -0.25344,0.06644 -0.38086,0.09961 -0.0636,-0.0012 -0.081,-0.0022 -0.1289,-0.0059 -0.036,0.0088 -0.07,0.02316 -0.10547,0.0332 -0.0108,0.0031 -0.022,8.51e-4 -0.0332,-0.002 -0.004,-3.86e-4 -0.0151,-0.0011 -0.0117,-0.002 0.015,-0.0042 0.0316,-0.0052 0.0469,-0.0078 0.0202,-0.0078 0.0404,-0.01565 0.0605,-0.02344 -0.0201,-0.0014 -0.0492,-0.003 -0.0371,-0.0039 0.0155,-0.0012 0.0301,-0.0035 0.0469,0 0.0405,-0.01557 0.0806,-0.03131 0.1211,-0.04687 0.0124,-0.0097 0.016,-0.01544 0.0371,-0.0293 0.0317,-0.02839 0.0531,-0.05082 0.082,-0.07812 -0.28497,0.06975 -0.78387,0.236053 -0.55469,0.220703 0.0136,-9.11e-4 -0.0255,-0.0025 -0.0391,-0.002 -0.12461,0.0037 -0.15618,0.0095 -0.28907,0.02148 -0.13948,0.01255 -0.25497,-0.002 -0.37109,-0.01563 -0.10901,0.03132 -0.1595,0.04661 -0.26172,0.07617 -0.01,0.366503 -0.33087,0.734944 -1.02929,0.767578 -0.0145,6.75e-4 -0.0304,0.0014 -0.0449,0.002 -0.12625,0.02186 -0.16329,0.02439 -0.28711,0.06445 -0.1454,0.04706 -0.28684,0.112736 -0.4375,0.142578 -0.004,0.0019 -0.0629,0.02959 -0.11523,0.05469 -0.0582,0.05682 -0.11633,0.114696 -0.17773,0.167969 -0.0219,0.01897 -0.0491,0.03053 -0.0742,0.04492 -0.0397,0.02274 -0.0783,0.04582 -0.11914,0.06641 -0.14642,0.07379 -0.30011,0.137395 -0.46094,0.171875 -10e-4,-9.9e-5 -0.002,-3.6e-5 -0.004,0 -0.67116,0.511132 -1.251351,1.058848 -1.816404,1.740234 -0.499329,0.602132 -0.636341,0.732506 -0.908203,0.820313 0.0034,0.01066 0.01278,0.01832 0.01563,0.0293 0.07569,0.293327 -0.312741,0.499819 -0.472656,0.673828 -0.0112,0.01218 -8.52e-4,0.03627 -0.01172,0.04883 -0.318118,0.370972 -0.194,0.162966 -0.279297,0.30664 v 0.002 l 0.002,0.002 c 0.01278,0.01054 0.01595,0.0153 0.03125,0.02734 l 0.201172,0.158203 -0.173828,0.455078 c -0.096,0.250862 -0.212579,0.469426 -0.259765,0.484376 -0.01192,0.0038 -0.09196,0.02593 -0.123047,0.03516 -0.01895,0.06548 -0.04894,0.12712 -0.07227,0.189453 0.04072,0.0042 0.148454,-0.0068 0.148437,0.0039 1e-6,0.03034 -0.104201,0.458382 -0.232421,0.951172 -0.06863,0.263753 -0.09939,0.414698 -0.152344,0.640625 0.0035,0.07743 0.0078,0.155031 0.0098,0.232422 0.01763,0.233759 -0.02711,0.461425 -0.08008,0.6875 0.02304,0.282065 0.01684,0.565058 0.01172,0.847656 0.01297,0.287396 -0.02031,0.445811 -0.07422,0.652344 0.0022,0.03403 0.0066,0.04779 0.0078,0.07227 0.003,0.06163 0.0036,0.123881 0.0059,0.185546 0.0029,0.131474 -0.0021,0.263033 -0.0039,0.394532 0.120195,1.319578 0.494251,2.57334 1.210938,3.984375 0.245827,0.484 0.476058,0.89159 0.511718,0.90625 0.0291,0.01197 0.04617,0.05401 0.05469,0.09375 0.381476,-0.01258 0.542103,0.0511 0.173828,0.25 0.03431,0.04269 0.03424,0.06416 0.07617,0.107421 0.19546,0.201664 0.28381,0.408398 0.28125,0.574219 0.02484,0.02844 0.05228,0.05474 0.07617,0.08398 0.02063,0.02526 0.02328,0.05126 0.03906,0.08984 0.01083,0.01268 0.05548,0.07408 0.09375,0.128907 0.156564,0.0728 0.363598,0.318076 0.511719,0.585937 0.01492,0.01826 0.02719,0.0267 0.04492,0.04883 0.02526,0.03154 0.0485,0.06498 0.07227,0.09766 -0.02627,-0.03061 -0.0494,-0.05817 -0.07813,-0.0918 0.0081,0.01602 0.02189,0.0289 0.0293,0.04492 0.01064,0.02303 0.02963,0.04341 0.04297,0.06641 0.02773,0.03747 0.05385,0.07605 0.08203,0.113281 0.02601,0.01797 0.01106,0.0072 0.04883,0.0332 0.01058,0.0073 -0.02173,-0.02532 -0.0332,-0.01953 -0.0104,0.0053 0.01572,0.015 0.02539,0.02148 0.04815,0.03227 0.09781,0.06423 0.146488,0.0957 0.0852,0.0534 0.17935,0.114934 0.23437,0.144532 0.0283,0.01522 0.0768,0.06413 0.1211,0.105468 0.0215,0.0055 0.0427,0.01146 0.0644,0.01758 0.0737,-0.118505 0.34286,-0.02391 0.86133,0.328124 0.76775,0.521328 1.41088,0.824142 2.45898,1.16211 1.12792,0.363704 1.45512,0.433706 2.55859,0.541016 0.72881,0.07088 0.81918,0.06888 1.73829,-0.03516 1.66558,-0.18852 2.92821,-0.56349 4.2207,-1.253906 0.352,-0.188024 0.68523,-0.325277 0.74023,-0.304687 0.055,0.0206 0.0996,-0.01493 0.0996,-0.07813 0,-0.06317 0.225,-0.286622 0.5,-0.498046 1.81299,-1.393832 3.06362,-3.245453 3.7793,-5.591797 0.18792,-0.616106 0.22426,-0.672977 0.44336,-0.716797 0.32161,-0.06431 0.33793,-0.350099 0.0195,-0.386719 -0.20622,-0.02386 -0.21776,-0.04581 -0.19336,-0.378906 0.0142,-0.194388 0.0537,-0.427921 0.0879,-0.519531 0.0766,-0.205374 -0.051,-1.966114 -0.19726,-2.726563 -0.0932,-0.483242 -0.10446,-0.572551 0.008,-0.650391 0.0992,-0.07713 0.0961,-0.09518 -0.0254,-0.126953 -0.0948,-0.02478 -0.2048,-0.233892 -0.33203,-0.628906 -0.86087,-2.672933 -2.83928,-4.940346 -5.44336,-6.242187 -1.38895,-0.694372 -2.68486,-0.995534 -4.59375,-1.064454 -0.22806,-0.0082 -0.41897,-0.0229 -0.60547,-0.03711 z m -31.240236,0.03125 c -0.180963,3.16e-4 -0.361928,4.5e-5 -0.542969,0.002 l -0.814453,0.132813 c -1.497292,0.245419 -2.573896,0.632595 -3.832031,1.373047 -0.904169,0.532131 -1.642941,1.13195 -2.3125,1.847656 -0.0013,0.0071 -0.0021,0.01442 -0.0039,0.02148 -0.03697,0.148459 -0.199982,0.302637 -0.376953,0.441406 -8.44e-4,0.0019 -0.0011,0.004 -0.002,0.0059 -0.0169,0.03695 -0.05617,0.07493 -0.08789,0.113281 -0.02796,0.0338 -0.0777,0.06303 -0.111329,0.0957 -0.131998,0.167198 -0.266432,0.324719 -0.394531,0.50586 -0.293591,0.41516 -0.427831,0.539062 -0.578125,0.539062 -0.105965,0 -0.175976,0.04322 -0.214844,0.09961 -0.0087,0.02099 -0.0081,0.0306 -0.02539,0.06641 -0.0082,0.06141 0.01231,0.128314 0.08789,0.183594 0.129038,0.09436 0.121998,0.138081 -0.121093,0.617187 -0.143654,0.283127 -0.355663,0.802297 -0.470704,1.154297 -0.114017,0.348916 -0.175192,0.499451 -0.242187,0.566406 -0.0056,0.02418 -0.01213,0.04812 -0.01758,0.07227 -10e-4,0.0045 -7.56e-4,0.0092 -0.002,0.01367 -0.005,0.0079 -0.0084,0.0099 -0.01563,0.02344 -0.0065,0.01368 -0.01238,0.02758 -0.01953,0.04102 0.0033,-0.04015 -2.85e-4,0.0037 0.002,-0.01563 5.02e-4,-0.0047 -4.25e-4,-2.83e-4 0,-0.0039 0.0061,-0.05283 0.0068,-0.07424 -0.0039,0.0078 v 0.002 c -0.0011,0.0082 -0.0027,0.01488 -0.0039,0.02344 -0.0098,0.06701 -0.01896,0.141162 -0.03906,0.18164 0.07,0.07961 0.05637,0.192636 -0.03711,0.648438 -0.174081,0.85006 -0.172209,2.795032 0.0039,3.708984 0.519054,2.687633 1.797573,4.78645 3.96875,6.521485 0.83836,0.669936 2.173047,1.381738 3.238282,1.726562 0.647583,0.209632 1.871222,0.440606 2.33789,0.441406 0.152146,1.92e-4 0.285195,0.05219 0.328125,0.128906 0.0546,0.09755 0.109945,0.110656 0.22461,0.05078 0.208017,-0.108394 1.033434,-0.201202 1.230469,-0.138672 0.07263,0.02306 0.124245,0.08463 0.144531,0.146484 0.128242,-0.06279 0.20434,-0.09634 0.283203,-0.111328 0.05529,-0.102907 0.230517,-0.147493 0.65625,-0.216797 0.309615,-0.05041 0.831771,-0.183474 1.160156,-0.294922 0.328387,-0.111442 0.650797,-0.203125 0.716797,-0.203125 0.031,-9.4e-5 0.08468,0.05905 0.146484,0.140625 0.08085,-0.02604 0.153785,-0.06263 0.226563,-0.111328 -0.02138,-0.03044 -0.05273,-0.06709 -0.05273,-0.08398 0,-0.0549 0.255528,-0.227766 0.568359,-0.384766 0.31283,-0.157 0.723965,-0.392645 0.914062,-0.523437 0.117537,-0.08087 0.172184,-0.09881 0.246094,-0.136719 0.01181,-0.009 0.0099,-0.0097 0.02539,-0.02148 0.109636,-0.083 0.220001,-0.165632 0.330078,-0.248047 0.132526,-0.06673 0.262707,-0.137282 0.396484,-0.201172 0.05089,-0.10424 0.13731,-0.212098 0.310547,-0.375 1.23391,-1.160305 2.065897,-2.308611 2.644531,-3.623047 0.02627,-0.30096 0.103249,-0.631611 0.246094,-0.990234 0.03842,-0.09644 0.08112,-0.191018 0.115234,-0.289063 0.05047,-0.145035 0.01669,-0.141606 0.07422,-0.289062 0.02667,-0.06836 0.05762,-0.1343 0.08789,-0.201172 -0.0034,0.0021 -0.0043,-0.0011 -0.0059,-0.002 -0.01429,-0.0079 0.03139,-0.113268 0.07617,-0.214844 0.01621,-0.0746 0.02937,-0.149292 0.03906,-0.224609 -0.0027,0.0028 -0.0041,0.0105 -0.0078,0.0098 -0.0043,-0.0013 -0.0045,-0.0092 -0.0039,-0.01367 0.02245,-0.168963 0.03532,-0.339465 0.07227,-0.505859 0.01327,-0.05977 0.03922,-0.115005 0.0625,-0.171875 l -0.0039,0.0039 c -0.02706,0.02778 0.05353,-0.144122 0.04102,-0.107422 -0.0119,0.03484 -0.02311,0.06932 -0.03711,0.103516 0.0344,-0.03536 0.06584,-0.07344 0.09961,-0.109375 0.02616,-0.232961 0.05761,-0.576064 0.08008,-1.070313 0.03055,-0.672111 0.08779,-1.143624 0.140625,-1.177734 0.05999,-0.03873 0.04618,-0.08791 -0.04102,-0.158203 -0.160192,-0.129156 -0.363371,-1.242098 -0.248047,-1.357422 0.02175,-0.02175 0.04927,-0.02532 0.07422,-0.03711 -0.02314,-0.03485 -0.04454,-0.0711 -0.06836,-0.105469 -0.123381,-0.536714 -0.153981,-0.529941 -0.107422,-0.558594 -0.02324,-0.0279 -0.02939,-0.08649 -0.04687,-0.125 -0.01174,-0.02514 -0.02847,-0.04925 -0.03516,-0.07617 -0.03015,-0.121359 -0.03014,-0.244515 -0.02734,-0.367187 -0.008,0.0069 -0.01769,0.0079 -0.02539,0.01563 l -0.162068,0.161898 -0.257812,-0.595703 c -0.142473,-0.327739 -0.394549,-0.835566 -0.558594,-1.128906 -0.18793,-0.336047 -0.28033,-0.589977 -0.25,-0.685547 0.03718,-0.117182 0.01495,-0.143642 -0.0957,-0.115235 -0.227588,0.05846 -0.362595,-0.235828 -0.271485,-0.591796 0.0061,-0.02388 0.02375,-0.173005 0.03125,-0.210938 -0.08392,0.01712 -0.165571,0.01307 -0.248046,-0.01367 -0.0046,0.0091 -0.01703,0.08826 -0.02148,0.09375 -0.04657,0.05732 -0.362122,-0.202591 -0.93164,-0.765625 -1.346419,-1.331092 -2.760652,-2.165258 -4.541016,-2.679687 -0.910329,-0.263039 -1.567721,-0.357375 -2.490234,-0.359375 -0.3066,-6.39e-4 -0.491208,-0.01567 -0.623047,-0.04102 z m 10.386718,13.179688 c 0.01501,-0.02826 0.02859,-0.05737 0.04297,-0.08594 0.0064,-0.01441 0.01325,-0.0285 0.01953,-0.04297 1.52e-4,-0.0019 -1.68e-4,-0.004 0,-0.0059 -0.03664,0.07691 -0.08385,0.174505 -0.0625,0.134766 z M 58.661734,64.066857 c -0.0127,0.0031 -0.0244,0.0086 -0.0371,0.01172 0.008,-0.0015 0.019,0.0054 0.0254,0 0.005,-0.0043 0.007,-0.0075 0.0117,-0.01172 z M 29.32189,64.699669 c 0.650989,0.0018 1.296366,0.05094 1.744141,0.146484 3.683748,0.786038 6.477949,3.501801 7.289062,7.085938 0.690769,3.052359 -0.288713,6.384026 -2.529297,8.605469 -1.356143,1.34456 -3.266127,2.316841 -5.080078,2.585937 -1.959781,0.290736 -3.672735,0.07668 -5.376953,-0.671875 -2.920274,-1.282696 -4.960731,-3.973809 -5.425781,-7.154297 -0.14673,-1.003496 -0.06003,-2.587442 0.195312,-3.566406 0.249972,-0.958361 0.987067,-2.491874 1.560547,-3.246094 1.487178,-1.955882 3.438196,-3.173783 5.84375,-3.648437 0.471719,-0.09306 1.128308,-0.138472 1.779297,-0.136719 z m 31.583984,0.164063 c 1.77921,-0.0019 2.96037,0.27509 4.37891,1.027343 3.07348,1.629867 4.98047,4.770581 4.98047,8.199219 0,2.588662 -0.88344,4.730274 -2.7129,6.570313 -1.10782,1.114312 -2.48652,1.909884 -4.08984,2.357422 -0.65439,0.182653 -0.94439,0.214844 -2.15625,0.240234 -1.58335,0.03317 -2.17941,-0.04925 -3.32422,-0.453125 -3.37843,-1.19188 -5.648737,-3.980529 -6.167966,-7.576172 -0.11642,-0.806191 -0.123197,-1.077704 -0.04297,-1.9375 0.110306,-1.181187 0.310651,-1.99624 0.726563,-2.960937 0.84796,-1.966865 2.558682,-3.724604 4.517582,-4.642579 0.36661,-0.171797 1.09574,-0.428238 1.61914,-0.568359 0.88578,-0.237133 1.04283,-0.254559 2.271481,-0.255859 z m 0.48633,0.439453 c -0.24583,-0.0098 -0.49173,-0.0094 -0.73828,0.002 -1.18344,0.05468 -2.36864,0.354706 -3.48438,0.90625 -2.27786,1.126015 -3.906706,3.107406 -4.564451,5.550781 -0.185658,0.68968 -0.207031,0.91516 -0.207031,2.169922 0,1.253968 0.02061,1.47943 0.205078,2.160156 0.963962,3.557264 3.926104,6.088565 7.582034,6.480469 0.73815,0.07912 1.85603,0.02447 2.60156,-0.128906 3.24482,-0.667536 5.76697,-3.034647 6.65234,-6.242188 0.1978,-0.716674 0.21966,-0.918221 0.22266,-2.189453 0.003,-1.298656 -0.0135,-1.459083 -0.22266,-2.201172 -0.55856,-1.98206 -1.6403,-3.593892 -3.19531,-4.765625 -1.44212,-1.086675 -3.13074,-1.673435 -4.85156,-1.742187 z m -32.287111,0.03516 c -1.212133,0.0022 -1.442722,0.0259 -2.134765,0.212891 -2.946117,0.796049 -5.27911,3.012155 -6.169922,5.863281 -0.29643,0.94875 -0.385713,1.550736 -0.382813,2.58789 0.007,2.458005 0.907387,4.540016 2.703125,6.253907 1.293161,1.234224 2.777401,1.974942 4.564454,2.27539 2.745497,0.461584 5.757853,-0.534427 7.666015,-2.533203 1.302486,-1.364335 2.064924,-2.879216 2.388672,-4.746094 0.655426,-3.779482 -1.568196,-7.749883 -5.195313,-9.271484 -1.260005,-0.528643 -1.888567,-0.645478 -3.439453,-0.642578 z m 31.894531,0.365234 c 1.02368,-0.01352 1.75058,0.100175 2.74609,0.427735 0.59908,0.197117 1.39387,0.591845 1.75977,0.873047 0.237,0.182134 0.12732,0.148527 -0.2793,-0.08594 -1.2183,-0.702133 -2.4847,-1.060408 -4.04101,-1.142578 l -1.11914,-0.05859 z m -1.35351,0.09375 c 0.077,-0.02012 0.20229,-0.02012 0.27929,0 0.077,0.02013 0.0153,0.03516 -0.13867,0.03516 -0.154,0 -0.21765,-0.01504 -0.14062,-0.03516 z m -0.43946,0.08203 c 0.055,-0.02219 0.14422,-0.02219 0.19922,0 0.055,0.02219 0.0104,0.03906 -0.0996,0.03906 -0.11,0 -0.15523,-0.01687 -0.0996,-0.03906 z m -16.103514,0.05078 c 9.34e-4,0.0075 0.0062,0.01409 0.0078,0.02148 0.0012,-0.0074 0.0048,-0.0141 0.0059,-0.02148 -0.0046,-7.9e-5 -0.0091,7.9e-5 -0.01367,0 z m 15.843754,0.0078 0.1582,0.0059 -0.1582,0.06836 c -0.088,0.03781 -0.21525,0.06987 -0.28125,0.07227 -0.10666,0.0039 -0.10666,-0.0033 0,-0.07227 0.066,-0.04265 0.19325,-0.07662 0.28125,-0.07422 z m -1.35547,0.492188 c 0.0168,0.01677 -0.12914,0.109348 -0.32617,0.205078 -0.19704,0.09572 -0.35938,0.157249 -0.35938,0.136719 0,-0.05419 0.64935,-0.377987 0.68555,-0.341797 z m -30.201174,0.04883 c 0.06273,-0.01394 0.04616,0.203464 -0.05664,0.544922 -0.09689,0.321827 -0.135553,0.698811 -0.126953,1.207031 0.0069,0.407 -0.0031,0.740234 -0.02148,0.740234 -0.01839,0 -0.07438,-0.0773 -0.125,-0.171874 -0.171797,-0.321006 -0.0069,-1.835627 0.242187,-2.22461 0.03818,-0.05962 0.06698,-0.09106 0.08789,-0.0957 z m 29.435544,0.367187 c 0,0.022 -0.0722,0.0779 -0.16015,0.125 -0.088,0.04713 -0.16016,0.06884 -0.16016,0.04688 0,-0.022 0.0722,-0.07985 0.16016,-0.126954 0.088,-0.04713 0.16015,-0.06692 0.16015,-0.04492 z m -0.40039,0.234376 c 0,0.022 -0.10823,0.116947 -0.24023,0.210937 -0.132,0.09399 -0.23828,0.152859 -0.23828,0.130859 0,-0.022 0.10628,-0.116947 0.23828,-0.210937 0.132,-0.094 0.24023,-0.15286 0.24023,-0.130859 z m -11.248045,0.101562 -0.002,0.002 c 0.0023,0.0084 0.0056,0.01693 0.0078,0.02539 2.31e-4,-0.0085 -8.5e-5,-0.01693 0,-0.02539 -0.0019,-4.26e-4 -0.0039,-0.0015 -0.0059,-0.002 z m -14.082031,1.0625 c 0.0072,-0.01785 0.01525,-0.0096 0.02539,0.0293 0.02025,0.07784 0.02306,0.186074 -0.002,0.240234 -0.02191,0.05416 -0.03871,-0.01058 -0.03711,-0.142578 8.15e-4,-0.066 0.0065,-0.109103 0.01367,-0.126953 z m 20.34375,0.507812 c -0.02242,0.01647 -0.03895,0.0408 -0.06055,0.05859 0.005,-0.0018 0.01063,-0.0019 0.01563,-0.0039 0.02174,-0.0089 0.06385,-0.0686 0.04492,-0.05469 z m -29.814453,1.539063 c 0.04535,-0.02802 0.05857,0.005 0.03125,0.07617 -0.05318,0.1386 -0.109375,0.163779 -0.109375,0.04883 0,-0.0414 0.03463,-0.09812 0.07813,-0.125 z m 18.216797,0.425781 c 0.03634,-0.09355 -0.129722,0.153258 -0.191407,0.232422 -0.02979,0.03822 -0.01886,0.104085 -0.02148,0.154297 0.04652,-0.04131 0.110401,-0.122923 0.212891,-0.386719 z m -18.390626,0.05273 c 0.02463,0.02463 1.69e-4,0.08831 -0.05469,0.142578 -0.07901,0.07842 -0.08833,0.06909 -0.04492,-0.04492 0.03005,-0.0789 0.07498,-0.122038 0.09961,-0.09766 z m 28.898438,2.52539 c -0.0091,0.03692 -0.01625,0.07456 -0.02539,0.111328 -0.0055,0.02209 0.01763,-0.04397 0.02148,-0.06641 0.0037,-0.02173 0.0019,-0.02654 0.0039,-0.04492 z m -22.935547,4.476563 c 0.08009,0 0.0436,0.286746 -0.136719,1.080078 -0.08675,0.381796 -0.111515,0.731449 -0.07813,1.099609 0.02722,0.297 0.02488,0.541016 -0.0039,0.541016 -0.113148,0 -0.208984,-0.433469 -0.208984,-0.941406 0,-0.541734 0.297551,-1.779297 0.427733,-1.779297 z m 47.117187,0.607422 c 0.007,-0.01812 0.0162,-0.01578 0.0273,0.01172 0.0222,0.055 0.0222,0.146172 0,0.201172 -0.0222,0.055 -0.0391,0.01039 -0.0391,-0.09961 0,-0.055 0.004,-0.09516 0.0117,-0.113281 z m -43.435546,1.236328 c 0.0066,-0.02537 0.01533,-0.02287 0.02539,0.01563 0.02012,0.077 0.02012,0.20425 0,0.28125 -0.02013,0.077 -0.03516,0.01337 -0.03516,-0.140625 0,-0.077 0.0031,-0.130875 0.0098,-0.15625 z m 21.53125,1.652344 c -8.5e-5,0.0033 1.68e-4,0.0065 0,0.0098 0.009,0.014 0.03014,0.04477 0.04492,0.0625 -0.01339,-0.02519 -0.02934,-0.0486 -0.04492,-0.07227 z m 1.140626,1.017578 c 0.0222,0.0052 0.0418,0.01822 0.0547,0.03906 0.0258,0.04168 0.0124,0.09729 -0.0293,0.123047 -0.0417,0.02576 -0.0973,0.01238 -0.12305,-0.0293 -0.0258,-0.04168 -0.01238,-0.09729 0.0293,-0.123047 0.0208,-0.01288 0.0461,-0.01278 0.0684,-0.0098 z m 0.10156,0.449218 c 0.004,0.0056 0.004,0.01189 0.008,0.01758 0.005,0.0031 0.0103,0.0067 0.0156,0.0098 9.8e-4,5.72e-4 0.003,-5.71e-4 0.004,0 0.0252,0.0046 0.0525,0.01602 0.0781,0.02148 -0.0133,-0.0086 -0.0252,-0.01961 -0.0391,-0.02734 -0.0202,-0.01127 -0.0351,-0.01122 -0.0664,-0.02148 z m 5.89649,3.22461 c -0.055,0.02219 -0.008,0.03906 0.10156,0.03906 0.11,0 0.15523,-0.01687 0.0996,-0.03906 -0.055,-0.02219 -0.14617,-0.02219 -0.20117,0 z"
     inkscape:connector-curvature="0" />
  <path
     id="path144"
     style="fill:#ff0000;fill-opacity:1;fill-rule:nonzero;stroke:none"
     d="m 85.183594,49.353516 c -0.01524,-0.0019 -0.01907,0.0075 -0.02539,0.01367 0.0067,-4.77e-4 0.01325,-0.0027 0.01953,-0.002 0.0059,10e-4 0.01164,0.0032 0.01758,0.0039 0.0042,5.25e-4 0.0075,-6.39e-4 0.01172,0 0.01702,0.0025 0.007,0.0027 0.02148,0.0059 0.0043,9.37e-4 0.0094,0.0013 0.01367,0.002 0.0092,0.003 4.32e-4,2.97e-4 0.01562,0.002 0.02563,0.0027 -0.0035,0.0011 0.01953,0.0039 0.02405,0.003 0.0079,-0.0013 0.02734,0.0039 0.01,0.004 0.0027,0.0012 0.01562,0.0039 0.0016,3.44e-4 0.0023,0.0019 0.0039,0.002 0.0041,2.12e-4 0.0095,-1.83e-4 0.01367,0 0.01206,5.34e-4 0.01263,7.12e-4 0.02344,0.0039 0.0094,0.0045 -0.0012,-4.85e-4 0.01563,0.0039 v 0.002 c 0.0069,0.0012 0.01347,0.0023 0.01953,0.0059 0.005,7.31e-4 0.0086,0 0.01367,0 h 0.0293 c 0.01728,0 0.03349,-2e-6 0.05078,0 h 0.04883 c 0.01149,6e-6 0.02367,9e-5 0.03516,0 0.01476,-5.4e-5 0.02821,-1.27e-4 0.04297,0 0.0227,-10e-4 0.04597,-0.0033 0.06836,0.002 0.0019,5.15e-4 0.0039,0.0019 0.0059,0.002 0.0066,3.86e-4 0.01291,-0.0017 0.01953,0 0.0074,6.06e-4 0.01221,0.0026 0.01953,0.0039 0.0044,7.85e-4 0.0093,0.0013 0.01367,0.002 0.01394,0.0023 0.01634,0.01054 0.02148,0.01758 h 0.06641 0.03711 c 0.01091,-0.01407 0.0095,-0.032 -0.02148,-0.0332 -0.0087,-3.75e-4 -0.02048,-4.38e-4 -0.0293,0.002 -0.0091,-9e-4 -0.02145,-0.0048 -0.03125,-0.0059 -0.004,-4.28e-4 -0.0097,-7.4e-5 -0.01367,0 -0.0039,7e-5 -0.0078,-1.22e-4 -0.01172,0 -0.0086,5.42e-4 -0.01679,0.0025 -0.02539,0.002 -0.01294,-7e-4 -0.0083,-0.0019 -0.02148,-0.0039 -0.0054,-8e-4 -0.01023,-0.0013 -0.01563,-0.002 -0.0041,5.58e-4 -0.0094,0.0026 -0.01367,0.002 -0.0115,-0.0016 -0.0215,-0.0089 -0.0332,-0.0098 -0.0053,-10e-4 -0.01218,-0.0014 -0.01758,-0.002 -0.0041,-4.12e-4 -0.0076,2e-6 -0.01172,0 -0.01172,-8e-6 -0.02344,-5.9e-5 -0.03516,0 -0.01712,1.09e-4 -0.03366,5.5e-5 -0.05078,0 -0.01005,1.27e-4 -0.01926,-4.16e-4 -0.0293,0 -0.0032,1.33e-4 -0.0066,-1.5e-4 -0.0098,0 -0.0014,6.4e-5 -0.0025,0.0021 -0.0039,0.002 -0.0015,-2e-4 -0.0045,-0.0015 -0.0059,-0.002 -0.0041,-0.0012 -0.0075,-0.0031 -0.01172,-0.0039 -0.0027,-5.45e-4 -0.0051,3.03e-4 -0.0078,0 -0.01236,-0.0013 -0.02464,-0.0056 -0.03711,-0.0059 -0.0045,-0.0013 -0.0091,-0.003 -0.01367,-0.0039 -0.0011,-2.35e-4 -0.0027,6.1e-5 -0.0039,0 -0.0025,-1.31e-4 -0.0053,4.24e-4 -0.0078,0 -0.01313,-0.0023 -0.02552,-0.0072 -0.03906,-0.0059 -0.02066,-3e-4 -0.03989,0.0033 -0.06055,0.002 -0.0778,-0.0075 0.0426,0.0036 -0.04492,-0.0059 -0.02001,-0.0022 -0.04052,-0.004 -0.06055,-0.0059 -0.006,-5e-4 -0.01158,-0.0012 -0.01758,-0.002 z" />
  <path
     id="path155"
     style="fill:#ff0000;fill-opacity:1;fill-rule:nonzero;stroke:none"
     d="m 85.177734,49.365234 c -0.01128,-0.0013 -0.0241,-7.92e-4 -0.03516,0.002 -0.03893,0.0096 0.02027,0.02847 0.01172,0.03906 0.0039,0.0015 0.0075,0.0036 0.01172,0.0039 0.0012,9.5e-5 0.0027,1.22e-4 0.0039,0 0.0034,-3.52e-4 0.0063,-0.0017 0.0098,-0.002 0.0034,-2.06e-4 0.02542,-2e-4 0.0293,0 0.01487,10e-4 0.03446,0.0048 0.04883,0.0098 0.0013,3.17e-4 0.0026,-1.2e-4 0.0039,0 0.0043,4.05e-4 0.0095,3e-4 0.01367,0 0.0097,-6.08e-4 0.01145,-0.0018 0.02148,-0.002 0.02069,3.47e-4 0.0418,0.002 0.0625,0.002 0.01097,9.59e-4 0.02242,-0.0015 0.0332,0 0.0083,0.0011 0.01721,0.0022 0.02539,0.0039 0.01055,9.84e-4 0.0212,0.0018 0.03125,0.0059 0.0045,0.0018 0.0074,0.0037 0.01172,0.0059 0,0 0.002,0 0.002,0 0,0 0,-0.002 0,-0.002 0.01076,-0.0017 0.0209,0.0013 0.03125,0.0039 0.0021,3.16e-4 0.0038,0.0018 0.0059,0.002 0.0045,3.98e-4 0.01135,-0.0017 0.01563,-0.002 0.0094,-5.09e-4 0.01194,4.4e-5 0.02148,0 0.01084,3.84e-4 0.01723,5.6e-5 0.02734,0 0.01154,-5.6e-5 0.02165,-2e-6 0.0332,0 0.01482,-6e-6 0.0301,-2e-6 0.04492,0 h 0.0332 0.0293 0.06055 c -0.0055,-0.0067 -0.0075,-0.01533 -0.02148,-0.01758 -0.0043,-7e-4 -0.0093,-0.0012 -0.01367,-0.002 -0.0073,-0.0013 -0.01213,-0.0033 -0.01953,-0.0039 -0.0066,-0.0017 -0.01293,3.86e-4 -0.01953,0 -0.002,-1e-4 -0.004,-0.0014 -0.0059,-0.002 -0.02239,-0.0053 -0.04566,-0.003 -0.06836,-0.002 -0.01476,-1.27e-4 -0.02821,-5.4e-5 -0.04297,0 -0.01149,9e-5 -0.02367,6e-6 -0.03516,0 h -0.04883 c -0.01729,-2e-6 -0.0335,0 -0.05078,0 h -0.0293 c -0.0051,0 -0.0087,7.31e-4 -0.01367,0 -0.0061,-0.0036 -0.01266,-0.0047 -0.01953,-0.0059 v -0.002 c -0.01678,-0.0044 -0.0062,5.86e-4 -0.01563,-0.0039 -0.01081,-0.0032 -0.01138,-0.0034 -0.02344,-0.0039 -0.0041,-1.83e-4 -0.0096,2.12e-4 -0.01367,0 -0.0016,-1e-4 -0.0023,-0.0016 -0.0039,-0.002 -0.01292,-0.0027 -0.0056,8.8e-5 -0.01562,-0.0039 -0.0194,-0.0052 -0.0033,-9.12e-4 -0.02734,-0.0039 -0.02308,-0.0028 0.0061,-0.0012 -0.01953,-0.0039 -0.0152,-0.0016 -0.0064,0.001 -0.01562,-0.002 -0.0043,-7e-4 -0.0094,-9.53e-4 -0.01367,-0.002 -0.01452,-0.0032 -0.0045,-0.0034 -0.02148,-0.0059 -0.0042,-6.39e-4 -0.0075,5.25e-4 -0.01172,0 -0.0059,-7e-4 -0.01168,-0.0029 -0.01758,-0.0039 z" />
  <path
     id="path171"
     style="fill:#ff0000;fill-opacity:1;fill-rule:nonzero;stroke:none"
     d="m 85.105469,49.396484 c -0.04456,-0.01331 -0.05051,0.0337 -0.0059,0.04687 0.0123,0.0036 0.02468,0.0048 0.03711,0.0078 0.0072,0.0017 0.01223,0.005 0.01953,0.0059 0.01111,0.0014 0.0163,-0.0012 0.02734,-0.002 0.0028,-2e-4 0.02374,-2.7e-4 0.02734,0 0.0062,4e-4 0.01148,0.0027 0.01758,0.0039 0.01182,0.0023 0.0088,-0.0021 0.01172,0.002 0.01836,0.0066 0.03763,0.0041 0.05664,0.0039 0.02053,3.71e-4 0.04197,6.7e-5 0.0625,0 0.0109,9.55e-4 0.02249,-0.0015 0.0332,0 0,0 0.002,0 0.002,0 0.0041,0.0012 0.0095,0.003 0.01367,0.0039 0.04368,0.0059 -0.02264,-0.0021 0.02148,0.002 0.0023,9.36e-4 0.0055,0.0011 0.0078,0.002 0,0 0,0.002 0,0.002 0.002,0.0012 0.0038,9.66e-4 0.0059,0.002 0.0091,0.004 0.01794,0.0034 0.02734,0.002 0.0011,-1.69e-4 0.0032,-9.05e-4 0.0039,0 0.0029,7.43e-4 0.0049,0.0032 0.0078,0.0039 0.01805,0.004 0.0364,4.2e-5 0.05469,0 0.009,3.36e-4 0.01834,5e-5 0.02734,0 0.01146,-5.5e-5 0.02174,-2e-6 0.0332,0 0.01482,-6e-6 0.0301,-2e-6 0.04492,0 h 0.0332 0.0293 0.06055 0.06641 0.05859 0.03516 c 0.04655,0 0.04655,-0.04687 0,-0.04687 h -0.03516 -0.05859 -0.06641 -0.06055 -0.0293 -0.0332 c -0.01482,-2e-6 -0.0301,-6e-6 -0.04492,0 -0.01155,-2e-6 -0.02166,-5.6e-5 -0.0332,0 -0.01011,5.6e-5 -0.0165,3.84e-4 -0.02734,0 -0.0095,4.4e-5 -0.01208,-5.09e-4 -0.02148,0 -0.0043,3e-4 -0.01113,0.0024 -0.01563,0.002 -0.0021,-1.86e-4 -0.0038,-0.0016 -0.0059,-0.002 -0.01035,-0.0026 -0.02049,-0.0056 -0.03125,-0.0039 -1.8e-4,2.7e-5 2.06e-4,0.002 0,0.002 -6.03e-4,-2.78e-4 -0.0014,2.9e-4 -0.002,0 -0.0044,-0.0021 -0.0072,-0.0041 -0.01172,-0.0059 -0.01005,-0.0041 -0.0207,-0.0049 -0.03125,-0.0059 -0.0082,-0.0017 -0.01709,-0.0028 -0.02539,-0.0039 -0.01078,-0.0015 -0.02223,9.59e-4 -0.0332,0 -0.0207,6.8e-5 -0.04181,-0.0016 -0.0625,-0.002 -0.01003,1.5e-4 -0.01178,0.0013 -0.02148,0.002 -0.0042,3e-4 -0.0094,4.05e-4 -0.01367,0 -0.0013,-1.2e-4 -0.0026,3.17e-4 -0.0039,0 -0.01437,-0.005 -0.03396,-0.0088 -0.04883,-0.0098 -0.0039,-2e-4 -0.0259,-2.06e-4 -0.0293,0 -0.0034,2.73e-4 -0.0064,0.0016 -0.0098,0.002 -0.0012,1.22e-4 -0.0027,9.5e-5 -0.0039,0 -0.0069,-5e-4 -0.01283,-0.0043 -0.01953,-0.0059 -0.01327,-0.0032 -0.0279,-0.0039 -0.04102,-0.0078 z" />
  <path
     id="path265"
     style="fill:#ff0000;fill-opacity:1;fill-rule:nonzero;stroke:none"
     d="m 87.318359,47.609375 c -0.02726,0.01369 -0.05457,0.02775 -0.08203,0.04102 -1e-4,4e-5 -0.01878,0.0071 -0.01758,0.0098 0.0064,0.01412 0.01798,0.02473 0.02734,0.03711 3.25e-4,4.3e-4 -3.19e-4,0.0015 0,0.002 0.0201,-0.0068 0.04133,-0.01117 0.0625,-0.0098 0.002,1.24e-4 0.0074,0.0033 0.0059,0.002 -0.005,-0.0044 -0.01198,-0.0082 -0.01758,-0.01172 -0.03942,-0.02479 0.07932,0.003 0.04102,-0.02344 -7.66e-4,-5.35e-4 -0.0012,-0.0014 -0.002,-0.002 0.0032,-0.0016 -4.64e-4,2.32e-4 0.0039,-0.002 0.04163,-0.02082 0.02012,-0.06386 -0.02148,-0.04297 z" />
</svg>
