<?xml version="1.0" encoding="UTF-8" standalone="no"?>
<!-- Created with Inkscape (http://www.inkscape.org/) -->

<svg
   xmlns:dc="http://purl.org/dc/elements/1.1/"
   xmlns:cc="http://creativecommons.org/ns#"
   xmlns:rdf="http://www.w3.org/1999/02/22-rdf-syntax-ns#"
   xmlns:svg="http://www.w3.org/2000/svg"
   xmlns="http://www.w3.org/2000/svg"
   xmlns:sodipodi="http://sodipodi.sourceforge.net/DTD/sodipodi-0.dtd"
   xmlns:inkscape="http://www.inkscape.org/namespaces/inkscape"
   version="1.1"
   id="svg2"
   width="1841"
   height="794"
   viewBox="0 0 1841 794"
   sodipodi:docname="system.svg"
   inkscape:version="0.92.4 (5da689c313, 2019-01-14)">
  <metadata
     id="metadata8">
    <rdf:RDF>
      <cc:Work
         rdf:about="">
        <dc:format>image/svg+xml</dc:format>
        <dc:type
           rdf:resource="http://purl.org/dc/dcmitype/StillImage" />
        <dc:title></dc:title>
      </cc:Work>
    </rdf:RDF>
  </metadata>
  <defs
     id="defs6" />
  <sodipodi:namedview
     pagecolor="#ffffff"
     bordercolor="#666666"
     borderopacity="1"
     objecttolerance="10"
     gridtolerance="10"
     guidetolerance="10"
     inkscape:pageopacity="0"
     inkscape:pageshadow="2"
     inkscape:window-width="1600"
     inkscape:window-height="836"
     id="namedview4"
     showgrid="false"
     inkscape:zoom="0.35958718"
     inkscape:cx="1875.892"
     inkscape:cy="3.3842722"
     inkscape:window-x="0"
     inkscape:window-y="36"
     inkscape:window-maximized="1"
     inkscape:current-layer="svg2" />
  <path
     style="fill:#808080"
     d="m 386,773.98114 c -30.98237,-2.09602 -56.31357,-13.60342 -70.14951,-31.86738 -11.64455,-15.37124 -16.82718,-31.60501 -16.84294,-52.75781 -0.0254,-34.07803 8.87684,-64.41302 33.55629,-114.34565 12.31687,-24.92008 18.99229,-34.61042 34.90108,-50.66402 19.3563,-19.53248 35.56717,-29.0899 62.44612,-36.81628 20.39094,-5.86139 28.99842,-6.82526 55.86276,-6.25555 20.7469,0.43997 25.04469,0.81737 34.2262,3.0055 22.04498,5.25372 32.86571,11.00497 46.7922,24.87021 7.1383,7.10689 9.10411,9.83843 13.2059,18.34984 6.75257,14.01194 7.42072,17.68464 7.36782,40.5 -0.0503,21.68056 -0.61282,25.44594 -6.5737,44 -12.08988,37.63146 -30.78091,80.38177 -43.94,100.5 -6.60852,10.10341 -26.86268,30.55907 -36.86016,37.22687 -17.90732,11.94324 -39.91094,20.15493 -61.99206,23.13526 -10.6471,1.43706 -38.45372,2.03544 -52,1.11901 z m 42.64714,-54.91422 c 17.11593,-3.24597 30.44564,-12.93562 41.83786,-30.41284 8.72757,-13.38926 17.10877,-33.17918 28.01684,-66.15408 10.35938,-31.31621 15.24261,-52.05 14.08185,-59.79045 -1.61867,-10.7941 -9.4964,-20.78063 -20.52344,-26.0174 -5.61221,-2.66525 -7.80559,-3.11453 -17.06846,-3.49617 -21.93802,-0.90389 -33.97362,3.50582 -48.0457,17.60339 -8.41262,8.42786 -8.96798,9.28061 -17.71445,27.20063 -10.26889,21.03918 -17.97453,40.06882 -24.61651,60.79218 -7.53913,23.52259 -8.99486,30.38592 -9.0584,42.70782 -0.0501,9.71839 0.22903,11.58255 2.39591,16 7.91729,16.14034 29.92941,25.50494 50.6945,21.56692 z M 1051,768.0774 l -6.5,-0.5774 0.3747,-27.08877 0.3748,-27.08878 -14.3748,-0.65757 c -7.9061,-0.36166 -29.2247,-0.6583 -47.3747,-0.65919 l -33,-0.002 -19.06676,27.74797 -19.06677,27.74797 -29.50896,0.26461 c -16.22992,0.14554 -32.51618,-0.0795 -36.19168,-0.5 L 839.9831,766.5 863.83539,730 c 13.11876,-20.075 50.29802,-76.775 82.62058,-126 32.32256,-49.225 62.65533,-95.45969 67.40613,-102.74376 l 8.6379,-13.24376 48.4107,-0.006 48.4106,-0.006 -0.6878,59.75 c -0.6493,56.41074 -1.7045,118.31054 -3.2193,188.85927 l -0.668,31.10926 -9.0267,0.64074 c -10.4606,0.74251 -45.2024,0.56355 -54.7195,-0.28187 z m -1.6893,-122.381 c 1.356,-25.10705 2.9809,-90.73715 2.2639,-91.44089 -1.4342,-1.40771 -6.0249,5.52871 -31.7196,47.92764 -31.50451,51.98553 -32.44965,53.65745 -30.69802,54.30381 1.78494,0.65866 30.02252,1.08998 46.44602,0.70944 l 13.103,-0.30359 z m 223.288,122.57657 -5.9012,-0.3818 0.6462,-12.69559 c 0.3555,-6.98257 2.6806,-39.47058 5.1669,-72.19558 4.5686,-60.13292 8.4588,-114.61821 8.4786,-118.75 0.01,-1.2493 -0.6017,-2.25 -1.3663,-2.25 -0.8681,0 -4.1681,7.30006 -8.928,19.75 -7.8074,20.42074 -55.7565,148.59904 -64.3378,171.98895 l -4.8571,13.23895 -34.25,0.0111 c -18.8375,0.006 -34.25,-0.24511 -34.25,-0.5582 0,-1.04651 94.9634,-254.62091 102.815,-274.54011 0.7051,-1.78874 2.0359,-2.81083 4.2318,-3.25 4.5288,-0.90576 118.7413,-0.80104 119.274,0.10936 0.5639,0.96394 -0.667,10.97441 -10.2981,83.75 -10.3022,77.8462 -12.0227,91.23611 -12.0227,93.56925 0,3.61794 2.4989,1.94154 6.4384,-4.31925 9.9733,-15.84986 60.6282,-98.26475 100.1444,-162.93363 3.4407,-5.63083 6.7542,-9.91495 7.9172,-10.23634 3.5569,-0.98297 122.5,-0.64117 122.5,0.35201 0,2.17241 -102.5811,276.0877 -103.8077,277.19041 -0.3807,0.34234 -16.3298,0.90966 -35.4423,1.2607 -26.745,0.49123 -34.75,0.3614 -34.75,-0.5636 0,-1.15765 4.5031,-13.23771 52.8548,-141.78901 12.0956,-32.1582 21.7614,-58.84255 21.4796,-59.29856 -0.2819,-0.456 -1.1254,-0.32041 -1.8745,0.30133 -2.1976,1.82378 -45.4381,67.44495 -126.2426,191.5838 l -6.5855,10.11711 -11.0659,0.54137 c -12.2173,0.59769 -46.7135,0.59608 -55.9672,-0.003 z m 257.2678,-0.17363 -5.6336,-0.59934 5.9889,-16.5 c 15.7764,-43.46531 82.4065,-222.03235 93.7165,-251.15776 2.3146,-5.96061 4.8515,-10.93134 5.7562,-11.27851 2.1586,-0.82833 64.5097,-0.80636 66.6722,0.0235 1.1849,0.45468 1.4989,1.28926 1.0464,2.78119 -2.4035,7.92409 -93.7199,249.41092 -102.9726,272.31163 l -1.6889,4.18005 -8.6258,0.36966 c -13.9976,0.59989 -48.1668,0.51776 -54.2593,-0.13042 z M 212.97605,767.23525 184.4521,766.97051 181.35271,754.73525 C 171.37923,715.36364 146.76487,620.42857 146.36069,619.77459 145.89604,619.02277 142,618.64521 142,619.35201 c 0,0.1936 -9.835,25.5061 -21.85557,56.25 -12.02056,30.74389 -24.958058,63.88476 -28.749997,73.64638 L 84.5,766.99678 l -36.25,0.002 C 28.3125,766.99927 12,766.84303 12,766.65118 12,765.81623 39.172525,692.59506 79.782231,584 95.722079,541.375 110.27942,502.34454 112.13189,497.26564 l 3.36811,-9.23435 36.6961,-0.0156 36.6961,-0.0156 -1.55118,5.25 C 186.48787,496.1375 181.0697,512 175.30065,528.5 155.72982,584.47423 150,601.13527 150,602.06866 c 0,2.50694 3.79481,-0.0697 16.57548,-11.25456 14.636,-12.80853 58.64058,-52.40924 93.37028,-84.026 L 280.5,488.0762 l 42.75,-0.0381 c 24.7257,-0.022 42.75,0.34173 42.75,0.86278 0,0.49548 -2.64126,3.30798 -5.86947,6.25 -7.86028,7.16343 -118.73953,113.66115 -122.92217,118.06473 l -3.29164,3.46553 1.62181,7.90943 c 1.29067,6.29451 32.61871,132.40796 35.06551,141.15894 l 0.62896,2.2495 -14.8665,-0.2495 c -8.17657,-0.13723 -27.70228,-0.36865 -43.39045,-0.51426 z M 711,765.41021 c 0,-1.42438 -0.44835,-14.58688 -0.99633,-29.25 C 709.45568,721.4971 708.33319,687.9 707.50925,661.5 c -2.1107,-67.62868 -3.57032,-98.69511 -4.74113,-100.9099 -0.95577,-1.808 -1.06261,-1.81526 -2.00229,-0.13614 -1.37925,2.46458 -16.81868,45.157 -47.83678,132.27608 L 626.5,766.96009 l -34.25,0.0199 c -18.8375,0.011 -34.25,-0.17591 -34.25,-0.4153 0,-0.67484 18.50069,-51.70459 44.25423,-122.06474 12.88406,-35.2 31.03511,-84.80937 40.33567,-110.24305 l 16.9101,-46.243 55.75,-0.007 L 771,488 l 0.01,3.75 c 0.005,2.0625 0.43928,15.9 0.96405,30.75 0.52476,14.85 1.6725,54.45 2.55052,88 1.54827,59.16062 2.49697,78.85481 3.86442,80.22226 0.36228,0.36228 1.24788,0.0105 1.968,-0.78178 0.72012,-0.79227 17.68122,-46.55298 37.69135,-101.69048 L 854.43033,488 h 33.78483 C 906.79682,488 922,488.31474 922,488.69942 922,489.7007 906.11197,532.80578 872.31408,623.5 856.1221,666.95 837.38995,717.23259 830.68706,735.23909 L 818.5,767.97819 764.75,767.98909 711,768 Z m 62.5,-300.07989 c -2.2,-0.24529 -16.94636,-1.74887 -32.76968,-3.3413 -15.82333,-1.59242 -29.26386,-3.20073 -29.86785,-3.57402 -1.8177,-1.1234 -0.24967,-8.41535 5.527,-25.7028 14.00288,-41.90545 26.45634,-65.99603 42.81008,-82.81389 18.98099,-19.51968 33.71002,-26.31251 74.80045,-34.49699 39.31951,-7.83173 53.90001,-12.52767 67.9982,-21.90013 16.92094,-11.24901 30.67324,-30.00054 40.91995,-55.79515 1.60278,-4.03476 4.74747,-14.5067 6.98822,-23.27098 4.92109,-19.24804 9.21252,-28.55844 15.95939,-34.62446 9.06988,-8.1546 24.83217,-13.94046 46.13424,-16.9345 13.4018,-1.88364 51.8448,-1.61865 69,0.47562 17.9042,2.18571 35.4519,5.52512 37.6922,7.173 1.7046,1.25387 1.2102,3.11767 -8.6625,32.65253 -14.9435,44.70472 -22.1473,57.94936 -41.9522,77.13199 -10.8789,10.53706 -15.9037,14.21814 -26.9667,19.75534 -10.4153,5.21304 -21.838,8.08973 -51.31737,12.92372 -28.21976,4.62745 -39.03903,7.46934 -49.74409,13.06625 -15.97065,8.3499 -27.25829,19.08934 -39.30285,37.39405 -12.90157,19.60714 -18.77267,34.14303 -21.83157,54.0514 -2.52758,16.45043 -3.38688,19.65807 -7.1864,26.82601 -3.54777,6.69302 -8.90313,11.6652 -16.36748,15.1964 -10.66678,5.0462 -15.63873,5.66645 -47.86104,5.97066 -16.5,0.15577 -31.8,0.0825 -34,-0.16275 z m -110,-146.31419 c -24.20149,-2.20438 -48.76,-4.82229 -52.75,-5.6231 -1.72809,-0.34684 -2.75,-1.19507 -2.75,-2.28263 0,-2.34323 11.29566,-36.24153 16.13703,-48.42725 18.54439,-46.6762 38.78153,-68.99264 73.46326,-81.01137 5.55517,-1.9251 21.53317,-5.79195 35.50668,-8.593 13.97351,-2.80104 29.59127,-6.21275 34.70613,-7.58158 29.74817,-7.96113 51.38929,-26.06622 66.07854,-55.28167 6.40123,-12.731435 9.54002,-21.390224 14.03425,-38.71553 5.03435,-19.407501 8.38132,-26.923767 14.75976,-33.1459 5.79304,-5.651076 17.34027,-11.272355 29.31435,-14.270448 19.84674,-4.969263 73.22567,-5.010813 101.5,-0.07901 18.1729,3.169841 19.5,3.617722 19.5,6.580946 0,5.317167 -18.88813,59.260688 -25.0055,71.414412 -14.20852,28.22886 -41.34063,51.7387 -67.9945,58.91688 -4.125,1.11091 -18.3071,3.82197 -31.51578,6.02459 -43.49311,7.2527 -54.03685,11.12423 -71.62253,26.29888 -6.74192,5.8176 -17.08913,17.96693 -22.36453,26.25965 -5.37379,8.44737 -16.14611,30.76595 -18.58248,38.5 -1.12619,3.575 -2.47354,10.55 -2.99412,15.5 -1.16854,11.11135 -4.16815,22.34784 -7.28303,27.28214 -5.71805,9.05798 -15.19784,14.79843 -29.26937,17.72394 -12.5607,2.61142 -47.14022,2.85346 -72.86816,0.51005 z"
     id="path12"
     inkscape:connector-curvature="0" />
  <path
     style="stroke-width:5.56193352;fill:#808080"
     d="m 636.28877,315.03348 c -31.32917,-2.4581 -31.33489,-2.83773 -0.98706,-65.42472 22.99246,-47.41785 39.62409,-59.68868 100.64555,-74.2564 24.83532,-5.92896 50.14649,-13.45122 56.24704,-16.71614 21.64569,-11.58442 44.90362,-44.75834 57.12282,-81.477071 15.99127,-48.053784 29.15091,-54.658118 103.45498,-51.920246 28.24891,1.040884 52.853,3.388233 54.6758,5.216331 6.3885,6.40713 -21.85612,72.988896 -39.90984,94.080616 -19.18418,22.41239 -43.11979,33.32328 -97.02828,44.22968 -17.39971,3.52019 -39.73868,11.88709 -49.64215,18.59309 -19.22879,13.02052 -44.99504,58.425 -54.75731,96.49158 -8.71958,34.00077 -29.69546,39.03919 -129.82155,31.18328 z"
     id="path33"
     inkscape:connector-curvature="0" />
  <path
     style="stroke-width:5.56193352;fill:#808080"
     d="m 636.28877,315.03348 c -31.36001,-2.46052 -31.36141,-2.60509 -0.64273,-66.43243 23.18873,-48.18158 36.37615,-57.52137 105.22124,-74.52122 43.79154,-10.81341 52.8278,-15.21847 72.36907,-35.27906 12.59239,-12.92703 25.75651,-33.78359 30.18861,-47.82931 19.60454,-62.128537 30.29138,-68.636398 108.01667,-65.777897 28.98067,1.065821 54.18347,3.433573 56.00627,5.261671 5.8932,5.910433 -20.93057,71.457916 -37.43765,91.483866 -20.50209,24.87259 -38.51187,33.97115 -87.74076,44.32677 -21.87648,4.60186 -46.54821,12.3678 -54.82607,17.25765 -21.02118,12.41752 -47.81878,54.69485 -58.28861,91.95924 -7.56422,26.92272 -11.34743,32.31273 -26.35115,37.54305 -16.82345,5.86469 -49.50485,6.48069 -106.51489,2.00767 z"
     id="path35"
     inkscape:connector-curvature="0" />
  <path
     style="stroke-width:5.56193352;fill:#808080"
     d="m 633.51319,315.04731 c -28.17659,-2.52475 -28.1441,-3.53673 2.13285,-66.44626 22.94476,-47.67467 36.18102,-57.24797 102.42254,-74.07848 69.67845,-17.70376 87.58977,-35.38578 117.17231,-115.672324 9.97506,-27.07215 29.37912,-34.514003 89.73351,-34.414624 28.44825,0.04683 54.91032,2.107329 58.8046,4.57886 10.3578,6.573653 -13.15743,68.553476 -36.24094,95.521368 -19.46209,22.73707 -44.98975,34.39942 -97.70828,44.6382 -51.10375,9.92515 -81.55811,43.24799 -101.7906,111.37816 -6.39064,21.51962 -11.07569,27.53746 -25.29875,32.49565 -16.71175,5.82574 -58.07503,6.58291 -109.22724,1.99945 z"
     id="path37"
     inkscape:connector-curvature="0" />
  <path
     style="fill:#ff0000;stroke-width:1.39048338"
     d="m 640.79883,317.22036 c -17.12508,-1.8347 -31.71027,-3.9096 -32.41154,-4.61086 -0.77304,-0.77304 1.01843,-8.33173 4.55033,-19.19899 19.60566,-60.32444 38.14977,-88.78785 68.32384,-104.87046 11.98715,-6.38909 20.96514,-9.09015 53.12554,-15.98297 34.78489,-7.45533 39.78163,-8.96833 54.30945,-16.44487 27.15502,-13.97496 46.96335,-42.25266 58.58654,-83.636229 2.79235,-9.941956 6.52077,-20.94834 8.28539,-24.458631 5.86364,-11.664382 17.97316,-19.502653 37.97994,-24.583722 13.36032,-3.393085 79.77655,-3.358472 99.09511,0.05165 16.58747,2.928019 20.65687,4.423589 20.65087,7.589412 -0.01,3.12102 -12.418,39.789277 -19.61222,57.939098 -2.99912,7.566258 -7.75618,17.548382 -10.57125,22.182492 -6.45917,10.63293 -22.16082,27.23621 -33.22087,35.12851 -15.55978,11.10322 -23.33891,13.78376 -60.08019,20.70254 -47.67552,8.97782 -58.90463,13.61648 -77.42277,31.98265 -19.55954,19.39904 -35.06674,48.92609 -39.06906,74.39086 -3.16038,20.10791 -6.29079,27.87743 -13.94751,34.61714 -11.3162,9.96094 -18.66689,11.5628 -55.45397,12.08459 -26.44524,0.37511 -37.37079,-0.12375 -63.11763,-2.8822 z"
     id="path3828"
     inkscape:connector-curvature="0" />
  <path
     style="fill:#ffcc00;stroke-width:1.39048338"
     d="m 740.06903,462.40137 c -30.29243,-3.43077 -29.89539,-3.32991 -29.89539,-7.59466 0,-4.34168 8.30675,-30.28104 15.48365,-48.35058 11.47266,-28.8851 21.2055,-44.4323 37.70073,-60.22302 18.30119,-17.51956 31.18446,-22.98509 76.75289,-32.56127 52.24784,-10.97984 69.33985,-20.30508 87.64738,-47.81959 9.41867,-14.15539 14.68449,-26.4239 21.08277,-49.11945 6.45263,-22.88842 10.30247,-30.92719 18.09708,-37.78828 14.76613,-12.99767 46.68806,-19.2696 88.77066,-17.44139 29.4681,1.2802 60.1209,5.90637 63.1258,9.52707 1.0193,1.22826 -1.3287,9.98572 -8.1642,30.44995 -15.0945,45.19033 -23.3175,60.4225 -42.6735,79.04808 -20.2323,19.46889 -32.154,24.53039 -76.56502,32.5066 -33.2552,5.97263 -39.97853,7.81 -52.42304,14.32632 -16.05516,8.40698 -30.90025,23.88121 -43.611,45.45924 -7.96202,13.51653 -12.53088,26.38733 -16.29806,45.91286 -4.21354,21.83904 -6.49823,27.20267 -14.74583,34.61797 -11.76187,10.57494 -14.2965,11.0545 -60.32268,11.41311 -32.27781,0.25149 -45.04077,-0.22002 -63.96224,-2.36296 z"
     id="path3832"
     inkscape:connector-curvature="0" />
  <path
     style="fill:#808080;stroke-width:1.39048338"
     d="m 203.40743,767.08246 -19.40176,-0.75527 -17.09975,-66.04796 c -9.40486,-36.32638 -17.92009,-69.17545 -18.92272,-72.99793 -1.00728,-3.84017 -2.71768,-7.11455 -3.8225,-7.31776 -1.44527,-0.26583 -9.90777,19.96884 -30.52905,72.99794 l -28.529523,73.36571 -36.475574,0.3707 c -20.061567,0.2039 -36.475575,-0.03 -36.475575,-0.51976 0,-1.46017 9.990845,-28.55458 56.345273,-152.80411 24.251797,-65.0051 44.708059,-119.91181 45.458359,-122.01492 l 1.36419,-3.82383 h 36.86252 36.86253 l -0.9098,3.62493 c -0.5004,1.99371 -9.01541,27.08639 -18.92227,55.76151 -9.90685,28.67513 -18.01246,52.69833 -18.01246,53.3849 0,0.68656 0.56053,1.2483 1.24563,1.2483 1.62964,0 26.06118,-21.49673 82.42004,-72.5194 l 45.84053,-41.50024 40.57601,0.0213 c 22.31682,0.0117 41.44457,0.57133 42.50614,1.2436 1.45622,0.9222 -2.46974,5.45072 -15.99056,18.44475 -9.85638,9.47236 -33.17492,31.90786 -51.81899,49.85668 -18.64409,17.94881 -40.07492,38.47729 -47.62406,45.61882 -7.54916,7.14154 -13.72574,13.89319 -13.72574,15.00368 0,1.11049 8.13433,34.93848 18.07628,75.1733 9.94196,40.23483 18.07629,73.68552 18.07629,74.33488 0,1.22902 -33.88911,1.15366 -67.37346,-0.14981 z"
     id="path3834"
     inkscape:connector-curvature="0" />
  <path
     style="fill:#808080;stroke-width:1.39048338"
     d="m 384.01499,773.98478 c -78.96379,-6.83185 -105.65948,-68.53379 -69.18835,-159.91552 9.39879,-23.54951 24.11254,-53.37633 32.58187,-66.04796 4.08917,-6.11813 13.08021,-16.77575 19.98009,-23.6836 20.69952,-20.72345 38.55117,-30.7145 70.25029,-39.31706 12.267,-3.32903 15.34283,-3.58586 43.10499,-3.59915 34.00243,-0.0163 44.63324,1.8503 63.85864,11.21237 13.9423,6.78939 29.66281,22.35939 36.0268,35.68188 6.28595,13.15908 7.59375,21.90706 6.79161,45.4295 -0.55763,16.35202 -1.37178,22.43159 -4.30844,32.1724 -8.99148,29.8245 -29.85205,79.49411 -41.80105,99.52949 -7.92162,13.28252 -24.86775,32.125 -37.29009,41.46304 -16.07457,12.08347 -40.61179,22.2298 -61.51576,25.43724 -13.65412,2.09504 -43.53314,2.93146 -58.4906,1.63737 z m 46.61271,-55.73517 c 21.23028,-4.89243 37.97166,-22.05159 51.59941,-52.88709 8.3047,-18.79105 24.29594,-67.79967 27.9393,-85.62606 3.06243,-14.98399 3.07263,-15.3679 0.58129,-21.89139 -3.17793,-8.32129 -9.06068,-15.09509 -17.33255,-19.95792 -6.01279,-3.53477 -7.45806,-3.77069 -23.0999,-3.77069 -15.2526,0 -17.37915,0.32486 -24.75798,3.78212 -4.59333,2.15213 -11.99967,7.54544 -17.18532,12.51435 -7.51161,7.19766 -10.55045,11.59545 -17.29201,25.02486 -21.01414,41.86087 -34.62232,83.71718 -34.62232,106.49206 0,11.76003 0.25837,12.85925 4.51908,19.22629 9.61694,14.37121 30.40617,21.52837 49.651,17.09347 z"
     id="path3836"
     inkscape:connector-curvature="0" />
  <path
     style="fill:#808080;stroke-width:1.39048338"
     d="m 710.1724,758.34805 c -0.004,-32.65781 -6.54502,-195.33505 -7.94524,-197.60065 -1.02441,-1.65752 -1.46513,-0.47393 -42.11964,113.11265 l -33.09552,92.46714 -34.20052,0.37191 c -24.20538,0.26322 -34.20053,-0.0758 -34.20053,-1.16015 0,-2.02873 8.83929,-26.6909 46.56425,-129.9172 17.32841,-47.41548 36.58817,-100.13218 42.79947,-117.14822 l 11.29327,-30.93826 h 56.04348 c 55.14245,0 56.04349,0.0448 56.04349,2.78484 0,19.55733 5.9871,192.25701 6.79248,195.93082 l 1.09393,4.99016 2.39935,-5.56194 c 2.48064,-5.75038 40.33224,-108.95287 60.80901,-165.79597 l 11.63899,-32.30958 33.06761,-0.0192 c 26.61085,-0.0154 33.20932,0.35007 33.79328,1.87186 0.68181,1.77675 -14.86285,44.41625 -76.36162,209.46245 l -25.64672,68.82892 -54.38379,0.36377 -54.38379,0.36375 z"
     id="path3838"
     inkscape:connector-curvature="0" />
  <path
     style="fill:#808080;stroke-width:1.39048338"
     d="m 1059.185,768.5633 -14.6001,-0.84563 0.397,-26.5917 0.3971,-26.5917 -3.178,-0.85136 c -1.7479,-0.46825 -23.201,-0.83681 -47.67351,-0.81903 l -44.49547,0.0324 -18.78111,27.41074 -18.78111,27.41065 -30.26337,0.37482 c -16.64485,0.20616 -33.03465,-0.10665 -36.42177,-0.69524 l -6.1584,-1.07006 91.35545,-139.37197 91.35549,-139.37198 48.5448,-0.024 48.5449,-0.024 -0.9791,85.16711 c -1.0264,89.2886 -3.12,194.28172 -3.8883,194.99763 -1.069,0.99619 -42.0494,1.63507 -55.3745,0.86329 z m -10.5992,-117.97507 c 1.2479,-9.10438 2.9092,-94.91927 1.8376,-94.91927 -2.3389,0 -60.7626,95.28898 -60.7626,99.10361 0,1.6819 5.64033,2.08377 31.4445,2.24038 l 26.5778,0.16129 z"
     id="path3840"
     inkscape:connector-curvature="0" />
  <path
     style="fill:#808080;stroke-width:1.39048338"
     d="m 1266.9439,755.55094 c 0.4991,-7.07408 3.3552,-46.33785 6.3468,-87.25283 2.9916,-40.91497 5.812,-81.58661 6.2676,-90.38142 l 0.8284,-15.99056 -3.3628,6.25718 c -2.7184,5.05798 -70.471,184.60035 -73.8539,195.71053 l -0.9526,3.12859 h -34.6684 c -19.0676,0 -34.6684,-0.35262 -34.6684,-0.78361 0,-0.99386 70.2817,-189.3158 88.9508,-238.34641 7.7098,-20.24808 14.6578,-37.45531 15.4401,-38.23829 1.5412,-1.54253 113.438,-2.86341 119.301,-1.40828 4.013,0.99597 4.8871,-8.48894 -9.015,97.82069 -5.7367,43.86785 -10.0722,80.11775 -9.6346,80.55534 1.5323,1.5323 0.156,3.70074 71.2997,-112.3434 19.4576,-31.73778 36.9316,-59.75765 38.8311,-62.26638 l 3.4536,-4.56132 60.2682,0.38987 c 33.1476,0.21443 60.7232,0.84521 61.2791,1.40174 0.5559,0.55652 0.013,3.68511 -1.208,6.95241 -1.2203,3.26731 -13.2501,35.66214 -26.7327,71.98852 -37.0559,99.83957 -73.1441,195.17071 -74.5524,196.93876 -1.6776,2.10631 -67.5553,4.21888 -69.544,2.23017 -0.9319,-0.93192 8.6081,-28.07307 28.7727,-81.85766 38.3701,-102.34365 43.9458,-117.58774 43.2601,-118.27348 -0.3074,-0.30743 -2.7489,2.44259 -5.4255,6.11117 -4.9764,6.82062 -60.4622,91.18498 -103.84,157.88521 l -24.1897,37.19544 h -36.7794 -36.7794 z"
     id="path3842"
     inkscape:connector-curvature="0" />
  <path
     style="fill:#808080;stroke-width:1.39048338"
     d="m 1524.492,766.99508 c 0,-3.68225 99.3611,-269.14174 102.9455,-275.03582 l 2.6904,-4.42399 32.3492,0.0213 c 17.792,0.0117 33.1683,0.54081 34.1695,1.17576 1.4033,0.88999 -5.1765,19.75932 -28.7211,82.36485 -31.7152,84.33129 -69.4834,183.73481 -73.0836,192.3513 l -2.0743,4.96445 h -34.1378 c -22.2705,0 -34.1378,-0.49289 -34.1378,-1.41784 z"
     id="path3844"
     inkscape:connector-curvature="0" />
</svg>
