<?xml version="1.0" encoding="UTF-8" standalone="no"?>
<!-- Created with Inkscape (http://www.inkscape.org/) -->

<svg
   xmlns:dc="http://purl.org/dc/elements/1.1/"
   xmlns:cc="http://creativecommons.org/ns#"
   xmlns:rdf="http://www.w3.org/1999/02/22-rdf-syntax-ns#"
   xmlns:svg="http://www.w3.org/2000/svg"
   xmlns="http://www.w3.org/2000/svg"
   xmlns:sodipodi="http://sodipodi.sourceforge.net/DTD/sodipodi-0.dtd"
   xmlns:inkscape="http://www.inkscape.org/namespaces/inkscape"
   width="453"
   height="196"
   viewBox="0 0 119.85625 51.858335"
   version="1.1"
   id="svg5248"
   inkscape:version="0.92.4 (5da689c313, 2019-01-14)"
   sodipodi:docname="system_lichter.svg">
  <defs
     id="defs5242" />
  <sodipodi:namedview
     id="base"
     pagecolor="#ffffff"
     bordercolor="#666666"
     borderopacity="1.0"
     inkscape:pageopacity="0.0"
     inkscape:pageshadow="2"
     inkscape:zoom="1.979899"
     inkscape:cx="245.91263"
     inkscape:cy="153.18019"
     inkscape:document-units="mm"
     inkscape:current-layer="layer1"
     showgrid="false"
     units="px"
     inkscape:window-width="1600"
     inkscape:window-height="836"
     inkscape:window-x="0"
     inkscape:window-y="36"
     inkscape:window-maximized="1" />
  <metadata
     id="metadata5245">
    <rdf:RDF>
      <cc:Work
         rdf:about="">
        <dc:format>image/svg+xml</dc:format>
        <dc:type
           rdf:resource="http://purl.org/dc/dcmitype/StillImage" />
        <dc:title></dc:title>
      </cc:Work>
    </rdf:RDF>
  </metadata>
  <g
     inkscape:label="Laag 1"
     inkscape:groupmode="layer"
     id="layer1"
     transform="translate(0,-245.14165)">
    <g
       aria-label="PHILIPS"
       transform="matrix(0.25774044,0,0,0.30843138,15.025334,246.32322)"
       style="font-style:normal;font-variant:normal;font-weight:bold;font-stretch:normal;font-size:106.66666412px;line-height:1.25;font-family:sans-serif;-inkscape-font-specification:'sans-serif Bold';letter-spacing:0px;word-spacing:0px;fill:#295aff;fill-opacity:1;stroke:none"
       id="flowRoot892">
      <path
         d="m -48.702474,13.733724 h 33.281249 q 14.84374966,0 22.7604161,6.614583 7.9687499,6.5625 7.9687499,18.749999 0,12.239583 -7.9687499,18.854167 -7.91666644,6.562499 -22.7604161,6.562499 h -13.229166 v 26.979166 h -20.052083 z m 20.052083,14.531249 v 21.71875 h 11.093749 q 5.833334,0 9.0104169,-2.8125 3.1770832,-2.864584 3.1770832,-8.072917 0,-5.208333 -3.1770832,-8.020833 -3.1770829,-2.8125 -9.0104169,-2.8125 z"
         id="path1585"
         inkscape:connector-curvature="0"
         style="fill:#295aff;fill-opacity:1" />
      <path
         d="M 29.422526,13.733724 H 49.474609 V 43.36914 H 79.057941 V 13.733724 H 99.110024 V 91.494138 H 79.057941 V 58.525389 H 49.474609 V 91.494138 H 29.422526 Z"
         id="path1587"
         inkscape:connector-curvature="0"
         style="fill:#295aff;fill-opacity:1" />
      <path
         d="m 118.79753,13.733724 h 20.05208 v 77.760414 h -20.05208 z"
         id="path1589"
         inkscape:connector-curvature="0"
         style="fill:#295aff;fill-opacity:1" />
      <path
         d="m 158.58918,13.733724 h 20.05209 v 62.604165 h 35.20833 v 15.156249 h -55.26042 z"
         id="path1591"
         inkscape:connector-curvature="0"
         style="fill:#295aff;fill-opacity:1" />
      <path
         d="m 226.50584,13.733724 h 20.05208 v 77.760414 h -20.05208 z"
         id="path1593"
         inkscape:connector-curvature="0"
         style="fill:#295aff;fill-opacity:1" />
      <path
         d="m 266.29753,13.733724 h 33.28125 q 14.84374,0 22.76041,6.614583 7.96875,6.5625 7.96875,18.749999 0,12.239583 -7.96875,18.854167 -7.91667,6.562499 -22.76041,6.562499 h -13.22917 v 26.979166 h -20.05208 z m 20.05208,14.531249 v 21.71875 h 11.09375 q 5.83333,0 9.01041,-2.8125 3.17709,-2.864584 3.17709,-8.072917 0,-5.208333 -3.17709,-8.020833 -3.17708,-2.8125 -9.01041,-2.8125 z"
         id="path1595"
         inkscape:connector-curvature="0"
         style="fill:#295aff;fill-opacity:1" />
      <path
         d="m 398.53711,16.18164 v 16.458333 q -6.40625,-2.864583 -12.5,-4.322916 -6.09375,-1.458334 -11.51042,-1.458334 -7.1875,0 -10.625,1.979167 -3.4375,1.979166 -3.4375,6.145833 0,3.125 2.29167,4.895833 2.34375,1.71875 8.4375,2.96875 l 8.54166,1.71875 q 12.96875,2.604167 18.4375,7.916667 5.46875,5.3125 5.46875,15.104166 0,12.864583 -7.65625,19.166666 -7.60416,6.25 -23.28124,6.25 -7.39584,0 -14.84375,-1.40625 -7.44792,-1.40625 -14.89584,-4.166667 V 70.504556 q 7.44792,3.958333 14.375,5.989583 6.97917,1.979166 13.4375,1.979166 6.5625,0 10.05208,-2.1875 3.48959,-2.1875 3.48959,-6.249999 0,-3.645834 -2.39584,-5.625 -2.34375,-1.979167 -9.42708,-3.541667 l -7.76041,-1.71875 q -11.66667,-2.5 -17.08334,-7.96875 -5.36458,-5.46875 -5.36458,-14.739583 0,-11.614583 7.5,-17.864583 7.5,-6.249999 21.5625,-6.249999 6.40625,0 13.17708,0.989583 6.77083,0.9375 14.01042,2.864583 z"
         id="path1597"
         inkscape:connector-curvature="0"
         style="fill:#295aff;fill-opacity:1" />
    </g>
    <g
       aria-label="CD"
       transform="matrix(1.9009302,0,0,0.54228759,-8.3214181,321.10939)"
       style="font-style:normal;font-variant:normal;font-weight:normal;font-stretch:normal;font-size:40px;line-height:1.25;font-family:'Bitstream Vera Sans';-inkscape-font-specification:'Bitstream Vera Sans';letter-spacing:0px;word-spacing:0px;fill:#808080;fill-opacity:1;stroke:none"
       id="flowRoot908">
      <path
         d="m 18.810547,-75.297948 q -4.570313,0 -7.109375,2.949219 -2.5390626,2.929687 -2.5390626,8.046875 0,5.058593 2.6367186,8.144531 2.65625,3.066406 7.167969,3.066406 5.78125,0 8.691406,-5.722656 l 3.046875,1.523437 q -1.699219,3.554688 -4.785156,5.410157 -3.066406,1.855468 -7.128906,1.855468 -4.160157,0 -7.207032,-1.71875 -3.0273434,-1.738281 -4.6289059,-4.941406 -1.5820312,-3.222656 -1.5820312,-7.617187 0,-6.582032 3.5546875,-10.3125 3.5546876,-3.730469 9.8437496,-3.730469 4.394532,0 7.34375,1.71875 2.949219,1.71875 4.335938,5.097656 l -3.535156,1.171875 q -0.957032,-2.402344 -3.085938,-3.671875 -2.109375,-1.269531 -5.019531,-1.269531 z"
         style="font-style:normal;font-variant:normal;font-weight:normal;font-stretch:normal;line-height:1.25;font-family:'Liberation Sans';-inkscape-font-specification:'Liberation Sans';letter-spacing:-4.13793039px;fill:#808080;fill-opacity:1"
         id="path1580"
         inkscape:connector-curvature="0" />
      <path
         d="m 55.082773,-64.458104 q 0,4.257812 -1.660156,7.460937 -1.660156,3.183594 -4.707031,4.882813 -3.046875,1.699218 -7.03125,1.699218 H 31.391367 v -27.519531 h 9.101562 q 6.992188,0 10.78125,3.515625 3.808594,3.496094 3.808594,9.960938 z m -3.75,0 q 0,-5.117188 -2.8125,-7.792969 -2.792969,-2.695313 -8.105469,-2.695313 h -5.292968 v 21.542969 h 6.132812 q 3.027344,0 5.3125,-1.328125 2.304688,-1.328125 3.535156,-3.828125 1.230469,-2.5 1.230469,-5.898437 z"
         style="font-style:normal;font-variant:normal;font-weight:normal;font-stretch:normal;line-height:1.25;font-family:'Liberation Sans';-inkscape-font-specification:'Liberation Sans';letter-spacing:-4.13793039px;fill:#808080;fill-opacity:1"
         id="path1582"
         inkscape:connector-curvature="0" />
    </g>
    <g
       aria-label="i "
       transform="matrix(0.64759433,0,0,0.49988393,-230.18979,324.40047)"
       style="font-style:normal;font-variant:normal;font-weight:bold;font-stretch:normal;font-size:40px;line-height:1.25;font-family:sans-serif;-inkscape-font-specification:'sans-serif Bold';letter-spacing:0px;word-spacing:0px;fill:#808080;fill-opacity:1;stroke:none"
       id="flowRoot916">
      <path
         d="m 531.48242,-84.628906 h 6.99219 v 21.875 h -6.99219 z m 0,-8.515625 h 6.99219 v 5.703125 h -6.99219 z"
         id="path1577"
         inkscape:connector-curvature="0"
         style="fill:#808080;fill-opacity:1" />
    </g>
    <path
       style="fill:#295aff;fill-opacity:1;stroke:#295aff;stroke-width:0.26458332px;stroke-linecap:butt;stroke-linejoin:miter;stroke-opacity:1"
       d="m 99.683631,284.58813 0.03908,3.7912 11.217279,-1.79789 z"
       id="path934"
       inkscape:connector-curvature="0" />
    <g
       aria-label="o"
       transform="matrix(0.6346471,0,0,0.17215729,72.835344,305.37195)"
       style="font-style:normal;font-weight:normal;font-size:40px;line-height:1.25;font-family:sans-serif;letter-spacing:0px;word-spacing:0px;fill:#808080;fill-opacity:1;stroke:none"
       id="flowRoot1522">
      <path
         d="m -70.998047,-117.93555 q -2.890625,0 -4.570312,2.26563 -1.679688,2.24609 -1.679688,6.17187 0,3.92578 1.660156,6.19141 1.679688,2.24609 4.589844,2.24609 2.871094,0 4.550781,-2.26562 1.679688,-2.26563 1.679688,-6.17188 0,-3.88672 -1.679688,-6.15234 -1.679687,-2.28516 -4.550781,-2.28516 z m 0,-3.04687 q 4.6875,0 7.363281,3.04687 2.675782,3.04688 2.675782,8.4375 0,5.3711 -2.675782,8.4375 -2.675781,3.046878 -7.363281,3.046878 -4.707031,0 -7.382812,-3.046878 -2.65625,-3.0664 -2.65625,-8.4375 0,-5.39062 2.65625,-8.4375 2.675781,-3.04687 7.382812,-3.04687 z"
         id="path1572"
         inkscape:connector-curvature="0"
         style="fill:#808080;fill-opacity:1" />
    </g>
  </g>
</svg>
