<?xml version="1.0" encoding="UTF-8" standalone="no"?>
<svg
   xmlns:dc="http://purl.org/dc/elements/1.1/"
   xmlns:cc="http://creativecommons.org/ns#"
   xmlns:rdf="http://www.w3.org/1999/02/22-rdf-syntax-ns#"
   xmlns:svg="http://www.w3.org/2000/svg"
   xmlns="http://www.w3.org/2000/svg"
   xmlns:sodipodi="http://sodipodi.sourceforge.net/DTD/sodipodi-0.dtd"
   xmlns:inkscape="http://www.inkscape.org/namespaces/inkscape"
   version="1.1"
   id="Ebene_1"
   x="0px"
   y="0px"
   width="566.929px"
   height="129.21px"
   viewBox="0 0 566.929 129.21"
   enable-background="new 0 0 566.929 129.21"
   xml:space="preserve"
   sodipodi:docname="system.svg"
   inkscape:version="1.0.2-2 (e86c870879, 2021-01-15)"><metadata
   id="metadata80"><rdf:RDF><cc:Work
       rdf:about=""><dc:format>image/svg+xml</dc:format><dc:type
         rdf:resource="http://purl.org/dc/dcmitype/StillImage" /></cc:Work></rdf:RDF></metadata><defs
   id="defs78" /><sodipodi:namedview
   pagecolor="#ffffff"
   bordercolor="#666666"
   borderopacity="1"
   objecttolerance="10"
   gridtolerance="10"
   guidetolerance="10"
   inkscape:pageopacity="0"
   inkscape:pageshadow="2"
   inkscape:window-width="1920"
   inkscape:window-height="1017"
   id="namedview76"
   showgrid="false"
   inkscape:zoom="1.8838337"
   inkscape:cx="422.2453"
   inkscape:cy="190.52186"
   inkscape:window-x="-8"
   inkscape:window-y="-8"
   inkscape:window-maximized="1"
   inkscape:current-layer="g111"
   inkscape:document-rotation="0" />
<g
   id="Ebene_2">
</g>


<g
   id="g111"
   transform="translate(-1.2554789e-8,-1.5014231)"><path
     style="fill:#008080;fill-opacity:1;stroke-width:0.305755"
     d="m 220.55363,111.78129 c -2.82575,-0.35433 -7.4171,-1.54925 -10.40102,-2.70693 -11.83045,-4.58986 -21.40971,-14.585668 -25.33279,-26.434372 -1.01727,-3.072407 -1.88921,-7.366033 -2.12545,-10.466195 l -0.12132,-1.592126 h 9.02976 9.02976 l 0.19808,1.440495 c 1.7746,12.905455 12.42905,22.213958 25.42594,22.213958 12.9969,0 23.65134,-9.308503 25.42594,-22.213958 l 0.19808,-1.440495 h 9.02331 9.02331 l -0.12294,1.743757 c -0.50544,7.168974 -3.25903,14.882185 -7.5169,21.0559 -2.22084,3.220114 -7.47338,8.560456 -10.44456,10.619136 -9.17193,6.3551 -20.39737,9.14658 -31.2892,7.78083 z M 14.476504,105.15356 v -3.94241 h 2.31201 2.312009 V 89.687187 78.163222 h -2.312009 -2.31201 v -3.942409 -3.942409 h 23.274231 23.274231 v 7.733187 7.733187 h -5.548824 -5.548823 v -3.795651 -3.795652 l -8.400302,0.08069 -8.400302,0.08069 -0.08531,4.473118 -0.08531,4.473118 h 6.790136 6.790136 v 3.942409 3.942409 h -6.781895 -6.781895 v 3.032622 3.032619 h 2.312009 2.31201 v 3.94241 3.94241 H 26.036552 14.476504 Z m 51.789017,-0.15163 v -4.09404 h 2.31201 2.312009 V 89.232293 77.556698 h -2.312009 -2.31201 v -3.639147 -3.639147 h 9.663778 9.663781 l 4.593612,9.846831 c 2.526487,5.415757 4.662975,9.847977 4.747749,9.849375 0.08477,0.0015 2.047587,-4.395559 4.361803,-9.771015 l 4.207666,-9.773559 9.74146,-0.08008 9.74146,-0.08007 v 3.643404 3.643408 h -2.46615 -2.46614 v 11.675595 11.675597 h 2.46614 2.46615 v 4.09404 4.09404 h -10.63525 -10.63524 v -4.09404 -4.09404 h 1.54134 1.54134 v -6.368508 c 0,-3.502678 -0.0728,-6.368506 -0.16177,-6.368506 -0.089,0 -0.30351,0.375287 -0.47676,0.833971 -0.17325,0.458684 -2.0618,5.16683 -4.196796,10.462547 l -3.8818,9.628576 H 92.961853 89.841814 L 84.780196,98.314394 c -2.783891,-5.929866 -5.175424,-10.850768 -5.314521,-10.935336 -0.139094,-0.08457 -0.2529,2.924819 -0.2529,6.687533 v 6.841299 h 2.466144 2.466143 v 4.09404 4.09404 h -8.93977 -8.939771 z M 136.85888,89.838818 V 70.581667 h 10.01871 10.01871 v 19.257151 19.257152 h -10.01871 -10.01871 z m 147.54006,0.377816 c -2.52461,-10.382246 -4.65494,-19.047397 -4.73407,-19.25589 -0.11303,-0.297788 1.76836,-0.379077 8.77347,-0.379077 h 8.91736 l 1.1523,4.928011 c 0.63376,2.710406 1.253,5.180468 1.37607,5.489025 0.14839,0.371996 0.67867,-1.288346 1.57394,-4.928011 l 1.35016,-5.489025 h 8.76805 c 6.88036,0 8.73924,0.08161 8.63416,0.379077 -0.0737,0.208493 -2.204,8.873238 -4.73408,19.254993 l -4.60015,18.875913 -10.94352,9.1e-4 -10.94351,9.1e-4 -4.59018,-18.876818 z m 45.62832,-0.07278 c -2.64916,-10.423662 -4.81665,-19.09154 -4.81665,-19.261949 0,-0.205426 2.87983,-0.28267 8.54608,-0.229223 l 8.54608,0.08061 1.27731,5.24129 c 0.70251,2.882711 1.34047,5.303456 1.41772,5.379435 0.0772,0.07598 0.73365,-2.31672 1.45869,-5.317106 l 1.31828,-5.45525 h 8.93025 c 8.36417,0 8.91948,0.03364 8.76042,0.530709 -0.0934,0.291889 -2.11944,8.445853 -4.50232,18.119917 -2.38288,9.674065 -4.47133,18.100963 -4.641,18.726443 l -0.30849,1.13723 h -10.58487 -10.58487 z m 54.37079,-0.305039 V 70.581667 h 9.09391 9.0939 v 19.257151 19.257152 h -9.0939 -9.09391 z m 55.22057,18.930355 c -1.91407,-0.37005 -3.90298,-1.38722 -4.82865,-2.46942 -1.33801,-1.56433 -2.18707,-3.47292 -8.80694,-19.79682 l -6.39508,-15.769635 8.98959,-0.08051 c 4.94431,-0.04428 9.13274,-0.02648 9.30765,0.03955 0.17492,0.06603 1.90174,4.027286 3.83742,8.802784 3.39165,8.367596 4.71406,10.859301 5.50739,10.376966 0.266,-0.161733 0.36298,-2.768005 0.36298,-9.755555 v -9.534861 h 8.63151 8.6315 v 19.257151 19.25715 l -11.94538,-0.0332 c -6.56996,-0.0183 -12.55135,-0.15038 -13.29199,-0.29357 z m 33.86887,-8.45537 v -8.807043 h 24.59667 c 21.23526,0 24.84776,-0.06432 26.43398,-0.470663 3.52825,-0.903833 6.47289,-3.160253 8.19059,-6.276288 0.98994,-1.795855 1.04515,-2.056236 1.0449,-4.928644 -2.1e-4,-2.743438 -0.0835,-3.188284 -0.87366,-4.66502 -0.48041,-0.897817 -1.505,-2.296614 -2.2769,-3.108437 l -1.40345,-1.476041 h 10.80969 10.8097 l 0.46224,1.592126 c 2.89005,9.954086 0.003,20.60854 -7.6628,28.26616 -3.94561,3.94207 -7.98146,6.25729 -13.646,7.82825 -2.35406,0.65285 -2.72278,0.66233 -29.43444,0.75688 l -27.05052,0.0957 z M 136.85888,56.934866 V 45.714164 h -13.87205 -13.87206 v -8.339711 -8.339711 h 38.07109 38.07109 v 8.339711 8.339711 H 171.07663 156.8963 v 11.220702 11.220703 h -10.01871 -10.01871 z m 45.83066,9.325314 c 0.90526,-11.552135 6.33927,-22.292601 14.94218,-29.533605 8.1922,-6.895322 17.87704,-10.421193 28.62487,-10.421193 6.77218,0 12.6964,1.268851 18.42187,3.945599 14.68031,6.863282 23.76949,19.927367 25.15844,36.16083 l 0.14919,1.743758 h -9.03616 -9.03617 l -0.35947,-2.418498 c -0.86109,-5.793434 -3.42382,-10.652134 -7.78516,-14.759969 -3.4904,-3.287523 -7.74659,-5.513536 -12.42612,-6.498938 -2.5779,-0.542848 -8.16425,-0.472753 -10.73663,0.134717 -4.73043,1.117096 -8.77427,3.33775 -12.32038,6.765671 -3.99176,3.858722 -6.49585,8.765857 -7.32711,14.358519 l -0.35947,2.418498 h -9.0292 -9.02921 z m 96.28087,1.770599 c 0,-0.06863 -2.08081,-8.655595 -4.62402,-19.082134 -2.54321,-10.42654 -4.62402,-19.106398 -4.62402,-19.288574 0,-0.233726 2.64509,-0.307563 8.98578,-0.250832 l 8.98577,0.0804 4.1076,17.437578 c 2.25917,9.590668 4.30555,18.290503 4.5475,19.332967 l 0.43991,1.895389 h -8.90926 c -4.90009,0 -8.90926,-0.05616 -8.90926,-0.12479 z m 24.50918,-0.254288 c 0.0752,-0.208493 2.01449,-8.067718 4.30962,-17.464945 2.29513,-9.397227 4.3968,-17.962515 4.67038,-19.033972 l 0.49743,-1.948105 9.57048,0.08008 9.57049,0.08008 4.72177,19.10552 c 2.59697,10.508036 4.72341,19.207871 4.72541,19.332967 0.003,0.125096 -3.85323,0.227447 -8.5672,0.227447 h -8.5708 l -0.71586,-2.956807 c -0.39372,-1.626244 -0.82043,-3.149196 -0.94824,-3.38434 -0.14316,-0.263392 -0.4894,0.668048 -0.90186,2.426098 -0.36823,1.569497 -0.74114,3.09245 -0.82869,3.38434 -0.1468,0.489304 -0.84228,0.530709 -8.9144,0.530709 -6.87152,0 -8.72579,-0.08156 -8.61853,-0.379078 z m 45.36068,-1.516311 c 0.24667,-1.042464 2.36065,-9.742299 4.69773,-19.332967 l 4.24922,-17.437578 8.96339,-0.08036 8.96341,-0.08035 -0.42032,1.748297 c -0.2312,0.961564 -2.36957,9.645156 -4.75189,19.29687 -2.38236,9.651717 -4.33157,17.600978 -4.33157,17.665024 0,0.06405 -4.00918,0.116453 -8.90925,0.116453 h -8.90928 z M 384.39805,48.736985 V 29.318401 l 17.03181,0.08562 17.0318,0.08562 1.65546,0.902016 c 2.21475,1.206741 2.83265,2.09129 4.45414,6.376277 1.07986,2.853665 8.40566,21.216602 11.94905,29.951588 l 0.58614,1.444938 -9.30809,-0.08026 -9.30806,-0.08026 -4.06775,-10.159285 -4.06775,-10.159284 -3.88445,-0.08488 -3.88449,-0.08488 v 10.319976 10.319977 h -9.0939 -9.09391 z m 63.19493,0.0098 V 29.338004 h 8.63151 8.6315 v 19.408782 19.408783 h -8.6315 -8.63151 z m 39.72745,18.814228 c -8.7078,-1.807045 -13.29674,-7.385879 -13.74866,-16.714405 -0.21726,-4.485095 0.35497,-7.25377 2.31436,-11.197689 2.55236,-5.137468 6.85788,-8.552778 12.40291,-9.838447 1.7165,-0.39799 5.9968,-0.464138 30.28264,-0.467987 l 28.28359,-0.0045 v 8.491342 8.491343 l -26.74225,0.0045 c -20.93845,0.0035 -26.90951,0.0877 -27.51291,0.387952 -0.96769,0.481511 -1.65479,1.850999 -1.41002,2.810353 0.10271,0.402578 0.55966,0.972506 1.01543,1.266506 0.76032,0.490436 2.34339,0.548322 19.18478,0.701506 17.82914,0.162168 18.42083,0.186296 20.61107,0.840497 5.07653,1.516302 9.92466,4.656849 13.1198,8.498848 1.59587,1.918952 4.50851,6.499295 4.50851,7.089959 0,0.129132 -13.42122,0.225187 -29.82493,0.213451 -27.61094,-0.01974 -30.02234,-0.06231 -32.48432,-0.573217 z"
     id="path119" /><path
     style="fill:#606060;fill-opacity:1;stroke-width:0.305755"
     d="m 141.88782,109.17221 c 2.85068,-0.0501 7.42846,-0.05 10.17284,2.1e-4 2.74438,0.0502 0.412,0.0912 -5.18307,0.0911 -5.59506,-1.1e-4 -7.84046,-0.0412 -4.98977,-0.0913 z m -40.35812,-4.17028 c 6.1e-4,-2.33512 0.0489,-3.25031 0.10753,-2.03375 0.0587,1.21655 0.0583,3.1271 -9.2e-4,4.24567 -0.0591,1.11856 -0.10709,0.1232 -0.10661,-2.21192 z M 465.00121,89.838818 c 4e-5,-10.67483 0.0387,-14.997806 0.0859,-9.60661 0.0472,5.391195 0.0472,14.125147 -6e-5,19.408782 -0.0472,5.28363 -0.0858,0.87266 -0.0858,-9.802172 z M 70.721445,89.232293 c 8.6e-5,-6.504974 0.04091,-9.122946 0.09071,-5.817715 0.0498,3.30523 0.04973,8.627482 -1.57e-4,11.827226 -0.04989,3.199744 -0.09064,0.495464 -0.09055,-6.009511 z m 8.623512,4.852196 c 2.16e-4,-3.836267 0.04439,-5.363832 0.09817,-3.39459 0.05378,1.969242 0.0536,5.108007 -3.08e-4,6.975031 -0.054,1.867025 -0.09799,0.255826 -0.09778,-3.580441 z M 447.42223,80.134427 c 1.3e-4,-5.337415 0.0421,-7.478192 0.0932,-4.757284 0.0512,2.720911 0.0511,7.087887 -2.1e-4,9.704391 -0.0513,2.616507 -0.0931,0.390308 -0.093,-4.947107 z m -414.32636,2.72936 c 4.32e-4,-2.501914 0.04818,-3.485069 0.106103,-2.184789 0.05792,1.300276 0.05757,3.347296 -7.7e-4,4.548933 -0.05837,1.201634 -0.105764,0.137769 -0.105333,-2.364144 z m 19.528794,2.958302 c 1.568313,-0.05504 4.134644,-0.05504 5.702957,0 1.568313,0.05504 0.285148,0.100073 -2.851479,0.100073 -3.136626,0 -4.419791,-0.04503 -2.851478,-0.100073 z M 552.42841,80.109156 c 0.0148,-0.353285 0.0879,-0.425143 0.18626,-0.183222 0.0891,0.218916 0.0781,0.48048 -0.0244,0.581254 -0.10243,0.100771 -0.17531,-0.07834 -0.16193,-0.398032 z M 182.50688,71.617814 c 0.0148,-0.353286 0.0878,-0.425144 0.18624,-0.183222 0.0891,0.218916 0.0781,0.480479 -0.0243,0.581253 -0.10243,0.100771 -0.17529,-0.07834 -0.16191,-0.398031 z m 87.23983,0 c 0.0148,-0.353286 0.0878,-0.425144 0.18624,-0.183222 0.089,0.218916 0.0781,0.480479 -0.0243,0.581253 -0.10243,0.100771 -0.17529,-0.07834 -0.16191,-0.398031 z M 25.936658,70.051091 c 6.387858,-0.04576 16.930622,-0.04578 23.428365,-4.5e-5 6.497743,0.04573 1.271312,0.08317 -11.614288,0.0832 -12.885601,2.4e-5 -18.201935,-0.03739 -11.814077,-0.08315 z m 45.203495,3.03e-4 c 2.765823,-0.05031 7.204882,-0.05021 9.864574,2.22e-4 2.659696,0.05043 0.396751,0.0916 -5.028765,0.09148 -5.425516,-1.21e-4 -7.601629,-0.04139 -4.835809,-0.0917 z m 37.300427,0 c 2.76582,-0.05031 7.20488,-0.05021 9.86457,2.22e-4 2.6597,0.05043 0.39675,0.0916 -5.02877,0.09148 -5.42551,-1.21e-4 -7.60162,-0.04139 -4.8358,-0.0917 z m 33.44724,-1.819597 c 2.85068,-0.0501 7.42846,-0.05 10.17284,2.09e-4 2.74438,0.05021 0.412,0.0912 -5.18307,0.09108 -5.59506,-1.15e-4 -7.84046,-0.0412 -4.98977,-0.09129 z m 305.54036,-0.147322 c -0.082,-0.211083 -0.11316,-9.049518 -0.0692,-19.640951 l 0.0799,-19.257151 h 8.78564 8.78563 V 48.746786 68.3072 l -8.7164,0.08055 c -6.80683,0.0629 -8.74907,-0.0035 -8.86554,-0.303262 z M 464.85599,48.746786 V 29.338004 h -8.6315 -8.63151 v 19.408782 19.408783 h 8.63151 8.6315 z M 182.53121,66.639258 c 0,-0.416986 0.07,-0.587571 0.15549,-0.379078 0.0855,0.208493 0.0855,0.549663 0,0.758155 -0.0855,0.208493 -0.15549,0.03791 -0.15549,-0.379077 z m 87.23984,0 c 0,-0.416986 0.07,-0.587571 0.15548,-0.379078 0.0855,0.208493 0.0855,0.549663 0,0.758155 -0.0855,0.208493 -0.15548,0.03791 -0.15548,-0.379077 z m 208.30113,-3.563331 c -0.38343,-0.480993 -0.37254,-0.491719 0.1164,-0.1145 0.29671,0.228917 0.53947,0.467736 0.53947,0.530709 0,0.249597 -0.25315,0.08895 -0.65587,-0.416209 z M 108.94202,37.374453 c 1.5e-4,-4.670238 0.0429,-6.538417 0.0951,-4.151508 0.0521,2.386909 0.052,6.208013 -2.8e-4,8.491343 -0.0523,2.283329 -0.095,0.330403 -0.0948,-4.339835 z m 116.46683,6.606187 c 0.46626,-0.06949 1.22922,-0.06949 1.69548,0 0.46625,0.06949 0.0848,0.126336 -0.84774,0.126336 -0.93251,0 -1.31399,-0.05685 -0.84774,-0.126336 z m 32.86829,-3.952643 c -0.38345,-0.48099 -0.37255,-0.491717 0.11639,-0.114498 0.2967,0.228916 0.53946,0.467735 0.53946,0.530709 0,0.249595 -0.25314,0.08895 -0.65585,-0.416211 z M 196.3546,37.714848 c 0,-0.06297 0.24276,-0.301793 0.53947,-0.530709 0.48893,-0.377219 0.49983,-0.366492 0.11639,0.114498 -0.40271,0.505159 -0.65586,0.665806 -0.65586,0.416211 z m 59.14812,-0.416211 c -0.38344,-0.48099 -0.37254,-0.491717 0.11639,-0.114498 0.29671,0.228916 0.53947,0.467735 0.53947,0.530709 0,0.249595 -0.25314,0.08895 -0.65586,-0.416211 z m 13.91104,-8.036449 c 1.9e-4,-0.125095 4.12728,-0.198463 9.17132,-0.163039 9.12423,0.06408 8.08349,0.164648 -3.23716,0.312815 -3.26397,0.04272 -5.93435,-0.02468 -5.93416,-0.149776 z m 53.02243,0.07582 -9.71044,-0.164647 9.61519,-0.06931 c 6.15475,-0.04436 9.68374,0.03984 9.80569,0.233955 0.10478,0.166794 0.14766,0.272074 0.0953,0.233955 -0.0524,-0.03812 -4.46495,-0.143399 -9.8057,-0.233955 z m 35.40905,-0.08056 c 0.12999,-0.127704 4.25015,-0.195799 9.1559,-0.151323 l 8.91954,0.08087 -9.15592,0.151322 c -5.03575,0.08323 -9.04952,0.04684 -8.91952,-0.08087 z m 34.18244,-0.14665 c 4.28108,-0.04756 11.28647,-0.04756 15.56754,0 4.28107,0.04756 0.77837,0.08647 -7.78377,0.08647 -8.56214,0 -12.06484,-0.03891 -7.78377,-0.08647 z m 114.08236,-1.74e-4 c 7.5152,-0.04522 19.72262,-0.04521 27.12758,3.5e-5 7.40494,0.04524 1.2561,0.08224 -13.66407,0.08222 -14.92017,-1.9e-5 -20.97874,-0.03703 -13.46351,-0.08226 z M 225.71712,26.096335 c 0.29671,-0.07628 0.78223,-0.07628 1.07894,0 0.29671,0.07628 0.0539,0.138689 -0.53947,0.138689 -0.59342,0 -0.83618,-0.06241 -0.53947,-0.138689 z"
     id="path117" /><path
     style="fill:#494949;fill-opacity:1;stroke-width:0.305755"
     d="m 25.950564,109.17377 11.628193,-0.0851 0.10048,-4.01458 0.100479,-4.01459 -0.01449,4.09404 -0.01449,4.09404 -11.714183,0.006 -11.714182,0.006 11.628194,-0.0851 z m 40.141485,-0.16966 c -0.08477,-0.21731 -0.110563,-2.16198 -0.05732,-4.32148 l 0.0968,-3.92637 0.067,4.16527 0.067,4.16528 9.016838,0.0852 9.016837,0.0851 -9.026511,0.0711 c -7.184101,0.0566 -9.057973,-0.01 -9.180636,-0.32407 z m 25.374377,0.17154 c 0.890124,-0.0613 2.34669,-0.0613 3.236814,0 0.890124,0.0613 0.161841,0.11139 -1.618407,0.11139 -1.780247,0 -2.50853,-0.0501 -1.618407,-0.11139 z m 15.259264,-0.003 c 3.00947,-0.0496 7.93405,-0.0496 10.94351,0 3.00947,0.0496 0.54718,0.0903 -5.47175,0.0903 -6.01894,0 -8.48123,-0.0406 -5.47176,-0.0903 z m 366.58985,-8.8709 c 0,-4.920425 0.0424,-6.933328 0.0942,-4.473113 0.0518,2.460215 0.0518,6.486023 0,8.946233 -0.0518,2.46022 -0.0942,0.44731 -0.0942,-4.47312 z M 18.865406,89.927919 18.792255,78.493056 16.557313,78.388397 14.32237,78.283736 16.566988,78.22348 c 1.562638,-0.04195 2.289686,0.05528 2.392952,0.320021 0.08159,0.209151 0.110148,5.429052 0.06348,11.59978 l -0.08486,11.219499 z m 176.239524,9.539475 -1.06234,-1.137234 1.156,1.045093 c 1.07599,0.972747 1.29775,1.229377 1.06235,1.229377 -0.0515,0 -0.57172,-0.51176 -1.15601,-1.137236 z m 61.97846,0.07582 c 0.57516,-0.58378 1.1151,-1.061418 1.19988,-1.061418 0.0848,0 -0.31646,0.477638 -0.89162,1.061418 -0.57516,0.583776 -1.1151,1.061416 -1.19988,1.061416 -0.0848,0 0.31646,-0.47764 0.89162,-1.061416 z M 36.286462,95.222781 c 1.907408,-0.0532 5.028621,-0.0532 6.936029,0 1.907408,0.05321 0.346802,0.09674 -3.468014,0.09674 -3.814816,0 -5.375423,-0.04353 -3.468015,-0.09674 z M 207.10465,85.820593 c -0.38344,-0.480992 -0.37254,-0.491718 0.11639,-0.114499 0.5135,0.396172 0.6768,0.645208 0.42308,0.645208 -0.064,0 -0.30677,-0.238819 -0.53947,-0.530709 z m 37.64802,0.41621 c 0,-0.06297 0.24276,-0.301792 0.53947,-0.530709 0.48893,-0.377219 0.49983,-0.366493 0.11639,0.114499 -0.40272,0.50516 -0.65586,0.665807 -0.65586,0.41621 z m 307.7001,-5.040958 c 0,-0.416986 0.07,-0.587571 0.15549,-0.379078 0.0855,0.208493 0.0855,0.549663 0,0.758155 -0.0855,0.208493 -0.15549,0.03791 -0.15549,-0.379077 z m 0,-2.122836 c 0,-0.416986 0.07,-0.587571 0.15549,-0.379078 0.0855,0.208493 0.0855,0.549663 0,0.758156 -0.0855,0.208493 -0.15549,0.03791 -0.15549,-0.379078 z M 37.3654,78.239775 c 2.331276,-0.05152 6.146092,-0.05152 8.477369,0 2.331276,0.05152 0.423868,0.09367 -4.238685,0.09367 -4.662553,0 -6.569961,-0.04215 -4.238684,-0.09367 z m 28.710647,-4.322224 c 0,-2.084928 0.04925,-2.937853 0.109448,-1.895389 0.06019,1.042464 0.06019,2.748314 0,3.790778 -0.0602,1.042464 -0.109448,0.189539 -0.109448,-1.895389 z M 182.50688,72.5276 c 0.0148,-0.353285 0.0878,-0.425143 0.18624,-0.183222 0.0891,0.218916 0.0781,0.48048 -0.0243,0.581254 -0.10243,0.100771 -0.17529,-0.07834 -0.16191,-0.398032 z m 87.23983,0 c 0.0148,-0.353285 0.0878,-0.425143 0.18624,-0.183222 0.089,0.218916 0.0781,0.48048 -0.0243,0.581254 -0.10243,0.100771 -0.17529,-0.07834 -0.16191,-0.398032 z m -78.26906,-4.293692 c 7.82367,-0.07465 9.17018,-0.153418 9.29373,-0.543656 0.0987,-0.311699 0.12869,-0.286246 0.0947,0.08029 -0.0464,0.50017 -0.6782,0.537129 -9.29373,0.543655 l -9.24392,0.007 9.14924,-0.0873 z m 60.16329,-0.24305 c -0.1004,-0.257385 -0.096,-0.553065 0.01,-0.657066 0.10572,-0.104004 0.19222,0.03632 0.19222,0.311826 0,0.452595 0.88483,0.509129 9.17097,0.585942 l 9.17097,0.08501 -9.18064,0.07113 c -8.03419,0.06224 -9.20345,0.01268 -9.36319,-0.396846 z m 31.72229,0.241175 c 2.50082,-0.05097 6.59308,-0.05097 9.0939,0 2.50083,0.05098 0.4547,0.09268 -4.54695,0.09268 -5.00165,0 -7.04777,-0.0417 -4.54695,-0.09268 z m 24.37203,-1.06e-4 c 2.51119,-0.05103 6.53409,-0.05091 8.93977,2.61e-4 2.40567,0.05118 0.35106,0.09293 -4.56581,0.09279 -4.91688,-1.42e-4 -6.88516,-0.04201 -4.37396,-0.09305 z m 19.63322,0.01352 c 7.27136,-0.21464 14.41819,-0.221673 14.28733,-0.01407 -0.0789,0.125096 -3.98471,0.198886 -8.67963,0.163977 -4.69495,-0.03491 -7.2184,-0.102369 -5.6077,-0.149914 z m 25.35504,-0.0134 c 2.50082,-0.05097 6.59308,-0.05097 9.09391,0 2.50082,0.05098 0.45469,0.09268 -4.54696,0.09268 -5.00164,0 -7.04777,-0.0417 -4.54695,-0.09268 z m 36.24054,-1.39e-4 c 2.59607,-0.05078 6.75769,-0.05067 9.24803,2.49e-4 2.49035,0.05091 0.36629,0.09246 -4.72013,0.09233 -5.08642,-1.37e-4 -7.12398,-0.04179 -4.5279,-0.09257 z m 34.19869,1.03e-4 c 2.5856,-0.05072 6.81657,-0.05072 9.40217,0 2.5856,0.05072 0.47011,0.09222 -4.70109,0.09222 -5.17119,0 -7.28668,-0.0415 -4.70108,-0.09222 z m 78.99366,0.0039 c 27.05196,-0.208535 47.78163,-0.210509 47.7816,-0.0045 -3e-5,0.125095 -13.07448,0.195206 -29.05432,0.155804 -15.97984,-0.03941 -24.40711,-0.107471 -18.72728,-0.151252 z m -28.9171,-18.731006 c 0.006,-0.500383 0.0754,-0.668371 0.15354,-0.373306 0.0781,0.295064 0.073,0.704468 -0.0114,0.909787 -0.0844,0.205318 -0.14837,-0.0361 -0.14211,-0.536481 z m 33.64137,-3.108371 c 7.43043,-0.04526 19.49912,-0.04524 26.81931,3.5e-5 7.32016,0.04528 1.24072,0.08231 -13.5099,0.08229 -14.75062,-1.9e-5 -20.73987,-0.03707 -13.30941,-0.08233 z M 415.45605,29.137159 c 0.21193,-0.08413 0.55874,-0.08413 0.77067,0 0.21193,0.08413 0.0385,0.152961 -0.38534,0.152961 -0.42386,0 -0.59726,-0.06883 -0.38533,-0.152961 z m 76.46972,-0.0063 c 0.22254,-0.0876 0.48842,-0.07683 0.59086,0.02394 0.10243,0.100771 -0.0797,0.172447 -0.4046,0.159279 -0.35914,-0.01455 -0.43217,-0.08641 -0.18626,-0.183221 z M 224.18165,26.095224 c 0.29993,-0.07689 0.7161,-0.07183 0.9248,0.01124 0.20871,0.08307 -0.0367,0.14598 -0.54533,0.1398 -0.50865,-0.0062 -0.67941,-0.07415 -0.37947,-0.151038 z m 3.39095,0 c 0.29993,-0.07689 0.71609,-0.07183 0.9248,0.01124 0.20871,0.08307 -0.0367,0.14598 -0.54534,0.1398 -0.50864,-0.0062 -0.6794,-0.07415 -0.37946,-0.151038 z"
     id="path115" /><path
     style="fill:#000000;fill-opacity:1;stroke-width:0.305755"
     d="M 9.8524847,69.065356 V 22.666235 H 284.51923 559.18598 V 69.065356 115.46448 H 284.51923 9.8524847 Z M 235.19636,111.37737 c 13.17565,-2.86648 24.40371,-11.438716 30.19766,-23.054863 2.61186,-5.236435 3.92877,-9.786209 4.49862,-15.542189 l 0.21766,-2.198651 h -9.28787 -9.28787 v 1.164539 c 0,1.628824 -1.01254,5.345339 -2.09782,7.699997 -3.17328,6.884893 -9.74583,12.265899 -17.20209,14.083504 -2.89638,0.706049 -9.06841,0.703829 -11.97498,-0.0043 -9.03263,-2.200638 -16.35179,-9.346557 -18.65746,-18.215867 -0.34298,-1.319333 -0.62359,-2.922832 -0.62359,-3.563328 v -1.164539 h -9.28787 -9.28787 l 0.21767,2.198651 c 0.55376,5.593544 1.86886,10.224325 4.32771,15.238927 6.09672,12.433739 17.98295,21.168229 32.21817,23.675239 3.17381,0.55896 12.88629,0.36681 16.02993,-0.31711 z m -197.359611,-6.14799 0.08602,-4.01823 h -2.475091 -2.475091 v -2.88099 -2.880991 h 6.781895 6.781895 v -4.09404 -4.09404 h -6.627761 -6.627762 v -4.397302 -4.397303 h 8.323235 8.323235 v 3.790778 3.790778 h 5.548823 5.548824 V 78.011591 69.975142 H 37.750735 14.476504 v 4.245671 4.245671 h 2.157876 2.157875 V 89.838818 101.21115 H 16.63438 14.476504 v 4.09769 4.09768 l 11.637115,-0.0795 11.637116,-0.0795 z m 46.308313,-0.0758 v -4.24567 h -2.312009 -2.31201 l 0.0034,-6.747585 0.0034,-6.747585 5.006007,10.614178 c 2.753304,5.837802 5.118234,10.784762 5.255401,10.993252 0.171665,0.26094 1.194218,0.37908 3.280899,0.37908 2.603724,0 3.060364,-0.0749 3.236028,-0.53071 1.007916,-2.61542 8.283632,-20.575281 8.374572,-20.672373 0.0651,-0.0695 0.11837,2.762215 0.11837,6.292691 l -2e-5,6.419052 h -1.69548 -1.69547 v 4.24567 4.24567 h 10.78938 10.78938 v -4.24567 -4.24567 h -2.46615 -2.46614 V 89.232293 77.556698 h 2.46614 2.46615 v -3.795039 -3.795035 l -9.73994,0.08007 -9.73993,0.08008 -4.209193,9.776037 c -2.315055,5.376818 -4.278552,9.776122 -4.363326,9.776225 -0.08477,1.03e-4 -2.22546,-4.435113 -4.757083,-9.856037 l -4.60295,-9.856226 -9.73151,0.08 -9.731511,0.08 -0.08656,3.714963 -0.08656,3.714962 h 2.321498 2.321498 v 11.675595 11.675597 h -2.312009 -2.31201 v 4.04349 c 0,2.22393 0.09248,4.13448 0.205513,4.24568 0.113029,0.11119 4.205287,0.20217 9.093905,0.20217 h 8.888391 z M 156.8963,89.990449 V 70.581667 h -10.01871 -10.01871 v 19.408782 19.408781 h 10.01871 10.01871 z m 154.13398,18.967321 c 0,-0.076 2.08081,-8.62036 4.62402,-18.987448 2.54321,-10.367089 4.62402,-18.970617 4.62402,-19.118952 0,-0.151116 -3.86044,-0.269703 -8.77977,-0.269703 h -8.77976 l -0.21847,0.833971 c -0.12016,0.458684 -0.72021,2.880991 -1.33344,5.382904 l -1.11497,4.548934 -1.00977,-4.245672 c -0.55538,-2.335119 -1.14245,-4.757426 -1.3046,-5.382904 l -0.29482,-1.137233 h -8.92788 c -4.91034,0 -8.92789,0.07876 -8.92789,0.175018 0,0.09626 2.08081,8.705822 4.62402,19.132359 2.54321,10.426536 4.62402,19.013506 4.62402,19.082136 0,0.0686 4.99394,0.12479 11.09764,0.12479 6.10371,0 11.09765,-0.0622 11.09765,-0.1382 z m 49.76447,-18.589095 c 2.53177,-10.299077 4.66344,-18.96441 4.73703,-19.256299 0.12515,-0.496301 -0.4481,-0.530709 -8.8419,-0.530709 -4.93663,0 -8.98234,0.03412 -8.99045,0.07582 -0.008,0.0417 -0.6079,2.464006 -1.33286,5.382905 l -1.31815,5.307089 -1.35555,-5.382905 -1.35554,-5.382904 h -8.66933 -8.6693 l 4.74526,18.878073 c 2.60992,10.382941 4.8034,19.048655 4.87446,19.257145 0.1,0.29359 2.54731,0.37889 10.85112,0.37823 l 10.72199,-9.1e-4 4.60322,-18.725588 z m 41.79111,-0.529857 V 70.581667 h -9.0939 -9.09391 v 19.257151 19.257152 h 9.09391 9.0939 z m 62.5784,0 V 70.581667 h -8.93977 -8.93977 v 9.55276 c 0,8.166403 -0.0652,9.55276 -0.4494,9.55276 -0.72467,0 -1.7361,-2.080021 -5.2719,-10.841625 l -3.33491,-8.263895 h -9.34397 c -5.13917,0 -9.34394,0.0772 -9.34394,0.171543 0,0.365489 12.72546,31.55573 13.44258,32.94794 1.42216,2.76093 3.48827,4.48346 6.13244,5.11267 0.50864,0.12104 6.57766,0.23403 13.48672,0.25111 l 12.56192,0.031 z m 65.74995,18.268422 c 4.84412,-1.49288 8.52401,-3.57443 11.89263,-6.72707 7.99934,-7.486487 11.45993,-18.306611 8.92883,-27.917512 l -0.71879,-2.72936 -11.00433,-0.07963 -11.00433,-0.07963 1.50046,1.515465 c 0.82526,0.833507 1.88839,2.302251 2.3625,3.263881 0.74832,1.517854 0.86201,2.108342 0.86201,4.477779 0,2.354512 -0.11569,2.963878 -0.84237,4.436938 -1.71545,3.477314 -5.62096,6.294393 -9.61805,6.937536 -1.09682,0.176483 -11.66711,0.298322 -25.97158,0.299365 l -24.12197,0.0018 v 8.803938 8.80394 l 27.51292,-0.0862 27.51291,-0.0862 z M 156.8963,57.086498 V 45.714164 h 14.18033 14.18032 V 37.374453 29.034742 H 147.03173 108.8065 v 8.339711 8.339711 h 14.02619 14.02619 v 11.372334 11.372333 h 10.01871 10.01871 z m 44.13604,9.152038 c 0.81563,-8.11738 6.37089,-15.859419 13.97247,-19.472594 4.24842,-2.019357 6.03684,-2.400983 11.25178,-2.400983 5.22462,0 7.01911,0.384363 11.25178,2.41002 7.64704,3.659696 13.15551,11.332963 13.97247,19.463557 l 0.20786,2.068664 9.21568,0.0804 9.21568,0.0804 -0.21063,-2.506496 c -1.55201,-18.468872 -14.52437,-33.776105 -32.57161,-38.43411 -15.14722,-3.909507 -30.75557,0.264792 -41.91961,11.210981 -7.47022,7.324452 -11.97488,16.847684 -12.80531,27.071488 l -0.2159,2.658124 9.21374,-0.08039 9.21374,-0.08039 z m 95.80775,1.841217 c -0.005,-0.208493 -2.05531,-9.044796 -4.55528,-19.636229 l -4.54541,-19.257151 -9.19723,-0.08038 -9.19723,-0.08038 0.21551,0.838537 c 0.11853,0.461195 2.22262,9.09485 4.67576,19.185901 2.45314,10.09105 4.53124,18.586183 4.618,18.878073 0.14554,0.489632 0.84807,0.530709 9.07675,0.530709 6.93494,0 8.9168,-0.08433 8.90913,-0.379078 z m 24.33501,-0.758155 c 0.1672,-0.625479 0.56832,-2.160744 0.89136,-3.4117 l 0.58737,-2.274467 0.33194,1.213049 c 0.18256,0.667177 0.58571,2.168325 0.89586,3.335884 l 0.56395,2.122836 8.45409,0.08079 c 4.64973,0.04443 8.54614,-0.02381 8.65866,-0.151631 0.11252,-0.127834 -1.96175,-8.966375 -4.6095,-19.641206 l -4.81406,-19.408782 -9.61439,-0.08012 -9.61437,-0.08012 -0.30193,1.141536 c -0.66868,2.528199 -9.28188,37.852274 -9.28122,38.063711 3.1e-4,0.125096 3.94891,0.227447 8.77448,0.227447 h 8.77375 z m 45.15182,0.606524 c 0.35235,-1.181855 9.43963,-38.362405 9.43963,-38.622187 0,-0.167071 -3.64114,-0.247869 -9.01113,-0.199958 l -9.01114,0.0804 -4.69449,19.257151 c -2.58196,10.591433 -4.70001,19.427736 -4.70679,19.636229 -0.01,0.294808 1.97045,0.379078 8.9067,0.379078 8.2285,0 8.93126,-0.04109 9.07722,-0.530709 z m 36.25894,-9.931838 V 47.533737 h 3.80088 3.80092 l 4.14907,10.386732 4.1491,10.386731 9.31302,0.08026 c 5.38964,0.04645 9.31302,-0.03499 9.31302,-0.193308 0,-0.150467 -2.61614,-6.80528 -5.81365,-14.788479 -3.19751,-7.983201 -6.33731,-15.865316 -6.97734,-17.515812 -1.35663,-3.498549 -2.53661,-4.95167 -4.85994,-5.984894 l -1.61581,-0.718595 -16.72354,-0.09036 -16.72354,-0.09036 v 19.726589 19.726588 h 9.09391 9.0939 z m 62.50358,-9.325313 0.0793,-19.636229 h -8.94202 -8.94202 v 19.509869 c 0,10.73043 0.0946,19.602934 0.2102,19.716675 0.11564,0.113742 4.10385,0.170603 8.86271,0.126357 l 8.65249,-0.08044 z m 84.71237,19.257151 c -0.54899,-1.441611 -2.97962,-5.230682 -4.49593,-7.008699 -3.49644,-4.099884 -8.04471,-7.111994 -12.94765,-8.574611 -2.2528,-0.672044 -2.71128,-0.690863 -20.79964,-0.853744 -19.63402,-0.176799 -19.62154,-0.175795 -20.16612,-1.624076 -0.31274,-0.83166 0.11766,-2.366676 0.80303,-2.863963 0.40861,-0.296483 6.42033,-0.379078 27.5911,-0.379078 h 27.06867 V 37.81752 29.01109 l -28.59186,0.102119 c -31.67727,0.11314 -29.78186,-0.0047 -34.29481,2.13138 -3.0238,1.431213 -6.59853,5.070416 -8.25544,8.404331 -1.71789,3.456643 -2.2983,6.045554 -2.27761,10.159284 0.0293,5.815954 1.60453,10.165978 4.83139,13.341597 2.78326,2.73904 6.72243,4.397478 11.86702,4.996145 1.10206,0.128244 15.02363,0.251108 30.93685,0.273027 27.4364,0.0378 28.92266,0.0124 28.731,-0.490851 z"
     id="path113" /></g></svg>
