<?xml version="1.0" encoding="UTF-8" standalone="no"?>
<!DOCTYPE svg PUBLIC "-//W3C//DTD SVG 1.1//EN" "http://www.w3.org/Graphics/SVG/1.1/DTD/svg11.dtd">
<svg width="323px" height="76px" version="1.1" xmlns="http://www.w3.org/2000/svg" xmlns:xlink="http://www.w3.org/1999/xlink" xml:space="preserve" style="fill-rule:evenodd;clip-rule:evenodd;stroke-linejoin:round;stroke-miterlimit:1.41421;">
    <rect x="230.501" y="2.009" width="91" height="71.99" style="fill:rgb(184,184,184);"/>
    <rect x="232.5" y="4" width="87" height="68"/>
    <g>
        <path d="M69.5,32l0,-13l-31,0l0,15l22,0l0,12l-22,0l0,12l8,0l0,10l-35,0l0,-10l8,0l0,-39l-7,0l0,-12l72,0l0,25l-15,0Z" style="fill:rgb(184,184,184);fill-rule:nonzero;stroke:black;stroke-width:1px;"/>
        <path d="M97.5,57l0,-39l-7,0l0,-11l26.66,0l16.97,34.9l17.71,-34.9l28.66,0l0,11l-7,0l-0.01,38.99l6.01,0.02l0,10.99l-32,0l0,-11l6,-0.01l-0.04,-23.44l-17.3,34.45l-8.32,0l-18.29,-35.3c-0.12,7.76 -0.02,16.53 -0.05,24.29c2,0.01 4,0.01 6,0.02c0,3.66 0,7.33 0,10.99l-25,0l0,-11l7,0Z" style="fill:rgb(184,184,184);fill-rule:nonzero;stroke:black;stroke-width:1px;"/>
        <rect x="187.5" y="32" width="31" height="11" style="fill:rgb(184,184,184);stroke:black;stroke-width:1px;"/>
        <path d="M258.63,22.05c-3.81,0.56 -5.51,4.47 -5.28,7.96l-11.85,-0.01l0,-22l69,0c0,4.56 0,9.11 0,13.67c-6.54,1.89 -11.25,6.33 -15.21,12.13c-6.39,10.15 -8.97,22.33 -8.79,34.19c-7.72,0 -15.44,0.04 -23.15,-0.02c1.32,-8.64 3.25,-17.28 6.85,-25.28c2.8,-5.19 7.76,-11.52 13.26,-15.71c2.37,-1.83 4.415,-3.48 7.46,-4.91l-32.29,-0.02l0,0Z" style="fill:rgb(184,184,184);fill-rule:nonzero;stroke:black;stroke-width:1px;"/>
    </g>
</svg>
